  0
SECTION
  2
HEADER
  9
$ANGBASE
  50
0.0
  9
$ANGDIR
  70
1
  9
$MEASUREMENT
  70
0
  0
ENDSEC
  0
SECTION
  2
TABLES
  0
TABLE
  2
LTYPE
  70
4
  0
LTYPE
  5
40F
  2
CONTINUOUS
  70
0
  3
Solid line
  72
65
  73
0
  40
0.0
  0
LTYPE
  5
410
  2
DASHDOT
 70
0
  3
Dash Dot ____ _ ____ _
 72
65
 73
4
 40
2.0
 49
1.25
 49
-0.25
 49
0.25
 49
-0.25
  0
LTYPE
  5
411
  2
DASHED
 70
0
  3
Dashed __ __ __ __ __
 72
65
 73
2
 40
0.75
 49
0.5
 49
-0.25
  0
LTYPE
  5
43B
  2
DOTTED
 70
0
  3
Dotted .  .  .  .
 72
65
 73
2
 40
0.2
 49
0.0
 49
-0.2
  0
ENDTAB
  0
TABLE
  2
STYLE
  70
4
  0
STYLE
  2
KICAD
  70
0
  40
0
  41
1
  42
1
  50
0
  71
0
  3
isocp.shx
  0
STYLE
  2
KICADB
  70
0
  40
0
  41
1
  42
1
  50
0
  71
0
  3
isocp.shx
  0
STYLE
  2
KICADI
  70
0
  40
0
  41
1
  42
1
  50
15
  71
0
  3
isocp.shx
  0
STYLE
  2
KICADBI
  70
0
  40
0
  41
1
  42
1
  50
15
  71
0
  3
isocp.shx
  0
ENDTAB
  0
TABLE
  2
LAYER
  70
1
  0
LAYER
  2
BLACK
  70
0
  62
7
  6
CONTINUOUS
  0
ENDTAB
  0
ENDSEC
  0
SECTION
  2
ENTITIES
0
LINE
8
BLACK
6
CONTINUOUS
10
0.9838835039370079
20
0.5741851181102362
11
0.9840127559055117
21
0.5742079133858268
0
LINE
8
BLACK
6
CONTINUOUS
10
0.9840127559055117
20
0.5742079133858268
11
0.9841263385826772
21
0.574142283464567
0
LINE
8
BLACK
6
CONTINUOUS
10
0.9841263385826772
20
0.574142283464567
11
0.9845099212598425
21
0.5740746850393701
0
LINE
8
BLACK
6
CONTINUOUS
10
0.9845099212598425
20
0.5740746850393701
11
0.9850975984251968
21
0.5735815354330709
0
LINE
8
BLACK
6
CONTINUOUS
10
0.9850975984251968
20
0.5735815354330709
11
0.9857619291338583
21
0.5731979921259842
0
LINE
8
BLACK
6
CONTINUOUS
10
0.9857619291338583
20
0.5731979921259842
11
0.985853031496063
21
0.5729476377952756
0
LINE
8
BLACK
6
CONTINUOUS
10
0.985853031496063
20
0.5729476377952756
11
0.9860571653543306
21
0.5727763779527559
0
LINE
8
BLACK
6
CONTINUOUS
10
0.9860571653543306
20
0.5727763779527559
11
0.9861903937007874
21
0.5720207874015748
0
LINE
8
BLACK
6
CONTINUOUS
10
0.9861903937007874
20
0.5720207874015748
11
0.9864527559055117
21
0.5713
0
LINE
8
BLACK
6
CONTINUOUS
10
0.9864527559055117
20
0.5713
11
0.9864527559055117
21
0.4887
0
LINE
8
BLACK
6
CONTINUOUS
10
0.9864527559055117
20
0.4887
11
0.9863851181102362
21
0.4883164566929133
0
LINE
8
BLACK
6
CONTINUOUS
10
0.9863851181102362
20
0.4883164566929133
11
0.9864079133858268
21
0.4881872440944882
0
LINE
8
BLACK
6
CONTINUOUS
10
0.9864079133858268
20
0.4881872440944882
11
0.9863422834645669
21
0.4880736220472441
0
LINE
8
BLACK
6
CONTINUOUS
10
0.9863422834645669
20
0.4880736220472441
11
0.9862746850393701
21
0.4876900787401575
0
LINE
8
BLACK
6
CONTINUOUS
10
0.9862746850393701
20
0.4876900787401575
11
0.9857815354330709
21
0.4871023622047244
0
LINE
8
BLACK
6
CONTINUOUS
10
0.9857815354330709
20
0.4871023622047244
11
0.9853979921259842
21
0.4864380708661417
0
LINE
8
BLACK
6
CONTINUOUS
10
0.9853979921259842
20
0.4864380708661417
11
0.9851476377952756
21
0.4863469291338582
0
LINE
8
BLACK
6
CONTINUOUS
10
0.9851476377952756
20
0.4863469291338582
11
0.9849763779527558
21
0.4861428346456693
0
LINE
8
BLACK
6
CONTINUOUS
10
0.9849763779527558
20
0.4861428346456693
11
0.9842207874015748
21
0.4860095669291338
0
LINE
8
BLACK
6
CONTINUOUS
10
0.9842207874015748
20
0.4860095669291338
11
0.9834999999999999
21
0.4857472440944882
0
LINE
8
BLACK
6
CONTINUOUS
10
0.9834999999999999
20
0.4857472440944882
11
0.9165
21
0.4857472440944882
0
LINE
8
BLACK
6
CONTINUOUS
10
0.9165
20
0.4857472440944882
11
0.9161164566929134
21
0.485814842519685
0
LINE
8
BLACK
6
CONTINUOUS
10
0.9161164566929134
20
0.485814842519685
11
0.9159872440944882
21
0.4857920866141732
0
LINE
8
BLACK
6
CONTINUOUS
10
0.9159872440944882
20
0.4857920866141732
11
0.9158736220472441
21
0.4858576771653543
0
LINE
8
BLACK
6
CONTINUOUS
10
0.9158736220472441
20
0.4858576771653543
11
0.9154900787401574
21
0.4859253149606299
0
LINE
8
BLACK
6
CONTINUOUS
10
0.9154900787401574
20
0.4859253149606299
11
0.9149023622047244
21
0.4864184251968504
0
LINE
8
BLACK
6
CONTINUOUS
10
0.9149023622047244
20
0.4864184251968504
11
0.9142380708661417
21
0.4868020078740157
0
LINE
8
BLACK
6
CONTINUOUS
10
0.9142380708661417
20
0.4868020078740157
11
0.9141469291338582
21
0.4870523228346457
0
LINE
8
BLACK
6
CONTINUOUS
10
0.9141469291338582
20
0.4870523228346457
11
0.9139428346456693
21
0.4872236220472441
0
LINE
8
BLACK
6
CONTINUOUS
10
0.9139428346456693
20
0.4872236220472441
11
0.9138095669291338
21
0.4879791732283464
0
LINE
8
BLACK
6
CONTINUOUS
10
0.9138095669291338
20
0.4879791732283464
11
0.9135472440944882
21
0.4887
0
LINE
8
BLACK
6
CONTINUOUS
10
0.9135472440944882
20
0.4887
11
0.9135472440944882
21
0.5713
0
LINE
8
BLACK
6
CONTINUOUS
10
0.9135472440944882
20
0.5713
11
0.9136148425196851
21
0.5716835039370078
0
LINE
8
BLACK
6
CONTINUOUS
10
0.9136148425196851
20
0.5716835039370078
11
0.9135920866141732
21
0.5718127559055118
0
LINE
8
BLACK
6
CONTINUOUS
10
0.9135920866141732
20
0.5718127559055118
11
0.9136576771653543
21
0.5719263385826772
0
LINE
8
BLACK
6
CONTINUOUS
10
0.9136576771653543
20
0.5719263385826772
11
0.9137253149606299
21
0.5723099212598425
0
LINE
8
BLACK
6
CONTINUOUS
10
0.9137253149606299
20
0.5723099212598425
11
0.9142184251968504
21
0.5728975984251968
0
LINE
8
BLACK
6
CONTINUOUS
10
0.9142184251968504
20
0.5728975984251968
11
0.9146020078740157
21
0.5735619291338583
0
LINE
8
BLACK
6
CONTINUOUS
10
0.9146020078740157
20
0.5735619291338583
11
0.9148523228346457
21
0.5736530314960629
0
LINE
8
BLACK
6
CONTINUOUS
10
0.9148523228346457
20
0.5736530314960629
11
0.9150236220472441
21
0.5738571653543307
0
LINE
8
BLACK
6
CONTINUOUS
10
0.9150236220472441
20
0.5738571653543307
11
0.9157791732283465
21
0.5739903937007874
0
LINE
8
BLACK
6
CONTINUOUS
10
0.9157791732283465
20
0.5739903937007874
11
0.9165
21
0.5742527559055118
0
LINE
8
BLACK
6
CONTINUOUS
10
0.9165
20
0.5742527559055118
11
0.9834999999999999
21
0.5742527559055118
0
LINE
8
BLACK
6
CONTINUOUS
10
0.9834999999999999
20
0.5742527559055118
11
0.9838835039370079
21
0.5741851181102362
0
LINE
8
BLACK
6
CONTINUOUS
10
0.9194527559055118
20
0.5683472440944882
11
0.9194527559055118
21
0.4916527559055118
0
LINE
8
BLACK
6
CONTINUOUS
10
0.9194527559055118
20
0.4916527559055118
11
0.9805472440944881
21
0.4916527559055118
0
LINE
8
BLACK
6
CONTINUOUS
10
0.9805472440944881
20
0.4916527559055118
11
0.9805472440944881
21
0.5683472440944882
0
LINE
8
BLACK
6
CONTINUOUS
10
0.9805472440944881
20
0.5683472440944882
11
0.9194527559055118
21
0.5683472440944882
0
LINE
8
BLACK
6
CONTINUOUS
10
1.0741835039370078
20
0.5765851181102362
11
1.0743127559055119
21
0.5766079133858267
0
LINE
8
BLACK
6
CONTINUOUS
10
1.0743127559055119
20
0.5766079133858267
11
1.0744263385826771
21
0.5765422834645669
0
LINE
8
BLACK
6
CONTINUOUS
10
1.0744263385826771
20
0.5765422834645669
11
1.0748099212598425
21
0.57647468503937
0
LINE
8
BLACK
6
CONTINUOUS
10
1.0748099212598425
20
0.57647468503937
11
1.0753975984251969
21
0.5759815354330708
0
LINE
8
BLACK
6
CONTINUOUS
10
1.0753975984251969
20
0.5759815354330708
11
1.0760619291338582
21
0.5755979921259843
0
LINE
8
BLACK
6
CONTINUOUS
10
1.0760619291338582
20
0.5755979921259843
11
1.076153031496063
21
0.5753476377952755
0
LINE
8
BLACK
6
CONTINUOUS
10
1.076153031496063
20
0.5753476377952755
11
1.0763571653543307
21
0.5751763779527559
0
LINE
8
BLACK
6
CONTINUOUS
10
1.0763571653543307
20
0.5751763779527559
11
1.0764903937007875
21
0.5744207874015748
0
LINE
8
BLACK
6
CONTINUOUS
10
1.0764903937007875
20
0.5744207874015748
11
1.0767527559055119
21
0.5737
0
LINE
8
BLACK
6
CONTINUOUS
10
1.0767527559055119
20
0.5737
11
1.0767527559055119
21
0.4911
0
LINE
8
BLACK
6
CONTINUOUS
10
1.0767527559055119
20
0.4911
11
1.0766851181102362
21
0.4907164566929134
0
LINE
8
BLACK
6
CONTINUOUS
10
1.0766851181102362
20
0.4907164566929134
11
1.0767079133858268
21
0.4905872440944882
0
LINE
8
BLACK
6
CONTINUOUS
10
1.0767079133858268
20
0.4905872440944882
11
1.0766422834645668
21
0.4904736220472441
0
LINE
8
BLACK
6
CONTINUOUS
10
1.0766422834645668
20
0.4904736220472441
11
1.07657468503937
21
0.4900900787401575
0
LINE
8
BLACK
6
CONTINUOUS
10
1.07657468503937
20
0.4900900787401575
11
1.0760815354330708
21
0.4895023622047244
0
LINE
8
BLACK
6
CONTINUOUS
10
1.0760815354330708
20
0.4895023622047244
11
1.0756979921259842
21
0.4888380708661417
0
LINE
8
BLACK
6
CONTINUOUS
10
1.0756979921259842
20
0.4888380708661417
11
1.0754476377952755
21
0.4887469291338583
0
LINE
8
BLACK
6
CONTINUOUS
10
1.0754476377952755
20
0.4887469291338583
11
1.0752763779527559
21
0.4885428346456693
0
LINE
8
BLACK
6
CONTINUOUS
10
1.0752763779527559
20
0.4885428346456693
11
1.0745207874015748
21
0.4884095669291338
0
LINE
8
BLACK
6
CONTINUOUS
10
1.0745207874015748
20
0.4884095669291338
11
1.0737999999999999
21
0.4881472440944882
0
LINE
8
BLACK
6
CONTINUOUS
10
1.0737999999999999
20
0.4881472440944882
11
1.0067999999999999
21
0.4881472440944882
0
LINE
8
BLACK
6
CONTINUOUS
10
1.0067999999999999
20
0.4881472440944882
11
1.0064164566929135
21
0.4882148425196851
0
LINE
8
BLACK
6
CONTINUOUS
10
1.0064164566929135
20
0.4882148425196851
11
1.0062872440944881
21
0.4881920866141732
0
LINE
8
BLACK
6
CONTINUOUS
10
1.0062872440944881
20
0.4881920866141732
11
1.0061736220472441
21
0.4882576771653543
0
LINE
8
BLACK
6
CONTINUOUS
10
1.0061736220472441
20
0.4882576771653543
11
1.0057900787401575
21
0.4883253149606299
0
LINE
8
BLACK
6
CONTINUOUS
10
1.0057900787401575
20
0.4883253149606299
11
1.0052023622047244
21
0.4888184251968504
0
LINE
8
BLACK
6
CONTINUOUS
10
1.0052023622047244
20
0.4888184251968504
11
1.0045380708661418
21
0.4892020078740157
0
LINE
8
BLACK
6
CONTINUOUS
10
1.0045380708661418
20
0.4892020078740157
11
1.0044469291338582
21
0.4894523228346457
0
LINE
8
BLACK
6
CONTINUOUS
10
1.0044469291338582
20
0.4894523228346457
11
1.0042428346456693
21
0.4896236220472441
0
LINE
8
BLACK
6
CONTINUOUS
10
1.0042428346456693
20
0.4896236220472441
11
1.0041095669291338
21
0.4903791732283465
0
LINE
8
BLACK
6
CONTINUOUS
10
1.0041095669291338
20
0.4903791732283465
11
1.0038472440944881
21
0.4911
0
LINE
8
BLACK
6
CONTINUOUS
10
1.0038472440944881
20
0.4911
11
1.0038472440944881
21
0.5737
0
LINE
8
BLACK
6
CONTINUOUS
10
1.0038472440944881
20
0.5737
11
1.0039148425196851
21
0.5740835039370079
0
LINE
8
BLACK
6
CONTINUOUS
10
1.0039148425196851
20
0.5740835039370079
11
1.0038920866141732
21
0.5742127559055118
0
LINE
8
BLACK
6
CONTINUOUS
10
1.0038920866141732
20
0.5742127559055118
11
1.0039576771653542
21
0.5743263385826771
0
LINE
8
BLACK
6
CONTINUOUS
10
1.0039576771653542
20
0.5743263385826771
11
1.00402531496063
21
0.5747099212598425
0
LINE
8
BLACK
6
CONTINUOUS
10
1.00402531496063
20
0.5747099212598425
11
1.0045184251968504
21
0.5752975984251968
0
LINE
8
BLACK
6
CONTINUOUS
10
1.0045184251968504
20
0.5752975984251968
11
1.0049020078740156
21
0.5759619291338582
0
LINE
8
BLACK
6
CONTINUOUS
10
1.0049020078740156
20
0.5759619291338582
11
1.0051523228346457
21
0.576053031496063
0
LINE
8
BLACK
6
CONTINUOUS
10
1.0051523228346457
20
0.576053031496063
11
1.0053236220472441
21
0.5762571653543307
0
LINE
8
BLACK
6
CONTINUOUS
10
1.0053236220472441
20
0.5762571653543307
11
1.0060791732283465
21
0.5763903937007874
0
LINE
8
BLACK
6
CONTINUOUS
10
1.0060791732283465
20
0.5763903937007874
11
1.0067999999999999
21
0.5766527559055118
0
LINE
8
BLACK
6
CONTINUOUS
10
1.0067999999999999
20
0.5766527559055118
11
1.0737999999999999
21
0.5766527559055118
0
LINE
8
BLACK
6
CONTINUOUS
10
1.0737999999999999
20
0.5766527559055118
11
1.0741835039370078
21
0.5765851181102362
0
LINE
8
BLACK
6
CONTINUOUS
10
1.0097527559055117
20
0.5707472440944882
11
1.0097527559055117
21
0.4940527559055118
0
LINE
8
BLACK
6
CONTINUOUS
10
1.0097527559055117
20
0.4940527559055118
11
1.0708472440944881
21
0.4940527559055118
0
LINE
8
BLACK
6
CONTINUOUS
10
1.0708472440944881
20
0.4940527559055118
11
1.0708472440944881
21
0.5707472440944882
0
LINE
8
BLACK
6
CONTINUOUS
10
1.0708472440944881
20
0.5707472440944882
11
1.0097527559055117
21
0.5707472440944882
0
LINE
8
BLACK
6
CONTINUOUS
10
0.9662445669291339
20
0.6155262204724409
11
0.9681193700787402
21
0.6136514566929133
0
LINE
8
BLACK
6
CONTINUOUS
10
0.9681193700787402
20
0.6136514566929133
11
0.968625748031496
21
0.6129282677165354
0
LINE
8
BLACK
6
CONTINUOUS
10
0.968625748031496
20
0.6129282677165354
11
0.9686725196850393
21
0.6128840157480315
0
LINE
8
BLACK
6
CONTINUOUS
10
0.9686725196850393
20
0.6128840157480315
11
0.9705472834645669
21
0.6091344881889764
0
LINE
8
BLACK
6
CONTINUOUS
10
0.9705472834645669
20
0.6091344881889764
11
0.9708396456692913
21
0.6081515748031496
0
LINE
8
BLACK
6
CONTINUOUS
10
0.9708396456692913
20
0.6081515748031496
11
0.9707986220472441
21
0.6079798425196851
0
LINE
8
BLACK
6
CONTINUOUS
10
0.9707986220472441
20
0.6079798425196851
11
0.9708590157480315
21
0.6078139763779528
0
LINE
8
BLACK
6
CONTINUOUS
10
0.9708590157480315
20
0.6078139763779528
11
0.9708590157480315
21
0.5965653937007874
0
LINE
8
BLACK
6
CONTINUOUS
10
0.9708590157480315
20
0.5965653937007874
11
0.9706809448818897
21
0.5955554724409449
0
LINE
8
BLACK
6
CONTINUOUS
10
0.9706809448818897
20
0.5955554724409449
11
0.9705674409448819
21
0.5954201968503937
0
LINE
8
BLACK
6
CONTINUOUS
10
0.9705674409448819
20
0.5954201968503937
11
0.9705472834645669
21
0.5952448818897638
0
LINE
8
BLACK
6
CONTINUOUS
10
0.9705472834645669
20
0.5952448818897638
11
0.9686725196850393
21
0.5914953543307087
0
LINE
8
BLACK
6
CONTINUOUS
10
0.9686725196850393
20
0.5914953543307087
11
0.9681465354330708
21
0.5907862204724409
0
LINE
8
BLACK
6
CONTINUOUS
10
0.9681465354330708
20
0.5907862204724409
11
0.9681193700787402
21
0.5907279133858268
0
LINE
8
BLACK
6
CONTINUOUS
10
0.9681193700787402
20
0.5907279133858268
11
0.9662445669291339
21
0.5888531496062992
0
LINE
8
BLACK
6
CONTINUOUS
10
0.9662445669291339
20
0.5888531496062992
11
0.9655214960629921
21
0.5883468503937008
0
LINE
8
BLACK
6
CONTINUOUS
10
0.9655214960629921
20
0.5883468503937008
11
0.9654772047244095
21
0.5883000787401574
0
LINE
8
BLACK
6
CONTINUOUS
10
0.9654772047244095
20
0.5883000787401574
11
0.9617276771653543
21
0.5864253149606299
0
LINE
8
BLACK
6
CONTINUOUS
10
0.9617276771653543
20
0.5864253149606299
11
0.9607447244094488
21
0.5861329527559055
0
LINE
8
BLACK
6
CONTINUOUS
10
0.9607447244094488
20
0.5861329527559055
11
0.960573031496063
21
0.586173937007874
0
LINE
8
BLACK
6
CONTINUOUS
10
0.960573031496063
20
0.586173937007874
11
0.9604071653543307
21
0.5861135826771653
0
LINE
8
BLACK
6
CONTINUOUS
10
0.9604071653543307
20
0.5861135826771653
11
0.9510333464566929
21
0.5861135826771653
0
LINE
8
BLACK
6
CONTINUOUS
10
0.9510333464566929
20
0.5861135826771653
11
0.9500234251968503
21
0.586291653543307
0
LINE
8
BLACK
6
CONTINUOUS
10
0.9500234251968503
20
0.586291653543307
11
0.9498881496062992
21
0.5864051181102362
0
LINE
8
BLACK
6
CONTINUOUS
10
0.9498881496062992
20
0.5864051181102362
11
0.9497128346456692
21
0.5864253149606299
0
LINE
8
BLACK
6
CONTINUOUS
10
0.9497128346456692
20
0.5864253149606299
11
0.9459633070866141
21
0.5883000787401574
0
LINE
8
BLACK
6
CONTINUOUS
10
0.9459633070866141
20
0.5883000787401574
11
0.9452542125984251
21
0.5888259448818898
0
LINE
8
BLACK
6
CONTINUOUS
10
0.9452542125984251
20
0.5888259448818898
11
0.945195905511811
21
0.588853188976378
0
LINE
8
BLACK
6
CONTINUOUS
10
0.945195905511811
20
0.588853188976378
11
0.9433211417322834
21
0.5907279527559055
0
LINE
8
BLACK
6
CONTINUOUS
10
0.9433211417322834
20
0.5907279527559055
11
0.9428148425196851
21
0.5914510236220473
0
LINE
8
BLACK
6
CONTINUOUS
10
0.9428148425196851
20
0.5914510236220473
11
0.9427680314960629
21
0.5914953543307087
0
LINE
8
BLACK
6
CONTINUOUS
10
0.9427680314960629
20
0.5914953543307087
11
0.9408932677165354
21
0.5952448818897638
0
LINE
8
BLACK
6
CONTINUOUS
10
0.9408932677165354
20
0.5952448818897638
11
0.9407255905511811
21
0.5958085433070865
0
LINE
8
BLACK
6
CONTINUOUS
10
0.9407255905511811
20
0.5958085433070865
11
0.930480590551181
21
0.5868441732283465
0
LINE
8
BLACK
6
CONTINUOUS
10
0.930480590551181
20
0.5868441732283465
11
0.9301007086614173
21
0.5866142519685039
0
LINE
8
BLACK
6
CONTINUOUS
10
0.9301007086614173
20
0.5866142519685039
11
0.930012559055118
21
0.5865091732283464
0
LINE
8
BLACK
6
CONTINUOUS
10
0.930012559055118
20
0.5865091732283464
11
0.929891968503937
21
0.5864879133858267
0
LINE
8
BLACK
6
CONTINUOUS
10
0.929891968503937
20
0.5864879133858267
11
0.9296032677165355
21
0.5863131496062992
0
LINE
8
BLACK
6
CONTINUOUS
10
0.9296032677165355
20
0.5863131496062992
11
0.9288074015748031
21
0.5862966535433071
0
LINE
8
BLACK
6
CONTINUOUS
10
0.9288074015748031
20
0.5862966535433071
11
0.9280234251968503
21
0.5861584251968504
0
LINE
8
BLACK
6
CONTINUOUS
10
0.9280234251968503
20
0.5861584251968504
11
0.9278194094488189
21
0.5862761811023622
0
LINE
8
BLACK
6
CONTINUOUS
10
0.9278194094488189
20
0.5862761811023622
11
0.927583937007874
21
0.5862713385826771
0
LINE
8
BLACK
6
CONTINUOUS
10
0.927583937007874
20
0.5862713385826771
11
0.9269636614173228
21
0.5867702755905512
0
LINE
8
BLACK
6
CONTINUOUS
10
0.9269636614173228
20
0.5867702755905512
11
0.9262742519685039
21
0.5871683464566929
0
LINE
8
BLACK
6
CONTINUOUS
10
0.9262742519685039
20
0.5871683464566929
11
0.9261936614173228
21
0.5873896850393701
0
LINE
8
BLACK
6
CONTINUOUS
10
0.9261936614173228
20
0.5873896850393701
11
0.9260101181102361
21
0.5875373622047244
0
LINE
8
BLACK
6
CONTINUOUS
10
0.9260101181102361
20
0.5875373622047244
11
0.9258556692913386
21
0.5883183070866141
0
LINE
8
BLACK
6
CONTINUOUS
10
0.9258556692913386
20
0.5883183070866141
11
0.9255834251968503
21
0.5890663385826772
0
LINE
8
BLACK
6
CONTINUOUS
10
0.9255834251968503
20
0.5890663385826772
11
0.9255834251968503
21
0.6134382677165354
0
LINE
8
BLACK
6
CONTINUOUS
10
0.9255834251968503
20
0.6134382677165354
11
0.9257614960629921
21
0.614448188976378
0
LINE
8
BLACK
6
CONTINUOUS
10
0.9257614960629921
20
0.614448188976378
11
0.9270598031496062
21
0.6159954330708661
0
LINE
8
BLACK
6
CONTINUOUS
10
0.9270598031496062
20
0.6159954330708661
11
0.9290489370078739
21
0.6163461811023622
0
LINE
8
BLACK
6
CONTINUOUS
10
0.9290489370078739
20
0.6163461811023622
11
0.9307981102362205
21
0.6153362598425197
0
LINE
8
BLACK
6
CONTINUOUS
10
0.9307981102362205
20
0.6153362598425197
11
0.9314889370078739
21
0.6134382677165354
0
LINE
8
BLACK
6
CONTINUOUS
10
0.9314889370078739
20
0.6134382677165354
11
0.9314889370078739
21
0.5955735039370078
0
LINE
8
BLACK
6
CONTINUOUS
10
0.9314889370078739
20
0.5955735039370078
11
0.9415898818897638
21
0.6044118503937008
0
LINE
8
BLACK
6
CONTINUOUS
10
0.9415898818897638
20
0.6044118503937008
11
0.9419697244094488
21
0.6046417322834645
0
LINE
8
BLACK
6
CONTINUOUS
10
0.9419697244094488
20
0.6046417322834645
11
0.9420579133858268
21
0.6047468503937008
0
LINE
8
BLACK
6
CONTINUOUS
10
0.9420579133858268
20
0.6047468503937008
11
0.9421784645669291
21
0.6047680708661417
0
LINE
8
BLACK
6
CONTINUOUS
10
0.9421784645669291
20
0.6047680708661417
11
0.9424672047244095
21
0.604942874015748
0
LINE
8
BLACK
6
CONTINUOUS
10
0.9424672047244095
20
0.604942874015748
11
0.9432630314960629
21
0.6049593307086614
0
LINE
8
BLACK
6
CONTINUOUS
10
0.9432630314960629
20
0.6049593307086614
11
0.9440470472440945
21
0.6050975984251968
0
LINE
8
BLACK
6
CONTINUOUS
10
0.9440470472440945
20
0.6050975984251968
11
0.9442510236220473
21
0.6049798031496063
0
LINE
8
BLACK
6
CONTINUOUS
10
0.9442510236220473
20
0.6049798031496063
11
0.9444865748031496
21
0.6049846850393701
0
LINE
8
BLACK
6
CONTINUOUS
10
0.9444865748031496
20
0.6049846850393701
11
0.9451068503937008
21
0.6044856692913386
0
LINE
8
BLACK
6
CONTINUOUS
10
0.9451068503937008
20
0.6044856692913386
11
0.9457962204724409
21
0.6040876771653543
0
LINE
8
BLACK
6
CONTINUOUS
10
0.9457962204724409
20
0.6040876771653543
11
0.9458767716535433
21
0.6038662992125984
0
LINE
8
BLACK
6
CONTINUOUS
10
0.9458767716535433
20
0.6038662992125984
11
0.9460603543307087
21
0.6037186614173228
0
LINE
8
BLACK
6
CONTINUOUS
10
0.9460603543307087
20
0.6037186614173228
11
0.9462147637795275
21
0.6029376771653543
0
LINE
8
BLACK
6
CONTINUOUS
10
0.9462147637795275
20
0.6029376771653543
11
0.9464870472440945
21
0.6021896850393701
0
LINE
8
BLACK
6
CONTINUOUS
10
0.9464870472440945
20
0.6021896850393701
11
0.9464870472440945
21
0.5972624409448819
0
LINE
8
BLACK
6
CONTINUOUS
10
0.9464870472440945
20
0.5972624409448819
11
0.9478357874015748
21
0.5945649606299213
0
LINE
8
BLACK
6
CONTINUOUS
10
0.9478357874015748
20
0.5945649606299213
11
0.9490329133858267
21
0.5933678346456692
0
LINE
8
BLACK
6
CONTINUOUS
10
0.9490329133858267
20
0.5933678346456692
11
0.9517303937007874
21
0.592019094488189
0
LINE
8
BLACK
6
CONTINUOUS
10
0.9517303937007874
20
0.592019094488189
11
0.9597101181102362
21
0.592019094488189
0
LINE
8
BLACK
6
CONTINUOUS
10
0.9597101181102362
20
0.592019094488189
11
0.9624075984251969
21
0.5933678346456692
0
LINE
8
BLACK
6
CONTINUOUS
10
0.9624075984251969
20
0.5933678346456692
11
0.9636047637795275
21
0.5945649606299213
0
LINE
8
BLACK
6
CONTINUOUS
10
0.9636047637795275
20
0.5945649606299213
11
0.9649535039370079
21
0.5972624409448819
0
LINE
8
BLACK
6
CONTINUOUS
10
0.9649535039370079
20
0.5972624409448819
11
0.9649535039370079
21
0.6071169291338583
0
LINE
8
BLACK
6
CONTINUOUS
10
0.9649535039370079
20
0.6071169291338583
11
0.9636047637795275
21
0.6098143700787402
0
LINE
8
BLACK
6
CONTINUOUS
10
0.9636047637795275
20
0.6098143700787402
11
0.9620688188976377
21
0.6113503149606299
0
LINE
8
BLACK
6
CONTINUOUS
10
0.9620688188976377
20
0.6113503149606299
11
0.9614805905511811
21
0.6121903543307087
0
LINE
8
BLACK
6
CONTINUOUS
10
0.9614805905511811
20
0.6121903543307087
11
0.961304527559055
21
0.6142024803149606
0
LINE
8
BLACK
6
CONTINUOUS
10
0.961304527559055
20
0.6142024803149606
11
0.9624630314960629
21
0.6158570472440945
0
LINE
8
BLACK
6
CONTINUOUS
10
0.9624630314960629
20
0.6158570472440945
11
0.9644140157480314
21
0.6163797637795275
0
LINE
8
BLACK
6
CONTINUOUS
10
0.9644140157480314
20
0.6163797637795275
11
0.9662445669291339
21
0.6155262204724409
0
LINE
8
BLACK
6
CONTINUOUS
10
1.0585359448818898
20
0.6162786614173228
11
1.0586705118110236
21
0.6162904330708662
0
LINE
8
BLACK
6
CONTINUOUS
10
1.0586705118110236
20
0.6162904330708662
11
1.0593986614173228
21
0.6157805511811023
0
LINE
8
BLACK
6
CONTINUOUS
10
1.0593986614173228
20
0.6157805511811023
11
1.0601681889763779
21
0.6153362598425197
0
LINE
8
BLACK
6
CONTINUOUS
10
1.0601681889763779
20
0.6153362598425197
11
1.0602143307086613
21
0.6152093700787401
0
LINE
8
BLACK
6
CONTINUOUS
10
1.0602143307086613
20
0.6152093700787401
11
1.0603250393700787
21
0.6151318897637795
0
LINE
8
BLACK
6
CONTINUOUS
10
1.0603250393700787
20
0.6151318897637795
11
1.0605550393700787
21
0.6142733464566928
0
LINE
8
BLACK
6
CONTINUOUS
10
1.0605550393700787
20
0.6142733464566928
11
1.0608590157480315
21
0.6134382677165354
0
LINE
8
BLACK
6
CONTINUOUS
10
1.0608590157480315
20
0.6134382677165354
11
1.0608590157480315
21
0.5890663385826772
0
LINE
8
BLACK
6
CONTINUOUS
10
1.0608590157480315
20
0.5890663385826772
11
1.0606809448818897
21
0.5880564173228346
0
LINE
8
BLACK
6
CONTINUOUS
10
1.0606809448818897
20
0.5880564173228346
11
1.0593826377952755
21
0.5865091732283464
0
LINE
8
BLACK
6
CONTINUOUS
10
1.0593826377952755
20
0.5865091732283464
11
1.0573935039370079
21
0.5861584251968504
0
LINE
8
BLACK
6
CONTINUOUS
10
1.0573935039370079
20
0.5861584251968504
11
1.0556443307086614
21
0.5871683464566929
0
LINE
8
BLACK
6
CONTINUOUS
10
1.0556443307086614
20
0.5871683464566929
11
1.0549535039370079
21
0.5890663385826772
0
LINE
8
BLACK
6
CONTINUOUS
10
1.0549535039370079
20
0.5890663385826772
11
1.0549535039370079
21
0.6063096850393701
0
LINE
8
BLACK
6
CONTINUOUS
10
1.0549535039370079
20
0.6063096850393701
11
1.037496968503937
21
0.588853188976378
0
LINE
8
BLACK
6
CONTINUOUS
10
1.037496968503937
20
0.588853188976378
11
1.0366569291338583
21
0.588265
0
LINE
8
BLACK
6
CONTINUOUS
10
1.0366569291338583
20
0.588265
11
1.0364810629921259
21
0.5882496062992126
0
LINE
8
BLACK
6
CONTINUOUS
10
1.0364810629921259
20
0.5882496062992126
11
1.0363427952755906
21
0.5881398818897637
0
LINE
8
BLACK
6
CONTINUOUS
10
1.0363427952755906
20
0.5881398818897637
11
1.0307185039370079
21
0.5862651181102362
0
LINE
8
BLACK
6
CONTINUOUS
10
1.0307185039370079
20
0.5862651181102362
11
1.0298453149606299
21
0.5861356299212598
0
LINE
8
BLACK
6
CONTINUOUS
10
1.0298453149606299
20
0.5861356299212598
11
1.0297847637795274
21
0.5861135826771653
0
LINE
8
BLACK
6
CONTINUOUS
10
1.0297847637795274
20
0.5861135826771653
11
1.0260352362204723
21
0.5861135826771653
0
LINE
8
BLACK
6
CONTINUOUS
10
1.0260352362204723
20
0.5861135826771653
11
1.0250253149606299
21
0.586291653543307
0
LINE
8
BLACK
6
CONTINUOUS
10
1.0250253149606299
20
0.586291653543307
11
1.0248900393700786
21
0.5864051181102362
0
LINE
8
BLACK
6
CONTINUOUS
10
1.0248900393700786
20
0.5864051181102362
11
1.0247147244094488
21
0.5864253149606299
0
LINE
8
BLACK
6
CONTINUOUS
10
1.0247147244094488
20
0.5864253149606299
11
1.0209651968503937
21
0.5883000787401574
0
LINE
8
BLACK
6
CONTINUOUS
10
1.0209651968503937
20
0.5883000787401574
11
1.0202561023622048
21
0.5888259448818898
0
LINE
8
BLACK
6
CONTINUOUS
10
1.0202561023622048
20
0.5888259448818898
11
1.0201977952755905
21
0.588853188976378
0
LINE
8
BLACK
6
CONTINUOUS
10
1.0201977952755905
20
0.588853188976378
11
1.018323031496063
21
0.5907279527559055
0
LINE
8
BLACK
6
CONTINUOUS
10
1.018323031496063
20
0.5907279527559055
11
1.0178167322834646
21
0.5914510236220473
0
LINE
8
BLACK
6
CONTINUOUS
10
1.0178167322834646
20
0.5914510236220473
11
1.0177699212598426
21
0.5914953543307087
0
LINE
8
BLACK
6
CONTINUOUS
10
1.0177699212598426
20
0.5914953543307087
11
1.015895157480315
21
0.5952448818897638
0
LINE
8
BLACK
6
CONTINUOUS
10
1.015895157480315
20
0.5952448818897638
11
1.0156027952755906
21
0.5962278346456693
0
LINE
8
BLACK
6
CONTINUOUS
10
1.0156027952755906
20
0.5962278346456693
11
1.015643779527559
21
0.5963994881889764
0
LINE
8
BLACK
6
CONTINUOUS
10
1.015643779527559
20
0.5963994881889764
11
1.0155834251968503
21
0.5965653937007874
0
LINE
8
BLACK
6
CONTINUOUS
10
1.0155834251968503
20
0.5965653937007874
11
1.0155834251968503
21
0.6059392125984252
0
LINE
8
BLACK
6
CONTINUOUS
10
1.0155834251968503
20
0.6059392125984252
11
1.0157614960629922
21
0.6069491338582677
0
LINE
8
BLACK
6
CONTINUOUS
10
1.0157614960629922
20
0.6069491338582677
11
1.0158749606299213
21
0.6070843700787402
0
LINE
8
BLACK
6
CONTINUOUS
10
1.0158749606299213
20
0.6070843700787402
11
1.015895157480315
21
0.6072597244094488
0
LINE
8
BLACK
6
CONTINUOUS
10
1.015895157480315
20
0.6072597244094488
11
1.0177699212598426
21
0.611009251968504
0
LINE
8
BLACK
6
CONTINUOUS
10
1.0177699212598426
20
0.611009251968504
11
1.0182958267716535
21
0.6117183070866141
0
LINE
8
BLACK
6
CONTINUOUS
10
1.0182958267716535
20
0.6117183070866141
11
1.018323031496063
21
0.6117766535433071
0
LINE
8
BLACK
6
CONTINUOUS
10
1.018323031496063
20
0.6117766535433071
11
1.0201977952755905
21
0.6136514173228347
0
LINE
8
BLACK
6
CONTINUOUS
10
1.0201977952755905
20
0.6136514173228347
11
1.0210378346456692
21
0.6142396062992126
0
LINE
8
BLACK
6
CONTINUOUS
10
1.0210378346456692
20
0.6142396062992126
11
1.0230499212598425
21
0.6144156299212599
0
LINE
8
BLACK
6
CONTINUOUS
10
1.0230499212598425
20
0.6144156299212599
11
1.0247044881889764
21
0.613257125984252
0
LINE
8
BLACK
6
CONTINUOUS
10
1.0247044881889764
20
0.613257125984252
11
1.0252272047244095
21
0.6113061417322835
0
LINE
8
BLACK
6
CONTINUOUS
10
1.0252272047244095
20
0.6113061417322835
11
1.0243736220472441
21
0.6094755905511811
0
LINE
8
BLACK
6
CONTINUOUS
10
1.0243736220472441
20
0.6094755905511811
11
1.0228376771653542
21
0.6079396456692914
0
LINE
8
BLACK
6
CONTINUOUS
10
1.0228376771653542
20
0.6079396456692914
11
1.0214889370078739
21
0.6052421653543307
0
LINE
8
BLACK
6
CONTINUOUS
10
1.0214889370078739
20
0.6052421653543307
11
1.0214889370078739
21
0.5972624409448819
0
LINE
8
BLACK
6
CONTINUOUS
10
1.0214889370078739
20
0.5972624409448819
11
1.0228376771653542
21
0.5945649606299213
0
LINE
8
BLACK
6
CONTINUOUS
10
1.0228376771653542
20
0.5945649606299213
11
1.0240348031496063
21
0.5933678346456692
0
LINE
8
BLACK
6
CONTINUOUS
10
1.0240348031496063
20
0.5933678346456692
11
1.0267322834645669
21
0.592019094488189
0
LINE
8
BLACK
6
CONTINUOUS
10
1.0267322834645669
20
0.592019094488189
11
1.0293056299212597
21
0.592019094488189
0
LINE
8
BLACK
6
CONTINUOUS
10
1.0293056299212597
20
0.592019094488189
11
1.0338140157480316
21
0.5935218897637795
0
LINE
8
BLACK
6
CONTINUOUS
10
1.0338140157480316
20
0.5935218897637795
11
1.0558183464566928
21
0.6155261811023622
0
LINE
8
BLACK
6
CONTINUOUS
10
1.0558183464566928
20
0.6155261811023622
11
1.056346377952756
21
0.6158959448818897
0
LINE
8
BLACK
6
CONTINUOUS
10
1.056346377952756
20
0.6158959448818897
11
1.0564298818897637
21
0.6159954330708661
0
LINE
8
BLACK
6
CONTINUOUS
10
1.0564298818897637
20
0.6159954330708661
11
1.0565081889763779
21
0.6160092125984252
0
LINE
8
BLACK
6
CONTINUOUS
10
1.0565081889763779
20
0.6160092125984252
11
1.0566583858267717
21
0.6161144094488189
0
LINE
8
BLACK
6
CONTINUOUS
10
1.0566583858267717
20
0.6161144094488189
11
1.0575439370078741
21
0.6161918503937007
0
LINE
8
BLACK
6
CONTINUOUS
10
1.0575439370078741
20
0.6161918503937007
11
1.0584190157480315
21
0.6163461811023622
0
LINE
8
BLACK
6
CONTINUOUS
10
1.0584190157480315
20
0.6163461811023622
11
1.0585359448818898
21
0.6162786614173228
0
LINE
8
BLACK
6
CONTINUOUS
10
0.9682897637795276
20
0.651943937007874
11
0.9684190157480315
21
0.6519667322834646
0
LINE
8
BLACK
6
CONTINUOUS
10
0.9684190157480315
20
0.6519667322834646
11
0.9685325984251968
21
0.6519011023622047
0
LINE
8
BLACK
6
CONTINUOUS
10
0.9685325984251968
20
0.6519011023622047
11
0.9689161811023622
21
0.6518335039370079
0
LINE
8
BLACK
6
CONTINUOUS
10
0.9689161811023622
20
0.6518335039370079
11
0.9695038582677166
21
0.6513403543307087
0
LINE
8
BLACK
6
CONTINUOUS
10
0.9695038582677166
20
0.6513403543307087
11
0.9701681889763779
21
0.650956811023622
0
LINE
8
BLACK
6
CONTINUOUS
10
0.9701681889763779
20
0.650956811023622
11
0.9702592913385827
21
0.6507064566929134
0
LINE
8
BLACK
6
CONTINUOUS
10
0.9702592913385827
20
0.6507064566929134
11
0.9704634251968504
21
0.6505351968503937
0
LINE
8
BLACK
6
CONTINUOUS
10
0.9704634251968504
20
0.6505351968503937
11
0.970596653543307
21
0.6497796062992126
0
LINE
8
BLACK
6
CONTINUOUS
10
0.970596653543307
20
0.6497796062992126
11
0.9708590157480315
21
0.6490588188976378
0
LINE
8
BLACK
6
CONTINUOUS
10
0.9708590157480315
20
0.6490588188976378
11
0.9708590157480315
21
0.6396849999999999
0
LINE
8
BLACK
6
CONTINUOUS
10
0.9708590157480315
20
0.6396849999999999
11
0.9707057086614173
21
0.6388155905511811
0
LINE
8
BLACK
6
CONTINUOUS
10
0.9707057086614173
20
0.6388155905511811
11
0.9707074803149606
21
0.6387512204724409
0
LINE
8
BLACK
6
CONTINUOUS
10
0.9707074803149606
20
0.6387512204724409
11
0.968832716535433
21
0.633126968503937
0
LINE
8
BLACK
6
CONTINUOUS
10
0.968832716535433
20
0.633126968503937
11
0.9683444094488188
21
0.6322251968503937
0
LINE
8
BLACK
6
CONTINUOUS
10
0.9683444094488188
20
0.6322251968503937
11
0.9681940157480314
21
0.6321327952755905
0
LINE
8
BLACK
6
CONTINUOUS
10
0.9681940157480314
20
0.6321327952755905
11
0.9681194094488189
21
0.6319727952755906
0
LINE
8
BLACK
6
CONTINUOUS
10
0.9681194094488189
20
0.6319727952755906
11
0.964369842519685
21
0.6282232677165355
0
LINE
8
BLACK
6
CONTINUOUS
10
0.964369842519685
20
0.6282232677165355
11
0.963646653543307
21
0.6277168503937007
0
LINE
8
BLACK
6
CONTINUOUS
10
0.963646653543307
20
0.6277168503937007
11
0.9636024409448819
21
0.627670157480315
0
LINE
8
BLACK
6
CONTINUOUS
10
0.9636024409448819
20
0.627670157480315
11
0.9598529133858268
21
0.6257953937007874
0
LINE
8
BLACK
6
CONTINUOUS
10
0.9598529133858268
20
0.6257953937007874
11
0.9593644488188976
21
0.6256500787401574
0
LINE
8
BLACK
6
CONTINUOUS
10
0.9593644488188976
20
0.6256500787401574
11
0.9592485433070866
21
0.625571811023622
0
LINE
8
BLACK
6
CONTINUOUS
10
0.9592485433070866
20
0.625571811023622
11
0.9517494881889763
21
0.6236970472440945
0
LINE
8
BLACK
6
CONTINUOUS
10
0.9517494881889763
20
0.6236970472440945
11
0.9511615748031496
21
0.6236555511811024
0
LINE
8
BLACK
6
CONTINUOUS
10
0.9511615748031496
20
0.6236555511811024
11
0.9510333464566929
21
0.6236088976377953
0
LINE
8
BLACK
6
CONTINUOUS
10
0.9510333464566929
20
0.6236088976377953
11
0.9454090551181102
21
0.6236088976377953
0
LINE
8
BLACK
6
CONTINUOUS
10
0.9454090551181102
20
0.6236088976377953
11
0.9448286614173228
21
0.623711220472441
0
LINE
8
BLACK
6
CONTINUOUS
10
0.9448286614173228
20
0.623711220472441
11
0.9446929133858267
21
0.6236970472440945
0
LINE
8
BLACK
6
CONTINUOUS
10
0.9446929133858267
20
0.6236970472440945
11
0.9371938582677165
21
0.625571811023622
0
LINE
8
BLACK
6
CONTINUOUS
10
0.9371938582677165
20
0.625571811023622
11
0.9367283858267716
21
0.6257793700787402
0
LINE
8
BLACK
6
CONTINUOUS
10
0.9367283858267716
20
0.6257793700787402
11
0.9365894881889764
21
0.6257953937007874
0
LINE
8
BLACK
6
CONTINUOUS
10
0.9365894881889764
20
0.6257953937007874
11
0.9328399606299212
21
0.627670157480315
0
LINE
8
BLACK
6
CONTINUOUS
10
0.9328399606299212
20
0.627670157480315
11
0.9321308661417322
21
0.6281960629921259
0
LINE
8
BLACK
6
CONTINUOUS
10
0.9321308661417322
20
0.6281960629921259
11
0.9320725590551181
21
0.6282232677165355
0
LINE
8
BLACK
6
CONTINUOUS
10
0.9320725590551181
20
0.6282232677165355
11
0.928323031496063
21
0.6319727952755906
0
LINE
8
BLACK
6
CONTINUOUS
10
0.928323031496063
20
0.6319727952755906
11
0.927734842519685
21
0.6328128346456693
0
LINE
8
BLACK
6
CONTINUOUS
10
0.927734842519685
20
0.6328128346456693
11
0.9277194488188976
21
0.6329886614173228
0
LINE
8
BLACK
6
CONTINUOUS
10
0.9277194488188976
20
0.6329886614173228
11
0.9276097244094488
21
0.633126968503937
0
LINE
8
BLACK
6
CONTINUOUS
10
0.9276097244094488
20
0.633126968503937
11
0.9257349606299212
21
0.6387512598425197
0
LINE
8
BLACK
6
CONTINUOUS
10
0.9257349606299212
20
0.6387512598425197
11
0.9256054724409448
21
0.6396244094488189
0
LINE
8
BLACK
6
CONTINUOUS
10
0.9256054724409448
20
0.6396244094488189
11
0.9255834251968503
21
0.6396849999999999
0
LINE
8
BLACK
6
CONTINUOUS
10
0.9255834251968503
20
0.6396849999999999
11
0.9255834251968503
21
0.6490588188976378
0
LINE
8
BLACK
6
CONTINUOUS
10
0.9255834251968503
20
0.6490588188976378
11
0.9256510236220472
21
0.6494423228346456
0
LINE
8
BLACK
6
CONTINUOUS
10
0.9256510236220472
20
0.6494423228346456
11
0.9256282677165354
21
0.6495715748031496
0
LINE
8
BLACK
6
CONTINUOUS
10
0.9256282677165354
20
0.6495715748031496
11
0.9256938582677166
21
0.649685157480315
0
LINE
8
BLACK
6
CONTINUOUS
10
0.9256938582677166
20
0.649685157480315
11
0.9257614960629921
21
0.6500687401574803
0
LINE
8
BLACK
6
CONTINUOUS
10
0.9257614960629921
20
0.6500687401574803
11
0.9262546062992125
21
0.6506564173228346
0
LINE
8
BLACK
6
CONTINUOUS
10
0.9262546062992125
20
0.6506564173228346
11
0.926638188976378
21
0.6513207480314961
0
LINE
8
BLACK
6
CONTINUOUS
10
0.926638188976378
20
0.6513207480314961
11
0.9268885039370078
21
0.6514118503937008
0
LINE
8
BLACK
6
CONTINUOUS
10
0.9268885039370078
20
0.6514118503937008
11
0.9270598031496062
21
0.6516159842519685
0
LINE
8
BLACK
6
CONTINUOUS
10
0.9270598031496062
20
0.6516159842519685
11
0.9278153543307086
21
0.6517492125984252
0
LINE
8
BLACK
6
CONTINUOUS
10
0.9278153543307086
20
0.6517492125984252
11
0.9285361811023621
21
0.6520115748031496
0
LINE
8
BLACK
6
CONTINUOUS
10
0.9285361811023621
20
0.6520115748031496
11
0.9679062598425197
21
0.6520115748031496
0
LINE
8
BLACK
6
CONTINUOUS
10
0.9679062598425197
20
0.6520115748031496
11
0.9682897637795276
21
0.651943937007874
0
LINE
8
BLACK
6
CONTINUOUS
10
0.9314889370078739
20
0.6401641338582676
11
0.9329917322834645
21
0.6356557086614173
0
LINE
8
BLACK
6
CONTINUOUS
10
0.9329917322834645
20
0.6356557086614173
11
0.9359095669291339
21
0.6327379133858267
0
LINE
8
BLACK
6
CONTINUOUS
10
0.9359095669291339
20
0.6327379133858267
11
0.9389405511811023
21
0.6312224015748031
0
LINE
8
BLACK
6
CONTINUOUS
10
0.9389405511811023
20
0.6312224015748031
11
0.9457725984251968
21
0.6295144094488189
0
LINE
8
BLACK
6
CONTINUOUS
10
0.9457725984251968
20
0.6295144094488189
11
0.9506698031496063
21
0.6295144094488189
0
LINE
8
BLACK
6
CONTINUOUS
10
0.9506698031496063
20
0.6295144094488189
11
0.9575018503937007
21
0.6312224015748031
0
LINE
8
BLACK
6
CONTINUOUS
10
0.9575018503937007
20
0.6312224015748031
11
0.9605328346456693
21
0.6327379133858267
0
LINE
8
BLACK
6
CONTINUOUS
10
0.9605328346456693
20
0.6327379133858267
11
0.9634507086614174
21
0.635655748031496
0
LINE
8
BLACK
6
CONTINUOUS
10
0.9634507086614174
20
0.635655748031496
11
0.9649535039370079
21
0.6401641338582676
0
LINE
8
BLACK
6
CONTINUOUS
10
0.9649535039370079
20
0.6401641338582676
11
0.9649535039370079
21
0.6461060629921259
0
LINE
8
BLACK
6
CONTINUOUS
10
0.9649535039370079
20
0.6461060629921259
11
0.9314889370078739
21
0.6461060629921259
0
LINE
8
BLACK
6
CONTINUOUS
10
0.9314889370078739
20
0.6461060629921259
11
0.9314889370078739
21
0.6401641338582676
0
LINE
8
BLACK
6
CONTINUOUS
10
1.0582897637795274
20
0.651943937007874
11
1.0584190157480315
21
0.6519667322834646
0
LINE
8
BLACK
6
CONTINUOUS
10
1.0584190157480315
20
0.6519667322834646
11
1.0585325984251968
21
0.6519011023622047
0
LINE
8
BLACK
6
CONTINUOUS
10
1.0585325984251968
20
0.6519011023622047
11
1.0589161811023622
21
0.6518335039370079
0
LINE
8
BLACK
6
CONTINUOUS
10
1.0589161811023622
20
0.6518335039370079
11
1.0595038582677165
21
0.6513403543307087
0
LINE
8
BLACK
6
CONTINUOUS
10
1.0595038582677165
20
0.6513403543307087
11
1.0601681889763779
21
0.650956811023622
0
LINE
8
BLACK
6
CONTINUOUS
10
1.0601681889763779
20
0.650956811023622
11
1.0602592913385827
21
0.6507064566929134
0
LINE
8
BLACK
6
CONTINUOUS
10
1.0602592913385827
20
0.6507064566929134
11
1.0604634251968503
21
0.6505351968503937
0
LINE
8
BLACK
6
CONTINUOUS
10
1.0604634251968503
20
0.6505351968503937
11
1.0605966535433071
21
0.6497796062992126
0
LINE
8
BLACK
6
CONTINUOUS
10
1.0605966535433071
20
0.6497796062992126
11
1.0608590157480315
21
0.6490588188976378
0
LINE
8
BLACK
6
CONTINUOUS
10
1.0608590157480315
20
0.6490588188976378
11
1.0608590157480315
21
0.6396849999999999
0
LINE
8
BLACK
6
CONTINUOUS
10
1.0608590157480315
20
0.6396849999999999
11
1.0607057086614173
21
0.6388155905511811
0
LINE
8
BLACK
6
CONTINUOUS
10
1.0607057086614173
20
0.6388155905511811
11
1.0607074803149605
21
0.6387512204724409
0
LINE
8
BLACK
6
CONTINUOUS
10
1.0607074803149605
20
0.6387512204724409
11
1.058832716535433
21
0.633126968503937
0
LINE
8
BLACK
6
CONTINUOUS
10
1.058832716535433
20
0.633126968503937
11
1.0583444094488188
21
0.6322251968503937
0
LINE
8
BLACK
6
CONTINUOUS
10
1.0583444094488188
20
0.6322251968503937
11
1.0581940157480314
21
0.6321327952755905
0
LINE
8
BLACK
6
CONTINUOUS
10
1.0581940157480314
20
0.6321327952755905
11
1.0581194094488189
21
0.6319727952755906
0
LINE
8
BLACK
6
CONTINUOUS
10
1.0581194094488189
20
0.6319727952755906
11
1.054369842519685
21
0.6282232677165355
0
LINE
8
BLACK
6
CONTINUOUS
10
1.054369842519685
20
0.6282232677165355
11
1.0536466535433071
21
0.6277168503937007
0
LINE
8
BLACK
6
CONTINUOUS
10
1.0536466535433071
20
0.6277168503937007
11
1.0536024409448819
21
0.627670157480315
0
LINE
8
BLACK
6
CONTINUOUS
10
1.0536024409448819
20
0.627670157480315
11
1.0498529133858268
21
0.6257953937007874
0
LINE
8
BLACK
6
CONTINUOUS
10
1.0498529133858268
20
0.6257953937007874
11
1.0493644488188976
21
0.6256500787401574
0
LINE
8
BLACK
6
CONTINUOUS
10
1.0493644488188976
20
0.6256500787401574
11
1.0492485433070866
21
0.625571811023622
0
LINE
8
BLACK
6
CONTINUOUS
10
1.0492485433070866
20
0.625571811023622
11
1.0417494881889764
21
0.6236970472440945
0
LINE
8
BLACK
6
CONTINUOUS
10
1.0417494881889764
20
0.6236970472440945
11
1.0411615748031495
21
0.6236555511811024
0
LINE
8
BLACK
6
CONTINUOUS
10
1.0411615748031495
20
0.6236555511811024
11
1.041033346456693
21
0.6236088976377953
0
LINE
8
BLACK
6
CONTINUOUS
10
1.041033346456693
20
0.6236088976377953
11
1.0354090551181103
21
0.6236088976377953
0
LINE
8
BLACK
6
CONTINUOUS
10
1.0354090551181103
20
0.6236088976377953
11
1.0348286614173228
21
0.623711220472441
0
LINE
8
BLACK
6
CONTINUOUS
10
1.0348286614173228
20
0.623711220472441
11
1.0346929133858267
21
0.6236970472440945
0
LINE
8
BLACK
6
CONTINUOUS
10
1.0346929133858267
20
0.6236970472440945
11
1.0271938582677165
21
0.625571811023622
0
LINE
8
BLACK
6
CONTINUOUS
10
1.0271938582677165
20
0.625571811023622
11
1.0267283858267717
21
0.6257793700787402
0
LINE
8
BLACK
6
CONTINUOUS
10
1.0267283858267717
20
0.6257793700787402
11
1.0265894881889763
21
0.6257953937007874
0
LINE
8
BLACK
6
CONTINUOUS
10
1.0265894881889763
20
0.6257953937007874
11
1.0228399606299212
21
0.627670157480315
0
LINE
8
BLACK
6
CONTINUOUS
10
1.0228399606299212
20
0.627670157480315
11
1.0221308661417323
21
0.6281960629921259
0
LINE
8
BLACK
6
CONTINUOUS
10
1.0221308661417323
20
0.6281960629921259
11
1.0220725590551181
21
0.6282232677165355
0
LINE
8
BLACK
6
CONTINUOUS
10
1.0220725590551181
20
0.6282232677165355
11
1.018323031496063
21
0.6319727952755906
0
LINE
8
BLACK
6
CONTINUOUS
10
1.018323031496063
20
0.6319727952755906
11
1.017734842519685
21
0.6328128346456693
0
LINE
8
BLACK
6
CONTINUOUS
10
1.017734842519685
20
0.6328128346456693
11
1.0177194488188976
21
0.6329886614173228
0
LINE
8
BLACK
6
CONTINUOUS
10
1.0177194488188976
20
0.6329886614173228
11
1.0176097244094489
21
0.633126968503937
0
LINE
8
BLACK
6
CONTINUOUS
10
1.0176097244094489
20
0.633126968503937
11
1.0157349606299213
21
0.6387512598425197
0
LINE
8
BLACK
6
CONTINUOUS
10
1.0157349606299213
20
0.6387512598425197
11
1.0156054724409449
21
0.6396244094488189
0
LINE
8
BLACK
6
CONTINUOUS
10
1.0156054724409449
20
0.6396244094488189
11
1.0155834251968503
21
0.6396849999999999
0
LINE
8
BLACK
6
CONTINUOUS
10
1.0155834251968503
20
0.6396849999999999
11
1.0155834251968503
21
0.6490588188976378
0
LINE
8
BLACK
6
CONTINUOUS
10
1.0155834251968503
20
0.6490588188976378
11
1.0156510236220473
21
0.6494423228346456
0
LINE
8
BLACK
6
CONTINUOUS
10
1.0156510236220473
20
0.6494423228346456
11
1.0156282677165354
21
0.6495715748031496
0
LINE
8
BLACK
6
CONTINUOUS
10
1.0156282677165354
20
0.6495715748031496
11
1.0156938582677164
21
0.649685157480315
0
LINE
8
BLACK
6
CONTINUOUS
10
1.0156938582677164
20
0.649685157480315
11
1.0157614960629922
21
0.6500687401574803
0
LINE
8
BLACK
6
CONTINUOUS
10
1.0157614960629922
20
0.6500687401574803
11
1.0162546062992126
21
0.6506564173228346
0
LINE
8
BLACK
6
CONTINUOUS
10
1.0162546062992126
20
0.6506564173228346
11
1.016638188976378
21
0.6513207480314961
0
LINE
8
BLACK
6
CONTINUOUS
10
1.016638188976378
20
0.6513207480314961
11
1.0168885039370079
21
0.6514118503937008
0
LINE
8
BLACK
6
CONTINUOUS
10
1.0168885039370079
20
0.6514118503937008
11
1.0170598031496063
21
0.6516159842519685
0
LINE
8
BLACK
6
CONTINUOUS
10
1.0170598031496063
20
0.6516159842519685
11
1.0178153543307087
21
0.6517492125984252
0
LINE
8
BLACK
6
CONTINUOUS
10
1.0178153543307087
20
0.6517492125984252
11
1.0185361811023621
21
0.6520115748031496
0
LINE
8
BLACK
6
CONTINUOUS
10
1.0185361811023621
20
0.6520115748031496
11
1.0579062598425197
21
0.6520115748031496
0
LINE
8
BLACK
6
CONTINUOUS
10
1.0579062598425197
20
0.6520115748031496
11
1.0582897637795274
21
0.651943937007874
0
LINE
8
BLACK
6
CONTINUOUS
10
1.0214889370078739
20
0.6401641338582676
11
1.0229917322834645
21
0.6356557086614173
0
LINE
8
BLACK
6
CONTINUOUS
10
1.0229917322834645
20
0.6356557086614173
11
1.0259095669291338
21
0.6327379133858267
0
LINE
8
BLACK
6
CONTINUOUS
10
1.0259095669291338
20
0.6327379133858267
11
1.0289405511811023
21
0.6312224015748031
0
LINE
8
BLACK
6
CONTINUOUS
10
1.0289405511811023
20
0.6312224015748031
11
1.0357725984251969
21
0.6295144094488189
0
LINE
8
BLACK
6
CONTINUOUS
10
1.0357725984251969
20
0.6295144094488189
11
1.0406698031496062
21
0.6295144094488189
0
LINE
8
BLACK
6
CONTINUOUS
10
1.0406698031496062
20
0.6295144094488189
11
1.0475018503937008
21
0.6312224015748031
0
LINE
8
BLACK
6
CONTINUOUS
10
1.0475018503937008
20
0.6312224015748031
11
1.0505328346456693
21
0.6327379133858267
0
LINE
8
BLACK
6
CONTINUOUS
10
1.0505328346456693
20
0.6327379133858267
11
1.0534507086614173
21
0.635655748031496
0
LINE
8
BLACK
6
CONTINUOUS
10
1.0534507086614173
20
0.635655748031496
11
1.0549535039370079
21
0.6401641338582676
0
LINE
8
BLACK
6
CONTINUOUS
10
1.0549535039370079
20
0.6401641338582676
11
1.0549535039370079
21
0.6461060629921259
0
LINE
8
BLACK
6
CONTINUOUS
10
1.0549535039370079
20
0.6461060629921259
11
1.0214889370078739
21
0.6461060629921259
0
LINE
8
BLACK
6
CONTINUOUS
10
1.0214889370078739
20
0.6461060629921259
11
1.0214889370078739
21
0.6401641338582676
0
LINE
8
BLACK
6
CONTINUOUS
10
0.8803835039370078
20
0.7928851181102362
11
0.8805127559055118
21
0.7929079133858268
0
LINE
8
BLACK
6
CONTINUOUS
10
0.8805127559055118
20
0.7929079133858268
11
0.8806263385826771
21
0.7928422834645669
0
LINE
8
BLACK
6
CONTINUOUS
10
0.8806263385826771
20
0.7928422834645669
11
0.8810099212598425
21
0.7927746850393701
0
LINE
8
BLACK
6
CONTINUOUS
10
0.8810099212598425
20
0.7927746850393701
11
0.8815975984251968
21
0.7922815354330709
0
LINE
8
BLACK
6
CONTINUOUS
10
0.8815975984251968
20
0.7922815354330709
11
0.8822619291338583
21
0.7918979921259842
0
LINE
8
BLACK
6
CONTINUOUS
10
0.8822619291338583
20
0.7918979921259842
11
0.8823530314960629
21
0.7916476377952756
0
LINE
8
BLACK
6
CONTINUOUS
10
0.8823530314960629
20
0.7916476377952756
11
0.8825571653543307
21
0.7914763779527559
0
LINE
8
BLACK
6
CONTINUOUS
10
0.8825571653543307
20
0.7914763779527559
11
0.8826903937007874
21
0.7907207874015748
0
LINE
8
BLACK
6
CONTINUOUS
10
0.8826903937007874
20
0.7907207874015748
11
0.8829527559055118
21
0.79
0
LINE
8
BLACK
6
CONTINUOUS
10
0.8829527559055118
20
0.79
11
0.8829527559055118
21
0.7376196456692913
0
LINE
8
BLACK
6
CONTINUOUS
10
0.8829527559055118
20
0.7376196456692913
11
0.8832303543307086
21
0.7377533464566929
0
LINE
8
BLACK
6
CONTINUOUS
10
0.8832303543307086
20
0.7377533464566929
11
0.8867696456692913
21
0.7377533464566929
0
LINE
8
BLACK
6
CONTINUOUS
10
0.8867696456692913
20
0.7377533464566929
11
0.8899584645669291
21
0.7362177165354331
0
LINE
8
BLACK
6
CONTINUOUS
10
0.8899584645669291
20
0.7362177165354331
11
0.8921651968503936
21
0.7334505905511811
0
LINE
8
BLACK
6
CONTINUOUS
10
0.8921651968503936
20
0.7334505905511811
11
0.8929527559055118
21
0.73
0
LINE
8
BLACK
6
CONTINUOUS
10
0.8929527559055118
20
0.73
11
0.8921651968503936
21
0.7265494094488189
0
LINE
8
BLACK
6
CONTINUOUS
10
0.8921651968503936
20
0.7265494094488189
11
0.8899584645669291
21
0.723782283464567
0
LINE
8
BLACK
6
CONTINUOUS
10
0.8899584645669291
20
0.723782283464567
11
0.8867696456692913
21
0.7222466535433071
0
LINE
8
BLACK
6
CONTINUOUS
10
0.8867696456692913
20
0.7222466535433071
11
0.8832303543307086
21
0.7222466535433071
0
LINE
8
BLACK
6
CONTINUOUS
10
0.8832303543307086
20
0.7222466535433071
11
0.8800415354330708
21
0.723782283464567
0
LINE
8
BLACK
6
CONTINUOUS
10
0.8800415354330708
20
0.723782283464567
11
0.8778348031496063
21
0.7265494094488189
0
LINE
8
BLACK
6
CONTINUOUS
10
0.8778348031496063
20
0.7265494094488189
11
0.8777211811023622
21
0.7270472440944882
0
LINE
8
BLACK
6
CONTINUOUS
10
0.8777211811023622
20
0.7270472440944882
11
0.84
21
0.7270472440944882
0
LINE
8
BLACK
6
CONTINUOUS
10
0.84
20
0.7270472440944882
11
0.8389900787401574
21
0.7272253149606299
0
LINE
8
BLACK
6
CONTINUOUS
10
0.8389900787401574
20
0.7272253149606299
11
0.8374428346456693
21
0.7285236220472441
0
LINE
8
BLACK
6
CONTINUOUS
10
0.8374428346456693
20
0.7285236220472441
11
0.8370920866141732
21
0.7305127559055118
0
LINE
8
BLACK
6
CONTINUOUS
10
0.8370920866141732
20
0.7305127559055118
11
0.8381020078740157
21
0.7322619291338582
0
LINE
8
BLACK
6
CONTINUOUS
10
0.8381020078740157
20
0.7322619291338582
11
0.84
21
0.7329527559055118
0
LINE
8
BLACK
6
CONTINUOUS
10
0.84
20
0.7329527559055118
11
0.8770472440944882
21
0.7329527559055118
0
LINE
8
BLACK
6
CONTINUOUS
10
0.8770472440944882
20
0.7329527559055118
11
0.8770472440944882
21
0.7870472440944881
0
LINE
8
BLACK
6
CONTINUOUS
10
0.8770472440944882
20
0.7870472440944881
11
0.84
21
0.7870472440944881
0
LINE
8
BLACK
6
CONTINUOUS
10
0.84
20
0.7870472440944881
11
0.8389900787401574
21
0.7872253149606299
0
LINE
8
BLACK
6
CONTINUOUS
10
0.8389900787401574
20
0.7872253149606299
11
0.8374428346456693
21
0.788523622047244
0
LINE
8
BLACK
6
CONTINUOUS
10
0.8374428346456693
20
0.788523622047244
11
0.8370920866141732
21
0.7905127559055118
0
LINE
8
BLACK
6
CONTINUOUS
10
0.8370920866141732
20
0.7905127559055118
11
0.8381020078740157
21
0.7922619291338583
0
LINE
8
BLACK
6
CONTINUOUS
10
0.8381020078740157
20
0.7922619291338583
11
0.84
21
0.7929527559055118
0
LINE
8
BLACK
6
CONTINUOUS
10
0.84
20
0.7929527559055118
11
0.88
21
0.7929527559055118
0
LINE
8
BLACK
6
CONTINUOUS
10
0.88
20
0.7929527559055118
11
0.8803835039370078
21
0.7928851181102362
0
LINE
8
BLACK
6
CONTINUOUS
10
0.8834331102362204
20
0.7315668897637795
11
0.8829527559055118
21
0.7304071653543307
0
LINE
8
BLACK
6
CONTINUOUS
10
0.8829527559055118
20
0.7304071653543307
11
0.8829527559055118
21
0.73
0
LINE
8
BLACK
6
CONTINUOUS
10
0.8829527559055118
20
0.73
11
0.8829023622047244
21
0.7297143700787402
0
LINE
8
BLACK
6
CONTINUOUS
10
0.8829023622047244
20
0.7297143700787402
11
0.8834331102362204
21
0.7284331102362205
0
LINE
8
BLACK
6
CONTINUOUS
10
0.8834331102362204
20
0.7284331102362205
11
0.885
21
0.7277840944881889
0
LINE
8
BLACK
6
CONTINUOUS
10
0.885
20
0.7277840944881889
11
0.8865668897637795
21
0.7284331102362205
0
LINE
8
BLACK
6
CONTINUOUS
10
0.8865668897637795
20
0.7284331102362205
11
0.887215905511811
21
0.73
0
LINE
8
BLACK
6
CONTINUOUS
10
0.887215905511811
20
0.73
11
0.8865668897637795
21
0.7315668897637795
0
LINE
8
BLACK
6
CONTINUOUS
10
0.8865668897637795
20
0.7315668897637795
11
0.885
21
0.732215905511811
0
LINE
8
BLACK
6
CONTINUOUS
10
0.885
20
0.732215905511811
11
0.8834331102362204
21
0.7315668897637795
0
LINE
8
BLACK
6
CONTINUOUS
10
0.6299584645669292
20
0.7962177165354331
11
0.6321651968503937
21
0.7934505905511811
0
LINE
8
BLACK
6
CONTINUOUS
10
0.6321651968503937
20
0.7934505905511811
11
0.6322788188976378
21
0.7929527559055118
0
LINE
8
BLACK
6
CONTINUOUS
10
0.6322788188976378
20
0.7929527559055118
11
0.67
21
0.7929527559055118
0
LINE
8
BLACK
6
CONTINUOUS
10
0.67
20
0.7929527559055118
11
0.6710099212598425
21
0.7927746850393701
0
LINE
8
BLACK
6
CONTINUOUS
10
0.6710099212598425
20
0.7927746850393701
11
0.6725571653543307
21
0.7914763779527559
0
LINE
8
BLACK
6
CONTINUOUS
10
0.6725571653543307
20
0.7914763779527559
11
0.6729079133858268
21
0.7894872440944881
0
LINE
8
BLACK
6
CONTINUOUS
10
0.6729079133858268
20
0.7894872440944881
11
0.6718979921259842
21
0.7877380708661417
0
LINE
8
BLACK
6
CONTINUOUS
10
0.6718979921259842
20
0.7877380708661417
11
0.67
21
0.7870472440944881
0
LINE
8
BLACK
6
CONTINUOUS
10
0.67
20
0.7870472440944881
11
0.6329527559055118
21
0.7870472440944881
0
LINE
8
BLACK
6
CONTINUOUS
10
0.6329527559055118
20
0.7870472440944881
11
0.6329527559055118
21
0.7329527559055118
0
LINE
8
BLACK
6
CONTINUOUS
10
0.6329527559055118
20
0.7329527559055118
11
0.67
21
0.7329527559055118
0
LINE
8
BLACK
6
CONTINUOUS
10
0.67
20
0.7329527559055118
11
0.6710099212598425
21
0.73277468503937
0
LINE
8
BLACK
6
CONTINUOUS
10
0.6710099212598425
20
0.73277468503937
11
0.6725571653543307
21
0.7314763779527559
0
LINE
8
BLACK
6
CONTINUOUS
10
0.6725571653543307
20
0.7314763779527559
11
0.6729079133858268
21
0.7294872440944882
0
LINE
8
BLACK
6
CONTINUOUS
10
0.6729079133858268
20
0.7294872440944882
11
0.6718979921259842
21
0.7277380708661417
0
LINE
8
BLACK
6
CONTINUOUS
10
0.6718979921259842
20
0.7277380708661417
11
0.67
21
0.7270472440944882
0
LINE
8
BLACK
6
CONTINUOUS
10
0.67
20
0.7270472440944882
11
0.63
21
0.7270472440944882
0
LINE
8
BLACK
6
CONTINUOUS
10
0.63
20
0.7270472440944882
11
0.6296164566929133
21
0.7271148425196851
0
LINE
8
BLACK
6
CONTINUOUS
10
0.6296164566929133
20
0.7271148425196851
11
0.6294872440944882
21
0.7270920866141732
0
LINE
8
BLACK
6
CONTINUOUS
10
0.6294872440944882
20
0.7270920866141732
11
0.6293736220472441
21
0.7271576771653543
0
LINE
8
BLACK
6
CONTINUOUS
10
0.6293736220472441
20
0.7271576771653543
11
0.6289900787401574
21
0.7272253149606299
0
LINE
8
BLACK
6
CONTINUOUS
10
0.6289900787401574
20
0.7272253149606299
11
0.6284023622047243
21
0.7277184251968504
0
LINE
8
BLACK
6
CONTINUOUS
10
0.6284023622047243
20
0.7277184251968504
11
0.6277380708661418
21
0.7281020078740157
0
LINE
8
BLACK
6
CONTINUOUS
10
0.6277380708661418
20
0.7281020078740157
11
0.6276469291338582
21
0.7283523228346457
0
LINE
8
BLACK
6
CONTINUOUS
10
0.6276469291338582
20
0.7283523228346457
11
0.6274428346456693
21
0.7285236220472441
0
LINE
8
BLACK
6
CONTINUOUS
10
0.6274428346456693
20
0.7285236220472441
11
0.6273095669291339
21
0.7292791732283465
0
LINE
8
BLACK
6
CONTINUOUS
10
0.6273095669291339
20
0.7292791732283465
11
0.6270472440944882
21
0.73
0
LINE
8
BLACK
6
CONTINUOUS
10
0.6270472440944882
20
0.73
11
0.6270472440944882
21
0.7823803149606299
0
LINE
8
BLACK
6
CONTINUOUS
10
0.6270472440944882
20
0.7823803149606299
11
0.6267696456692913
21
0.782246653543307
0
LINE
8
BLACK
6
CONTINUOUS
10
0.6267696456692913
20
0.782246653543307
11
0.6232303543307086
21
0.782246653543307
0
LINE
8
BLACK
6
CONTINUOUS
10
0.6232303543307086
20
0.782246653543307
11
0.6200415354330708
21
0.7837822834645669
0
LINE
8
BLACK
6
CONTINUOUS
10
0.6200415354330708
20
0.7837822834645669
11
0.6178348031496063
21
0.7865494094488189
0
LINE
8
BLACK
6
CONTINUOUS
10
0.6178348031496063
20
0.7865494094488189
11
0.6170472440944882
21
0.79
0
LINE
8
BLACK
6
CONTINUOUS
10
0.6170472440944882
20
0.79
11
0.6178348031496063
21
0.7934505905511811
0
LINE
8
BLACK
6
CONTINUOUS
10
0.6178348031496063
20
0.7934505905511811
11
0.6200415354330708
21
0.7962177165354331
0
LINE
8
BLACK
6
CONTINUOUS
10
0.6200415354330708
20
0.7962177165354331
11
0.6232303543307086
21
0.7977533464566929
0
LINE
8
BLACK
6
CONTINUOUS
10
0.6232303543307086
20
0.7977533464566929
11
0.6267696456692913
21
0.7977533464566929
0
LINE
8
BLACK
6
CONTINUOUS
10
0.6267696456692913
20
0.7977533464566929
11
0.6299584645669292
21
0.7962177165354331
0
LINE
8
BLACK
6
CONTINUOUS
10
0.6234331102362205
20
0.7884331102362204
11
0.625
21
0.787784094488189
0
LINE
8
BLACK
6
CONTINUOUS
10
0.625
20
0.787784094488189
11
0.6265668897637795
21
0.7884331102362204
0
LINE
8
BLACK
6
CONTINUOUS
10
0.6265668897637795
20
0.7884331102362204
11
0.6270472440944882
21
0.7895927952755906
0
LINE
8
BLACK
6
CONTINUOUS
10
0.6270472440944882
20
0.7895927952755906
11
0.6270472440944882
21
0.79
0
LINE
8
BLACK
6
CONTINUOUS
10
0.6270472440944882
20
0.79
11
0.6270975984251969
21
0.7902855905511811
0
LINE
8
BLACK
6
CONTINUOUS
10
0.6270975984251969
20
0.7902855905511811
11
0.6265668897637795
21
0.7915668897637795
0
LINE
8
BLACK
6
CONTINUOUS
10
0.6265668897637795
20
0.7915668897637795
11
0.625
21
0.792215905511811
0
LINE
8
BLACK
6
CONTINUOUS
10
0.625
20
0.792215905511811
11
0.6234331102362205
21
0.7915668897637795
0
LINE
8
BLACK
6
CONTINUOUS
10
0.6234331102362205
20
0.7915668897637795
11
0.6227840944881889
21
0.79
0
LINE
8
BLACK
6
CONTINUOUS
10
0.6227840944881889
20
0.79
11
0.6234331102362205
21
0.7884331102362204
0
LINE
8
BLACK
6
CONTINUOUS
10
0.7503835039370078
20
0.7928851181102362
11
0.7505127559055118
21
0.7929079133858268
0
LINE
8
BLACK
6
CONTINUOUS
10
0.7505127559055118
20
0.7929079133858268
11
0.7506263385826771
21
0.7928422834645669
0
LINE
8
BLACK
6
CONTINUOUS
10
0.7506263385826771
20
0.7928422834645669
11
0.7510099212598425
21
0.7927746850393701
0
LINE
8
BLACK
6
CONTINUOUS
10
0.7510099212598425
20
0.7927746850393701
11
0.7515975984251968
21
0.7922815354330709
0
LINE
8
BLACK
6
CONTINUOUS
10
0.7515975984251968
20
0.7922815354330709
11
0.7522619291338583
21
0.7918979921259842
0
LINE
8
BLACK
6
CONTINUOUS
10
0.7522619291338583
20
0.7918979921259842
11
0.752353031496063
21
0.7916476377952756
0
LINE
8
BLACK
6
CONTINUOUS
10
0.752353031496063
20
0.7916476377952756
11
0.7525571653543307
21
0.7914763779527559
0
LINE
8
BLACK
6
CONTINUOUS
10
0.7525571653543307
20
0.7914763779527559
11
0.7526903937007874
21
0.7907207874015748
0
LINE
8
BLACK
6
CONTINUOUS
10
0.7526903937007874
20
0.7907207874015748
11
0.7529527559055118
21
0.79
0
LINE
8
BLACK
6
CONTINUOUS
10
0.7529527559055118
20
0.79
11
0.7529527559055118
21
0.73
0
LINE
8
BLACK
6
CONTINUOUS
10
0.7529527559055118
20
0.73
11
0.7528851181102362
21
0.7296164566929134
0
LINE
8
BLACK
6
CONTINUOUS
10
0.7528851181102362
20
0.7296164566929134
11
0.7529079133858267
21
0.7294872440944882
0
LINE
8
BLACK
6
CONTINUOUS
10
0.7529079133858267
20
0.7294872440944882
11
0.7528422834645669
21
0.7293736220472441
0
LINE
8
BLACK
6
CONTINUOUS
10
0.7528422834645669
20
0.7293736220472441
11
0.7527746850393701
21
0.7289900787401574
0
LINE
8
BLACK
6
CONTINUOUS
10
0.7527746850393701
20
0.7289900787401574
11
0.7522815354330709
21
0.7284023622047244
0
LINE
8
BLACK
6
CONTINUOUS
10
0.7522815354330709
20
0.7284023622047244
11
0.7518979921259842
21
0.7277380708661417
0
LINE
8
BLACK
6
CONTINUOUS
10
0.7518979921259842
20
0.7277380708661417
11
0.7516476377952755
21
0.7276469291338582
0
LINE
8
BLACK
6
CONTINUOUS
10
0.7516476377952755
20
0.7276469291338582
11
0.7514763779527559
21
0.7274428346456693
0
LINE
8
BLACK
6
CONTINUOUS
10
0.7514763779527559
20
0.7274428346456693
11
0.7507207874015748
21
0.7273095669291338
0
LINE
8
BLACK
6
CONTINUOUS
10
0.7507207874015748
20
0.7273095669291338
11
0.75
21
0.7270472440944882
0
LINE
8
BLACK
6
CONTINUOUS
10
0.75
20
0.7270472440944882
11
0.71
21
0.7270472440944882
0
LINE
8
BLACK
6
CONTINUOUS
10
0.71
20
0.7270472440944882
11
0.7089900787401575
21
0.7272253149606299
0
LINE
8
BLACK
6
CONTINUOUS
10
0.7089900787401575
20
0.7272253149606299
11
0.7074428346456693
21
0.7285236220472441
0
LINE
8
BLACK
6
CONTINUOUS
10
0.7074428346456693
20
0.7285236220472441
11
0.7070920866141732
21
0.7305127559055118
0
LINE
8
BLACK
6
CONTINUOUS
10
0.7070920866141732
20
0.7305127559055118
11
0.7081020078740158
21
0.7322619291338582
0
LINE
8
BLACK
6
CONTINUOUS
10
0.7081020078740158
20
0.7322619291338582
11
0.71
21
0.7329527559055118
0
LINE
8
BLACK
6
CONTINUOUS
10
0.71
20
0.7329527559055118
11
0.7470472440944882
21
0.7329527559055118
0
LINE
8
BLACK
6
CONTINUOUS
10
0.7470472440944882
20
0.7329527559055118
11
0.7470472440944882
21
0.7870472440944881
0
LINE
8
BLACK
6
CONTINUOUS
10
0.7470472440944882
20
0.7870472440944881
11
0.7140769291338582
21
0.7870472440944881
0
LINE
8
BLACK
6
CONTINUOUS
10
0.7140769291338582
20
0.7870472440944881
11
0.7141436220472441
21
0.7870025984251968
0
LINE
8
BLACK
6
CONTINUOUS
10
0.7141436220472441
20
0.7870025984251968
11
0.7159017716535433
21
0.7843653937007874
0
LINE
8
BLACK
6
CONTINUOUS
10
0.7159017716535433
20
0.7843653937007874
11
0.7173806692913386
21
0.7828864960629921
0
LINE
8
BLACK
6
CONTINUOUS
10
0.7173806692913386
20
0.7828864960629921
11
0.718944842519685
21
0.7821044488188976
0
LINE
8
BLACK
6
CONTINUOUS
10
0.718944842519685
20
0.7821044488188976
11
0.7200229527559054
21
0.7808612992125984
0
LINE
8
BLACK
6
CONTINUOUS
10
0.7200229527559054
20
0.7808612992125984
11
0.7199062992125984
21
0.7792198818897638
0
LINE
8
BLACK
6
CONTINUOUS
10
0.7199062992125984
20
0.7792198818897638
11
0.7186631889763779
21
0.7781417322834645
0
LINE
8
BLACK
6
CONTINUOUS
10
0.7186631889763779
20
0.7781417322834645
11
0.7170217716535433
21
0.7782584251968504
0
LINE
8
BLACK
6
CONTINUOUS
10
0.7170217716535433
20
0.7782584251968504
11
0.7151455905511811
21
0.7791965354330709
0
LINE
8
BLACK
6
CONTINUOUS
10
0.7151455905511811
20
0.7791965354330709
11
0.7149137401574803
21
0.7794638188976378
0
LINE
8
BLACK
6
CONTINUOUS
10
0.7149137401574803
20
0.7794638188976378
11
0.7145868503937007
21
0.7795992519685039
0
LINE
8
BLACK
6
CONTINUOUS
10
0.7145868503937007
20
0.7795992519685039
11
0.7145047244094488
21
0.7796813779527559
0
LINE
8
BLACK
6
CONTINUOUS
10
0.7145047244094488
20
0.7796813779527559
11
0.7145047244094488
21
0.7682599999999999
0
LINE
8
BLACK
6
CONTINUOUS
10
0.7145047244094488
20
0.7682599999999999
11
0.7179833070866142
21
0.7682599999999999
0
LINE
8
BLACK
6
CONTINUOUS
10
0.7179833070866142
20
0.7682599999999999
11
0.7195035826771653
21
0.7676302755905512
0
LINE
8
BLACK
6
CONTINUOUS
10
0.7195035826771653
20
0.7676302755905512
11
0.7201333070866142
21
0.76611
0
LINE
8
BLACK
6
CONTINUOUS
10
0.7201333070866142
20
0.76611
11
0.7195035826771653
21
0.7645897244094488
0
LINE
8
BLACK
6
CONTINUOUS
10
0.7195035826771653
20
0.7645897244094488
11
0.7179833070866142
21
0.76396
0
LINE
8
BLACK
6
CONTINUOUS
10
0.7179833070866142
20
0.76396
11
0.7123547244094488
21
0.76396
0
LINE
8
BLACK
6
CONTINUOUS
10
0.7123547244094488
20
0.76396
11
0.7067261811023622
21
0.76396
0
LINE
8
BLACK
6
CONTINUOUS
10
0.7067261811023622
20
0.76396
11
0.7052059055118111
21
0.7645897244094488
0
LINE
8
BLACK
6
CONTINUOUS
10
0.7052059055118111
20
0.7645897244094488
11
0.7045761811023622
21
0.76611
0
LINE
8
BLACK
6
CONTINUOUS
10
0.7045761811023622
20
0.76611
11
0.7052059055118111
21
0.7676302755905512
0
LINE
8
BLACK
6
CONTINUOUS
10
0.7052059055118111
20
0.7676302755905512
11
0.7067261811023622
21
0.7682599999999999
0
LINE
8
BLACK
6
CONTINUOUS
10
0.7067261811023622
20
0.7682599999999999
11
0.7102047244094488
21
0.7682599999999999
0
LINE
8
BLACK
6
CONTINUOUS
10
0.7102047244094488
20
0.7682599999999999
11
0.7102047244094488
21
0.78581
0
LINE
8
BLACK
6
CONTINUOUS
10
0.7102047244094488
20
0.78581
11
0.7102894094488189
21
0.7860145275590551
0
LINE
8
BLACK
6
CONTINUOUS
10
0.7102894094488189
20
0.7860145275590551
11
0.7102464960629921
21
0.786231653543307
0
LINE
8
BLACK
6
CONTINUOUS
10
0.7102464960629921
20
0.786231653543307
11
0.7105948031496063
21
0.7867517716535433
0
LINE
8
BLACK
6
CONTINUOUS
10
0.7105948031496063
20
0.7867517716535433
11
0.7107172047244095
21
0.7870472440944881
0
LINE
8
BLACK
6
CONTINUOUS
10
0.7107172047244095
20
0.7870472440944881
11
0.71
21
0.7870472440944881
0
LINE
8
BLACK
6
CONTINUOUS
10
0.71
20
0.7870472440944881
11
0.7089900787401575
21
0.7872253149606299
0
LINE
8
BLACK
6
CONTINUOUS
10
0.7089900787401575
20
0.7872253149606299
11
0.7074428346456693
21
0.788523622047244
0
LINE
8
BLACK
6
CONTINUOUS
10
0.7074428346456693
20
0.788523622047244
11
0.7070920866141732
21
0.7905127559055118
0
LINE
8
BLACK
6
CONTINUOUS
10
0.7070920866141732
20
0.7905127559055118
11
0.7081020078740158
21
0.7922619291338583
0
LINE
8
BLACK
6
CONTINUOUS
10
0.7081020078740158
20
0.7922619291338583
11
0.71
21
0.7929527559055118
0
LINE
8
BLACK
6
CONTINUOUS
10
0.71
20
0.7929527559055118
11
0.75
21
0.7929527559055118
0
LINE
8
BLACK
6
CONTINUOUS
10
0.75
20
0.7929527559055118
11
0.7503835039370078
21
0.7928851181102362
0
LINE
8
BLACK
6
CONTINUOUS
10
0.8010099212598425
20
0.7927746850393701
11
0.8025571653543306
21
0.7914763779527559
0
LINE
8
BLACK
6
CONTINUOUS
10
0.8025571653543306
20
0.7914763779527559
11
0.8029079133858268
21
0.7894872440944881
0
LINE
8
BLACK
6
CONTINUOUS
10
0.8029079133858268
20
0.7894872440944881
11
0.8018979921259842
21
0.7877380708661417
0
LINE
8
BLACK
6
CONTINUOUS
10
0.8018979921259842
20
0.7877380708661417
11
0.7999999999999999
21
0.7870472440944881
0
LINE
8
BLACK
6
CONTINUOUS
10
0.7999999999999999
20
0.7870472440944881
11
0.7629527559055118
21
0.7870472440944881
0
LINE
8
BLACK
6
CONTINUOUS
10
0.7629527559055118
20
0.7870472440944881
11
0.7629527559055118
21
0.7329527559055118
0
LINE
8
BLACK
6
CONTINUOUS
10
0.7629527559055118
20
0.7329527559055118
11
0.7999999999999999
21
0.7329527559055118
0
LINE
8
BLACK
6
CONTINUOUS
10
0.7999999999999999
20
0.7329527559055118
11
0.8010099212598425
21
0.73277468503937
0
LINE
8
BLACK
6
CONTINUOUS
10
0.8010099212598425
20
0.73277468503937
11
0.8025571653543306
21
0.7314763779527559
0
LINE
8
BLACK
6
CONTINUOUS
10
0.8025571653543306
20
0.7314763779527559
11
0.8029079133858268
21
0.7294872440944882
0
LINE
8
BLACK
6
CONTINUOUS
10
0.8029079133858268
20
0.7294872440944882
11
0.8018979921259842
21
0.7277380708661417
0
LINE
8
BLACK
6
CONTINUOUS
10
0.8018979921259842
20
0.7277380708661417
11
0.7999999999999999
21
0.7270472440944882
0
LINE
8
BLACK
6
CONTINUOUS
10
0.7999999999999999
20
0.7270472440944882
11
0.76
21
0.7270472440944882
0
LINE
8
BLACK
6
CONTINUOUS
10
0.76
20
0.7270472440944882
11
0.7596164566929133
21
0.7271148425196851
0
LINE
8
BLACK
6
CONTINUOUS
10
0.7596164566929133
20
0.7271148425196851
11
0.7594872440944882
21
0.7270920866141732
0
LINE
8
BLACK
6
CONTINUOUS
10
0.7594872440944882
20
0.7270920866141732
11
0.7593736220472441
21
0.7271576771653543
0
LINE
8
BLACK
6
CONTINUOUS
10
0.7593736220472441
20
0.7271576771653543
11
0.7589900787401574
21
0.7272253149606299
0
LINE
8
BLACK
6
CONTINUOUS
10
0.7589900787401574
20
0.7272253149606299
11
0.7584023622047243
21
0.7277184251968504
0
LINE
8
BLACK
6
CONTINUOUS
10
0.7584023622047243
20
0.7277184251968504
11
0.7577380708661418
21
0.7281020078740157
0
LINE
8
BLACK
6
CONTINUOUS
10
0.7577380708661418
20
0.7281020078740157
11
0.7576469291338582
21
0.7283523228346457
0
LINE
8
BLACK
6
CONTINUOUS
10
0.7576469291338582
20
0.7283523228346457
11
0.7574428346456693
21
0.7285236220472441
0
LINE
8
BLACK
6
CONTINUOUS
10
0.7574428346456693
20
0.7285236220472441
11
0.7573095669291339
21
0.7292791732283465
0
LINE
8
BLACK
6
CONTINUOUS
10
0.7573095669291339
20
0.7292791732283465
11
0.7570472440944882
21
0.73
0
LINE
8
BLACK
6
CONTINUOUS
10
0.7570472440944882
20
0.73
11
0.7570472440944882
21
0.79
0
LINE
8
BLACK
6
CONTINUOUS
10
0.7570472440944882
20
0.79
11
0.757114842519685
21
0.7903835039370078
0
LINE
8
BLACK
6
CONTINUOUS
10
0.757114842519685
20
0.7903835039370078
11
0.7570920866141733
21
0.7905127559055118
0
LINE
8
BLACK
6
CONTINUOUS
10
0.7570920866141733
20
0.7905127559055118
11
0.7571576771653543
21
0.7906263385826772
0
LINE
8
BLACK
6
CONTINUOUS
10
0.7571576771653543
20
0.7906263385826772
11
0.7572253149606299
21
0.7910099212598425
0
LINE
8
BLACK
6
CONTINUOUS
10
0.7572253149606299
20
0.7910099212598425
11
0.7577184251968504
21
0.7915975984251968
0
LINE
8
BLACK
6
CONTINUOUS
10
0.7577184251968504
20
0.7915975984251968
11
0.7581020078740157
21
0.7922619291338583
0
LINE
8
BLACK
6
CONTINUOUS
10
0.7581020078740157
20
0.7922619291338583
11
0.7583523228346456
21
0.792353031496063
0
LINE
8
BLACK
6
CONTINUOUS
10
0.7583523228346456
20
0.792353031496063
11
0.7585236220472441
21
0.7925571653543307
0
LINE
8
BLACK
6
CONTINUOUS
10
0.7585236220472441
20
0.7925571653543307
11
0.7592791732283465
21
0.7926903937007874
0
LINE
8
BLACK
6
CONTINUOUS
10
0.7592791732283465
20
0.7926903937007874
11
0.76
21
0.7929527559055118
0
LINE
8
BLACK
6
CONTINUOUS
10
0.76
20
0.7929527559055118
11
0.7999999999999999
21
0.7929527559055118
0
LINE
8
BLACK
6
CONTINUOUS
10
0.7999999999999999
20
0.7929527559055118
11
0.8010099212598425
21
0.7927746850393701
0
LINE
8
BLACK
6
CONTINUOUS
10
0.8010416929133858
20
0.7573302755905512
11
0.8016714173228346
21
0.75581
0
LINE
8
BLACK
6
CONTINUOUS
10
0.8016714173228346
20
0.75581
11
0.8016714173228346
21
0.7361099999999999
0
LINE
8
BLACK
6
CONTINUOUS
10
0.8016714173228346
20
0.7361099999999999
11
0.8010416929133858
21
0.7345897244094488
0
LINE
8
BLACK
6
CONTINUOUS
10
0.8010416929133858
20
0.7345897244094488
11
0.7995214173228347
21
0.7339599999999999
0
LINE
8
BLACK
6
CONTINUOUS
10
0.7995214173228347
20
0.7339599999999999
11
0.7980011417322834
21
0.7345897244094488
0
LINE
8
BLACK
6
CONTINUOUS
10
0.7980011417322834
20
0.7345897244094488
11
0.7973714173228347
21
0.7361099999999999
0
LINE
8
BLACK
6
CONTINUOUS
10
0.7973714173228347
20
0.7361099999999999
11
0.7973714173228347
21
0.7396663385826772
0
LINE
8
BLACK
6
CONTINUOUS
10
0.7973714173228347
20
0.7396663385826772
11
0.793736653543307
21
0.73482
0
LINE
8
BLACK
6
CONTINUOUS
10
0.793736653543307
20
0.73482
11
0.7923207086614173
21
0.7339816141732284
0
LINE
8
BLACK
6
CONTINUOUS
10
0.7923207086614173
20
0.7339816141732284
11
0.7907266535433071
21
0.73439
0
LINE
8
BLACK
6
CONTINUOUS
10
0.7907266535433071
20
0.73439
11
0.7898882677165354
21
0.7358059448818898
0
LINE
8
BLACK
6
CONTINUOUS
10
0.7898882677165354
20
0.7358059448818898
11
0.790296653543307
21
0.7373999999999999
0
LINE
8
BLACK
6
CONTINUOUS
10
0.790296653543307
20
0.7373999999999999
11
0.7948064173228346
21
0.7434129921259842
0
LINE
8
BLACK
6
CONTINUOUS
10
0.7948064173228346
20
0.7434129921259842
11
0.7904963779527558
21
0.7477230708661418
0
LINE
8
BLACK
6
CONTINUOUS
10
0.7904963779527558
20
0.7477230708661418
11
0.7898666535433071
21
0.7492433464566929
0
LINE
8
BLACK
6
CONTINUOUS
10
0.7898666535433071
20
0.7492433464566929
11
0.7904963779527558
21
0.7507636220472441
0
LINE
8
BLACK
6
CONTINUOUS
10
0.7904963779527558
20
0.7507636220472441
11
0.7920166535433071
21
0.7513933464566929
0
LINE
8
BLACK
6
CONTINUOUS
10
0.7920166535433071
20
0.7513933464566929
11
0.7935369291338582
21
0.7507636220472441
0
LINE
8
BLACK
6
CONTINUOUS
10
0.7935369291338582
20
0.7507636220472441
11
0.7973714173228347
21
0.7469291338582676
0
LINE
8
BLACK
6
CONTINUOUS
10
0.7973714173228347
20
0.7469291338582676
11
0.7973714173228347
21
0.75581
0
LINE
8
BLACK
6
CONTINUOUS
10
0.7973714173228347
20
0.75581
11
0.7980011417322834
21
0.7573302755905512
0
LINE
8
BLACK
6
CONTINUOUS
10
0.7980011417322834
20
0.7573302755905512
11
0.7995214173228347
21
0.75796
0
LINE
8
BLACK
6
CONTINUOUS
10
0.7995214173228347
20
0.75796
11
0.8010416929133858
21
0.7573302755905512
0
LINE
8
BLACK
6
CONTINUOUS
10
0.8149933070866141
20
0.7577684645669291
11
0.8154924803149606
21
0.7577329921259842
0
LINE
8
BLACK
6
CONTINUOUS
10
0.8154924803149606
20
0.7577329921259842
11
0.8173686614173228
21
0.7567949212598425
0
LINE
8
BLACK
6
CONTINUOUS
10
0.8173686614173228
20
0.7567949212598425
11
0.8176004724409449
21
0.7565275590551181
0
LINE
8
BLACK
6
CONTINUOUS
10
0.8176004724409449
20
0.7565275590551181
11
0.8179273622047244
21
0.7563922047244094
0
LINE
8
BLACK
6
CONTINUOUS
10
0.8179273622047244
20
0.7563922047244094
11
0.8188654724409449
21
0.7554541338582677
0
LINE
8
BLACK
6
CONTINUOUS
10
0.8188654724409449
20
0.7554541338582677
11
0.8190008661417323
21
0.7551271653543307
0
LINE
8
BLACK
6
CONTINUOUS
10
0.8190008661417323
20
0.7551271653543307
11
0.8192682677165354
21
0.7548953149606299
0
LINE
8
BLACK
6
CONTINUOUS
10
0.8192682677165354
20
0.7548953149606299
11
0.8202063385826771
21
0.7530190551181102
0
LINE
8
BLACK
6
CONTINUOUS
10
0.8202063385826771
20
0.7530190551181102
11
0.8202236220472441
21
0.7527753149606299
0
LINE
8
BLACK
6
CONTINUOUS
10
0.8202236220472441
20
0.7527753149606299
11
0.820369094488189
21
0.7525790551181102
0
LINE
8
BLACK
6
CONTINUOUS
10
0.820369094488189
20
0.7525790551181102
11
0.8213072047244094
21
0.7488267322834645
0
LINE
8
BLACK
6
CONTINUOUS
10
0.8213072047244094
20
0.7488267322834645
11
0.8212670866141732
21
0.7485570866141732
0
LINE
8
BLACK
6
CONTINUOUS
10
0.8212670866141732
20
0.7485570866141732
11
0.8213714173228346
21
0.7483052362204724
0
LINE
8
BLACK
6
CONTINUOUS
10
0.8213714173228346
20
0.7483052362204724
11
0.8213714173228346
21
0.7436147637795275
0
LINE
8
BLACK
6
CONTINUOUS
10
0.8213714173228346
20
0.7436147637795275
11
0.8212670866141732
21
0.743362874015748
0
LINE
8
BLACK
6
CONTINUOUS
10
0.8212670866141732
20
0.743362874015748
11
0.8213072047244094
21
0.7430933070866141
0
LINE
8
BLACK
6
CONTINUOUS
10
0.8213072047244094
20
0.7430933070866141
11
0.820369094488189
21
0.739340905511811
0
LINE
8
BLACK
6
CONTINUOUS
10
0.820369094488189
20
0.739340905511811
11
0.8202236220472441
21
0.7391446062992126
0
LINE
8
BLACK
6
CONTINUOUS
10
0.8202236220472441
20
0.7391446062992126
11
0.8202063385826771
21
0.7389008661417322
0
LINE
8
BLACK
6
CONTINUOUS
10
0.8202063385826771
20
0.7389008661417322
11
0.8192682677165354
21
0.73702468503937
0
LINE
8
BLACK
6
CONTINUOUS
10
0.8192682677165354
20
0.73702468503937
11
0.8190008661417323
21
0.7367927952755905
0
LINE
8
BLACK
6
CONTINUOUS
10
0.8190008661417323
20
0.7367927952755905
11
0.8188654724409449
21
0.7364658661417323
0
LINE
8
BLACK
6
CONTINUOUS
10
0.8188654724409449
20
0.7364658661417323
11
0.8179273622047244
21
0.7355277952755905
0
LINE
8
BLACK
6
CONTINUOUS
10
0.8179273622047244
20
0.7355277952755905
11
0.8176004724409449
21
0.7353924015748031
0
LINE
8
BLACK
6
CONTINUOUS
10
0.8176004724409449
20
0.7353924015748031
11
0.8173686614173228
21
0.7351250787401574
0
LINE
8
BLACK
6
CONTINUOUS
10
0.8173686614173228
20
0.7351250787401574
11
0.8154924803149606
21
0.7341870078740157
0
LINE
8
BLACK
6
CONTINUOUS
10
0.8154924803149606
20
0.7341870078740157
11
0.8149933070866141
21
0.7341514960629921
0
LINE
8
BLACK
6
CONTINUOUS
10
0.8149933070866141
20
0.7341514960629921
11
0.8145309448818897
21
0.7339599999999999
0
LINE
8
BLACK
6
CONTINUOUS
10
0.8145309448818897
20
0.7339599999999999
11
0.8126547637795275
21
0.7339599999999999
0
LINE
8
BLACK
6
CONTINUOUS
10
0.8126547637795275
20
0.7339599999999999
11
0.8121924015748031
21
0.7341514960629921
0
LINE
8
BLACK
6
CONTINUOUS
10
0.8121924015748031
20
0.7341514960629921
11
0.8116932677165354
21
0.7341869685039369
0
LINE
8
BLACK
6
CONTINUOUS
10
0.8116932677165354
20
0.7341869685039369
11
0.8098170472440944
21
0.7351250787401574
0
LINE
8
BLACK
6
CONTINUOUS
10
0.8098170472440944
20
0.7351250787401574
11
0.8095851574803149
21
0.7353924015748031
0
LINE
8
BLACK
6
CONTINUOUS
10
0.8095851574803149
20
0.7353924015748031
11
0.8092582677165354
21
0.7355278346456693
0
LINE
8
BLACK
6
CONTINUOUS
10
0.8092582677165354
20
0.7355278346456693
11
0.8083201968503937
21
0.736465905511811
0
LINE
8
BLACK
6
CONTINUOUS
10
0.8083201968503937
20
0.736465905511811
11
0.8081847637795275
21
0.7367927559055117
0
LINE
8
BLACK
6
CONTINUOUS
10
0.8081847637795275
20
0.7367927559055117
11
0.8079174409448818
21
0.7370246456692913
0
LINE
8
BLACK
6
CONTINUOUS
10
0.8079174409448818
20
0.7370246456692913
11
0.8069793700787401
21
0.7389008267716535
0
LINE
8
BLACK
6
CONTINUOUS
10
0.8069793700787401
20
0.7389008267716535
11
0.8069620078740157
21
0.7391445275590551
0
LINE
8
BLACK
6
CONTINUOUS
10
0.8069620078740157
20
0.7391445275590551
11
0.8068165354330709
21
0.7393409448818897
0
LINE
8
BLACK
6
CONTINUOUS
10
0.8068165354330709
20
0.7393409448818897
11
0.8058784645669291
21
0.7430933464566929
0
LINE
8
BLACK
6
CONTINUOUS
10
0.8058784645669291
20
0.7430933464566929
11
0.8059185826771653
21
0.7433629527559055
0
LINE
8
BLACK
6
CONTINUOUS
10
0.8059185826771653
20
0.7433629527559055
11
0.8058142913385826
21
0.7436147637795275
0
LINE
8
BLACK
6
CONTINUOUS
10
0.8058142913385826
20
0.7436147637795275
11
0.8058142913385826
21
0.7483052362204724
0
LINE
8
BLACK
6
CONTINUOUS
10
0.8058142913385826
20
0.7483052362204724
11
0.8059185826771653
21
0.7485570472440944
0
LINE
8
BLACK
6
CONTINUOUS
10
0.8059185826771653
20
0.7485570472440944
11
0.8058784645669291
21
0.7488266929133858
0
LINE
8
BLACK
6
CONTINUOUS
10
0.8058784645669291
20
0.7488266929133858
11
0.8068165354330709
21
0.7525790157480314
0
LINE
8
BLACK
6
CONTINUOUS
10
0.8068165354330709
20
0.7525790157480314
11
0.8069620078740157
21
0.7527753543307086
0
LINE
8
BLACK
6
CONTINUOUS
10
0.8069620078740157
20
0.7527753543307086
11
0.8069793307086613
21
0.7530190944881889
0
LINE
8
BLACK
6
CONTINUOUS
10
0.8069793307086613
20
0.7530190944881889
11
0.8079174409448818
21
0.7548953149606299
0
LINE
8
BLACK
6
CONTINUOUS
10
0.8079174409448818
20
0.7548953149606299
11
0.8081847637795275
21
0.7551271653543307
0
LINE
8
BLACK
6
CONTINUOUS
10
0.8081847637795275
20
0.7551271653543307
11
0.8083201968503937
21
0.755454094488189
0
LINE
8
BLACK
6
CONTINUOUS
10
0.8083201968503937
20
0.755454094488189
11
0.8092582677165354
21
0.7563921653543307
0
LINE
8
BLACK
6
CONTINUOUS
10
0.8092582677165354
20
0.7563921653543307
11
0.8095851574803149
21
0.7565275590551181
0
LINE
8
BLACK
6
CONTINUOUS
10
0.8095851574803149
20
0.7565275590551181
11
0.8098170472440944
21
0.7567949212598425
0
LINE
8
BLACK
6
CONTINUOUS
10
0.8098170472440944
20
0.7567949212598425
11
0.8116932677165354
21
0.757733031496063
0
LINE
8
BLACK
6
CONTINUOUS
10
0.8116932677165354
20
0.757733031496063
11
0.8121924015748031
21
0.7577684645669291
0
LINE
8
BLACK
6
CONTINUOUS
10
0.8121924015748031
20
0.7577684645669291
11
0.8126547637795275
21
0.75796
0
LINE
8
BLACK
6
CONTINUOUS
10
0.8126547637795275
20
0.75796
11
0.8145309448818897
21
0.75796
0
LINE
8
BLACK
6
CONTINUOUS
10
0.8145309448818897
20
0.75796
11
0.8149933070866141
21
0.7577684645669291
0
LINE
8
BLACK
6
CONTINUOUS
10
0.8120520866141732
20
0.7531048818897638
11
0.8116074803149607
21
0.7526602755905512
0
LINE
8
BLACK
6
CONTINUOUS
10
0.8116074803149607
20
0.7526602755905512
11
0.8109309448818898
21
0.7513072440944881
0
LINE
8
BLACK
6
CONTINUOUS
10
0.8109309448818898
20
0.7513072440944881
11
0.8101142913385827
21
0.7480404724409448
0
LINE
8
BLACK
6
CONTINUOUS
10
0.8101142913385827
20
0.7480404724409448
11
0.8101142913385827
21
0.7438794488188977
0
LINE
8
BLACK
6
CONTINUOUS
10
0.8101142913385827
20
0.7438794488188977
11
0.8109309842519685
21
0.7406126377952755
0
LINE
8
BLACK
6
CONTINUOUS
10
0.8109309842519685
20
0.7406126377952755
11
0.8116074015748032
21
0.7392597637795275
0
LINE
8
BLACK
6
CONTINUOUS
10
0.8116074015748032
20
0.7392597637795275
11
0.8120520866141732
21
0.7388151181102363
0
LINE
8
BLACK
6
CONTINUOUS
10
0.8120520866141732
20
0.7388151181102363
11
0.8131623228346456
21
0.73826
0
LINE
8
BLACK
6
CONTINUOUS
10
0.8131623228346456
20
0.73826
11
0.8140234251968503
21
0.73826
0
LINE
8
BLACK
6
CONTINUOUS
10
0.8140234251968503
20
0.73826
11
0.8151335433070866
21
0.7388150787401575
0
LINE
8
BLACK
6
CONTINUOUS
10
0.8151335433070866
20
0.7388150787401575
11
0.8155782283464567
21
0.7392597244094488
0
LINE
8
BLACK
6
CONTINUOUS
10
0.8155782283464567
20
0.7392597244094488
11
0.8162547637795275
21
0.7406128346456693
0
LINE
8
BLACK
6
CONTINUOUS
10
0.8162547637795275
20
0.7406128346456693
11
0.8170714173228346
21
0.7438794881889763
0
LINE
8
BLACK
6
CONTINUOUS
10
0.8170714173228346
20
0.7438794881889763
11
0.8170714173228346
21
0.7480404724409448
0
LINE
8
BLACK
6
CONTINUOUS
10
0.8170714173228346
20
0.7480404724409448
11
0.8162547637795275
21
0.7513070866141732
0
LINE
8
BLACK
6
CONTINUOUS
10
0.8162547637795275
20
0.7513070866141732
11
0.8155781889763779
21
0.7526602362204724
0
LINE
8
BLACK
6
CONTINUOUS
10
0.8155781889763779
20
0.7526602362204724
11
0.8151335433070866
21
0.7531048818897638
0
LINE
8
BLACK
6
CONTINUOUS
10
0.8151335433070866
20
0.7531048818897638
11
0.8140234251968503
21
0.75366
0
LINE
8
BLACK
6
CONTINUOUS
10
0.8140234251968503
20
0.75366
11
0.8131623228346456
21
0.75366
0
LINE
8
BLACK
6
CONTINUOUS
10
0.8131623228346456
20
0.75366
11
0.8120520866141732
21
0.7531048818897638
0
LINE
8
BLACK
6
CONTINUOUS
10
0.8325592519685039
20
0.7578752755905511
11
0.8327763779527559
21
0.7579182283464567
0
LINE
8
BLACK
6
CONTINUOUS
10
0.8327763779527559
20
0.7579182283464567
11
0.8332964960629921
21
0.7575698818897637
0
LINE
8
BLACK
6
CONTINUOUS
10
0.8332964960629921
20
0.7575698818897637
11
0.833875
21
0.7573302755905512
0
LINE
8
BLACK
6
CONTINUOUS
10
0.833875
20
0.7573302755905512
11
0.83395968503937
21
0.757125748031496
0
LINE
8
BLACK
6
CONTINUOUS
10
0.83395968503937
20
0.757125748031496
11
0.8341436220472441
21
0.7570025984251968
0
LINE
8
BLACK
6
CONTINUOUS
10
0.8341436220472441
20
0.7570025984251968
11
0.8359017716535433
21
0.7543653937007874
0
LINE
8
BLACK
6
CONTINUOUS
10
0.8359017716535433
20
0.7543653937007874
11
0.8373806692913386
21
0.7528864960629921
0
LINE
8
BLACK
6
CONTINUOUS
10
0.8373806692913386
20
0.7528864960629921
11
0.838944842519685
21
0.7521044488188976
0
LINE
8
BLACK
6
CONTINUOUS
10
0.838944842519685
20
0.7521044488188976
11
0.8400229527559054
21
0.7508612992125984
0
LINE
8
BLACK
6
CONTINUOUS
10
0.8400229527559054
20
0.7508612992125984
11
0.8399062992125984
21
0.7492198818897637
0
LINE
8
BLACK
6
CONTINUOUS
10
0.8399062992125984
20
0.7492198818897637
11
0.8386631889763779
21
0.7481417322834646
0
LINE
8
BLACK
6
CONTINUOUS
10
0.8386631889763779
20
0.7481417322834646
11
0.8370217716535433
21
0.7482584251968504
0
LINE
8
BLACK
6
CONTINUOUS
10
0.8370217716535433
20
0.7482584251968504
11
0.8351455905511811
21
0.7491965354330709
0
LINE
8
BLACK
6
CONTINUOUS
10
0.8351455905511811
20
0.7491965354330709
11
0.8349137401574803
21
0.7494638188976378
0
LINE
8
BLACK
6
CONTINUOUS
10
0.8349137401574803
20
0.7494638188976378
11
0.8345868503937007
21
0.749599251968504
0
LINE
8
BLACK
6
CONTINUOUS
10
0.8345868503937007
20
0.749599251968504
11
0.8345047244094488
21
0.7496813779527559
0
LINE
8
BLACK
6
CONTINUOUS
10
0.8345047244094488
20
0.7496813779527559
11
0.8345047244094488
21
0.73826
0
LINE
8
BLACK
6
CONTINUOUS
10
0.8345047244094488
20
0.73826
11
0.8379833070866142
21
0.73826
0
LINE
8
BLACK
6
CONTINUOUS
10
0.8379833070866142
20
0.73826
11
0.8395035826771653
21
0.7376302755905512
0
LINE
8
BLACK
6
CONTINUOUS
10
0.8395035826771653
20
0.7376302755905512
11
0.8401333070866142
21
0.7361099999999999
0
LINE
8
BLACK
6
CONTINUOUS
10
0.8401333070866142
20
0.7361099999999999
11
0.8395035826771653
21
0.7345897244094488
0
LINE
8
BLACK
6
CONTINUOUS
10
0.8395035826771653
20
0.7345897244094488
11
0.8379833070866142
21
0.7339599999999999
0
LINE
8
BLACK
6
CONTINUOUS
10
0.8379833070866142
20
0.7339599999999999
11
0.8323547244094488
21
0.7339599999999999
0
LINE
8
BLACK
6
CONTINUOUS
10
0.8323547244094488
20
0.7339599999999999
11
0.8267261811023622
21
0.7339599999999999
0
LINE
8
BLACK
6
CONTINUOUS
10
0.8267261811023622
20
0.7339599999999999
11
0.8252059055118111
21
0.7345897244094488
0
LINE
8
BLACK
6
CONTINUOUS
10
0.8252059055118111
20
0.7345897244094488
11
0.8245761811023622
21
0.7361099999999999
0
LINE
8
BLACK
6
CONTINUOUS
10
0.8245761811023622
20
0.7361099999999999
11
0.8252059055118111
21
0.7376302755905512
0
LINE
8
BLACK
6
CONTINUOUS
10
0.8252059055118111
20
0.7376302755905512
11
0.8267261811023622
21
0.73826
0
LINE
8
BLACK
6
CONTINUOUS
10
0.8267261811023622
20
0.73826
11
0.8302047244094488
21
0.73826
0
LINE
8
BLACK
6
CONTINUOUS
10
0.8302047244094488
20
0.73826
11
0.8302047244094488
21
0.75581
0
LINE
8
BLACK
6
CONTINUOUS
10
0.8302047244094488
20
0.75581
11
0.8302894094488189
21
0.7560145275590551
0
LINE
8
BLACK
6
CONTINUOUS
10
0.8302894094488189
20
0.7560145275590551
11
0.8302464960629921
21
0.756231653543307
0
LINE
8
BLACK
6
CONTINUOUS
10
0.8302464960629921
20
0.756231653543307
11
0.8305948031496063
21
0.7567517716535432
0
LINE
8
BLACK
6
CONTINUOUS
10
0.8305948031496063
20
0.7567517716535432
11
0.8308344488188976
21
0.7573302755905512
0
LINE
8
BLACK
6
CONTINUOUS
10
0.8308344488188976
20
0.7573302755905512
11
0.831038937007874
21
0.7574149606299212
0
LINE
8
BLACK
6
CONTINUOUS
10
0.831038937007874
20
0.7574149606299212
11
0.831162125984252
21
0.7575988976377953
0
LINE
8
BLACK
6
CONTINUOUS
10
0.831162125984252
20
0.7575988976377953
11
0.8317762204724409
21
0.7577203543307086
0
LINE
8
BLACK
6
CONTINUOUS
10
0.8317762204724409
20
0.7577203543307086
11
0.8323547244094488
21
0.75796
0
LINE
8
BLACK
6
CONTINUOUS
10
0.8323547244094488
20
0.75796
11
0.8325592519685039
21
0.7578752755905511
0
LINE
8
BLACK
6
CONTINUOUS
10
0.6882369291338583
20
0.7598302755905512
11
0.6888666535433071
21
0.7583099999999999
0
LINE
8
BLACK
6
CONTINUOUS
10
0.6888666535433071
20
0.7583099999999999
11
0.6882369291338583
21
0.7567897244094488
0
LINE
8
BLACK
6
CONTINUOUS
10
0.6882369291338583
20
0.7567897244094488
11
0.686716653543307
21
0.7561599999999999
0
LINE
8
BLACK
6
CONTINUOUS
10
0.686716653543307
20
0.7561599999999999
11
0.6792594881889764
21
0.7561599999999999
0
LINE
8
BLACK
6
CONTINUOUS
10
0.6792594881889764
20
0.7561599999999999
11
0.6827061023622047
21
0.7522210236220472
0
LINE
8
BLACK
6
CONTINUOUS
10
0.6827061023622047
20
0.7522210236220472
11
0.6829484645669291
21
0.7515043307086614
0
LINE
8
BLACK
6
CONTINUOUS
10
0.6829484645669291
20
0.7515043307086614
11
0.6832380708661417
21
0.7508052362204725
0
LINE
8
BLACK
6
CONTINUOUS
10
0.6832380708661417
20
0.7508052362204725
11
0.683208779527559
21
0.7507346062992126
0
LINE
8
BLACK
6
CONTINUOUS
10
0.683208779527559
20
0.7507346062992126
11
0.6832333070866141
21
0.7506622047244095
0
LINE
8
BLACK
6
CONTINUOUS
10
0.6832333070866141
20
0.7506622047244095
11
0.6828978346456692
21
0.7499838976377953
0
LINE
8
BLACK
6
CONTINUOUS
10
0.6828978346456692
20
0.7499838976377953
11
0.6826083464566929
21
0.7492849606299212
0
LINE
8
BLACK
6
CONTINUOUS
10
0.6826083464566929
20
0.7492849606299212
11
0.682537716535433
21
0.7492557086614173
0
LINE
8
BLACK
6
CONTINUOUS
10
0.682537716535433
20
0.7492557086614173
11
0.6825038582677165
21
0.7491872047244095
0
LINE
8
BLACK
6
CONTINUOUS
10
0.6825038582677165
20
0.7491872047244095
11
0.6817871653543307
21
0.7489448031496063
0
LINE
8
BLACK
6
CONTINUOUS
10
0.6817871653543307
20
0.7489448031496063
11
0.6810880708661418
21
0.7486552362204725
0
LINE
8
BLACK
6
CONTINUOUS
10
0.6810880708661418
20
0.7486552362204725
11
0.6787813779527558
21
0.7486552362204725
0
LINE
8
BLACK
6
CONTINUOUS
10
0.6787813779527558
20
0.7486552362204725
11
0.6776711417322835
21
0.7481001181102362
0
LINE
8
BLACK
6
CONTINUOUS
10
0.6776711417322835
20
0.7481001181102362
11
0.6772264566929134
21
0.7476554330708661
0
LINE
8
BLACK
6
CONTINUOUS
10
0.6772264566929134
20
0.7476554330708661
11
0.6766714173228346
21
0.7465452755905512
0
LINE
8
BLACK
6
CONTINUOUS
10
0.6766714173228346
20
0.7465452755905512
11
0.6766714173228346
21
0.7428698818897638
0
LINE
8
BLACK
6
CONTINUOUS
10
0.6766714173228346
20
0.7428698818897638
11
0.6772264566929134
21
0.7417597244094488
0
LINE
8
BLACK
6
CONTINUOUS
10
0.6772264566929134
20
0.7417597244094488
11
0.6776711417322835
21
0.7413150787401575
0
LINE
8
BLACK
6
CONTINUOUS
10
0.6776711417322835
20
0.7413150787401575
11
0.6787813779527558
21
0.74076
0
LINE
8
BLACK
6
CONTINUOUS
10
0.6787813779527558
20
0.74076
11
0.6833948425196851
21
0.74076
0
LINE
8
BLACK
6
CONTINUOUS
10
0.6833948425196851
20
0.74076
11
0.6845049606299213
21
0.7413150787401575
0
LINE
8
BLACK
6
CONTINUOUS
10
0.6845049606299213
20
0.7413150787401575
11
0.6851964173228346
21
0.7420064960629921
0
LINE
8
BLACK
6
CONTINUOUS
10
0.6851964173228346
20
0.7420064960629921
11
0.6867166929133858
21
0.7426361811023622
0
LINE
8
BLACK
6
CONTINUOUS
10
0.6867166929133858
20
0.7426361811023622
11
0.688236968503937
21
0.7420064173228347
0
LINE
8
BLACK
6
CONTINUOUS
10
0.688236968503937
20
0.7420064173228347
11
0.6888666535433071
21
0.7404861417322834
0
LINE
8
BLACK
6
CONTINUOUS
10
0.6888666535433071
20
0.7404861417322834
11
0.6882368897637795
21
0.7389658661417323
0
LINE
8
BLACK
6
CONTINUOUS
10
0.6882368897637795
20
0.7389658661417323
11
0.687298779527559
21
0.7380277952755905
0
LINE
8
BLACK
6
CONTINUOUS
10
0.687298779527559
20
0.7380277952755905
11
0.6869718897637795
21
0.7378924015748032
0
LINE
8
BLACK
6
CONTINUOUS
10
0.6869718897637795
20
0.7378924015748032
11
0.6867400787401574
21
0.7376250787401575
0
LINE
8
BLACK
6
CONTINUOUS
10
0.6867400787401574
20
0.7376250787401575
11
0.6848638976377952
21
0.7366870078740158
0
LINE
8
BLACK
6
CONTINUOUS
10
0.6848638976377952
20
0.7366870078740158
11
0.6843647244094488
21
0.7366514960629921
0
LINE
8
BLACK
6
CONTINUOUS
10
0.6843647244094488
20
0.7366514960629921
11
0.6839023622047244
21
0.73646
0
LINE
8
BLACK
6
CONTINUOUS
10
0.6839023622047244
20
0.73646
11
0.6782737795275591
21
0.73646
0
LINE
8
BLACK
6
CONTINUOUS
10
0.6782737795275591
20
0.73646
11
0.6778113779527559
21
0.7366514960629921
0
LINE
8
BLACK
6
CONTINUOUS
10
0.6778113779527559
20
0.7366514960629921
11
0.6773122440944882
21
0.7366870078740158
0
LINE
8
BLACK
6
CONTINUOUS
10
0.6773122440944882
20
0.7366870078740158
11
0.675436062992126
21
0.7376251181102362
0
LINE
8
BLACK
6
CONTINUOUS
10
0.675436062992126
20
0.7376251181102362
11
0.6752042125984252
21
0.7378924015748032
0
LINE
8
BLACK
6
CONTINUOUS
10
0.6752042125984252
20
0.7378924015748032
11
0.6748773622047244
21
0.7380277952755905
0
LINE
8
BLACK
6
CONTINUOUS
10
0.6748773622047244
20
0.7380277952755905
11
0.6739392519685039
21
0.7389658661417323
0
LINE
8
BLACK
6
CONTINUOUS
10
0.6739392519685039
20
0.7389658661417323
11
0.6738038188976377
21
0.7392927952755906
0
LINE
8
BLACK
6
CONTINUOUS
10
0.6738038188976377
20
0.7392927952755906
11
0.6735364566929134
21
0.7395246850393701
0
LINE
8
BLACK
6
CONTINUOUS
10
0.6735364566929134
20
0.7395246850393701
11
0.6725983858267717
21
0.7414008661417323
0
LINE
8
BLACK
6
CONTINUOUS
10
0.6725983858267717
20
0.7414008661417323
11
0.6725629133858267
21
0.7419
0
LINE
8
BLACK
6
CONTINUOUS
10
0.6725629133858267
20
0.7419
11
0.6723714173228347
21
0.7423623622047244
0
LINE
8
BLACK
6
CONTINUOUS
10
0.6723714173228347
20
0.7423623622047244
11
0.6723714173228347
21
0.7470528346456693
0
LINE
8
BLACK
6
CONTINUOUS
10
0.6723714173228347
20
0.7470528346456693
11
0.6725629133858267
21
0.7475151574803149
0
LINE
8
BLACK
6
CONTINUOUS
10
0.6725629133858267
20
0.7475151574803149
11
0.6725983858267717
21
0.7480143307086614
0
LINE
8
BLACK
6
CONTINUOUS
10
0.6725983858267717
20
0.7480143307086614
11
0.6735364566929134
21
0.7498905511811024
0
LINE
8
BLACK
6
CONTINUOUS
10
0.6735364566929134
20
0.7498905511811024
11
0.6738038188976377
21
0.7501224409448819
0
LINE
8
BLACK
6
CONTINUOUS
10
0.6738038188976377
20
0.7501224409448819
11
0.6739392519685039
21
0.7504493700787401
0
LINE
8
BLACK
6
CONTINUOUS
10
0.6739392519685039
20
0.7504493700787401
11
0.6748773622047244
21
0.7513874409448819
0
LINE
8
BLACK
6
CONTINUOUS
10
0.6748773622047244
20
0.7513874409448819
11
0.6752042125984252
21
0.7515227952755905
0
LINE
8
BLACK
6
CONTINUOUS
10
0.6752042125984252
20
0.7515227952755905
11
0.675436062992126
21
0.7517901181102362
0
LINE
8
BLACK
6
CONTINUOUS
10
0.675436062992126
20
0.7517901181102362
11
0.6767810236220473
21
0.7524625984251968
0
LINE
8
BLACK
6
CONTINUOUS
10
0.6767810236220473
20
0.7524625984251968
11
0.6729033858267717
21
0.7568942125984252
0
LINE
8
BLACK
6
CONTINUOUS
10
0.6729033858267717
20
0.7568942125984252
11
0.6726609842519685
21
0.7576108661417322
0
LINE
8
BLACK
6
CONTINUOUS
10
0.6726609842519685
20
0.7576108661417322
11
0.6723714173228347
21
0.7583099999999999
0
LINE
8
BLACK
6
CONTINUOUS
10
0.6723714173228347
20
0.7583099999999999
11
0.6724006692913386
21
0.7583805905511811
0
LINE
8
BLACK
6
CONTINUOUS
10
0.6724006692913386
20
0.7583805905511811
11
0.6723761811023622
21
0.758453031496063
0
LINE
8
BLACK
6
CONTINUOUS
10
0.6723761811023622
20
0.758453031496063
11
0.6727116141732283
21
0.7591312992125984
0
LINE
8
BLACK
6
CONTINUOUS
10
0.6727116141732283
20
0.7591312992125984
11
0.6730011417322834
21
0.7598302755905512
0
LINE
8
BLACK
6
CONTINUOUS
10
0.6730011417322834
20
0.7598302755905512
11
0.6730717322834645
21
0.7598594881889763
0
LINE
8
BLACK
6
CONTINUOUS
10
0.6730717322834645
20
0.7598594881889763
11
0.6731056299212598
21
0.759928031496063
0
LINE
8
BLACK
6
CONTINUOUS
10
0.6731056299212598
20
0.759928031496063
11
0.673822283464567
21
0.7601703937007874
0
LINE
8
BLACK
6
CONTINUOUS
10
0.673822283464567
20
0.7601703937007874
11
0.6745214173228347
21
0.76046
0
LINE
8
BLACK
6
CONTINUOUS
10
0.6745214173228347
20
0.76046
11
0.686716653543307
21
0.76046
0
LINE
8
BLACK
6
CONTINUOUS
10
0.686716653543307
20
0.76046
11
0.6882369291338583
21
0.7598302755905512
0
LINE
8
BLACK
6
CONTINUOUS
10
0.7060607086614173
20
0.7598302755905512
11
0.7066904330708661
21
0.7583099999999999
0
LINE
8
BLACK
6
CONTINUOUS
10
0.7066904330708661
20
0.7583099999999999
11
0.7066904330708661
21
0.73861
0
LINE
8
BLACK
6
CONTINUOUS
10
0.7066904330708661
20
0.73861
11
0.7060607086614173
21
0.7370897244094488
0
LINE
8
BLACK
6
CONTINUOUS
10
0.7060607086614173
20
0.7370897244094488
11
0.7045404330708661
21
0.73646
0
LINE
8
BLACK
6
CONTINUOUS
10
0.7045404330708661
20
0.73646
11
0.703020157480315
21
0.7370897244094488
0
LINE
8
BLACK
6
CONTINUOUS
10
0.703020157480315
20
0.7370897244094488
11
0.7023904330708661
21
0.73861
0
LINE
8
BLACK
6
CONTINUOUS
10
0.7023904330708661
20
0.73861
11
0.7023904330708661
21
0.7458409448818898
0
LINE
8
BLACK
6
CONTINUOUS
10
0.7023904330708661
20
0.7458409448818898
11
0.7009693700787402
21
0.7458409448818898
0
LINE
8
BLACK
6
CONTINUOUS
10
0.7009693700787402
20
0.7458409448818898
11
0.6950446456692914
21
0.7373770472440945
0
LINE
8
BLACK
6
CONTINUOUS
10
0.6950446456692914
20
0.7373770472440945
11
0.6936569291338582
21
0.736492716535433
0
LINE
8
BLACK
6
CONTINUOUS
10
0.6936569291338582
20
0.736492716535433
11
0.6920503543307086
21
0.7368486614173229
0
LINE
8
BLACK
6
CONTINUOUS
10
0.6920503543307086
20
0.7368486614173229
11
0.6911660236220473
21
0.7382363779527559
0
LINE
8
BLACK
6
CONTINUOUS
10
0.6911660236220473
20
0.7382363779527559
11
0.691521968503937
21
0.7398429527559055
0
LINE
8
BLACK
6
CONTINUOUS
10
0.691521968503937
20
0.7398429527559055
11
0.6959299212598425
21
0.7461400393700788
0
LINE
8
BLACK
6
CONTINUOUS
10
0.6959299212598425
20
0.7461400393700788
11
0.6941979527559055
21
0.747006062992126
0
LINE
8
BLACK
6
CONTINUOUS
10
0.6941979527559055
20
0.747006062992126
11
0.6939661023622047
21
0.7472733464566929
0
LINE
8
BLACK
6
CONTINUOUS
10
0.6939661023622047
20
0.7472733464566929
11
0.6936392125984252
21
0.747408779527559
0
LINE
8
BLACK
6
CONTINUOUS
10
0.6936392125984252
20
0.747408779527559
11
0.6927011417322835
21
0.7483468503937007
0
LINE
8
BLACK
6
CONTINUOUS
10
0.6927011417322835
20
0.7483468503937007
11
0.6925657086614173
21
0.7486737401574803
0
LINE
8
BLACK
6
CONTINUOUS
10
0.6925657086614173
20
0.7486737401574803
11
0.6922983858267716
21
0.7489056299212599
0
LINE
8
BLACK
6
CONTINUOUS
10
0.6922983858267716
20
0.7489056299212599
11
0.6913602755905511
21
0.7507818503937008
0
LINE
8
BLACK
6
CONTINUOUS
10
0.6913602755905511
20
0.7507818503937008
11
0.6913248031496063
21
0.7512809842519685
0
LINE
8
BLACK
6
CONTINUOUS
10
0.6913248031496063
20
0.7512809842519685
11
0.6911333070866141
21
0.7517433464566929
0
LINE
8
BLACK
6
CONTINUOUS
10
0.6911333070866141
20
0.7517433464566929
11
0.6911333070866141
21
0.7545575984251969
0
LINE
8
BLACK
6
CONTINUOUS
10
0.6911333070866141
20
0.7545575984251969
11
0.6913248031496063
21
0.7550199212598425
0
LINE
8
BLACK
6
CONTINUOUS
10
0.6913248031496063
20
0.7550199212598425
11
0.6913602755905511
21
0.755519094488189
0
LINE
8
BLACK
6
CONTINUOUS
10
0.6913602755905511
20
0.755519094488189
11
0.6922983858267716
21
0.75739531496063
0
LINE
8
BLACK
6
CONTINUOUS
10
0.6922983858267716
20
0.75739531496063
11
0.6925657086614173
21
0.7576271653543307
0
LINE
8
BLACK
6
CONTINUOUS
10
0.6925657086614173
20
0.7576271653543307
11
0.6927011417322835
21
0.757954094488189
0
LINE
8
BLACK
6
CONTINUOUS
10
0.6927011417322835
20
0.757954094488189
11
0.6936392125984252
21
0.7588921653543307
0
LINE
8
BLACK
6
CONTINUOUS
10
0.6936392125984252
20
0.7588921653543307
11
0.6939661023622047
21
0.7590275590551181
0
LINE
8
BLACK
6
CONTINUOUS
10
0.6939661023622047
20
0.7590275590551181
11
0.6941979527559055
21
0.7592948818897638
0
LINE
8
BLACK
6
CONTINUOUS
10
0.6941979527559055
20
0.7592948818897638
11
0.6960741338582677
21
0.7602329921259843
0
LINE
8
BLACK
6
CONTINUOUS
10
0.6960741338582677
20
0.7602329921259843
11
0.6965732677165354
21
0.7602684645669291
0
LINE
8
BLACK
6
CONTINUOUS
10
0.6965732677165354
20
0.7602684645669291
11
0.6970356692913385
21
0.76046
0
LINE
8
BLACK
6
CONTINUOUS
10
0.6970356692913385
20
0.76046
11
0.7045404330708661
21
0.76046
0
LINE
8
BLACK
6
CONTINUOUS
10
0.7045404330708661
20
0.76046
11
0.7060607086614173
21
0.7598302755905512
0
LINE
8
BLACK
6
CONTINUOUS
10
0.6964330314960629
20
0.7556048818897637
11
0.6959884251968503
21
0.7551602755905512
0
LINE
8
BLACK
6
CONTINUOUS
10
0.6959884251968503
20
0.7551602755905512
11
0.6954333070866141
21
0.7540500393700788
0
LINE
8
BLACK
6
CONTINUOUS
10
0.6954333070866141
20
0.7540500393700788
11
0.6954333070866141
21
0.752250905511811
0
LINE
8
BLACK
6
CONTINUOUS
10
0.6954333070866141
20
0.752250905511811
11
0.6959884251968503
21
0.7511406692913386
0
LINE
8
BLACK
6
CONTINUOUS
10
0.6959884251968503
20
0.7511406692913386
11
0.6964330314960629
21
0.7506960236220472
0
LINE
8
BLACK
6
CONTINUOUS
10
0.6964330314960629
20
0.7506960236220472
11
0.6975432677165354
21
0.7501409448818898
0
LINE
8
BLACK
6
CONTINUOUS
10
0.6975432677165354
20
0.7501409448818898
11
0.7023904330708661
21
0.7501409448818898
0
LINE
8
BLACK
6
CONTINUOUS
10
0.7023904330708661
20
0.7501409448818898
11
0.7023904330708661
21
0.7561599999999999
0
LINE
8
BLACK
6
CONTINUOUS
10
0.7023904330708661
20
0.7561599999999999
11
0.6975432677165354
21
0.7561599999999999
0
LINE
8
BLACK
6
CONTINUOUS
10
0.6975432677165354
20
0.7561599999999999
11
0.6964330314960629
21
0.7556048818897637
0
LINE
8
BLACK
6
CONTINUOUS
10
0.8155089763779527
20
0.7851830708661417
11
0.8162018897637795
21
0.7849740157480315
0
LINE
8
BLACK
6
CONTINUOUS
10
0.8162018897637795
20
0.7849740157480315
11
0.8162556299212598
21
0.784873779527559
0
LINE
8
BLACK
6
CONTINUOUS
10
0.8162556299212598
20
0.784873779527559
11
0.8163607086614173
21
0.7848302755905512
0
LINE
8
BLACK
6
CONTINUOUS
10
0.8163607086614173
20
0.7848302755905512
11
0.8166376377952755
21
0.7841616929133858
0
LINE
8
BLACK
6
CONTINUOUS
10
0.8166376377952755
20
0.7841616929133858
11
0.8169797637795275
21
0.783523937007874
0
LINE
8
BLACK
6
CONTINUOUS
10
0.8169797637795275
20
0.783523937007874
11
0.817917874015748
21
0.7741429921259843
0
LINE
8
BLACK
6
CONTINUOUS
10
0.817917874015748
20
0.7741429921259843
11
0.817885
21
0.7740341338582677
0
LINE
8
BLACK
6
CONTINUOUS
10
0.817885
20
0.7740341338582677
11
0.8179285433070866
21
0.7739290944881889
0
LINE
8
BLACK
6
CONTINUOUS
10
0.8179285433070866
20
0.7739290944881889
11
0.8176515748031495
21
0.7732604724409449
0
LINE
8
BLACK
6
CONTINUOUS
10
0.8176515748031495
20
0.7732604724409449
11
0.8174425590551181
21
0.7725675984251968
0
LINE
8
BLACK
6
CONTINUOUS
10
0.8174425590551181
20
0.7725675984251968
11
0.8173423228346457
21
0.7725138188976378
0
LINE
8
BLACK
6
CONTINUOUS
10
0.8173423228346457
20
0.7725138188976378
11
0.8172988582677165
21
0.7724088188976378
0
LINE
8
BLACK
6
CONTINUOUS
10
0.8172988582677165
20
0.7724088188976378
11
0.8166302755905511
21
0.7721318503937008
0
LINE
8
BLACK
6
CONTINUOUS
10
0.8166302755905511
20
0.7721318503937008
11
0.8159924803149606
21
0.7717897244094488
0
LINE
8
BLACK
6
CONTINUOUS
10
0.8159924803149606
20
0.7717897244094488
11
0.8158836220472441
21
0.7718225590551181
0
LINE
8
BLACK
6
CONTINUOUS
10
0.8158836220472441
20
0.7718225590551181
11
0.8157785826771653
21
0.7717790551181102
0
LINE
8
BLACK
6
CONTINUOUS
10
0.8157785826771653
20
0.7717790551181102
11
0.8151097637795275
21
0.7720560629921259
0
LINE
8
BLACK
6
CONTINUOUS
10
0.8151097637795275
20
0.7720560629921259
11
0.8144170866141732
21
0.7722650787401575
0
LINE
8
BLACK
6
CONTINUOUS
10
0.8144170866141732
20
0.7722650787401575
11
0.8143633464566929
21
0.7723651968503937
0
LINE
8
BLACK
6
CONTINUOUS
10
0.8143633464566929
20
0.7723651968503937
11
0.8142583070866142
21
0.7724087401574803
0
LINE
8
BLACK
6
CONTINUOUS
10
0.8142583070866142
20
0.7724087401574803
11
0.8135668503937008
21
0.7731001181102362
0
LINE
8
BLACK
6
CONTINUOUS
10
0.8135668503937008
20
0.7731001181102362
11
0.8124567322834646
21
0.7736552362204724
0
LINE
8
BLACK
6
CONTINUOUS
10
0.8124567322834646
20
0.7736552362204724
11
0.8087813779527558
21
0.7736552362204724
0
LINE
8
BLACK
6
CONTINUOUS
10
0.8087813779527558
20
0.7736552362204724
11
0.8076711417322835
21
0.7731001181102362
0
LINE
8
BLACK
6
CONTINUOUS
10
0.8076711417322835
20
0.7731001181102362
11
0.8072264566929134
21
0.7726554330708661
0
LINE
8
BLACK
6
CONTINUOUS
10
0.8072264566929134
20
0.7726554330708661
11
0.8066714173228346
21
0.7715452755905512
0
LINE
8
BLACK
6
CONTINUOUS
10
0.8066714173228346
20
0.7715452755905512
11
0.8066714173228346
21
0.7678698818897638
0
LINE
8
BLACK
6
CONTINUOUS
10
0.8066714173228346
20
0.7678698818897638
11
0.8072264566929134
21
0.7667597244094488
0
LINE
8
BLACK
6
CONTINUOUS
10
0.8072264566929134
20
0.7667597244094488
11
0.8076711417322835
21
0.7663150787401575
0
LINE
8
BLACK
6
CONTINUOUS
10
0.8076711417322835
20
0.7663150787401575
11
0.8087813779527558
21
0.76576
0
LINE
8
BLACK
6
CONTINUOUS
10
0.8087813779527558
20
0.76576
11
0.8124567322834646
21
0.76576
0
LINE
8
BLACK
6
CONTINUOUS
10
0.8124567322834646
20
0.76576
11
0.8135668503937008
21
0.7663150787401575
0
LINE
8
BLACK
6
CONTINUOUS
10
0.8135668503937008
20
0.7663150787401575
11
0.8142583070866142
21
0.7670064960629921
0
LINE
8
BLACK
6
CONTINUOUS
10
0.8142583070866142
20
0.7670064960629921
11
0.8157785826771653
21
0.7676361811023622
0
LINE
8
BLACK
6
CONTINUOUS
10
0.8157785826771653
20
0.7676361811023622
11
0.8172988582677165
21
0.7670064173228346
0
LINE
8
BLACK
6
CONTINUOUS
10
0.8172988582677165
20
0.7670064173228346
11
0.8179285433070866
21
0.7654861417322835
0
LINE
8
BLACK
6
CONTINUOUS
10
0.8179285433070866
20
0.7654861417322835
11
0.817298779527559
21
0.7639658661417322
0
LINE
8
BLACK
6
CONTINUOUS
10
0.817298779527559
20
0.7639658661417322
11
0.8163606692913385
21
0.7630277952755905
0
LINE
8
BLACK
6
CONTINUOUS
10
0.8163606692913385
20
0.7630277952755905
11
0.8160337795275591
21
0.7628924015748031
0
LINE
8
BLACK
6
CONTINUOUS
10
0.8160337795275591
20
0.7628924015748031
11
0.8158019685039369
21
0.7626250787401575
0
LINE
8
BLACK
6
CONTINUOUS
10
0.8158019685039369
20
0.7626250787401575
11
0.8139257874015747
21
0.7616870078740158
0
LINE
8
BLACK
6
CONTINUOUS
10
0.8139257874015747
20
0.7616870078740158
11
0.8134266141732284
21
0.7616514960629921
0
LINE
8
BLACK
6
CONTINUOUS
10
0.8134266141732284
20
0.7616514960629921
11
0.812964251968504
21
0.76146
0
LINE
8
BLACK
6
CONTINUOUS
10
0.812964251968504
20
0.76146
11
0.8082737795275591
21
0.76146
0
LINE
8
BLACK
6
CONTINUOUS
10
0.8082737795275591
20
0.76146
11
0.8078113779527559
21
0.7616514960629921
0
LINE
8
BLACK
6
CONTINUOUS
10
0.8078113779527559
20
0.7616514960629921
11
0.8073122440944882
21
0.7616870078740158
0
LINE
8
BLACK
6
CONTINUOUS
10
0.8073122440944882
20
0.7616870078740158
11
0.805436062992126
21
0.7626251181102363
0
LINE
8
BLACK
6
CONTINUOUS
10
0.805436062992126
20
0.7626251181102363
11
0.8052042125984252
21
0.7628924015748031
0
LINE
8
BLACK
6
CONTINUOUS
10
0.8052042125984252
20
0.7628924015748031
11
0.8048773622047244
21
0.7630277952755905
0
LINE
8
BLACK
6
CONTINUOUS
10
0.8048773622047244
20
0.7630277952755905
11
0.8039392519685039
21
0.7639658661417322
0
LINE
8
BLACK
6
CONTINUOUS
10
0.8039392519685039
20
0.7639658661417322
11
0.8038038188976377
21
0.7642927952755906
0
LINE
8
BLACK
6
CONTINUOUS
10
0.8038038188976377
20
0.7642927952755906
11
0.8035364566929134
21
0.7645246850393701
0
LINE
8
BLACK
6
CONTINUOUS
10
0.8035364566929134
20
0.7645246850393701
11
0.8025983858267717
21
0.7664008661417323
0
LINE
8
BLACK
6
CONTINUOUS
10
0.8025983858267717
20
0.7664008661417323
11
0.8025629133858267
21
0.7669
0
LINE
8
BLACK
6
CONTINUOUS
10
0.8025629133858267
20
0.7669
11
0.8023714173228347
21
0.7673623622047244
0
LINE
8
BLACK
6
CONTINUOUS
10
0.8023714173228347
20
0.7673623622047244
11
0.8023714173228347
21
0.7720528346456693
0
LINE
8
BLACK
6
CONTINUOUS
10
0.8023714173228347
20
0.7720528346456693
11
0.8025629133858267
21
0.772515157480315
0
LINE
8
BLACK
6
CONTINUOUS
10
0.8025629133858267
20
0.772515157480315
11
0.8025983858267717
21
0.7730143307086614
0
LINE
8
BLACK
6
CONTINUOUS
10
0.8025983858267717
20
0.7730143307086614
11
0.8035364566929134
21
0.7748905511811024
0
LINE
8
BLACK
6
CONTINUOUS
10
0.8035364566929134
20
0.7748905511811024
11
0.8038038188976377
21
0.7751224409448819
0
LINE
8
BLACK
6
CONTINUOUS
10
0.8038038188976377
20
0.7751224409448819
11
0.8039392519685039
21
0.7754493700787402
0
LINE
8
BLACK
6
CONTINUOUS
10
0.8039392519685039
20
0.7754493700787402
11
0.8048773622047244
21
0.7763874409448819
0
LINE
8
BLACK
6
CONTINUOUS
10
0.8048773622047244
20
0.7763874409448819
11
0.8052042125984252
21
0.7765227952755905
0
LINE
8
BLACK
6
CONTINUOUS
10
0.8052042125984252
20
0.7765227952755905
11
0.805436062992126
21
0.7767901181102362
0
LINE
8
BLACK
6
CONTINUOUS
10
0.805436062992126
20
0.7767901181102362
11
0.8073122440944882
21
0.7777282283464567
0
LINE
8
BLACK
6
CONTINUOUS
10
0.8073122440944882
20
0.7777282283464567
11
0.8078113779527559
21
0.7777637007874015
0
LINE
8
BLACK
6
CONTINUOUS
10
0.8078113779527559
20
0.7777637007874015
11
0.8082737795275591
21
0.7779552362204725
0
LINE
8
BLACK
6
CONTINUOUS
10
0.8082737795275591
20
0.7779552362204725
11
0.812964251968504
21
0.7779552362204725
0
LINE
8
BLACK
6
CONTINUOUS
10
0.812964251968504
20
0.7779552362204725
11
0.8132260236220472
21
0.7778467716535433
0
LINE
8
BLACK
6
CONTINUOUS
10
0.8132260236220472
20
0.7778467716535433
11
0.8128947244094488
21
0.78116
0
LINE
8
BLACK
6
CONTINUOUS
10
0.8128947244094488
20
0.78116
11
0.8054594881889764
21
0.78116
0
LINE
8
BLACK
6
CONTINUOUS
10
0.8054594881889764
20
0.78116
11
0.8039392125984252
21
0.7817897244094488
0
LINE
8
BLACK
6
CONTINUOUS
10
0.8039392125984252
20
0.7817897244094488
11
0.8033094881889764
21
0.78331
0
LINE
8
BLACK
6
CONTINUOUS
10
0.8033094881889764
20
0.78331
11
0.8039392125984252
21
0.7848302755905512
0
LINE
8
BLACK
6
CONTINUOUS
10
0.8039392125984252
20
0.7848302755905512
11
0.8054594881889764
21
0.7854599999999999
0
LINE
8
BLACK
6
CONTINUOUS
10
0.8054594881889764
20
0.7854599999999999
11
0.8148404330708662
21
0.7854599999999999
0
LINE
8
BLACK
6
CONTINUOUS
10
0.8148404330708662
20
0.7854599999999999
11
0.8155089763779527
21
0.7851830708661417
0
LINE
8
BLACK
6
CONTINUOUS
10
0.8360607086614174
20
0.7848302755905512
11
0.8366904330708661
21
0.78331
0
LINE
8
BLACK
6
CONTINUOUS
10
0.8366904330708661
20
0.78331
11
0.8366904330708661
21
0.76361
0
LINE
8
BLACK
6
CONTINUOUS
10
0.8366904330708661
20
0.76361
11
0.8360607086614174
21
0.7620897244094488
0
LINE
8
BLACK
6
CONTINUOUS
10
0.8360607086614174
20
0.7620897244094488
11
0.8345404330708661
21
0.76146
0
LINE
8
BLACK
6
CONTINUOUS
10
0.8345404330708661
20
0.76146
11
0.833020157480315
21
0.7620897244094488
0
LINE
8
BLACK
6
CONTINUOUS
10
0.833020157480315
20
0.7620897244094488
11
0.8323904330708661
21
0.76361
0
LINE
8
BLACK
6
CONTINUOUS
10
0.8323904330708661
20
0.76361
11
0.8323904330708661
21
0.7708409448818897
0
LINE
8
BLACK
6
CONTINUOUS
10
0.8323904330708661
20
0.7708409448818897
11
0.8309693700787402
21
0.7708409448818897
0
LINE
8
BLACK
6
CONTINUOUS
10
0.8309693700787402
20
0.7708409448818897
11
0.8250446456692914
21
0.7623770472440945
0
LINE
8
BLACK
6
CONTINUOUS
10
0.8250446456692914
20
0.7623770472440945
11
0.8236569291338582
21
0.761492716535433
0
LINE
8
BLACK
6
CONTINUOUS
10
0.8236569291338582
20
0.761492716535433
11
0.8220503543307086
21
0.7618486614173228
0
LINE
8
BLACK
6
CONTINUOUS
10
0.8220503543307086
20
0.7618486614173228
11
0.8211660236220473
21
0.7632363779527559
0
LINE
8
BLACK
6
CONTINUOUS
10
0.8211660236220473
20
0.7632363779527559
11
0.821521968503937
21
0.7648429527559055
0
LINE
8
BLACK
6
CONTINUOUS
10
0.821521968503937
20
0.7648429527559055
11
0.8259299212598425
21
0.7711400393700787
0
LINE
8
BLACK
6
CONTINUOUS
10
0.8259299212598425
20
0.7711400393700787
11
0.8241979527559055
21
0.7720060629921259
0
LINE
8
BLACK
6
CONTINUOUS
10
0.8241979527559055
20
0.7720060629921259
11
0.8239661023622047
21
0.7722733464566929
0
LINE
8
BLACK
6
CONTINUOUS
10
0.8239661023622047
20
0.7722733464566929
11
0.8236392125984252
21
0.772408779527559
0
LINE
8
BLACK
6
CONTINUOUS
10
0.8236392125984252
20
0.772408779527559
11
0.8227011417322835
21
0.7733468503937008
0
LINE
8
BLACK
6
CONTINUOUS
10
0.8227011417322835
20
0.7733468503937008
11
0.8225657086614173
21
0.7736737401574802
0
LINE
8
BLACK
6
CONTINUOUS
10
0.8225657086614173
20
0.7736737401574802
11
0.8222983858267716
21
0.7739056299212598
0
LINE
8
BLACK
6
CONTINUOUS
10
0.8222983858267716
20
0.7739056299212598
11
0.8213602755905511
21
0.7757818503937007
0
LINE
8
BLACK
6
CONTINUOUS
10
0.8213602755905511
20
0.7757818503937007
11
0.8213248031496063
21
0.7762809842519685
0
LINE
8
BLACK
6
CONTINUOUS
10
0.8213248031496063
20
0.7762809842519685
11
0.8211333070866141
21
0.7767433464566929
0
LINE
8
BLACK
6
CONTINUOUS
10
0.8211333070866141
20
0.7767433464566929
11
0.8211333070866141
21
0.7795575984251968
0
LINE
8
BLACK
6
CONTINUOUS
10
0.8211333070866141
20
0.7795575984251968
11
0.8213248031496063
21
0.7800199212598425
0
LINE
8
BLACK
6
CONTINUOUS
10
0.8213248031496063
20
0.7800199212598425
11
0.8213602755905511
21
0.780519094488189
0
LINE
8
BLACK
6
CONTINUOUS
10
0.8213602755905511
20
0.780519094488189
11
0.8222983858267716
21
0.7823953149606299
0
LINE
8
BLACK
6
CONTINUOUS
10
0.8222983858267716
20
0.7823953149606299
11
0.8225657086614173
21
0.7826271653543307
0
LINE
8
BLACK
6
CONTINUOUS
10
0.8225657086614173
20
0.7826271653543307
11
0.8227011417322835
21
0.782954094488189
0
LINE
8
BLACK
6
CONTINUOUS
10
0.8227011417322835
20
0.782954094488189
11
0.8236392125984252
21
0.7838921653543307
0
LINE
8
BLACK
6
CONTINUOUS
10
0.8236392125984252
20
0.7838921653543307
11
0.8239661023622047
21
0.7840275590551181
0
LINE
8
BLACK
6
CONTINUOUS
10
0.8239661023622047
20
0.7840275590551181
11
0.8241979527559055
21
0.7842948818897637
0
LINE
8
BLACK
6
CONTINUOUS
10
0.8241979527559055
20
0.7842948818897637
11
0.8260741338582677
21
0.7852329921259842
0
LINE
8
BLACK
6
CONTINUOUS
10
0.8260741338582677
20
0.7852329921259842
11
0.8265732677165354
21
0.7852684645669291
0
LINE
8
BLACK
6
CONTINUOUS
10
0.8265732677165354
20
0.7852684645669291
11
0.8270356692913385
21
0.7854599999999999
0
LINE
8
BLACK
6
CONTINUOUS
10
0.8270356692913385
20
0.7854599999999999
11
0.8345404330708661
21
0.7854599999999999
0
LINE
8
BLACK
6
CONTINUOUS
10
0.8345404330708661
20
0.7854599999999999
11
0.8360607086614174
21
0.7848302755905512
0
LINE
8
BLACK
6
CONTINUOUS
10
0.826433031496063
20
0.7806048818897637
11
0.8259884251968503
21
0.7801602755905511
0
LINE
8
BLACK
6
CONTINUOUS
10
0.8259884251968503
20
0.7801602755905511
11
0.8254333070866141
21
0.7790500393700788
0
LINE
8
BLACK
6
CONTINUOUS
10
0.8254333070866141
20
0.7790500393700788
11
0.8254333070866141
21
0.777250905511811
0
LINE
8
BLACK
6
CONTINUOUS
10
0.8254333070866141
20
0.777250905511811
11
0.8259884251968503
21
0.7761406692913385
0
LINE
8
BLACK
6
CONTINUOUS
10
0.8259884251968503
20
0.7761406692913385
11
0.826433031496063
21
0.7756960236220473
0
LINE
8
BLACK
6
CONTINUOUS
10
0.826433031496063
20
0.7756960236220473
11
0.8275432677165354
21
0.7751409448818898
0
LINE
8
BLACK
6
CONTINUOUS
10
0.8275432677165354
20
0.7751409448818898
11
0.8323904330708661
21
0.7751409448818898
0
LINE
8
BLACK
6
CONTINUOUS
10
0.8323904330708661
20
0.7751409448818898
11
0.8323904330708661
21
0.78116
0
LINE
8
BLACK
6
CONTINUOUS
10
0.8323904330708661
20
0.78116
11
0.8275432677165354
21
0.78116
0
LINE
8
BLACK
6
CONTINUOUS
10
0.8275432677165354
20
0.78116
11
0.826433031496063
21
0.7806048818897637
0
LINE
8
BLACK
6
CONTINUOUS
10
0.6810416929133858
20
0.7873302755905511
11
0.6816714173228346
21
0.78581
0
LINE
8
BLACK
6
CONTINUOUS
10
0.6816714173228346
20
0.78581
11
0.6816714173228346
21
0.76611
0
LINE
8
BLACK
6
CONTINUOUS
10
0.6816714173228346
20
0.76611
11
0.6810416929133858
21
0.7645897244094488
0
LINE
8
BLACK
6
CONTINUOUS
10
0.6810416929133858
20
0.7645897244094488
11
0.6795214173228347
21
0.76396
0
LINE
8
BLACK
6
CONTINUOUS
10
0.6795214173228347
20
0.76396
11
0.6780011417322834
21
0.7645897244094488
0
LINE
8
BLACK
6
CONTINUOUS
10
0.6780011417322834
20
0.7645897244094488
11
0.6773714173228347
21
0.76611
0
LINE
8
BLACK
6
CONTINUOUS
10
0.6773714173228347
20
0.76611
11
0.6773714173228347
21
0.7696663385826772
0
LINE
8
BLACK
6
CONTINUOUS
10
0.6773714173228347
20
0.7696663385826772
11
0.673736653543307
21
0.7648199999999999
0
LINE
8
BLACK
6
CONTINUOUS
10
0.673736653543307
20
0.7648199999999999
11
0.6723207086614174
21
0.7639816141732283
0
LINE
8
BLACK
6
CONTINUOUS
10
0.6723207086614174
20
0.7639816141732283
11
0.6707266535433071
21
0.76439
0
LINE
8
BLACK
6
CONTINUOUS
10
0.6707266535433071
20
0.76439
11
0.6698882677165354
21
0.7658059448818898
0
LINE
8
BLACK
6
CONTINUOUS
10
0.6698882677165354
20
0.7658059448818898
11
0.670296653543307
21
0.7674
0
LINE
8
BLACK
6
CONTINUOUS
10
0.670296653543307
20
0.7674
11
0.6748064173228346
21
0.7734129921259842
0
LINE
8
BLACK
6
CONTINUOUS
10
0.6748064173228346
20
0.7734129921259842
11
0.6704963779527559
21
0.7777230708661417
0
LINE
8
BLACK
6
CONTINUOUS
10
0.6704963779527559
20
0.7777230708661417
11
0.6698666535433071
21
0.7792433464566929
0
LINE
8
BLACK
6
CONTINUOUS
10
0.6698666535433071
20
0.7792433464566929
11
0.6704963779527559
21
0.780763622047244
0
LINE
8
BLACK
6
CONTINUOUS
10
0.6704963779527559
20
0.780763622047244
11
0.6720166535433071
21
0.7813933464566929
0
LINE
8
BLACK
6
CONTINUOUS
10
0.6720166535433071
20
0.7813933464566929
11
0.6735369291338582
21
0.780763622047244
0
LINE
8
BLACK
6
CONTINUOUS
10
0.6735369291338582
20
0.780763622047244
11
0.6773714173228347
21
0.7769291338582677
0
LINE
8
BLACK
6
CONTINUOUS
10
0.6773714173228347
20
0.7769291338582677
11
0.6773714173228347
21
0.78581
0
LINE
8
BLACK
6
CONTINUOUS
10
0.6773714173228347
20
0.78581
11
0.6780011417322834
21
0.7873302755905511
0
LINE
8
BLACK
6
CONTINUOUS
10
0.6780011417322834
20
0.7873302755905511
11
0.6795214173228347
21
0.78796
0
LINE
8
BLACK
6
CONTINUOUS
10
0.6795214173228347
20
0.78796
11
0.6810416929133858
21
0.7873302755905511
0
LINE
8
BLACK
6
CONTINUOUS
10
0.6949933070866141
20
0.7877684645669291
11
0.6954924803149606
21
0.7877329921259842
0
LINE
8
BLACK
6
CONTINUOUS
10
0.6954924803149606
20
0.7877329921259842
11
0.6973686614173228
21
0.7867949212598425
0
LINE
8
BLACK
6
CONTINUOUS
10
0.6973686614173228
20
0.7867949212598425
11
0.6976004724409449
21
0.7865275590551181
0
LINE
8
BLACK
6
CONTINUOUS
10
0.6976004724409449
20
0.7865275590551181
11
0.6979273622047244
21
0.7863922047244094
0
LINE
8
BLACK
6
CONTINUOUS
10
0.6979273622047244
20
0.7863922047244094
11
0.6988654724409449
21
0.7854541338582677
0
LINE
8
BLACK
6
CONTINUOUS
10
0.6988654724409449
20
0.7854541338582677
11
0.6990008661417323
21
0.7851271653543307
0
LINE
8
BLACK
6
CONTINUOUS
10
0.6990008661417323
20
0.7851271653543307
11
0.6992682677165354
21
0.7848953149606299
0
LINE
8
BLACK
6
CONTINUOUS
10
0.6992682677165354
20
0.7848953149606299
11
0.7002063385826771
21
0.7830190551181102
0
LINE
8
BLACK
6
CONTINUOUS
10
0.7002063385826771
20
0.7830190551181102
11
0.7002236220472441
21
0.7827753149606299
0
LINE
8
BLACK
6
CONTINUOUS
10
0.7002236220472441
20
0.7827753149606299
11
0.700369094488189
21
0.7825790551181102
0
LINE
8
BLACK
6
CONTINUOUS
10
0.700369094488189
20
0.7825790551181102
11
0.7013072047244094
21
0.7788267322834646
0
LINE
8
BLACK
6
CONTINUOUS
10
0.7013072047244094
20
0.7788267322834646
11
0.7012670866141733
21
0.7785570866141732
0
LINE
8
BLACK
6
CONTINUOUS
10
0.7012670866141733
20
0.7785570866141732
11
0.7013714173228346
21
0.7783052362204724
0
LINE
8
BLACK
6
CONTINUOUS
10
0.7013714173228346
20
0.7783052362204724
11
0.7013714173228346
21
0.7736147637795275
0
LINE
8
BLACK
6
CONTINUOUS
10
0.7013714173228346
20
0.7736147637795275
11
0.7012670866141733
21
0.773362874015748
0
LINE
8
BLACK
6
CONTINUOUS
10
0.7012670866141733
20
0.773362874015748
11
0.7013072047244094
21
0.7730933070866142
0
LINE
8
BLACK
6
CONTINUOUS
10
0.7013072047244094
20
0.7730933070866142
11
0.700369094488189
21
0.769340905511811
0
LINE
8
BLACK
6
CONTINUOUS
10
0.700369094488189
20
0.769340905511811
11
0.7002236220472441
21
0.7691446062992126
0
LINE
8
BLACK
6
CONTINUOUS
10
0.7002236220472441
20
0.7691446062992126
11
0.7002063385826771
21
0.7689008661417323
0
LINE
8
BLACK
6
CONTINUOUS
10
0.7002063385826771
20
0.7689008661417323
11
0.6992682677165354
21
0.76702468503937
0
LINE
8
BLACK
6
CONTINUOUS
10
0.6992682677165354
20
0.76702468503937
11
0.6990008661417323
21
0.7667927952755905
0
LINE
8
BLACK
6
CONTINUOUS
10
0.6990008661417323
20
0.7667927952755905
11
0.6988654724409449
21
0.7664658661417323
0
LINE
8
BLACK
6
CONTINUOUS
10
0.6988654724409449
20
0.7664658661417323
11
0.6979273622047244
21
0.7655277952755906
0
LINE
8
BLACK
6
CONTINUOUS
10
0.6979273622047244
20
0.7655277952755906
11
0.6976004724409449
21
0.7653924015748031
0
LINE
8
BLACK
6
CONTINUOUS
10
0.6976004724409449
20
0.7653924015748031
11
0.6973686614173228
21
0.7651250787401574
0
LINE
8
BLACK
6
CONTINUOUS
10
0.6973686614173228
20
0.7651250787401574
11
0.6954924803149606
21
0.7641870078740157
0
LINE
8
BLACK
6
CONTINUOUS
10
0.6954924803149606
20
0.7641870078740157
11
0.6949933070866141
21
0.7641514960629922
0
LINE
8
BLACK
6
CONTINUOUS
10
0.6949933070866141
20
0.7641514960629922
11
0.6945309448818897
21
0.76396
0
LINE
8
BLACK
6
CONTINUOUS
10
0.6945309448818897
20
0.76396
11
0.6926547637795275
21
0.76396
0
LINE
8
BLACK
6
CONTINUOUS
10
0.6926547637795275
20
0.76396
11
0.6921924015748031
21
0.7641514960629922
0
LINE
8
BLACK
6
CONTINUOUS
10
0.6921924015748031
20
0.7641514960629922
11
0.6916932677165354
21
0.764186968503937
0
LINE
8
BLACK
6
CONTINUOUS
10
0.6916932677165354
20
0.764186968503937
11
0.6898170472440944
21
0.7651250787401574
0
LINE
8
BLACK
6
CONTINUOUS
10
0.6898170472440944
20
0.7651250787401574
11
0.6895851574803149
21
0.7653924015748031
0
LINE
8
BLACK
6
CONTINUOUS
10
0.6895851574803149
20
0.7653924015748031
11
0.6892582677165354
21
0.7655278346456693
0
LINE
8
BLACK
6
CONTINUOUS
10
0.6892582677165354
20
0.7655278346456693
11
0.6883201968503937
21
0.766465905511811
0
LINE
8
BLACK
6
CONTINUOUS
10
0.6883201968503937
20
0.766465905511811
11
0.6881847637795275
21
0.7667927559055118
0
LINE
8
BLACK
6
CONTINUOUS
10
0.6881847637795275
20
0.7667927559055118
11
0.6879174409448818
21
0.7670246456692913
0
LINE
8
BLACK
6
CONTINUOUS
10
0.6879174409448818
20
0.7670246456692913
11
0.6869793700787401
21
0.7689008267716535
0
LINE
8
BLACK
6
CONTINUOUS
10
0.6869793700787401
20
0.7689008267716535
11
0.6869620078740157
21
0.769144527559055
0
LINE
8
BLACK
6
CONTINUOUS
10
0.6869620078740157
20
0.769144527559055
11
0.6868165354330709
21
0.7693409448818898
0
LINE
8
BLACK
6
CONTINUOUS
10
0.6868165354330709
20
0.7693409448818898
11
0.6858784645669291
21
0.7730933464566929
0
LINE
8
BLACK
6
CONTINUOUS
10
0.6858784645669291
20
0.7730933464566929
11
0.6859185826771653
21
0.7733629527559055
0
LINE
8
BLACK
6
CONTINUOUS
10
0.6859185826771653
20
0.7733629527559055
11
0.6858142913385826
21
0.7736147637795275
0
LINE
8
BLACK
6
CONTINUOUS
10
0.6858142913385826
20
0.7736147637795275
11
0.6858142913385826
21
0.7783052362204724
0
LINE
8
BLACK
6
CONTINUOUS
10
0.6858142913385826
20
0.7783052362204724
11
0.6859185826771653
21
0.7785570472440945
0
LINE
8
BLACK
6
CONTINUOUS
10
0.6859185826771653
20
0.7785570472440945
11
0.6858784645669291
21
0.7788266929133858
0
LINE
8
BLACK
6
CONTINUOUS
10
0.6858784645669291
20
0.7788266929133858
11
0.6868165354330709
21
0.7825790157480315
0
LINE
8
BLACK
6
CONTINUOUS
10
0.6868165354330709
20
0.7825790157480315
11
0.6869620078740157
21
0.7827753543307087
0
LINE
8
BLACK
6
CONTINUOUS
10
0.6869620078740157
20
0.7827753543307087
11
0.6869793307086614
21
0.783019094488189
0
LINE
8
BLACK
6
CONTINUOUS
10
0.6869793307086614
20
0.783019094488189
11
0.6879174409448818
21
0.7848953149606299
0
LINE
8
BLACK
6
CONTINUOUS
10
0.6879174409448818
20
0.7848953149606299
11
0.6881847637795275
21
0.7851271653543307
0
LINE
8
BLACK
6
CONTINUOUS
10
0.6881847637795275
20
0.7851271653543307
11
0.6883201968503937
21
0.7854540944881889
0
LINE
8
BLACK
6
CONTINUOUS
10
0.6883201968503937
20
0.7854540944881889
11
0.6892582677165354
21
0.7863921653543307
0
LINE
8
BLACK
6
CONTINUOUS
10
0.6892582677165354
20
0.7863921653543307
11
0.6895851574803149
21
0.7865275590551181
0
LINE
8
BLACK
6
CONTINUOUS
10
0.6895851574803149
20
0.7865275590551181
11
0.6898170472440944
21
0.7867949212598425
0
LINE
8
BLACK
6
CONTINUOUS
10
0.6898170472440944
20
0.7867949212598425
11
0.6916932677165354
21
0.787733031496063
0
LINE
8
BLACK
6
CONTINUOUS
10
0.6916932677165354
20
0.787733031496063
11
0.6921924015748031
21
0.7877684645669291
0
LINE
8
BLACK
6
CONTINUOUS
10
0.6921924015748031
20
0.7877684645669291
11
0.6926547637795275
21
0.78796
0
LINE
8
BLACK
6
CONTINUOUS
10
0.6926547637795275
20
0.78796
11
0.6945309448818897
21
0.78796
0
LINE
8
BLACK
6
CONTINUOUS
10
0.6945309448818897
20
0.78796
11
0.6949933070866141
21
0.7877684645669291
0
LINE
8
BLACK
6
CONTINUOUS
10
0.6920520866141732
20
0.7831048818897638
11
0.6916074803149607
21
0.7826602755905512
0
LINE
8
BLACK
6
CONTINUOUS
10
0.6916074803149607
20
0.7826602755905512
11
0.6909309448818898
21
0.7813072440944882
0
LINE
8
BLACK
6
CONTINUOUS
10
0.6909309448818898
20
0.7813072440944882
11
0.6901142913385827
21
0.7780404724409449
0
LINE
8
BLACK
6
CONTINUOUS
10
0.6901142913385827
20
0.7780404724409449
11
0.6901142913385827
21
0.7738794488188976
0
LINE
8
BLACK
6
CONTINUOUS
10
0.6901142913385827
20
0.7738794488188976
11
0.6909309842519685
21
0.7706126377952756
0
LINE
8
BLACK
6
CONTINUOUS
10
0.6909309842519685
20
0.7706126377952756
11
0.6916074015748032
21
0.7692597637795275
0
LINE
8
BLACK
6
CONTINUOUS
10
0.6916074015748032
20
0.7692597637795275
11
0.6920520866141732
21
0.7688151181102362
0
LINE
8
BLACK
6
CONTINUOUS
10
0.6920520866141732
20
0.7688151181102362
11
0.6931623228346456
21
0.7682599999999999
0
LINE
8
BLACK
6
CONTINUOUS
10
0.6931623228346456
20
0.7682599999999999
11
0.6940234251968503
21
0.7682599999999999
0
LINE
8
BLACK
6
CONTINUOUS
10
0.6940234251968503
20
0.7682599999999999
11
0.6951335433070865
21
0.7688150787401574
0
LINE
8
BLACK
6
CONTINUOUS
10
0.6951335433070865
20
0.7688150787401574
11
0.6955782283464567
21
0.7692597244094488
0
LINE
8
BLACK
6
CONTINUOUS
10
0.6955782283464567
20
0.7692597244094488
11
0.6962547637795276
21
0.7706128346456693
0
LINE
8
BLACK
6
CONTINUOUS
10
0.6962547637795276
20
0.7706128346456693
11
0.6970714173228346
21
0.7738794881889763
0
LINE
8
BLACK
6
CONTINUOUS
10
0.6970714173228346
20
0.7738794881889763
11
0.6970714173228346
21
0.7780404724409449
0
LINE
8
BLACK
6
CONTINUOUS
10
0.6970714173228346
20
0.7780404724409449
11
0.6962547637795276
21
0.7813070866141733
0
LINE
8
BLACK
6
CONTINUOUS
10
0.6962547637795276
20
0.7813070866141733
11
0.6955781889763779
21
0.7826602362204724
0
LINE
8
BLACK
6
CONTINUOUS
10
0.6955781889763779
20
0.7826602362204724
11
0.6951335433070865
21
0.7831048818897638
0
LINE
8
BLACK
6
CONTINUOUS
10
0.6951335433070865
20
0.7831048818897638
11
0.6940234251968503
21
0.78366
0
LINE
8
BLACK
6
CONTINUOUS
10
0.6940234251968503
20
0.78366
11
0.6931623228346456
21
0.78366
0
LINE
8
BLACK
6
CONTINUOUS
10
0.6931623228346456
20
0.78366
11
0.6920520866141732
21
0.7831048818897638
0
LINE
8
BLACK
6
CONTINUOUS
10
0.7974584645669291
20
0.876217716535433
11
0.7996651968503937
21
0.8734505905511811
0
LINE
8
BLACK
6
CONTINUOUS
10
0.7996651968503937
20
0.8734505905511811
11
0.7997788188976378
21
0.8729527559055118
0
LINE
8
BLACK
6
CONTINUOUS
10
0.7997788188976378
20
0.8729527559055118
11
0.8375
21
0.8729527559055118
0
LINE
8
BLACK
6
CONTINUOUS
10
0.8375
20
0.8729527559055118
11
0.8385099212598425
21
0.8727746850393701
0
LINE
8
BLACK
6
CONTINUOUS
10
0.8385099212598425
20
0.8727746850393701
11
0.8400571653543307
21
0.8714763779527559
0
LINE
8
BLACK
6
CONTINUOUS
10
0.8400571653543307
20
0.8714763779527559
11
0.8404079133858268
21
0.8694872440944882
0
LINE
8
BLACK
6
CONTINUOUS
10
0.8404079133858268
20
0.8694872440944882
11
0.8393979921259842
21
0.8677380708661417
0
LINE
8
BLACK
6
CONTINUOUS
10
0.8393979921259842
20
0.8677380708661417
11
0.839246968503937
21
0.8676831102362205
0
LINE
8
BLACK
6
CONTINUOUS
10
0.839246968503937
20
0.8676831102362205
11
0.8400988188976378
21
0.8673302755905512
0
LINE
8
BLACK
6
CONTINUOUS
10
0.8400988188976378
20
0.8673302755905512
11
0.8407285433070866
21
0.86581
0
LINE
8
BLACK
6
CONTINUOUS
10
0.8407285433070866
20
0.86581
11
0.8407285433070866
21
0.84611
0
LINE
8
BLACK
6
CONTINUOUS
10
0.8407285433070866
20
0.84611
11
0.8400988188976378
21
0.8445897244094488
0
LINE
8
BLACK
6
CONTINUOUS
10
0.8400988188976378
20
0.8445897244094488
11
0.8385785433070866
21
0.8439599999999999
0
LINE
8
BLACK
6
CONTINUOUS
10
0.8385785433070866
20
0.8439599999999999
11
0.8370582677165355
21
0.8445897244094488
0
LINE
8
BLACK
6
CONTINUOUS
10
0.8370582677165355
20
0.8445897244094488
11
0.8364285433070866
21
0.84611
0
LINE
8
BLACK
6
CONTINUOUS
10
0.8364285433070866
20
0.84611
11
0.8364285433070866
21
0.8542790551181102
0
LINE
8
BLACK
6
CONTINUOUS
10
0.8364285433070866
20
0.8542790551181102
11
0.8320118897637795
21
0.8542790551181102
0
LINE
8
BLACK
6
CONTINUOUS
10
0.8320118897637795
20
0.8542790551181102
11
0.8304916141732284
21
0.8549087795275591
0
LINE
8
BLACK
6
CONTINUOUS
10
0.8304916141732284
20
0.8549087795275591
11
0.8298618897637795
21
0.8564290551181102
0
LINE
8
BLACK
6
CONTINUOUS
10
0.8298618897637795
20
0.8564290551181102
11
0.8304916141732284
21
0.8579493307086614
0
LINE
8
BLACK
6
CONTINUOUS
10
0.8304916141732284
20
0.8579493307086614
11
0.8320118897637795
21
0.8585790551181102
0
LINE
8
BLACK
6
CONTINUOUS
10
0.8320118897637795
20
0.8585790551181102
11
0.8364285433070866
21
0.8585790551181102
0
LINE
8
BLACK
6
CONTINUOUS
10
0.8364285433070866
20
0.8585790551181102
11
0.8364285433070866
21
0.86366
0
LINE
8
BLACK
6
CONTINUOUS
10
0.8364285433070866
20
0.86366
11
0.8291975984251968
21
0.86366
0
LINE
8
BLACK
6
CONTINUOUS
10
0.8291975984251968
20
0.86366
11
0.8276773228346457
21
0.8642897244094488
0
LINE
8
BLACK
6
CONTINUOUS
10
0.8276773228346457
20
0.8642897244094488
11
0.8270475984251968
21
0.86581
0
LINE
8
BLACK
6
CONTINUOUS
10
0.8270475984251968
20
0.86581
11
0.8275600787401575
21
0.8670472440944882
0
LINE
8
BLACK
6
CONTINUOUS
10
0.8275600787401575
20
0.8670472440944882
11
0.8004527559055118
21
0.8670472440944882
0
LINE
8
BLACK
6
CONTINUOUS
10
0.8004527559055118
20
0.8670472440944882
11
0.8004527559055118
21
0.8129527559055117
0
LINE
8
BLACK
6
CONTINUOUS
10
0.8004527559055118
20
0.8129527559055117
11
0.8375
21
0.8129527559055117
0
LINE
8
BLACK
6
CONTINUOUS
10
0.8375
20
0.8129527559055117
11
0.8385099212598425
21
0.8127746850393701
0
LINE
8
BLACK
6
CONTINUOUS
10
0.8385099212598425
20
0.8127746850393701
11
0.8400571653543307
21
0.8114763779527558
0
LINE
8
BLACK
6
CONTINUOUS
10
0.8400571653543307
20
0.8114763779527558
11
0.8404079133858268
21
0.8094872440944881
0
LINE
8
BLACK
6
CONTINUOUS
10
0.8404079133858268
20
0.8094872440944881
11
0.8393979921259842
21
0.8077380708661417
0
LINE
8
BLACK
6
CONTINUOUS
10
0.8393979921259842
20
0.8077380708661417
11
0.8375
21
0.8070472440944881
0
LINE
8
BLACK
6
CONTINUOUS
10
0.8375
20
0.8070472440944881
11
0.7975
21
0.8070472440944881
0
LINE
8
BLACK
6
CONTINUOUS
10
0.7975
20
0.8070472440944881
11
0.7971164566929134
21
0.807114842519685
0
LINE
8
BLACK
6
CONTINUOUS
10
0.7971164566929134
20
0.807114842519685
11
0.7969872440944882
21
0.8070920866141732
0
LINE
8
BLACK
6
CONTINUOUS
10
0.7969872440944882
20
0.8070920866141732
11
0.7968736220472441
21
0.8071576771653544
0
LINE
8
BLACK
6
CONTINUOUS
10
0.7968736220472441
20
0.8071576771653544
11
0.7964900787401574
21
0.8072253149606299
0
LINE
8
BLACK
6
CONTINUOUS
10
0.7964900787401574
20
0.8072253149606299
11
0.7959023622047244
21
0.8077184251968503
0
LINE
8
BLACK
6
CONTINUOUS
10
0.7959023622047244
20
0.8077184251968503
11
0.7952380708661417
21
0.8081020078740158
0
LINE
8
BLACK
6
CONTINUOUS
10
0.7952380708661417
20
0.8081020078740158
11
0.7951469291338582
21
0.8083523228346456
0
LINE
8
BLACK
6
CONTINUOUS
10
0.7951469291338582
20
0.8083523228346456
11
0.7949428346456693
21
0.808523622047244
0
LINE
8
BLACK
6
CONTINUOUS
10
0.7949428346456693
20
0.808523622047244
11
0.7948095669291338
21
0.8092791732283464
0
LINE
8
BLACK
6
CONTINUOUS
10
0.7948095669291338
20
0.8092791732283464
11
0.7945472440944882
21
0.8099999999999999
0
LINE
8
BLACK
6
CONTINUOUS
10
0.7945472440944882
20
0.8099999999999999
11
0.7945472440944882
21
0.8623803149606299
0
LINE
8
BLACK
6
CONTINUOUS
10
0.7945472440944882
20
0.8623803149606299
11
0.7942696456692914
21
0.8622466535433071
0
LINE
8
BLACK
6
CONTINUOUS
10
0.7942696456692914
20
0.8622466535433071
11
0.7907303543307086
21
0.8622466535433071
0
LINE
8
BLACK
6
CONTINUOUS
10
0.7907303543307086
20
0.8622466535433071
11
0.7875415354330708
21
0.8637822834645669
0
LINE
8
BLACK
6
CONTINUOUS
10
0.7875415354330708
20
0.8637822834645669
11
0.7853348031496062
21
0.8665494094488189
0
LINE
8
BLACK
6
CONTINUOUS
10
0.7853348031496062
20
0.8665494094488189
11
0.7845472440944882
21
0.87
0
LINE
8
BLACK
6
CONTINUOUS
10
0.7845472440944882
20
0.87
11
0.7853348031496062
21
0.8734505905511811
0
LINE
8
BLACK
6
CONTINUOUS
10
0.7853348031496062
20
0.8734505905511811
11
0.7875415354330708
21
0.876217716535433
0
LINE
8
BLACK
6
CONTINUOUS
10
0.7875415354330708
20
0.876217716535433
11
0.7907303543307086
21
0.8777533464566929
0
LINE
8
BLACK
6
CONTINUOUS
10
0.7907303543307086
20
0.8777533464566929
11
0.7942696456692914
21
0.8777533464566929
0
LINE
8
BLACK
6
CONTINUOUS
10
0.7942696456692914
20
0.8777533464566929
11
0.7974584645669291
21
0.876217716535433
0
LINE
8
BLACK
6
CONTINUOUS
10
0.7909331102362205
20
0.8684331102362205
11
0.7925
21
0.8677840944881889
0
LINE
8
BLACK
6
CONTINUOUS
10
0.7925
20
0.8677840944881889
11
0.7940668897637795
21
0.8684331102362205
0
LINE
8
BLACK
6
CONTINUOUS
10
0.7940668897637795
20
0.8684331102362205
11
0.7945472440944882
21
0.8695927952755905
0
LINE
8
BLACK
6
CONTINUOUS
10
0.7945472440944882
20
0.8695927952755905
11
0.7945472440944882
21
0.87
0
LINE
8
BLACK
6
CONTINUOUS
10
0.7945472440944882
20
0.87
11
0.7945975984251968
21
0.870285590551181
0
LINE
8
BLACK
6
CONTINUOUS
10
0.7945975984251968
20
0.870285590551181
11
0.7940668897637795
21
0.8715668897637795
0
LINE
8
BLACK
6
CONTINUOUS
10
0.7940668897637795
20
0.8715668897637795
11
0.7925
21
0.8722159055118111
0
LINE
8
BLACK
6
CONTINUOUS
10
0.7925
20
0.8722159055118111
11
0.7909331102362205
21
0.8715668897637795
0
LINE
8
BLACK
6
CONTINUOUS
10
0.7909331102362205
20
0.8715668897637795
11
0.7902840944881889
21
0.87
0
LINE
8
BLACK
6
CONTINUOUS
10
0.7902840944881889
20
0.87
11
0.7909331102362205
21
0.8684331102362205
0
LINE
8
BLACK
6
CONTINUOUS
10
0.9178835039370079
20
0.8728851181102362
11
0.9180127559055118
21
0.8729079133858267
0
LINE
8
BLACK
6
CONTINUOUS
10
0.9180127559055118
20
0.8729079133858267
11
0.9181263385826771
21
0.8728422834645669
0
LINE
8
BLACK
6
CONTINUOUS
10
0.9181263385826771
20
0.8728422834645669
11
0.9185099212598425
21
0.8727746850393701
0
LINE
8
BLACK
6
CONTINUOUS
10
0.9185099212598425
20
0.8727746850393701
11
0.9190975984251968
21
0.8722815354330709
0
LINE
8
BLACK
6
CONTINUOUS
10
0.9190975984251968
20
0.8722815354330709
11
0.9197619291338582
21
0.8718979921259842
0
LINE
8
BLACK
6
CONTINUOUS
10
0.9197619291338582
20
0.8718979921259842
11
0.919853031496063
21
0.8716476377952755
0
LINE
8
BLACK
6
CONTINUOUS
10
0.919853031496063
20
0.8716476377952755
11
0.9200571653543307
21
0.8714763779527559
0
LINE
8
BLACK
6
CONTINUOUS
10
0.9200571653543307
20
0.8714763779527559
11
0.9201903937007874
21
0.8707207874015748
0
LINE
8
BLACK
6
CONTINUOUS
10
0.9201903937007874
20
0.8707207874015748
11
0.9204527559055118
21
0.87
0
LINE
8
BLACK
6
CONTINUOUS
10
0.9204527559055118
20
0.87
11
0.9204527559055118
21
0.8099999999999999
0
LINE
8
BLACK
6
CONTINUOUS
10
0.9204527559055118
20
0.8099999999999999
11
0.9203851181102362
21
0.8096164566929134
0
LINE
8
BLACK
6
CONTINUOUS
10
0.9203851181102362
20
0.8096164566929134
11
0.9204079133858267
21
0.8094872440944881
0
LINE
8
BLACK
6
CONTINUOUS
10
0.9204079133858267
20
0.8094872440944881
11
0.9203422834645669
21
0.8093736220472441
0
LINE
8
BLACK
6
CONTINUOUS
10
0.9203422834645669
20
0.8093736220472441
11
0.92027468503937
21
0.8089900787401575
0
LINE
8
BLACK
6
CONTINUOUS
10
0.92027468503937
20
0.8089900787401575
11
0.9197815354330708
21
0.8084023622047244
0
LINE
8
BLACK
6
CONTINUOUS
10
0.9197815354330708
20
0.8084023622047244
11
0.9193979921259843
21
0.8077380708661417
0
LINE
8
BLACK
6
CONTINUOUS
10
0.9193979921259843
20
0.8077380708661417
11
0.9191476377952755
21
0.8076469291338583
0
LINE
8
BLACK
6
CONTINUOUS
10
0.9191476377952755
20
0.8076469291338583
11
0.9189763779527559
21
0.8074428346456692
0
LINE
8
BLACK
6
CONTINUOUS
10
0.9189763779527559
20
0.8074428346456692
11
0.9182207874015748
21
0.8073095669291338
0
LINE
8
BLACK
6
CONTINUOUS
10
0.9182207874015748
20
0.8073095669291338
11
0.9175
21
0.8070472440944881
0
LINE
8
BLACK
6
CONTINUOUS
10
0.9175
20
0.8070472440944881
11
0.8774999999999999
21
0.8070472440944881
0
LINE
8
BLACK
6
CONTINUOUS
10
0.8774999999999999
20
0.8070472440944881
11
0.8764900787401575
21
0.8072253149606299
0
LINE
8
BLACK
6
CONTINUOUS
10
0.8764900787401575
20
0.8072253149606299
11
0.8749428346456692
21
0.808523622047244
0
LINE
8
BLACK
6
CONTINUOUS
10
0.8749428346456692
20
0.808523622047244
11
0.8745920866141732
21
0.8105127559055118
0
LINE
8
BLACK
6
CONTINUOUS
10
0.8745920866141732
20
0.8105127559055118
11
0.8756020078740158
21
0.8122619291338582
0
LINE
8
BLACK
6
CONTINUOUS
10
0.8756020078740158
20
0.8122619291338582
11
0.8774999999999999
21
0.8129527559055117
0
LINE
8
BLACK
6
CONTINUOUS
10
0.8774999999999999
20
0.8129527559055117
11
0.9145472440944882
21
0.8129527559055117
0
LINE
8
BLACK
6
CONTINUOUS
10
0.9145472440944882
20
0.8129527559055117
11
0.9145472440944882
21
0.8670472440944882
0
LINE
8
BLACK
6
CONTINUOUS
10
0.9145472440944882
20
0.8670472440944882
11
0.890957874015748
21
0.8670472440944882
0
LINE
8
BLACK
6
CONTINUOUS
10
0.890957874015748
20
0.8670472440944882
11
0.8910245669291338
21
0.8670025984251968
0
LINE
8
BLACK
6
CONTINUOUS
10
0.8910245669291338
20
0.8670025984251968
11
0.8927827165354331
21
0.8643653937007874
0
LINE
8
BLACK
6
CONTINUOUS
10
0.8927827165354331
20
0.8643653937007874
11
0.8942616141732284
21
0.8628864960629921
0
LINE
8
BLACK
6
CONTINUOUS
10
0.8942616141732284
20
0.8628864960629921
11
0.8958257874015748
21
0.8621044488188976
0
LINE
8
BLACK
6
CONTINUOUS
10
0.8958257874015748
20
0.8621044488188976
11
0.8969038976377952
21
0.8608612992125984
0
LINE
8
BLACK
6
CONTINUOUS
10
0.8969038976377952
20
0.8608612992125984
11
0.8967872440944882
21
0.8592198818897637
0
LINE
8
BLACK
6
CONTINUOUS
10
0.8967872440944882
20
0.8592198818897637
11
0.8955441338582677
21
0.8581417322834646
0
LINE
8
BLACK
6
CONTINUOUS
10
0.8955441338582677
20
0.8581417322834646
11
0.8939027165354331
21
0.8582584251968504
0
LINE
8
BLACK
6
CONTINUOUS
10
0.8939027165354331
20
0.8582584251968504
11
0.8920265354330709
21
0.8591965354330708
0
LINE
8
BLACK
6
CONTINUOUS
10
0.8920265354330709
20
0.8591965354330708
11
0.8917946850393701
21
0.8594638188976378
0
LINE
8
BLACK
6
CONTINUOUS
10
0.8917946850393701
20
0.8594638188976378
11
0.8914677952755905
21
0.859599251968504
0
LINE
8
BLACK
6
CONTINUOUS
10
0.8914677952755905
20
0.859599251968504
11
0.8913856692913386
21
0.8596813779527559
0
LINE
8
BLACK
6
CONTINUOUS
10
0.8913856692913386
20
0.8596813779527559
11
0.8913856692913386
21
0.84826
0
LINE
8
BLACK
6
CONTINUOUS
10
0.8913856692913386
20
0.84826
11
0.8948642519685039
21
0.84826
0
LINE
8
BLACK
6
CONTINUOUS
10
0.8948642519685039
20
0.84826
11
0.8963845275590551
21
0.8476302755905512
0
LINE
8
BLACK
6
CONTINUOUS
10
0.8963845275590551
20
0.8476302755905512
11
0.8970142519685039
21
0.84611
0
LINE
8
BLACK
6
CONTINUOUS
10
0.8970142519685039
20
0.84611
11
0.8963845275590551
21
0.8445897244094488
0
LINE
8
BLACK
6
CONTINUOUS
10
0.8963845275590551
20
0.8445897244094488
11
0.8948642519685039
21
0.8439599999999999
0
LINE
8
BLACK
6
CONTINUOUS
10
0.8948642519685039
20
0.8439599999999999
11
0.8892356692913386
21
0.8439599999999999
0
LINE
8
BLACK
6
CONTINUOUS
10
0.8892356692913386
20
0.8439599999999999
11
0.883607125984252
21
0.8439599999999999
0
LINE
8
BLACK
6
CONTINUOUS
10
0.883607125984252
20
0.8439599999999999
11
0.8820868503937007
21
0.8445897244094488
0
LINE
8
BLACK
6
CONTINUOUS
10
0.8820868503937007
20
0.8445897244094488
11
0.881457125984252
21
0.84611
0
LINE
8
BLACK
6
CONTINUOUS
10
0.881457125984252
20
0.84611
11
0.8820868503937007
21
0.8476302755905512
0
LINE
8
BLACK
6
CONTINUOUS
10
0.8820868503937007
20
0.8476302755905512
11
0.883607125984252
21
0.84826
0
LINE
8
BLACK
6
CONTINUOUS
10
0.883607125984252
20
0.84826
11
0.8870856692913386
21
0.84826
0
LINE
8
BLACK
6
CONTINUOUS
10
0.8870856692913386
20
0.84826
11
0.8870856692913386
21
0.86581
0
LINE
8
BLACK
6
CONTINUOUS
10
0.8870856692913386
20
0.86581
11
0.8871703543307087
21
0.8660145275590551
0
LINE
8
BLACK
6
CONTINUOUS
10
0.8871703543307087
20
0.8660145275590551
11
0.8871274409448818
21
0.8662316535433071
0
LINE
8
BLACK
6
CONTINUOUS
10
0.8871274409448818
20
0.8662316535433071
11
0.8874757480314961
21
0.8667517716535433
0
LINE
8
BLACK
6
CONTINUOUS
10
0.8874757480314961
20
0.8667517716535433
11
0.8875981496062992
21
0.8670472440944882
0
LINE
8
BLACK
6
CONTINUOUS
10
0.8875981496062992
20
0.8670472440944882
11
0.8774999999999999
21
0.8670472440944882
0
LINE
8
BLACK
6
CONTINUOUS
10
0.8774999999999999
20
0.8670472440944882
11
0.8764900787401575
21
0.8672253149606299
0
LINE
8
BLACK
6
CONTINUOUS
10
0.8764900787401575
20
0.8672253149606299
11
0.8749428346456692
21
0.8685236220472441
0
LINE
8
BLACK
6
CONTINUOUS
10
0.8749428346456692
20
0.8685236220472441
11
0.8745920866141732
21
0.8705127559055118
0
LINE
8
BLACK
6
CONTINUOUS
10
0.8745920866141732
20
0.8705127559055118
11
0.8756020078740158
21
0.8722619291338582
0
LINE
8
BLACK
6
CONTINUOUS
10
0.8756020078740158
20
0.8722619291338582
11
0.8774999999999999
21
0.8729527559055118
0
LINE
8
BLACK
6
CONTINUOUS
10
0.8774999999999999
20
0.8729527559055118
11
0.9175
21
0.8729527559055118
0
LINE
8
BLACK
6
CONTINUOUS
10
0.9175
20
0.8729527559055118
11
0.9178835039370079
21
0.8728851181102362
0
LINE
8
BLACK
6
CONTINUOUS
10
0.8495495669291339
20
0.8411711417322835
11
0.8506277559055118
21
0.8399279921259842
0
LINE
8
BLACK
6
CONTINUOUS
10
0.8506277559055118
20
0.8399279921259842
11
0.8553181889763779
21
0.8258565748031496
0
LINE
8
BLACK
6
CONTINUOUS
10
0.8553181889763779
20
0.8258565748031496
11
0.8552930708661417
21
0.825503622047244
0
LINE
8
BLACK
6
CONTINUOUS
10
0.8552930708661417
20
0.825503622047244
11
0.8554285433070866
21
0.825176653543307
0
LINE
8
BLACK
6
CONTINUOUS
10
0.8554285433070866
20
0.825176653543307
11
0.8552369685039369
21
0.8247142125984251
0
LINE
8
BLACK
6
CONTINUOUS
10
0.8552369685039369
20
0.8247142125984251
11
0.8552015354330709
21
0.8242151574803149
0
LINE
8
BLACK
6
CONTINUOUS
10
0.8552015354330709
20
0.8242151574803149
11
0.8549342519685039
21
0.8239833070866142
0
LINE
8
BLACK
6
CONTINUOUS
10
0.8549342519685039
20
0.8239833070866142
11
0.8547988188976378
21
0.8236563779527559
0
LINE
8
BLACK
6
CONTINUOUS
10
0.8547988188976378
20
0.8236563779527559
11
0.8543364173228346
21
0.823464842519685
0
LINE
8
BLACK
6
CONTINUOUS
10
0.8543364173228346
20
0.823464842519685
11
0.8539584251968504
21
0.8231370078740158
0
LINE
8
BLACK
6
CONTINUOUS
10
0.8539584251968504
20
0.8231370078740158
11
0.8536055118110236
21
0.8231620866141732
0
LINE
8
BLACK
6
CONTINUOUS
10
0.8536055118110236
20
0.8231620866141732
11
0.8532785433070866
21
0.8230266535433071
0
LINE
8
BLACK
6
CONTINUOUS
10
0.8532785433070866
20
0.8230266535433071
11
0.8460475984251968
21
0.8230266535433071
0
LINE
8
BLACK
6
CONTINUOUS
10
0.8460475984251968
20
0.8230266535433071
11
0.8460475984251968
21
0.8186099999999999
0
LINE
8
BLACK
6
CONTINUOUS
10
0.8460475984251968
20
0.8186099999999999
11
0.845417874015748
21
0.8170897244094488
0
LINE
8
BLACK
6
CONTINUOUS
10
0.845417874015748
20
0.8170897244094488
11
0.8438975984251968
21
0.81646
0
LINE
8
BLACK
6
CONTINUOUS
10
0.8438975984251968
20
0.81646
11
0.8423773228346456
21
0.8170897244094488
0
LINE
8
BLACK
6
CONTINUOUS
10
0.8423773228346456
20
0.8170897244094488
11
0.8417475984251969
21
0.8186099999999999
0
LINE
8
BLACK
6
CONTINUOUS
10
0.8417475984251969
20
0.8186099999999999
11
0.8417475984251969
21
0.8230266535433071
0
LINE
8
BLACK
6
CONTINUOUS
10
0.8417475984251969
20
0.8230266535433071
11
0.8410833070866142
21
0.8230266535433071
0
LINE
8
BLACK
6
CONTINUOUS
10
0.8410833070866142
20
0.8230266535433071
11
0.8395630314960629
21
0.8236563779527559
0
LINE
8
BLACK
6
CONTINUOUS
10
0.8395630314960629
20
0.8236563779527559
11
0.8389333070866142
21
0.825176653543307
0
LINE
8
BLACK
6
CONTINUOUS
10
0.8389333070866142
20
0.825176653543307
11
0.8395630314960629
21
0.8266969291338583
0
LINE
8
BLACK
6
CONTINUOUS
10
0.8395630314960629
20
0.8266969291338583
11
0.8410833070866142
21
0.827326653543307
0
LINE
8
BLACK
6
CONTINUOUS
10
0.8410833070866142
20
0.827326653543307
11
0.8417475984251969
21
0.827326653543307
0
LINE
8
BLACK
6
CONTINUOUS
10
0.8417475984251969
20
0.827326653543307
11
0.8417475984251969
21
0.8317433464566929
0
LINE
8
BLACK
6
CONTINUOUS
10
0.8417475984251969
20
0.8317433464566929
11
0.8423773228346456
21
0.833263622047244
0
LINE
8
BLACK
6
CONTINUOUS
10
0.8423773228346456
20
0.833263622047244
11
0.8438975984251968
21
0.8338933464566929
0
LINE
8
BLACK
6
CONTINUOUS
10
0.8438975984251968
20
0.8338933464566929
11
0.845417874015748
21
0.833263622047244
0
LINE
8
BLACK
6
CONTINUOUS
10
0.845417874015748
20
0.833263622047244
11
0.8460475984251968
21
0.8317433464566929
0
LINE
8
BLACK
6
CONTINUOUS
10
0.8460475984251968
20
0.8317433464566929
11
0.8460475984251968
21
0.827326653543307
0
LINE
8
BLACK
6
CONTINUOUS
10
0.8460475984251968
20
0.827326653543307
11
0.8502955511811023
21
0.827326653543307
0
LINE
8
BLACK
6
CONTINUOUS
10
0.8502955511811023
20
0.827326653543307
11
0.8465483858267716
21
0.8385682283464567
0
LINE
8
BLACK
6
CONTINUOUS
10
0.8465483858267716
20
0.8385682283464567
11
0.8466650393700788
21
0.8402096062992126
0
LINE
8
BLACK
6
CONTINUOUS
10
0.8466650393700788
20
0.8402096062992126
11
0.847908188976378
21
0.8412877952755905
0
LINE
8
BLACK
6
CONTINUOUS
10
0.847908188976378
20
0.8412877952755905
11
0.8495495669291339
21
0.8411711417322835
0
LINE
8
BLACK
6
CONTINUOUS
10
0.8667387401574803
20
0.8403245669291338
11
0.8670917716535433
21
0.84034968503937
0
LINE
8
BLACK
6
CONTINUOUS
10
0.8670917716535433
20
0.84034968503937
11
0.8699061023622047
21
0.8394115354330709
0
LINE
8
BLACK
6
CONTINUOUS
10
0.8699061023622047
20
0.8394115354330709
11
0.8702841338582677
21
0.8390836614173228
0
LINE
8
BLACK
6
CONTINUOUS
10
0.8702841338582677
20
0.8390836614173228
11
0.8707464566929134
21
0.8388921653543306
0
LINE
8
BLACK
6
CONTINUOUS
10
0.8707464566929134
20
0.8388921653543306
11
0.8726226377952756
21
0.8370159842519684
0
LINE
8
BLACK
6
CONTINUOUS
10
0.8726226377952756
20
0.8370159842519684
11
0.872758031496063
21
0.8366890551181102
0
LINE
8
BLACK
6
CONTINUOUS
10
0.872758031496063
20
0.8366890551181102
11
0.8730253937007874
21
0.8364572047244094
0
LINE
8
BLACK
6
CONTINUOUS
10
0.8730253937007874
20
0.8364572047244094
11
0.8739634645669291
21
0.8345810236220472
0
LINE
8
BLACK
6
CONTINUOUS
10
0.8739634645669291
20
0.8345810236220472
11
0.8739807480314961
21
0.8343372440944882
0
LINE
8
BLACK
6
CONTINUOUS
10
0.8739807480314961
20
0.8343372440944882
11
0.8741262204724409
21
0.8341409842519685
0
LINE
8
BLACK
6
CONTINUOUS
10
0.8741262204724409
20
0.8341409842519685
11
0.8750643307086614
21
0.8303885826771653
0
LINE
8
BLACK
6
CONTINUOUS
10
0.8750643307086614
20
0.8303885826771653
11
0.8750242125984252
21
0.8301189763779527
0
LINE
8
BLACK
6
CONTINUOUS
10
0.8750242125984252
20
0.8301189763779527
11
0.8751285433070866
21
0.8298671259842519
0
LINE
8
BLACK
6
CONTINUOUS
10
0.8751285433070866
20
0.8298671259842519
11
0.8751285433070866
21
0.8270528346456693
0
LINE
8
BLACK
6
CONTINUOUS
10
0.8751285433070866
20
0.8270528346456693
11
0.8750242125984252
21
0.8268009448818897
0
LINE
8
BLACK
6
CONTINUOUS
10
0.8750242125984252
20
0.8268009448818897
11
0.8750643307086614
21
0.8265313385826771
0
LINE
8
BLACK
6
CONTINUOUS
10
0.8750643307086614
20
0.8265313385826771
11
0.8741262204724409
21
0.8227790157480315
0
LINE
8
BLACK
6
CONTINUOUS
10
0.8741262204724409
20
0.8227790157480315
11
0.8739807480314961
21
0.822582716535433
0
LINE
8
BLACK
6
CONTINUOUS
10
0.8739807480314961
20
0.822582716535433
11
0.8739634645669291
21
0.8223389763779527
0
LINE
8
BLACK
6
CONTINUOUS
10
0.8739634645669291
20
0.8223389763779527
11
0.8730253937007874
21
0.8204627952755905
0
LINE
8
BLACK
6
CONTINUOUS
10
0.8730253937007874
20
0.8204627952755905
11
0.872758031496063
21
0.820230905511811
0
LINE
8
BLACK
6
CONTINUOUS
10
0.872758031496063
20
0.820230905511811
11
0.8726226377952756
21
0.8199040157480315
0
LINE
8
BLACK
6
CONTINUOUS
10
0.8726226377952756
20
0.8199040157480315
11
0.8707464566929134
21
0.8180278346456693
0
LINE
8
BLACK
6
CONTINUOUS
10
0.8707464566929134
20
0.8180278346456693
11
0.8702841338582677
21
0.8178362992125984
0
LINE
8
BLACK
6
CONTINUOUS
10
0.8702841338582677
20
0.8178362992125984
11
0.8699061023622047
21
0.8175084645669292
0
LINE
8
BLACK
6
CONTINUOUS
10
0.8699061023622047
20
0.8175084645669292
11
0.8670917716535433
21
0.8165703149606299
0
LINE
8
BLACK
6
CONTINUOUS
10
0.8670917716535433
20
0.8165703149606299
11
0.8667387401574803
21
0.8165953937007874
0
LINE
8
BLACK
6
CONTINUOUS
10
0.8667387401574803
20
0.8165953937007874
11
0.8664118897637795
21
0.81646
0
LINE
8
BLACK
6
CONTINUOUS
10
0.8664118897637795
20
0.81646
11
0.8645356692913385
21
0.81646
0
LINE
8
BLACK
6
CONTINUOUS
10
0.8645356692913385
20
0.81646
11
0.8642087007874015
21
0.8165953937007874
0
LINE
8
BLACK
6
CONTINUOUS
10
0.8642087007874015
20
0.8165953937007874
11
0.8638557874015748
21
0.8165703543307087
0
LINE
8
BLACK
6
CONTINUOUS
10
0.8638557874015748
20
0.8165703543307087
11
0.8610414960629921
21
0.8175084645669292
0
LINE
8
BLACK
6
CONTINUOUS
10
0.8610414960629921
20
0.8175084645669292
11
0.8606634645669291
21
0.8178362992125984
0
LINE
8
BLACK
6
CONTINUOUS
10
0.8606634645669291
20
0.8178362992125984
11
0.8602011811023622
21
0.8180277952755906
0
LINE
8
BLACK
6
CONTINUOUS
10
0.8602011811023622
20
0.8180277952755906
11
0.8592630708661417
21
0.8189658661417323
0
LINE
8
BLACK
6
CONTINUOUS
10
0.8592630708661417
20
0.8189658661417323
11
0.8586333070866141
21
0.8204861417322834
0
LINE
8
BLACK
6
CONTINUOUS
10
0.8586333070866141
20
0.8204861417322834
11
0.8592629921259842
21
0.8220064173228346
0
LINE
8
BLACK
6
CONTINUOUS
10
0.8592629921259842
20
0.8220064173228346
11
0.8607832677165355
21
0.8226361811023621
0
LINE
8
BLACK
6
CONTINUOUS
10
0.8607832677165355
20
0.8226361811023621
11
0.8623035433070866
21
0.8220064960629921
0
LINE
8
BLACK
6
CONTINUOUS
10
0.8623035433070866
20
0.8220064960629921
11
0.8628827952755905
21
0.8214272440944882
0
LINE
8
BLACK
6
CONTINUOUS
10
0.8628827952755905
20
0.8214272440944882
11
0.8648845275590551
21
0.8207599999999999
0
LINE
8
BLACK
6
CONTINUOUS
10
0.8648845275590551
20
0.8207599999999999
11
0.8660629527559055
21
0.8207599999999999
0
LINE
8
BLACK
6
CONTINUOUS
10
0.8660629527559055
20
0.8207599999999999
11
0.8680648031496063
21
0.8214272834645669
0
LINE
8
BLACK
6
CONTINUOUS
10
0.8680648031496063
20
0.8214272834645669
11
0.8693353149606299
21
0.8226977952755905
0
LINE
8
BLACK
6
CONTINUOUS
10
0.8693353149606299
20
0.8226977952755905
11
0.8700118897637795
21
0.8240509448818898
0
LINE
8
BLACK
6
CONTINUOUS
10
0.8700118897637795
20
0.8240509448818898
11
0.8708285433070866
21
0.8273175590551181
0
LINE
8
BLACK
6
CONTINUOUS
10
0.8708285433070866
20
0.8273175590551181
11
0.8708285433070866
21
0.8296023622047244
0
LINE
8
BLACK
6
CONTINUOUS
10
0.8708285433070866
20
0.8296023622047244
11
0.8700118897637795
21
0.8328690157480315
0
LINE
8
BLACK
6
CONTINUOUS
10
0.8700118897637795
20
0.8328690157480315
11
0.8693353149606299
21
0.8342221653543307
0
LINE
8
BLACK
6
CONTINUOUS
10
0.8693353149606299
20
0.8342221653543307
11
0.8680648031496063
21
0.8354926771653544
0
LINE
8
BLACK
6
CONTINUOUS
10
0.8680648031496063
20
0.8354926771653544
11
0.8660629527559055
21
0.83616
0
LINE
8
BLACK
6
CONTINUOUS
10
0.8660629527559055
20
0.83616
11
0.8648845275590551
21
0.83616
0
LINE
8
BLACK
6
CONTINUOUS
10
0.8648845275590551
20
0.83616
11
0.8628827952755905
21
0.835492716535433
0
LINE
8
BLACK
6
CONTINUOUS
10
0.8628827952755905
20
0.835492716535433
11
0.8623035433070866
21
0.8349135039370078
0
LINE
8
BLACK
6
CONTINUOUS
10
0.8623035433070866
20
0.8349135039370078
11
0.8607832677165355
21
0.8342838188976378
0
LINE
8
BLACK
6
CONTINUOUS
10
0.8607832677165355
20
0.8342838188976378
11
0.8592629921259842
21
0.8349135826771653
0
LINE
8
BLACK
6
CONTINUOUS
10
0.8592629921259842
20
0.8349135826771653
11
0.8586333070866141
21
0.8364338582677165
0
LINE
8
BLACK
6
CONTINUOUS
10
0.8586333070866141
20
0.8364338582677165
11
0.8592630708661417
21
0.8379541338582677
0
LINE
8
BLACK
6
CONTINUOUS
10
0.8592630708661417
20
0.8379541338582677
11
0.8602011811023622
21
0.8388922047244094
0
LINE
8
BLACK
6
CONTINUOUS
10
0.8602011811023622
20
0.8388922047244094
11
0.8606634645669291
21
0.8390836614173228
0
LINE
8
BLACK
6
CONTINUOUS
10
0.8606634645669291
20
0.8390836614173228
11
0.8610414960629921
21
0.8394115354330709
0
LINE
8
BLACK
6
CONTINUOUS
10
0.8610414960629921
20
0.8394115354330709
11
0.8638557874015748
21
0.8403496456692913
0
LINE
8
BLACK
6
CONTINUOUS
10
0.8638557874015748
20
0.8403496456692913
11
0.8642087007874015
21
0.8403245669291338
0
LINE
8
BLACK
6
CONTINUOUS
10
0.8642087007874015
20
0.8403245669291338
11
0.8645356692913385
21
0.84046
0
LINE
8
BLACK
6
CONTINUOUS
10
0.8645356692913385
20
0.84046
11
0.8664118897637795
21
0.84046
0
LINE
8
BLACK
6
CONTINUOUS
10
0.8664118897637795
20
0.84046
11
0.8667387401574803
21
0.8403245669291338
0
LINE
8
BLACK
6
CONTINUOUS
10
0.8579226377952756
20
0.8607636220472441
11
0.8585523622047244
21
0.8592433464566929
0
LINE
8
BLACK
6
CONTINUOUS
10
0.8585523622047244
20
0.8592433464566929
11
0.8585523622047244
21
0.8489242913385826
0
LINE
8
BLACK
6
CONTINUOUS
10
0.8585523622047244
20
0.8489242913385826
11
0.8583608267716535
21
0.8484619291338582
0
LINE
8
BLACK
6
CONTINUOUS
10
0.8583608267716535
20
0.8484619291338582
11
0.8583253937007874
21
0.8479627952755905
0
LINE
8
BLACK
6
CONTINUOUS
10
0.8583253937007874
20
0.8479627952755905
11
0.8573873228346457
21
0.8460866141732283
0
LINE
8
BLACK
6
CONTINUOUS
10
0.8573873228346457
20
0.8460866141732283
11
0.8568724015748032
21
0.8456400393700787
0
LINE
8
BLACK
6
CONTINUOUS
10
0.8568724015748032
20
0.8456400393700787
11
0.8564258267716536
21
0.8451250787401574
0
LINE
8
BLACK
6
CONTINUOUS
10
0.8564258267716536
20
0.8451250787401574
11
0.8545496456692914
21
0.8441870078740157
0
LINE
8
BLACK
6
CONTINUOUS
10
0.8545496456692914
20
0.8441870078740157
11
0.8540504724409449
21
0.8441514960629921
0
LINE
8
BLACK
6
CONTINUOUS
10
0.8540504724409449
20
0.8441514960629921
11
0.8535881102362205
21
0.8439599999999999
0
LINE
8
BLACK
6
CONTINUOUS
10
0.8535881102362205
20
0.8439599999999999
11
0.8507738188976378
21
0.8439599999999999
0
LINE
8
BLACK
6
CONTINUOUS
10
0.8507738188976378
20
0.8439599999999999
11
0.8503114566929134
21
0.8441514960629921
0
LINE
8
BLACK
6
CONTINUOUS
10
0.8503114566929134
20
0.8441514960629921
11
0.8498123228346457
21
0.844186968503937
0
LINE
8
BLACK
6
CONTINUOUS
10
0.8498123228346457
20
0.844186968503937
11
0.8492211023622047
21
0.844482559055118
0
LINE
8
BLACK
6
CONTINUOUS
10
0.8492211023622047
20
0.844482559055118
11
0.8479595275590551
21
0.8439599999999999
0
LINE
8
BLACK
6
CONTINUOUS
10
0.8479595275590551
20
0.8439599999999999
11
0.8464392519685039
21
0.8445897244094488
0
LINE
8
BLACK
6
CONTINUOUS
10
0.8464392519685039
20
0.8445897244094488
11
0.8458095275590551
21
0.84611
0
LINE
8
BLACK
6
CONTINUOUS
10
0.8458095275590551
20
0.84611
11
0.8458095275590551
21
0.8592433464566929
0
LINE
8
BLACK
6
CONTINUOUS
10
0.8458095275590551
20
0.8592433464566929
11
0.8464392519685039
21
0.8607636220472441
0
LINE
8
BLACK
6
CONTINUOUS
10
0.8464392519685039
20
0.8607636220472441
11
0.8479595275590551
21
0.8613933464566929
0
LINE
8
BLACK
6
CONTINUOUS
10
0.8479595275590551
20
0.8613933464566929
11
0.8494798031496062
21
0.8607636220472441
0
LINE
8
BLACK
6
CONTINUOUS
10
0.8494798031496062
20
0.8607636220472441
11
0.8501095275590551
21
0.8592433464566929
0
LINE
8
BLACK
6
CONTINUOUS
10
0.8501095275590551
20
0.8592433464566929
11
0.8501095275590551
21
0.8488767322834645
0
LINE
8
BLACK
6
CONTINUOUS
10
0.8501095275590551
20
0.8488767322834645
11
0.8501711417322835
21
0.8488151181102362
0
LINE
8
BLACK
6
CONTINUOUS
10
0.8501711417322835
20
0.8488151181102362
11
0.8512813779527559
21
0.84826
0
LINE
8
BLACK
6
CONTINUOUS
10
0.8512813779527559
20
0.84826
11
0.8530805905511811
21
0.84826
0
LINE
8
BLACK
6
CONTINUOUS
10
0.8530805905511811
20
0.84826
11
0.8538617322834645
21
0.8486505511811023
0
LINE
8
BLACK
6
CONTINUOUS
10
0.8538617322834645
20
0.8486505511811023
11
0.8542523622047243
21
0.849431811023622
0
LINE
8
BLACK
6
CONTINUOUS
10
0.8542523622047243
20
0.849431811023622
11
0.8542523622047243
21
0.8592433464566929
0
LINE
8
BLACK
6
CONTINUOUS
10
0.8542523622047243
20
0.8592433464566929
11
0.8548820866141732
21
0.8607636220472441
0
LINE
8
BLACK
6
CONTINUOUS
10
0.8548820866141732
20
0.8607636220472441
11
0.8564023622047244
21
0.8613933464566929
0
LINE
8
BLACK
6
CONTINUOUS
10
0.8564023622047244
20
0.8613933464566929
11
0.8579226377952756
21
0.8607636220472441
0
LINE
8
BLACK
6
CONTINUOUS
10
0.8718742519685039
20
0.8677684645669291
11
0.8723734251968503
21
0.8677329921259842
0
LINE
8
BLACK
6
CONTINUOUS
10
0.8723734251968503
20
0.8677329921259842
11
0.8742496062992126
21
0.8667949212598425
0
LINE
8
BLACK
6
CONTINUOUS
10
0.8742496062992126
20
0.8667949212598425
11
0.8744814173228346
21
0.8665275590551181
0
LINE
8
BLACK
6
CONTINUOUS
10
0.8744814173228346
20
0.8665275590551181
11
0.8748083070866142
21
0.8663922047244095
0
LINE
8
BLACK
6
CONTINUOUS
10
0.8748083070866142
20
0.8663922047244095
11
0.8757464173228346
21
0.8654541338582677
0
LINE
8
BLACK
6
CONTINUOUS
10
0.8757464173228346
20
0.8654541338582677
11
0.8758818110236221
21
0.8651271653543307
0
LINE
8
BLACK
6
CONTINUOUS
10
0.8758818110236221
20
0.8651271653543307
11
0.8761492125984252
21
0.8648953149606299
0
LINE
8
BLACK
6
CONTINUOUS
10
0.8761492125984252
20
0.8648953149606299
11
0.8770872834645669
21
0.8630190551181102
0
LINE
8
BLACK
6
CONTINUOUS
10
0.8770872834645669
20
0.8630190551181102
11
0.8771045669291339
21
0.8627753149606299
0
LINE
8
BLACK
6
CONTINUOUS
10
0.8771045669291339
20
0.8627753149606299
11
0.8772500393700787
21
0.8625790551181102
0
LINE
8
BLACK
6
CONTINUOUS
10
0.8772500393700787
20
0.8625790551181102
11
0.8781881496062992
21
0.8588267322834645
0
LINE
8
BLACK
6
CONTINUOUS
10
0.8781881496062992
20
0.8588267322834645
11
0.878148031496063
21
0.8585570866141732
0
LINE
8
BLACK
6
CONTINUOUS
10
0.878148031496063
20
0.8585570866141732
11
0.8782523622047244
21
0.8583052362204724
0
LINE
8
BLACK
6
CONTINUOUS
10
0.8782523622047244
20
0.8583052362204724
11
0.8782523622047244
21
0.8536147637795275
0
LINE
8
BLACK
6
CONTINUOUS
10
0.8782523622047244
20
0.8536147637795275
11
0.878148031496063
21
0.8533628740157481
0
LINE
8
BLACK
6
CONTINUOUS
10
0.878148031496063
20
0.8533628740157481
11
0.8781881496062992
21
0.8530933070866141
0
LINE
8
BLACK
6
CONTINUOUS
10
0.8781881496062992
20
0.8530933070866141
11
0.8772500393700787
21
0.849340905511811
0
LINE
8
BLACK
6
CONTINUOUS
10
0.8772500393700787
20
0.849340905511811
11
0.8771045669291339
21
0.8491446062992126
0
LINE
8
BLACK
6
CONTINUOUS
10
0.8771045669291339
20
0.8491446062992126
11
0.8770872834645669
21
0.8489008661417322
0
LINE
8
BLACK
6
CONTINUOUS
10
0.8770872834645669
20
0.8489008661417322
11
0.8761492125984252
21
0.84702468503937
0
LINE
8
BLACK
6
CONTINUOUS
10
0.8761492125984252
20
0.84702468503937
11
0.8758818110236221
21
0.8467927952755905
0
LINE
8
BLACK
6
CONTINUOUS
10
0.8758818110236221
20
0.8467927952755905
11
0.8757464173228346
21
0.8464658661417322
0
LINE
8
BLACK
6
CONTINUOUS
10
0.8757464173228346
20
0.8464658661417322
11
0.8748083070866142
21
0.8455277952755905
0
LINE
8
BLACK
6
CONTINUOUS
10
0.8748083070866142
20
0.8455277952755905
11
0.8744814173228346
21
0.8453924015748031
0
LINE
8
BLACK
6
CONTINUOUS
10
0.8744814173228346
20
0.8453924015748031
11
0.8742496062992126
21
0.8451250787401574
0
LINE
8
BLACK
6
CONTINUOUS
10
0.8742496062992126
20
0.8451250787401574
11
0.8723734251968503
21
0.8441870078740157
0
LINE
8
BLACK
6
CONTINUOUS
10
0.8723734251968503
20
0.8441870078740157
11
0.8718742519685039
21
0.8441514960629921
0
LINE
8
BLACK
6
CONTINUOUS
10
0.8718742519685039
20
0.8441514960629921
11
0.8714118897637795
21
0.8439599999999999
0
LINE
8
BLACK
6
CONTINUOUS
10
0.8714118897637795
20
0.8439599999999999
11
0.8695357086614173
21
0.8439599999999999
0
LINE
8
BLACK
6
CONTINUOUS
10
0.8695357086614173
20
0.8439599999999999
11
0.8690733464566929
21
0.8441514960629921
0
LINE
8
BLACK
6
CONTINUOUS
10
0.8690733464566929
20
0.8441514960629921
11
0.8685742125984252
21
0.844186968503937
0
LINE
8
BLACK
6
CONTINUOUS
10
0.8685742125984252
20
0.844186968503937
11
0.8666979921259842
21
0.8451250787401574
0
LINE
8
BLACK
6
CONTINUOUS
10
0.8666979921259842
20
0.8451250787401574
11
0.8664661023622047
21
0.8453924015748031
0
LINE
8
BLACK
6
CONTINUOUS
10
0.8664661023622047
20
0.8453924015748031
11
0.8661392125984252
21
0.8455278346456693
0
LINE
8
BLACK
6
CONTINUOUS
10
0.8661392125984252
20
0.8455278346456693
11
0.8652011417322835
21
0.846465905511811
0
LINE
8
BLACK
6
CONTINUOUS
10
0.8652011417322835
20
0.846465905511811
11
0.8650657086614173
21
0.8467927559055118
0
LINE
8
BLACK
6
CONTINUOUS
10
0.8650657086614173
20
0.8467927559055118
11
0.8647983858267716
21
0.8470246456692914
0
LINE
8
BLACK
6
CONTINUOUS
10
0.8647983858267716
20
0.8470246456692914
11
0.8638603149606299
21
0.8489008267716536
0
LINE
8
BLACK
6
CONTINUOUS
10
0.8638603149606299
20
0.8489008267716536
11
0.8638429527559055
21
0.8491445275590551
0
LINE
8
BLACK
6
CONTINUOUS
10
0.8638429527559055
20
0.8491445275590551
11
0.8636974803149606
21
0.8493409448818897
0
LINE
8
BLACK
6
CONTINUOUS
10
0.8636974803149606
20
0.8493409448818897
11
0.8627594094488189
21
0.8530933464566929
0
LINE
8
BLACK
6
CONTINUOUS
10
0.8627594094488189
20
0.8530933464566929
11
0.8627995275590551
21
0.8533629527559055
0
LINE
8
BLACK
6
CONTINUOUS
10
0.8627995275590551
20
0.8533629527559055
11
0.8626952362204724
21
0.8536147637795275
0
LINE
8
BLACK
6
CONTINUOUS
10
0.8626952362204724
20
0.8536147637795275
11
0.8626952362204724
21
0.8583052362204724
0
LINE
8
BLACK
6
CONTINUOUS
10
0.8626952362204724
20
0.8583052362204724
11
0.8627995275590551
21
0.8585570472440944
0
LINE
8
BLACK
6
CONTINUOUS
10
0.8627995275590551
20
0.8585570472440944
11
0.8627594094488189
21
0.8588266929133858
0
LINE
8
BLACK
6
CONTINUOUS
10
0.8627594094488189
20
0.8588266929133858
11
0.8636974803149606
21
0.8625790157480315
0
LINE
8
BLACK
6
CONTINUOUS
10
0.8636974803149606
20
0.8625790157480315
11
0.8638429527559055
21
0.8627753543307086
0
LINE
8
BLACK
6
CONTINUOUS
10
0.8638429527559055
20
0.8627753543307086
11
0.8638602755905511
21
0.8630190944881889
0
LINE
8
BLACK
6
CONTINUOUS
10
0.8638602755905511
20
0.8630190944881889
11
0.8647983858267716
21
0.8648953149606299
0
LINE
8
BLACK
6
CONTINUOUS
10
0.8647983858267716
20
0.8648953149606299
11
0.8650657086614173
21
0.8651271653543307
0
LINE
8
BLACK
6
CONTINUOUS
10
0.8650657086614173
20
0.8651271653543307
11
0.8652011417322835
21
0.865454094488189
0
LINE
8
BLACK
6
CONTINUOUS
10
0.8652011417322835
20
0.865454094488189
11
0.8661392125984252
21
0.8663921653543307
0
LINE
8
BLACK
6
CONTINUOUS
10
0.8661392125984252
20
0.8663921653543307
11
0.8664661023622047
21
0.8665275590551181
0
LINE
8
BLACK
6
CONTINUOUS
10
0.8664661023622047
20
0.8665275590551181
11
0.8666979921259842
21
0.8667949212598425
0
LINE
8
BLACK
6
CONTINUOUS
10
0.8666979921259842
20
0.8667949212598425
11
0.8685742125984252
21
0.867733031496063
0
LINE
8
BLACK
6
CONTINUOUS
10
0.8685742125984252
20
0.867733031496063
11
0.8690733464566929
21
0.8677684645669291
0
LINE
8
BLACK
6
CONTINUOUS
10
0.8690733464566929
20
0.8677684645669291
11
0.8695357086614173
21
0.86796
0
LINE
8
BLACK
6
CONTINUOUS
10
0.8695357086614173
20
0.86796
11
0.8714118897637795
21
0.86796
0
LINE
8
BLACK
6
CONTINUOUS
10
0.8714118897637795
20
0.86796
11
0.8718742519685039
21
0.8677684645669291
0
LINE
8
BLACK
6
CONTINUOUS
10
0.8689330314960629
20
0.8631048818897638
11
0.8684884251968503
21
0.8626602755905511
0
LINE
8
BLACK
6
CONTINUOUS
10
0.8684884251968503
20
0.8626602755905511
11
0.8678118897637795
21
0.8613072440944882
0
LINE
8
BLACK
6
CONTINUOUS
10
0.8678118897637795
20
0.8613072440944882
11
0.8669952362204725
21
0.8580404724409448
0
LINE
8
BLACK
6
CONTINUOUS
10
0.8669952362204725
20
0.8580404724409448
11
0.8669952362204725
21
0.8538794488188977
0
LINE
8
BLACK
6
CONTINUOUS
10
0.8669952362204725
20
0.8538794488188977
11
0.8678119291338583
21
0.8506126377952755
0
LINE
8
BLACK
6
CONTINUOUS
10
0.8678119291338583
20
0.8506126377952755
11
0.8684883464566929
21
0.8492597637795275
0
LINE
8
BLACK
6
CONTINUOUS
10
0.8684883464566929
20
0.8492597637795275
11
0.8689330314960629
21
0.8488151181102362
0
LINE
8
BLACK
6
CONTINUOUS
10
0.8689330314960629
20
0.8488151181102362
11
0.8700432677165354
21
0.84826
0
LINE
8
BLACK
6
CONTINUOUS
10
0.8700432677165354
20
0.84826
11
0.8709043700787401
21
0.84826
0
LINE
8
BLACK
6
CONTINUOUS
10
0.8709043700787401
20
0.84826
11
0.8720144881889763
21
0.8488150787401575
0
LINE
8
BLACK
6
CONTINUOUS
10
0.8720144881889763
20
0.8488150787401575
11
0.8724591732283464
21
0.8492597244094487
0
LINE
8
BLACK
6
CONTINUOUS
10
0.8724591732283464
20
0.8492597244094487
11
0.8731357086614173
21
0.8506128346456693
0
LINE
8
BLACK
6
CONTINUOUS
10
0.8731357086614173
20
0.8506128346456693
11
0.8739523622047244
21
0.8538794881889764
0
LINE
8
BLACK
6
CONTINUOUS
10
0.8739523622047244
20
0.8538794881889764
11
0.8739523622047244
21
0.8580404724409448
0
LINE
8
BLACK
6
CONTINUOUS
10
0.8739523622047244
20
0.8580404724409448
11
0.8731357086614173
21
0.8613070866141732
0
LINE
8
BLACK
6
CONTINUOUS
10
0.8731357086614173
20
0.8613070866141732
11
0.8724591338582677
21
0.8626602362204724
0
LINE
8
BLACK
6
CONTINUOUS
10
0.8724591338582677
20
0.8626602362204724
11
0.8720144881889763
21
0.8631048818897638
0
LINE
8
BLACK
6
CONTINUOUS
10
0.8720144881889763
20
0.8631048818897638
11
0.8709043700787401
21
0.86366
0
LINE
8
BLACK
6
CONTINUOUS
10
0.8709043700787401
20
0.86366
11
0.8700432677165354
21
0.86366
0
LINE
8
BLACK
6
CONTINUOUS
10
0.8700432677165354
20
0.86366
11
0.8689330314960629
21
0.8631048818897638
0
CIRCLE
8
BLACK
10
0.2
20
1.
40
0.0068897637795276
0
CIRCLE
8
BLACK
10
1.8
20
1.
40
0.0068897637795276
0
CIRCLE
8
BLACK
10
1.8
20
0.2
40
0.0068897637795276
0
CIRCLE
8
BLACK
10
0.2
20
0.2
40
0.0068897637795276
0
CIRCLE
8
BLACK
10
0.5499999999999999
20
0.95
40
0.0068897637795276
0
CIRCLE
8
BLACK
10
0.5499999999999999
20
1.05
40
0.0068897637795276
0
CIRCLE
8
BLACK
10
0.65
20
0.95
40
0.0068897637795276
0
CIRCLE
8
BLACK
10
0.65
20
1.05
40
0.0068897637795276
0
CIRCLE
8
BLACK
10
0.75
20
0.95
40
0.0068897637795276
0
CIRCLE
8
BLACK
10
0.75
20
1.05
40
0.0068897637795276
0
CIRCLE
8
BLACK
10
0.85
20
0.95
40
0.0068897637795276
0
CIRCLE
8
BLACK
10
0.85
20
1.05
40
0.0068897637795276
0
CIRCLE
8
BLACK
10
0.95
20
0.95
40
0.0068897637795276
0
CIRCLE
8
BLACK
10
0.95
20
1.05
40
0.0068897637795276
0
CIRCLE
8
BLACK
10
1.45
20
1.05
40
0.0068897637795276
0
CIRCLE
8
BLACK
10
1.45
20
0.95
40
0.0068897637795276
0
CIRCLE
8
BLACK
10
1.3499999999999999
20
1.05
40
0.0068897637795276
0
CIRCLE
8
BLACK
10
1.3499999999999999
20
0.95
40
0.0068897637795276
0
CIRCLE
8
BLACK
10
0.45
20
0.85
40
0.0068897637795276
0
CIRCLE
8
BLACK
10
0.5499999999999999
20
0.85
40
0.0068897637795276
0
CIRCLE
8
BLACK
10
1.8499999999999999
20
0.75
40
0.0068897637795276
0
CIRCLE
8
BLACK
10
1.75
20
0.75
40
0.0068897637795276
0
CIRCLE
8
BLACK
10
1.8499999999999999
20
0.65
40
0.0068897637795276
0
CIRCLE
8
BLACK
10
1.75
20
0.65
40
0.0068897637795276
0
CIRCLE
8
BLACK
10
1.1728031496062992
20
0.5978937007874016
40
0.0068897637795276
0
CIRCLE
8
BLACK
10
1.2228031496062992
20
0.4978937007874016
40
0.0068897637795276
0
CIRCLE
8
BLACK
10
1.2728031496062993
20
0.5978937007874016
40
0.0068897637795276
0
CIRCLE
8
BLACK
10
1.3228031496062991
20
0.4978937007874016
40
0.0068897637795276
0
CIRCLE
8
BLACK
10
1.3728031496062991
20
0.5978937007874016
40
0.0068897637795276
0
CIRCLE
8
BLACK
10
1.4228031496062992
20
0.4978937007874016
40
0.0068897637795276
0
CIRCLE
8
BLACK
10
1.0979999999999999
20
0.2475
40
0.0068897637795276
0
CIRCLE
8
BLACK
10
1.498
20
0.2475
40
0.0068897637795276
0
CIRCLE
8
BLACK
10
0.5728031496062992
20
0.5978937007874016
40
0.0068897637795276
0
CIRCLE
8
BLACK
10
0.6228031496062992
20
0.4978937007874016
40
0.0068897637795276
0
CIRCLE
8
BLACK
10
0.6728031496062992
20
0.5978937007874016
40
0.0068897637795276
0
CIRCLE
8
BLACK
10
0.7228031496062992
20
0.4978937007874016
40
0.0068897637795276
0
CIRCLE
8
BLACK
10
0.7728031496062991
20
0.5978937007874016
40
0.0068897637795276
0
CIRCLE
8
BLACK
10
0.8228031496062992
20
0.4978937007874016
40
0.0068897637795276
0
CIRCLE
8
BLACK
10
0.498
20
0.2475
40
0.0068897637795276
0
CIRCLE
8
BLACK
10
0.898
20
0.2475
40
0.0068897637795276
0
CIRCLE
8
BLACK
10
1.8499999999999999
20
0.5499999999999999
40
0.0068897637795276
0
CIRCLE
8
BLACK
10
1.75
20
0.5499999999999999
40
0.0068897637795276
0
CIRCLE
8
BLACK
10
1.8499999999999999
20
0.45
40
0.0068897637795276
0
CIRCLE
8
BLACK
10
1.75
20
0.45
40
0.0068897637795276
0
CIRCLE
8
BLACK
10
0.15
20
0.75
40
0.0068897637795276
0
CIRCLE
8
BLACK
10
0.25
20
0.75
40
0.0068897637795276
0
CIRCLE
8
BLACK
10
0.15
20
0.65
40
0.0068897637795276
0
CIRCLE
8
BLACK
10
0.25
20
0.65
40
0.0068897637795276
0
CIRCLE
8
BLACK
10
0.15
20
0.5499999999999999
40
0.0068897637795276
0
CIRCLE
8
BLACK
10
0.25
20
0.5499999999999999
40
0.0068897637795276
0
CIRCLE
8
BLACK
10
0.15
20
0.45
40
0.0068897637795276
0
CIRCLE
8
BLACK
10
0.25
20
0.45
40
0.0068897637795276
  0
ENDSEC
  0
EOF
