  0
SECTION
  2
HEADER
  9
$ANGBASE
  50
0.0
  9
$ANGDIR
  70
1
  9
$MEASUREMENT
  70
0
  0
ENDSEC
  0
SECTION
  2
TABLES
  0
TABLE
  2
LTYPE
  70
4
  0
LTYPE
  5
40F
  2
CONTINUOUS
  70
0
  3
Solid line
  72
65
  73
0
  40
0.0
  0
LTYPE
  5
410
  2
DASHDOT
 70
0
  3
Dash Dot ____ _ ____ _
 72
65
 73
4
 40
2.0
 49
1.25
 49
-0.25
 49
0.25
 49
-0.25
  0
LTYPE
  5
411
  2
DASHED
 70
0
  3
Dashed __ __ __ __ __
 72
65
 73
2
 40
0.75
 49
0.5
 49
-0.25
  0
LTYPE
  5
43B
  2
DOTTED
 70
0
  3
Dotted .  .  .  .
 72
65
 73
2
 40
0.2
 49
0.0
 49
-0.2
  0
ENDTAB
  0
TABLE
  2
STYLE
  70
4
  0
STYLE
  2
KICAD
  70
0
  40
0
  41
1
  42
1
  50
0
  71
0
  3
isocp.shx
  0
STYLE
  2
KICADB
  70
0
  40
0
  41
1
  42
1
  50
0
  71
0
  3
isocp.shx
  0
STYLE
  2
KICADI
  70
0
  40
0
  41
1
  42
1
  50
15
  71
0
  3
isocp.shx
  0
STYLE
  2
KICADBI
  70
0
  40
0
  41
1
  42
1
  50
15
  71
0
  3
isocp.shx
  0
ENDTAB
  0
TABLE
  2
LAYER
  70
1
  0
LAYER
  2
BLACK
  70
0
  62
7
  6
CONTINUOUS
  0
ENDTAB
  0
ENDSEC
  0
SECTION
  2
ENTITIES
0
LINE
8
BLACK
6
CONTINUOUS
10
0.9362
20
0.49355
11
0.9244
21
0.49355
0
LINE
8
BLACK
6
CONTINUOUS
10
0.9244
20
0.49355
11
0.9244
21
0.51125
0
LINE
8
BLACK
6
CONTINUOUS
10
0.9244
20
0.51125
11
0.9362
21
0.51125
0
LINE
8
BLACK
6
CONTINUOUS
10
0.9362
20
0.51125
11
0.9362
21
0.49355
0
LINE
8
BLACK
6
CONTINUOUS
10
0.9559
20
0.49355
11
0.9440999999999999
21
0.49355
0
LINE
8
BLACK
6
CONTINUOUS
10
0.9440999999999999
20
0.49355
11
0.9440999999999999
21
0.51125
0
LINE
8
BLACK
6
CONTINUOUS
10
0.9440999999999999
20
0.51125
11
0.9559
21
0.51125
0
LINE
8
BLACK
6
CONTINUOUS
10
0.9559
20
0.51125
11
0.9559
21
0.49355
0
LINE
8
BLACK
6
CONTINUOUS
10
0.9756
20
0.49355
11
0.9638
21
0.49355
0
LINE
8
BLACK
6
CONTINUOUS
10
0.9638
20
0.49355
11
0.9638
21
0.51125
0
LINE
8
BLACK
6
CONTINUOUS
10
0.9638
20
0.51125
11
0.9756
21
0.51125
0
LINE
8
BLACK
6
CONTINUOUS
10
0.9756
20
0.51125
11
0.9756
21
0.49355
0
LINE
8
BLACK
6
CONTINUOUS
10
1.0265
20
0.49595
11
1.0146999999999999
21
0.49595
0
LINE
8
BLACK
6
CONTINUOUS
10
1.0146999999999999
20
0.49595
11
1.0146999999999999
21
0.5136499999999999
0
LINE
8
BLACK
6
CONTINUOUS
10
1.0146999999999999
20
0.5136499999999999
11
1.0265
21
0.5136499999999999
0
LINE
8
BLACK
6
CONTINUOUS
10
1.0265
20
0.5136499999999999
11
1.0265
21
0.49595
0
LINE
8
BLACK
6
CONTINUOUS
10
1.0462
20
0.49595
11
1.0344
21
0.49595
0
LINE
8
BLACK
6
CONTINUOUS
10
1.0344
20
0.49595
11
1.0344
21
0.5136499999999999
0
LINE
8
BLACK
6
CONTINUOUS
10
1.0344
20
0.5136499999999999
11
1.0462
21
0.5136499999999999
0
LINE
8
BLACK
6
CONTINUOUS
10
1.0462
20
0.5136499999999999
11
1.0462
21
0.49595
0
LINE
8
BLACK
6
CONTINUOUS
10
1.0659000000000001
20
0.49595
11
1.0541
21
0.49595
0
LINE
8
BLACK
6
CONTINUOUS
10
1.0541
20
0.49595
11
1.0541
21
0.5136499999999999
0
LINE
8
BLACK
6
CONTINUOUS
10
1.0541
20
0.5136499999999999
11
1.0659000000000001
21
0.5136499999999999
0
LINE
8
BLACK
6
CONTINUOUS
10
1.0659000000000001
20
0.5136499999999999
11
1.0659000000000001
21
0.49595
0
LINE
8
BLACK
6
CONTINUOUS
10
0.9362
20
0.54875
11
0.9244
21
0.54875
0
LINE
8
BLACK
6
CONTINUOUS
10
0.9244
20
0.54875
11
0.9244
21
0.56645
0
LINE
8
BLACK
6
CONTINUOUS
10
0.9244
20
0.56645
11
0.9362
21
0.56645
0
LINE
8
BLACK
6
CONTINUOUS
10
0.9362
20
0.56645
11
0.9362
21
0.54875
0
LINE
8
BLACK
6
CONTINUOUS
10
0.9756
20
0.54875
11
0.9638
21
0.54875
0
LINE
8
BLACK
6
CONTINUOUS
10
0.9638
20
0.54875
11
0.9638
21
0.56645
0
LINE
8
BLACK
6
CONTINUOUS
10
0.9638
20
0.56645
11
0.9756
21
0.56645
0
LINE
8
BLACK
6
CONTINUOUS
10
0.9756
20
0.56645
11
0.9756
21
0.54875
0
LINE
8
BLACK
6
CONTINUOUS
10
1.0265
20
0.55115
11
1.0146999999999999
21
0.55115
0
LINE
8
BLACK
6
CONTINUOUS
10
1.0146999999999999
20
0.55115
11
1.0146999999999999
21
0.56885
0
LINE
8
BLACK
6
CONTINUOUS
10
1.0146999999999999
20
0.56885
11
1.0265
21
0.56885
0
LINE
8
BLACK
6
CONTINUOUS
10
1.0265
20
0.56885
11
1.0265
21
0.55115
0
LINE
8
BLACK
6
CONTINUOUS
10
1.0659000000000001
20
0.55115
11
1.0541
21
0.55115
0
LINE
8
BLACK
6
CONTINUOUS
10
1.0541
20
0.55115
11
1.0541
21
0.56885
0
LINE
8
BLACK
6
CONTINUOUS
10
1.0541
20
0.56885
11
1.0659000000000001
21
0.56885
0
LINE
8
BLACK
6
CONTINUOUS
10
1.0659000000000001
20
0.56885
11
1.0659000000000001
21
0.55115
0
LINE
8
BLACK
6
CONTINUOUS
10
0.67
20
0.7324999999999999
11
0.635
21
0.7324999999999999
0
LINE
8
BLACK
6
CONTINUOUS
10
0.635
20
0.7324999999999999
11
0.635
21
0.7875
0
LINE
8
BLACK
6
CONTINUOUS
10
0.635
20
0.7875
11
0.67
21
0.7875
0
LINE
8
BLACK
6
CONTINUOUS
10
0.67
20
0.7875
11
0.67
21
0.7324999999999999
0
LINE
8
BLACK
6
CONTINUOUS
10
0.745
20
0.7324999999999999
11
0.71
21
0.7324999999999999
0
LINE
8
BLACK
6
CONTINUOUS
10
0.71
20
0.7324999999999999
11
0.71
21
0.7875
0
LINE
8
BLACK
6
CONTINUOUS
10
0.71
20
0.7875
11
0.745
21
0.7875
0
LINE
8
BLACK
6
CONTINUOUS
10
0.745
20
0.7875
11
0.745
21
0.7324999999999999
0
LINE
8
BLACK
6
CONTINUOUS
10
0.7999999999999999
20
0.7324999999999999
11
0.765
21
0.7324999999999999
0
LINE
8
BLACK
6
CONTINUOUS
10
0.765
20
0.7324999999999999
11
0.765
21
0.7875
0
LINE
8
BLACK
6
CONTINUOUS
10
0.765
20
0.7875
11
0.7999999999999999
21
0.7875
0
LINE
8
BLACK
6
CONTINUOUS
10
0.7999999999999999
20
0.7875
11
0.7999999999999999
21
0.7324999999999999
0
LINE
8
BLACK
6
CONTINUOUS
10
0.875
20
0.7324999999999999
11
0.84
21
0.7324999999999999
0
LINE
8
BLACK
6
CONTINUOUS
10
0.84
20
0.7324999999999999
11
0.84
21
0.7875
0
LINE
8
BLACK
6
CONTINUOUS
10
0.84
20
0.7875
11
0.875
21
0.7875
0
LINE
8
BLACK
6
CONTINUOUS
10
0.875
20
0.7875
11
0.875
21
0.7324999999999999
0
LINE
8
BLACK
6
CONTINUOUS
10
0.8375
20
0.8125
11
0.8025
21
0.8125
0
LINE
8
BLACK
6
CONTINUOUS
10
0.8025
20
0.8125
11
0.8025
21
0.8674999999999999
0
LINE
8
BLACK
6
CONTINUOUS
10
0.8025
20
0.8674999999999999
11
0.8375
21
0.8674999999999999
0
LINE
8
BLACK
6
CONTINUOUS
10
0.8375
20
0.8674999999999999
11
0.8375
21
0.8125
0
LINE
8
BLACK
6
CONTINUOUS
10
0.9125
20
0.8125
11
0.8774999999999999
21
0.8125
0
LINE
8
BLACK
6
CONTINUOUS
10
0.8774999999999999
20
0.8125
11
0.8774999999999999
21
0.8674999999999999
0
LINE
8
BLACK
6
CONTINUOUS
10
0.8774999999999999
20
0.8674999999999999
11
0.9125
21
0.8674999999999999
0
LINE
8
BLACK
6
CONTINUOUS
10
0.9125
20
0.8674999999999999
11
0.9125
21
0.8125
  0
ENDSEC
  0
EOF
