  0
SECTION
  2
HEADER
  9
$ANGBASE
  50
0.0
  9
$ANGDIR
  70
1
  9
$MEASUREMENT
  70
0
  0
ENDSEC
  0
SECTION
  2
TABLES
  0
TABLE
  2
LTYPE
  70
4
  0
LTYPE
  5
40F
  2
CONTINUOUS
  70
0
  3
Solid line
  72
65
  73
0
  40
0.0
  0
LTYPE
  5
410
  2
DASHDOT
 70
0
  3
Dash Dot ____ _ ____ _
 72
65
 73
4
 40
2.0
 49
1.25
 49
-0.25
 49
0.25
 49
-0.25
  0
LTYPE
  5
411
  2
DASHED
 70
0
  3
Dashed __ __ __ __ __
 72
65
 73
2
 40
0.75
 49
0.5
 49
-0.25
  0
LTYPE
  5
43B
  2
DOTTED
 70
0
  3
Dotted .  .  .  .
 72
65
 73
2
 40
0.2
 49
0.0
 49
-0.2
  0
ENDTAB
  0
TABLE
  2
STYLE
  70
4
  0
STYLE
  2
KICAD
  70
0
  40
0
  41
1
  42
1
  50
0
  71
0
  3
isocp.shx
  0
STYLE
  2
KICADB
  70
0
  40
0
  41
1
  42
1
  50
0
  71
0
  3
isocp.shx
  0
STYLE
  2
KICADI
  70
0
  40
0
  41
1
  42
1
  50
15
  71
0
  3
isocp.shx
  0
STYLE
  2
KICADBI
  70
0
  40
0
  41
1
  42
1
  50
15
  71
0
  3
isocp.shx
  0
ENDTAB
  0
TABLE
  2
LAYER
  70
1
  0
LAYER
  2
BLACK
  70
0
  62
7
  6
CONTINUOUS
  0
ENDTAB
  0
ENDSEC
  0
SECTION
  2
ENTITIES
0
LINE
8
BLACK
6
CONTINUOUS
10
1.9929527559055118
20
1.3122017322834645
11
1.9951143307086614
21
1.3100401574803149
0
LINE
8
BLACK
6
CONTINUOUS
10
1.9951143307086614
20
1.3100401574803149
11
1.9959055118110236
21
1.3070874015748031
0
LINE
8
BLACK
6
CONTINUOUS
10
1.9959055118110236
20
1.3070874015748031
11
1.9959055118110236
21
1.1959055118110236
0
LINE
8
BLACK
6
CONTINUOUS
10
1.9959055118110236
20
1.1959055118110236
11
2.1250874015748029
21
1.1959055118110236
0
LINE
8
BLACK
6
CONTINUOUS
10
2.1250874015748029
20
1.1959055118110236
11
2.1280401574803149
21
1.1951143307086614
0
LINE
8
BLACK
6
CONTINUOUS
10
2.1280401574803149
20
1.1951143307086614
11
2.1302017322834645
21
1.1929527559055118
0
LINE
8
BLACK
6
CONTINUOUS
10
2.1302017322834645
20
1.1929527559055118
11
2.1309929133858265
21
1.1899999999999999
0
LINE
8
BLACK
6
CONTINUOUS
10
2.1309929133858265
20
1.1899999999999999
11
2.1302017322834645
21
1.1870472440944881
0
LINE
8
BLACK
6
CONTINUOUS
10
2.1302017322834645
20
1.1870472440944881
11
2.1280401574803149
21
1.1848856692913385
0
LINE
8
BLACK
6
CONTINUOUS
10
2.1280401574803149
20
1.1848856692913385
11
2.1250874015748029
21
1.1840944881889763
0
LINE
8
BLACK
6
CONTINUOUS
10
2.1250874015748029
20
1.1840944881889763
11
2.1117320078740156
21
1.1840944881889763
0
LINE
8
BLACK
6
CONTINUOUS
10
2.1117320078740156
20
1.1840944881889763
11
2.1303256692913384
21
1.1483763385826771
0
LINE
8
BLACK
6
CONTINUOUS
10
2.1303256692913384
20
1.1483763385826771
11
2.1309873228346454
21
1.1453918503937008
0
LINE
8
BLACK
6
CONTINUOUS
10
2.1309873228346454
20
1.1453918503937008
11
2.1300681102362202
21
1.1424764173228346
0
LINE
8
BLACK
6
CONTINUOUS
10
2.1300681102362202
20
1.1424764173228346
11
2.1278142913385825
21
1.1404112204724408
0
LINE
8
BLACK
6
CONTINUOUS
10
2.1278142913385825
20
1.1404112204724408
11
2.1248298425196852
21
1.1397495669291338
0
LINE
8
BLACK
6
CONTINUOUS
10
2.1248298425196852
20
1.1397495669291338
11
2.1219144094488187
21
1.140668779527559
0
LINE
8
BLACK
6
CONTINUOUS
10
2.1219144094488187
20
1.140668779527559
11
2.1198491732283462
21
1.1429225984251967
0
LINE
8
BLACK
6
CONTINUOUS
10
2.1198491732283462
20
1.1429225984251967
11
2.1079055118110235
21
1.1658661417322835
0
LINE
8
BLACK
6
CONTINUOUS
10
2.1079055118110235
20
1.1658661417322835
11
2.1079055118110235
21
0.0341338188976378
0
LINE
8
BLACK
6
CONTINUOUS
10
2.1079055118110235
20
0.0341338188976378
11
2.1198491732283462
21
0.0570774015748031
0
LINE
8
BLACK
6
CONTINUOUS
10
2.1198491732283462
20
0.0570774015748031
11
2.1219144094488187
21
0.0593312204724409
0
LINE
8
BLACK
6
CONTINUOUS
10
2.1219144094488187
20
0.0593312204724409
11
2.1248298425196852
21
0.0602504330708661
0
LINE
8
BLACK
6
CONTINUOUS
10
2.1248298425196852
20
0.0602504330708661
11
2.1278142913385825
21
0.0595887795275591
0
LINE
8
BLACK
6
CONTINUOUS
10
2.1278142913385825
20
0.0595887795275591
11
2.1300681102362202
21
0.0575235826771654
0
LINE
8
BLACK
6
CONTINUOUS
10
2.1300681102362202
20
0.0575235826771654
11
2.1309873228346454
21
0.0546081496062992
0
LINE
8
BLACK
6
CONTINUOUS
10
2.1309873228346454
20
0.0546081496062992
11
2.1303256692913384
21
0.0516236614173228
0
LINE
8
BLACK
6
CONTINUOUS
10
2.1303256692913384
20
0.0516236614173228
11
2.1117320078740156
21
0.0159055118110236
0
LINE
8
BLACK
6
CONTINUOUS
10
2.1117320078740156
20
0.0159055118110236
11
2.1250874015748029
21
0.0159055118110236
0
LINE
8
BLACK
6
CONTINUOUS
10
2.1250874015748029
20
0.0159055118110236
11
2.1280401574803149
21
0.0151143307086614
0
LINE
8
BLACK
6
CONTINUOUS
10
2.1280401574803149
20
0.0151143307086614
11
2.1302017322834645
21
0.0129527559055118
0
LINE
8
BLACK
6
CONTINUOUS
10
2.1302017322834645
20
0.0129527559055118
11
2.1309929133858265
21
0.01
0
LINE
8
BLACK
6
CONTINUOUS
10
2.1309929133858265
20
0.01
11
2.1302017322834645
21
0.0070472440944882
0
LINE
8
BLACK
6
CONTINUOUS
10
2.1302017322834645
20
0.0070472440944882
11
2.1280401574803149
21
0.0048856692913386
0
LINE
8
BLACK
6
CONTINUOUS
10
2.1280401574803149
20
0.0048856692913386
11
2.1250874015748029
21
0.0040944881889764
0
LINE
8
BLACK
6
CONTINUOUS
10
2.1250874015748029
20
0.0040944881889764
11
2.1019999999999999
21
0.0040944881889764
0
LINE
8
BLACK
6
CONTINUOUS
10
2.1019999999999999
20
0.0040944881889764
11
1.99
21
0.0040944881889764
0
LINE
8
BLACK
6
CONTINUOUS
10
1.99
20
0.0040944881889764
11
1.9870472440944882
21
0.0048856692913386
0
LINE
8
BLACK
6
CONTINUOUS
10
1.9870472440944882
20
0.0048856692913386
11
1.9848856692913386
21
0.0070472440944882
0
LINE
8
BLACK
6
CONTINUOUS
10
1.9848856692913386
20
0.0070472440944882
11
1.9840944881889764
21
0.01
0
LINE
8
BLACK
6
CONTINUOUS
10
1.9840944881889764
20
0.01
11
1.9848856692913386
21
0.0129527559055118
0
LINE
8
BLACK
6
CONTINUOUS
10
1.9848856692913386
20
0.0129527559055118
11
1.9870472440944882
21
0.0151143307086614
0
LINE
8
BLACK
6
CONTINUOUS
10
1.9870472440944882
20
0.0151143307086614
11
1.99
21
0.0159055118110236
0
LINE
8
BLACK
6
CONTINUOUS
10
1.99
20
0.0159055118110236
11
2.0922679921259841
21
0.0159055118110236
0
LINE
8
BLACK
6
CONTINUOUS
10
2.0922679921259841
20
0.0159055118110236
11
2.0736742913385826
21
0.0516237007874016
0
LINE
8
BLACK
6
CONTINUOUS
10
2.0736742913385826
20
0.0516237007874016
11
2.0730126771653543
21
0.0546081496062992
0
LINE
8
BLACK
6
CONTINUOUS
10
2.0730126771653543
20
0.0546081496062992
11
2.0739318897637795
21
0.0575235826771654
0
LINE
8
BLACK
6
CONTINUOUS
10
2.0739318897637795
20
0.0575235826771654
11
2.0761857086614173
21
0.0595888188976378
0
LINE
8
BLACK
6
CONTINUOUS
10
2.0761857086614173
20
0.0595888188976378
11
2.079170157480315
21
0.0602504330708661
0
LINE
8
BLACK
6
CONTINUOUS
10
2.079170157480315
20
0.0602504330708661
11
2.082085590551181
21
0.0593312204724409
0
LINE
8
BLACK
6
CONTINUOUS
10
2.082085590551181
20
0.0593312204724409
11
2.0841508267716535
21
0.0570774015748031
0
LINE
8
BLACK
6
CONTINUOUS
10
2.0841508267716535
20
0.0570774015748031
11
2.0960944881889763
21
0.0341338188976378
0
LINE
8
BLACK
6
CONTINUOUS
10
2.0960944881889763
20
0.0341338188976378
11
2.0960944881889763
21
1.1658661417322835
0
LINE
8
BLACK
6
CONTINUOUS
10
2.0960944881889763
20
1.1658661417322835
11
2.0841508267716535
21
1.1429225984251967
0
LINE
8
BLACK
6
CONTINUOUS
10
2.0841508267716535
20
1.1429225984251967
11
2.082085590551181
21
1.140668779527559
0
LINE
8
BLACK
6
CONTINUOUS
10
2.082085590551181
20
1.140668779527559
11
2.079170157480315
21
1.1397495669291338
0
LINE
8
BLACK
6
CONTINUOUS
10
2.079170157480315
20
1.1397495669291338
11
2.0761857086614173
21
1.1404111811023623
0
LINE
8
BLACK
6
CONTINUOUS
10
2.0761857086614173
20
1.1404111811023623
11
2.0739318897637795
21
1.1424764173228346
0
LINE
8
BLACK
6
CONTINUOUS
10
2.0739318897637795
20
1.1424764173228346
11
2.0730126771653543
21
1.1453918503937008
0
LINE
8
BLACK
6
CONTINUOUS
10
2.0730126771653543
20
1.1453918503937008
11
2.0736742913385826
21
1.1483762992125983
0
LINE
8
BLACK
6
CONTINUOUS
10
2.0736742913385826
20
1.1483762992125983
11
2.0922679921259841
21
1.1840944881889763
0
LINE
8
BLACK
6
CONTINUOUS
10
2.0922679921259841
20
1.1840944881889763
11
1.99
21
1.1840944881889763
0
LINE
8
BLACK
6
CONTINUOUS
10
1.99
20
1.1840944881889763
11
1.9870472440944882
21
1.1848856692913385
0
LINE
8
BLACK
6
CONTINUOUS
10
1.9870472440944882
20
1.1848856692913385
11
1.9848856692913386
21
1.1870472440944881
0
LINE
8
BLACK
6
CONTINUOUS
10
1.9848856692913386
20
1.1870472440944881
11
1.9840944881889764
21
1.1899999999999999
0
LINE
8
BLACK
6
CONTINUOUS
10
1.9840944881889764
20
1.1899999999999999
11
1.9840944881889764
21
1.2742679921259843
0
LINE
8
BLACK
6
CONTINUOUS
10
1.9840944881889764
20
1.2742679921259843
11
1.9483762992125984
21
1.2556742913385825
0
LINE
8
BLACK
6
CONTINUOUS
10
1.9483762992125984
20
1.2556742913385825
11
1.9453918503937007
21
1.2550126771653543
0
LINE
8
BLACK
6
CONTINUOUS
10
1.9453918503937007
20
1.2550126771653543
11
1.9424764173228346
21
1.2559318897637795
0
LINE
8
BLACK
6
CONTINUOUS
10
1.9424764173228346
20
1.2559318897637795
11
1.9404111811023621
21
1.2581857086614172
0
LINE
8
BLACK
6
CONTINUOUS
10
1.9404111811023621
20
1.2581857086614172
11
1.9397495669291338
21
1.2611701574803149
0
LINE
8
BLACK
6
CONTINUOUS
10
1.9397495669291338
20
1.2611701574803149
11
1.940668779527559
21
1.264085590551181
0
LINE
8
BLACK
6
CONTINUOUS
10
1.940668779527559
20
1.264085590551181
11
1.9429225984251968
21
1.2661508267716535
0
LINE
8
BLACK
6
CONTINUOUS
10
1.9429225984251968
20
1.2661508267716535
11
1.9658661811023621
21
1.2780944881889764
0
LINE
8
BLACK
6
CONTINUOUS
10
1.9658661811023621
20
1.2780944881889764
11
0.0341338582677165
21
1.2780944881889764
0
LINE
8
BLACK
6
CONTINUOUS
10
0.0341338582677165
20
1.2780944881889764
11
0.0570774015748031
21
1.2661508267716535
0
LINE
8
BLACK
6
CONTINUOUS
10
0.0570774015748031
20
1.2661508267716535
11
0.0593312204724409
21
1.264085590551181
0
LINE
8
BLACK
6
CONTINUOUS
10
0.0593312204724409
20
1.264085590551181
11
0.0602504330708661
21
1.2611701574803149
0
LINE
8
BLACK
6
CONTINUOUS
10
0.0602504330708661
20
1.2611701574803149
11
0.0595887795275591
21
1.2581857086614172
0
LINE
8
BLACK
6
CONTINUOUS
10
0.0595887795275591
20
1.2581857086614172
11
0.0575235826771654
21
1.2559318897637795
0
LINE
8
BLACK
6
CONTINUOUS
10
0.0575235826771654
20
1.2559318897637795
11
0.0546081496062992
21
1.2550126771653543
0
LINE
8
BLACK
6
CONTINUOUS
10
0.0546081496062992
20
1.2550126771653543
11
0.0516236614173228
21
1.2556743307086613
0
LINE
8
BLACK
6
CONTINUOUS
10
0.0516236614173228
20
1.2556743307086613
11
0.0159055118110236
21
1.2742679921259843
0
LINE
8
BLACK
6
CONTINUOUS
10
0.0159055118110236
20
1.2742679921259843
11
0.0159055118110236
21
1.1899999999999999
0
LINE
8
BLACK
6
CONTINUOUS
10
0.0159055118110236
20
1.1899999999999999
11
0.0151143307086614
21
1.1870472440944881
0
LINE
8
BLACK
6
CONTINUOUS
10
0.0151143307086614
20
1.1870472440944881
11
0.0129527559055118
21
1.1848856692913385
0
LINE
8
BLACK
6
CONTINUOUS
10
0.0129527559055118
20
1.1848856692913385
11
0.01
21
1.1840944881889763
0
LINE
8
BLACK
6
CONTINUOUS
10
0.01
20
1.1840944881889763
11
0.0070472440944882
21
1.1848856692913385
0
LINE
8
BLACK
6
CONTINUOUS
10
0.0070472440944882
20
1.1848856692913385
11
0.0048856692913386
21
1.1870472440944881
0
LINE
8
BLACK
6
CONTINUOUS
10
0.0048856692913386
20
1.1870472440944881
11
0.0040944881889764
21
1.1899999999999999
0
LINE
8
BLACK
6
CONTINUOUS
10
0.0040944881889764
20
1.1899999999999999
11
0.0040944881889764
21
1.3070874015748031
0
LINE
8
BLACK
6
CONTINUOUS
10
0.0040944881889764
20
1.3070874015748031
11
0.0048856692913386
21
1.3100401574803149
0
LINE
8
BLACK
6
CONTINUOUS
10
0.0048856692913386
20
1.3100401574803149
11
0.0070472440944882
21
1.3122017322834645
0
LINE
8
BLACK
6
CONTINUOUS
10
0.0070472440944882
20
1.3122017322834645
11
0.01
21
1.3129929133858267
0
LINE
8
BLACK
6
CONTINUOUS
10
0.01
20
1.3129929133858267
11
0.0129527559055118
21
1.3122017322834645
0
LINE
8
BLACK
6
CONTINUOUS
10
0.0129527559055118
20
1.3122017322834645
11
0.0151143307086614
21
1.3100401574803149
0
LINE
8
BLACK
6
CONTINUOUS
10
0.0151143307086614
20
1.3100401574803149
11
0.0159055118110236
21
1.3070874015748031
0
LINE
8
BLACK
6
CONTINUOUS
10
0.0159055118110236
20
1.3070874015748031
11
0.0159055118110236
21
1.293731968503937
0
LINE
8
BLACK
6
CONTINUOUS
10
0.0159055118110236
20
1.293731968503937
11
0.0516236614173228
21
1.3123256692913385
0
LINE
8
BLACK
6
CONTINUOUS
10
0.0516236614173228
20
1.3123256692913385
11
0.0546081496062992
21
1.3129873228346456
0
LINE
8
BLACK
6
CONTINUOUS
10
0.0546081496062992
20
1.3129873228346456
11
0.0575235826771654
21
1.3120681102362204
0
LINE
8
BLACK
6
CONTINUOUS
10
0.0575235826771654
20
1.3120681102362204
11
0.0595887795275591
21
1.3098142913385826
0
LINE
8
BLACK
6
CONTINUOUS
10
0.0595887795275591
20
1.3098142913385826
11
0.0602504330708661
21
1.3068298425196849
0
LINE
8
BLACK
6
CONTINUOUS
10
0.0602504330708661
20
1.3068298425196849
11
0.0593312204724409
21
1.3039144094488189
0
LINE
8
BLACK
6
CONTINUOUS
10
0.0593312204724409
20
1.3039144094488189
11
0.0570774015748031
21
1.3018491732283464
0
LINE
8
BLACK
6
CONTINUOUS
10
0.0570774015748031
20
1.3018491732283464
11
0.0341338582677165
21
1.2899055118110236
0
LINE
8
BLACK
6
CONTINUOUS
10
0.0341338582677165
20
1.2899055118110236
11
1.9658661811023621
21
1.2899055118110236
0
LINE
8
BLACK
6
CONTINUOUS
10
1.9658661811023621
20
1.2899055118110236
11
1.9429225984251968
21
1.3018491732283464
0
LINE
8
BLACK
6
CONTINUOUS
10
1.9429225984251968
20
1.3018491732283464
11
1.940668779527559
21
1.3039144094488189
0
LINE
8
BLACK
6
CONTINUOUS
10
1.940668779527559
20
1.3039144094488189
11
1.9397495669291338
21
1.3068298425196849
0
LINE
8
BLACK
6
CONTINUOUS
10
1.9397495669291338
20
1.3068298425196849
11
1.9404111811023621
21
1.3098142913385826
0
LINE
8
BLACK
6
CONTINUOUS
10
1.9404111811023621
20
1.3098142913385826
11
1.9424764173228346
21
1.3120681102362204
0
LINE
8
BLACK
6
CONTINUOUS
10
1.9424764173228346
20
1.3120681102362204
11
1.9453918503937007
21
1.3129873228346456
0
LINE
8
BLACK
6
CONTINUOUS
10
1.9453918503937007
20
1.3129873228346456
11
1.9483762992125984
21
1.3123257086614173
0
LINE
8
BLACK
6
CONTINUOUS
10
1.9483762992125984
20
1.3123257086614173
11
1.9840944881889764
21
1.293731968503937
0
LINE
8
BLACK
6
CONTINUOUS
10
1.9840944881889764
20
1.293731968503937
11
1.9840944881889764
21
1.3070874015748031
0
LINE
8
BLACK
6
CONTINUOUS
10
1.9840944881889764
20
1.3070874015748031
11
1.9848856692913386
21
1.3100401574803149
0
LINE
8
BLACK
6
CONTINUOUS
10
1.9848856692913386
20
1.3100401574803149
11
1.9870472440944882
21
1.3122017322834645
0
LINE
8
BLACK
6
CONTINUOUS
10
1.9870472440944882
20
1.3122017322834645
11
1.99
21
1.3129929133858267
0
LINE
8
BLACK
6
CONTINUOUS
10
1.99
20
1.3129929133858267
11
1.9929527559055118
21
1.3122017322834645
0
LINE
8
BLACK
6
CONTINUOUS
10
2.0607924409448817
20
0.4321672440944882
11
2.0629540157480313
21
0.4300056692913386
0
LINE
8
BLACK
6
CONTINUOUS
10
2.0629540157480313
20
0.4300056692913386
11
2.0637451968503937
21
0.4270529133858267
0
LINE
8
BLACK
6
CONTINUOUS
10
2.0637451968503937
20
0.4270529133858267
11
2.0637451968503937
21
0.3933071259842519
0
LINE
8
BLACK
6
CONTINUOUS
10
2.0637451968503937
20
0.3933071259842519
11
2.0629540157480313
21
0.3903543700787401
0
LINE
8
BLACK
6
CONTINUOUS
10
2.0629540157480313
20
0.3903543700787401
11
2.0607924409448817
21
0.3881927952755905
0
LINE
8
BLACK
6
CONTINUOUS
10
2.0607924409448817
20
0.3881927952755905
11
2.0578396850393701
21
0.3874016141732283
0
LINE
8
BLACK
6
CONTINUOUS
10
2.0578396850393701
20
0.3874016141732283
11
2.0548869291338581
21
0.3881927952755905
0
LINE
8
BLACK
6
CONTINUOUS
10
2.0548869291338581
20
0.3881927952755905
11
2.0527253543307085
21
0.3903543700787401
0
LINE
8
BLACK
6
CONTINUOUS
10
2.0527253543307085
20
0.3903543700787401
11
2.0519341732283465
21
0.3933071259842519
0
LINE
8
BLACK
6
CONTINUOUS
10
2.0519341732283465
20
0.3933071259842519
11
2.0519341732283465
21
0.4042744881889764
0
LINE
8
BLACK
6
CONTINUOUS
10
2.0519341732283465
20
0.4042744881889764
11
2.0158538976377951
21
0.4042744881889764
0
LINE
8
BLACK
6
CONTINUOUS
10
2.0158538976377951
20
0.4042744881889764
11
2.0170211417322834
21
0.4031072440944882
0
LINE
8
BLACK
6
CONTINUOUS
10
2.0170211417322834
20
0.4031072440944882
11
2.0174965354330707
21
0.4022837795275591
0
LINE
8
BLACK
6
CONTINUOUS
10
2.0174965354330707
20
0.4022837795275591
11
2.0181273622047242
21
0.4015724409448819
0
LINE
8
BLACK
6
CONTINUOUS
10
2.0181273622047242
20
0.4015724409448819
11
2.0209395275590549
21
0.395948188976378
0
LINE
8
BLACK
6
CONTINUOUS
10
2.0209395275590549
20
0.395948188976378
11
2.021552401574803
21
0.3929533070866142
0
LINE
8
BLACK
6
CONTINUOUS
10
2.021552401574803
20
0.3929533070866142
11
2.0205857086614172
21
0.3900532677165354
0
LINE
8
BLACK
6
CONTINUOUS
10
2.0205857086614172
20
0.3900532677165354
11
2.0182985039370078
21
0.3880250787401575
0
LINE
8
BLACK
6
CONTINUOUS
10
2.0182985039370078
20
0.3880250787401575
11
2.015303661417323
21
0.3874122047244095
0
LINE
8
BLACK
6
CONTINUOUS
10
2.015303661417323
20
0.3874122047244095
11
2.0124036220472439
21
0.3883788976377953
0
LINE
8
BLACK
6
CONTINUOUS
10
2.0124036220472439
20
0.3883788976377953
11
2.0103754330708661
21
0.3906661023622047
0
LINE
8
BLACK
6
CONTINUOUS
10
2.0103754330708661
20
0.3906661023622047
11
2.0079918503937009
21
0.395433188976378
0
LINE
8
BLACK
6
CONTINUOUS
10
2.0079918503937009
20
0.395433188976378
11
2.0034587401574804
21
0.3999662992125984
0
LINE
8
BLACK
6
CONTINUOUS
10
2.0034587401574804
20
0.3999662992125984
11
1.995508779527559
21
0.4052662992125984
0
LINE
8
BLACK
6
CONTINUOUS
10
1.995508779527559
20
0.4052662992125984
11
1.9946211417322834
21
0.4062762992125984
0
LINE
8
BLACK
6
CONTINUOUS
10
1.9946211417322834
20
0.4062762992125984
11
1.9936702362204723
21
0.4072272440944882
0
LINE
8
BLACK
6
CONTINUOUS
10
1.9936702362204723
20
0.4072272440944882
11
1.9936196850393699
21
0.4074158661417323
0
LINE
8
BLACK
6
CONTINUOUS
10
1.9936196850393699
20
0.4074158661417323
11
1.9934908267716536
21
0.4075625196850394
0
LINE
8
BLACK
6
CONTINUOUS
10
1.9934908267716536
20
0.4075625196850394
11
1.993227125984252
21
0.408880905511811
0
LINE
8
BLACK
6
CONTINUOUS
10
1.993227125984252
20
0.408880905511811
11
1.9928790551181101
21
0.41018
0
LINE
8
BLACK
6
CONTINUOUS
10
1.9928790551181101
20
0.41018
11
1.9929295669291338
21
0.4103685826771654
0
LINE
8
BLACK
6
CONTINUOUS
10
1.9929295669291338
20
0.4103685826771654
11
1.9928912992125984
21
0.4105600787401575
0
LINE
8
BLACK
6
CONTINUOUS
10
1.9928912992125984
20
0.4105600787401575
11
1.9933222047244095
21
0.4118338976377953
0
LINE
8
BLACK
6
CONTINUOUS
10
1.9933222047244095
20
0.4118338976377953
11
1.9936702362204723
21
0.4131327559055118
0
LINE
8
BLACK
6
CONTINUOUS
10
1.9936702362204723
20
0.4131327559055118
11
1.9938082677165354
21
0.4132707874015748
0
LINE
8
BLACK
6
CONTINUOUS
10
1.9938082677165354
20
0.4132707874015748
11
1.9938708661417321
21
0.4134557874015748
0
LINE
8
BLACK
6
CONTINUOUS
10
1.9938708661417321
20
0.4134557874015748
11
1.9948808661417323
21
0.4143433858267717
0
LINE
8
BLACK
6
CONTINUOUS
10
1.9948808661417323
20
0.4143433858267717
11
1.9958318110236219
21
0.4152943307086614
0
LINE
8
BLACK
6
CONTINUOUS
10
1.9958318110236219
20
0.4152943307086614
11
1.9960204330708662
21
0.415344842519685
0
LINE
8
BLACK
6
CONTINUOUS
10
1.9960204330708662
20
0.415344842519685
11
1.9961670866141732
21
0.4154737401574803
0
LINE
8
BLACK
6
CONTINUOUS
10
1.9961670866141732
20
0.4154737401574803
11
1.9974854724409448
21
0.4157374015748032
0
LINE
8
BLACK
6
CONTINUOUS
10
1.9974854724409448
20
0.4157374015748032
11
1.9987845669291338
21
0.4160855118110236
0
LINE
8
BLACK
6
CONTINUOUS
10
1.9987845669291338
20
0.4160855118110236
11
2.0519341732283465
21
0.4160855118110236
0
LINE
8
BLACK
6
CONTINUOUS
10
2.0519341732283465
20
0.4160855118110236
11
2.0519341732283465
21
0.4270529133858267
0
LINE
8
BLACK
6
CONTINUOUS
10
2.0519341732283465
20
0.4270529133858267
11
2.0527253543307085
21
0.4300056692913386
0
LINE
8
BLACK
6
CONTINUOUS
10
2.0527253543307085
20
0.4300056692913386
11
2.0548869291338581
21
0.4321672440944882
0
LINE
8
BLACK
6
CONTINUOUS
10
2.0548869291338581
20
0.4321672440944882
11
2.0578396850393701
21
0.4329584251968504
0
LINE
8
BLACK
6
CONTINUOUS
10
2.0578396850393701
20
0.4329584251968504
11
2.0607924409448817
21
0.4321672440944882
0
LINE
8
BLACK
6
CONTINUOUS
10
2.0580845275590551
20
0.4599961417322835
11
2.0592033858267715
21
0.4593501968503937
0
LINE
8
BLACK
6
CONTINUOUS
10
2.0592033858267715
20
0.4593501968503937
11
2.0592033858267715
21
0.4593501574803149
0
LINE
8
BLACK
6
CONTINUOUS
10
2.0592033858267715
20
0.4593501574803149
11
2.0592034251968503
21
0.4593501574803149
0
LINE
8
BLACK
6
CONTINUOUS
10
2.0592034251968503
20
0.4593501574803149
11
2.0620155118110235
21
0.456538031496063
0
LINE
8
BLACK
6
CONTINUOUS
10
2.0620155118110235
20
0.456538031496063
11
2.062404212598425
21
0.4558647244094488
0
LINE
8
BLACK
6
CONTINUOUS
10
2.062404212598425
20
0.4558647244094488
11
2.0629540157480313
21
0.4553149606299213
0
LINE
8
BLACK
6
CONTINUOUS
10
2.0629540157480313
20
0.4553149606299213
11
2.0631552362204726
21
0.4545639763779528
0
LINE
8
BLACK
6
CONTINUOUS
10
2.0631552362204726
20
0.4545639763779528
11
2.0635439763779528
21
0.4538906692913386
0
LINE
8
BLACK
6
CONTINUOUS
10
2.0635439763779528
20
0.4538906692913386
11
2.0635439763779528
21
0.4538906299212598
0
LINE
8
BLACK
6
CONTINUOUS
10
2.0635439763779528
20
0.4538906299212598
11
2.0635439763779528
21
0.4531131496062992
0
LINE
8
BLACK
6
CONTINUOUS
10
2.0635439763779528
20
0.4531131496062992
11
2.0637451968503937
21
0.4523622047244094
0
LINE
8
BLACK
6
CONTINUOUS
10
2.0637451968503937
20
0.4523622047244094
11
2.0635439763779528
21
0.451611220472441
0
LINE
8
BLACK
6
CONTINUOUS
10
2.0635439763779528
20
0.451611220472441
11
2.0635439763779528
21
0.4508337007874016
0
LINE
8
BLACK
6
CONTINUOUS
10
2.0635439763779528
20
0.4508337007874016
11
2.0631551968503938
21
0.4501603543307087
0
LINE
8
BLACK
6
CONTINUOUS
10
2.0631551968503938
20
0.4501603543307087
11
2.0629540157480313
21
0.4494094488188976
0
LINE
8
BLACK
6
CONTINUOUS
10
2.0629540157480313
20
0.4494094488188976
11
2.062404212598425
21
0.4488596456692913
0
LINE
8
BLACK
6
CONTINUOUS
10
2.062404212598425
20
0.4488596456692913
11
2.0620155118110235
21
0.4481863779527559
0
LINE
8
BLACK
6
CONTINUOUS
10
2.0620155118110235
20
0.4481863779527559
11
2.0592033858267715
21
0.4453742519685039
0
LINE
8
BLACK
6
CONTINUOUS
10
2.0592033858267715
20
0.4453742519685039
11
2.059203307086614
21
0.4453742125984252
0
LINE
8
BLACK
6
CONTINUOUS
10
2.059203307086614
20
0.4453742125984252
11
2.0565560629921258
21
0.4438457874015748
0
LINE
8
BLACK
6
CONTINUOUS
10
2.0565560629921258
20
0.4438457874015748
11
2.0534991338582675
21
0.4438457874015748
0
LINE
8
BLACK
6
CONTINUOUS
10
2.0534991338582675
20
0.4438457874015748
11
2.0534990944881888
21
0.4438457874015748
0
LINE
8
BLACK
6
CONTINUOUS
10
2.0534990944881888
20
0.4438457874015748
11
2.0519706692913386
21
0.4447282283464567
0
LINE
8
BLACK
6
CONTINUOUS
10
2.0519706692913386
20
0.4447282283464567
11
2.050851771653543
21
0.4453742125984252
0
LINE
8
BLACK
6
CONTINUOUS
10
2.050851771653543
20
0.4453742125984252
11
2.0480396062992123
21
0.4481863385826771
0
LINE
8
BLACK
6
CONTINUOUS
10
2.0480396062992123
20
0.4481863385826771
11
2.0480395275590553
21
0.4481864173228347
0
LINE
8
BLACK
6
CONTINUOUS
10
2.0480395275590553
20
0.4481864173228347
11
2.0476508267716533
21
0.4488596456692913
0
LINE
8
BLACK
6
CONTINUOUS
10
2.0476508267716533
20
0.4488596456692913
11
2.0471010629921258
21
0.4494094488188976
0
LINE
8
BLACK
6
CONTINUOUS
10
2.0471010629921258
20
0.4494094488188976
11
2.0468998425196849
21
0.4501603543307087
0
LINE
8
BLACK
6
CONTINUOUS
10
2.0468998425196849
20
0.4501603543307087
11
2.0465111023622047
21
0.4508337007874016
0
LINE
8
BLACK
6
CONTINUOUS
10
2.0465111023622047
20
0.4508337007874016
11
2.0465111023622047
21
0.451611220472441
0
LINE
8
BLACK
6
CONTINUOUS
10
2.0465111023622047
20
0.451611220472441
11
2.0463098818897638
21
0.4523622047244094
0
LINE
8
BLACK
6
CONTINUOUS
10
2.0463098818897638
20
0.4523622047244094
11
2.0465111023622047
21
0.4531131496062992
0
LINE
8
BLACK
6
CONTINUOUS
10
2.0465111023622047
20
0.4531131496062992
11
2.0465111023622047
21
0.4538906299212598
0
LINE
8
BLACK
6
CONTINUOUS
10
2.0465111023622047
20
0.4538906299212598
11
2.0465111023622047
21
0.4538906692913386
0
LINE
8
BLACK
6
CONTINUOUS
10
2.0465111023622047
20
0.4538906692913386
11
2.0468998031496062
21
0.4545639763779528
0
LINE
8
BLACK
6
CONTINUOUS
10
2.0468998031496062
20
0.4545639763779528
11
2.0471010629921258
21
0.4553149606299213
0
LINE
8
BLACK
6
CONTINUOUS
10
2.0471010629921258
20
0.4553149606299213
11
2.0476508267716533
21
0.4558647244094488
0
LINE
8
BLACK
6
CONTINUOUS
10
2.0476508267716533
20
0.4558647244094488
11
2.048039566929134
21
0.456538031496063
0
LINE
8
BLACK
6
CONTINUOUS
10
2.048039566929134
20
0.456538031496063
11
2.0508517322834647
21
0.4593501968503937
0
LINE
8
BLACK
6
CONTINUOUS
10
2.0508517322834647
20
0.4593501968503937
11
2.050851771653543
21
0.4593502362204724
0
LINE
8
BLACK
6
CONTINUOUS
10
2.050851771653543
20
0.4593502362204724
11
2.0519706692913386
21
0.4599961811023622
0
LINE
8
BLACK
6
CONTINUOUS
10
2.0519706692913386
20
0.4599961811023622
11
2.0534990944881888
21
0.4608786614173228
0
LINE
8
BLACK
6
CONTINUOUS
10
2.0534990944881888
20
0.4608786614173228
11
2.056556023622047
21
0.4608786614173228
0
LINE
8
BLACK
6
CONTINUOUS
10
2.056556023622047
20
0.4608786614173228
11
2.0565560629921258
21
0.4608786614173228
0
LINE
8
BLACK
6
CONTINUOUS
10
2.0565560629921258
20
0.4608786614173228
11
2.0580845275590551
21
0.4599961417322835
0
LINE
8
BLACK
6
CONTINUOUS
10
2.0607924409448817
20
0.5165316929133859
11
2.0629540157480313
21
0.5143701181102363
0
LINE
8
BLACK
6
CONTINUOUS
10
2.0629540157480313
20
0.5143701181102363
11
2.0637451968503937
21
0.5114173622047244
0
LINE
8
BLACK
6
CONTINUOUS
10
2.0637451968503937
20
0.5114173622047244
11
2.0637451968503937
21
0.4776715748031496
0
LINE
8
BLACK
6
CONTINUOUS
10
2.0637451968503937
20
0.4776715748031496
11
2.0629540157480313
21
0.4747188188976378
0
LINE
8
BLACK
6
CONTINUOUS
10
2.0629540157480313
20
0.4747188188976378
11
2.0607924409448817
21
0.4725572440944882
0
LINE
8
BLACK
6
CONTINUOUS
10
2.0607924409448817
20
0.4725572440944882
11
2.0578396850393701
21
0.471766062992126
0
LINE
8
BLACK
6
CONTINUOUS
10
2.0578396850393701
20
0.471766062992126
11
2.0548869291338581
21
0.4725572440944882
0
LINE
8
BLACK
6
CONTINUOUS
10
2.0548869291338581
20
0.4725572440944882
11
2.0527253543307085
21
0.4747188188976378
0
LINE
8
BLACK
6
CONTINUOUS
10
2.0527253543307085
20
0.4747188188976378
11
2.0519341732283465
21
0.4776715748031496
0
LINE
8
BLACK
6
CONTINUOUS
10
2.0519341732283465
20
0.4776715748031496
11
2.0519341732283465
21
0.488638937007874
0
LINE
8
BLACK
6
CONTINUOUS
10
2.0519341732283465
20
0.488638937007874
11
2.0158538976377951
21
0.488638937007874
0
LINE
8
BLACK
6
CONTINUOUS
10
2.0158538976377951
20
0.488638937007874
11
2.0170211417322834
21
0.4874716929133858
0
LINE
8
BLACK
6
CONTINUOUS
10
2.0170211417322834
20
0.4874716929133858
11
2.0174965354330707
21
0.4866482283464567
0
LINE
8
BLACK
6
CONTINUOUS
10
2.0174965354330707
20
0.4866482283464567
11
2.0181273622047242
21
0.4859368897637795
0
LINE
8
BLACK
6
CONTINUOUS
10
2.0181273622047242
20
0.4859368897637795
11
2.0209395275590549
21
0.4803126377952756
0
LINE
8
BLACK
6
CONTINUOUS
10
2.0209395275590549
20
0.4803126377952756
11
2.021552401574803
21
0.4773177559055118
0
LINE
8
BLACK
6
CONTINUOUS
10
2.021552401574803
20
0.4773177559055118
11
2.0205857086614172
21
0.4744177165354331
0
LINE
8
BLACK
6
CONTINUOUS
10
2.0205857086614172
20
0.4744177165354331
11
2.0182985039370078
21
0.4723895275590551
0
LINE
8
BLACK
6
CONTINUOUS
10
2.0182985039370078
20
0.4723895275590551
11
2.015303661417323
21
0.4717766535433071
0
LINE
8
BLACK
6
CONTINUOUS
10
2.015303661417323
20
0.4717766535433071
11
2.0124036220472439
21
0.4727433464566929
0
LINE
8
BLACK
6
CONTINUOUS
10
2.0124036220472439
20
0.4727433464566929
11
2.0103754330708661
21
0.4750305511811024
0
LINE
8
BLACK
6
CONTINUOUS
10
2.0103754330708661
20
0.4750305511811024
11
2.0079918503937009
21
0.4797976377952756
0
LINE
8
BLACK
6
CONTINUOUS
10
2.0079918503937009
20
0.4797976377952756
11
2.0034587401574804
21
0.4843307480314961
0
LINE
8
BLACK
6
CONTINUOUS
10
2.0034587401574804
20
0.4843307480314961
11
1.995508779527559
21
0.489630748031496
0
LINE
8
BLACK
6
CONTINUOUS
10
1.995508779527559
20
0.489630748031496
11
1.9946211417322834
21
0.490640748031496
0
LINE
8
BLACK
6
CONTINUOUS
10
1.9946211417322834
20
0.490640748031496
11
1.9936702362204723
21
0.4915916929133858
0
LINE
8
BLACK
6
CONTINUOUS
10
1.9936702362204723
20
0.4915916929133858
11
1.9936196850393699
21
0.4917803149606299
0
LINE
8
BLACK
6
CONTINUOUS
10
1.9936196850393699
20
0.4917803149606299
11
1.9934908267716536
21
0.491926968503937
0
LINE
8
BLACK
6
CONTINUOUS
10
1.9934908267716536
20
0.491926968503937
11
1.993227125984252
21
0.4932453543307087
0
LINE
8
BLACK
6
CONTINUOUS
10
1.993227125984252
20
0.4932453543307087
11
1.9928790551181101
21
0.4945444488188976
0
LINE
8
BLACK
6
CONTINUOUS
10
1.9928790551181101
20
0.4945444488188976
11
1.9929295669291338
21
0.494733031496063
0
LINE
8
BLACK
6
CONTINUOUS
10
1.9929295669291338
20
0.494733031496063
11
1.9928912992125984
21
0.4949245275590551
0
LINE
8
BLACK
6
CONTINUOUS
10
1.9928912992125984
20
0.4949245275590551
11
1.9933222047244095
21
0.4961983464566929
0
LINE
8
BLACK
6
CONTINUOUS
10
1.9933222047244095
20
0.4961983464566929
11
1.9936702362204723
21
0.4974972047244094
0
LINE
8
BLACK
6
CONTINUOUS
10
1.9936702362204723
20
0.4974972047244094
11
1.9938082677165354
21
0.4976352362204725
0
LINE
8
BLACK
6
CONTINUOUS
10
1.9938082677165354
20
0.4976352362204725
11
1.9938708661417321
21
0.4978202362204724
0
LINE
8
BLACK
6
CONTINUOUS
10
1.9938708661417321
20
0.4978202362204724
11
1.9948808661417323
21
0.4987078346456693
0
LINE
8
BLACK
6
CONTINUOUS
10
1.9948808661417323
20
0.4987078346456693
11
1.9958318110236219
21
0.499658779527559
0
LINE
8
BLACK
6
CONTINUOUS
10
1.9958318110236219
20
0.499658779527559
11
1.9960204330708662
21
0.4997092913385827
0
LINE
8
BLACK
6
CONTINUOUS
10
1.9960204330708662
20
0.4997092913385827
11
1.9961670866141732
21
0.4998381889763779
0
LINE
8
BLACK
6
CONTINUOUS
10
1.9961670866141732
20
0.4998381889763779
11
1.9974854724409448
21
0.5001018503937008
0
LINE
8
BLACK
6
CONTINUOUS
10
1.9974854724409448
20
0.5001018503937008
11
1.9987845669291338
21
0.5004499606299212
0
LINE
8
BLACK
6
CONTINUOUS
10
1.9987845669291338
20
0.5004499606299212
11
2.0519341732283465
21
0.5004499606299212
0
LINE
8
BLACK
6
CONTINUOUS
10
2.0519341732283465
20
0.5004499606299212
11
2.0519341732283465
21
0.5114173622047244
0
LINE
8
BLACK
6
CONTINUOUS
10
2.0519341732283465
20
0.5114173622047244
11
2.0527253543307085
21
0.5143701181102363
0
LINE
8
BLACK
6
CONTINUOUS
10
2.0527253543307085
20
0.5143701181102363
11
2.0548869291338581
21
0.5165316929133859
0
LINE
8
BLACK
6
CONTINUOUS
10
2.0548869291338581
20
0.5165316929133859
11
2.0578396850393701
21
0.5173228740157481
0
LINE
8
BLACK
6
CONTINUOUS
10
2.0578396850393701
20
0.5173228740157481
11
2.0607924409448817
21
0.5165316929133859
0
LINE
8
BLACK
6
CONTINUOUS
10
2.014156377952756
20
0.5732144881889764
11
2.0154863385826771
21
0.5729423622047244
0
LINE
8
BLACK
6
CONTINUOUS
10
2.0154863385826771
20
0.5729423622047244
11
2.0211106299212598
21
0.5701301968503937
0
LINE
8
BLACK
6
CONTINUOUS
10
2.0211106299212598
20
0.5701301968503937
11
2.0218219685039371
21
0.5694993700787402
0
LINE
8
BLACK
6
CONTINUOUS
10
2.0218219685039371
20
0.5694993700787402
11
2.0226453937007873
21
0.5690240157480315
0
LINE
8
BLACK
6
CONTINUOUS
10
2.0226453937007873
20
0.5690240157480315
11
2.0240938976377953
21
0.5675755118110236
0
LINE
8
BLACK
6
CONTINUOUS
10
2.0240938976377953
20
0.5675755118110236
11
2.0255423622047242
21
0.5690239763779528
0
LINE
8
BLACK
6
CONTINUOUS
10
2.0255423622047242
20
0.5690239763779528
11
2.0263657480314961
21
0.5694993307086614
0
LINE
8
BLACK
6
CONTINUOUS
10
2.0263657480314961
20
0.5694993307086614
11
2.0270771653543305
21
0.5701301968503937
0
LINE
8
BLACK
6
CONTINUOUS
10
2.0270771653543305
20
0.5701301968503937
11
2.0327014960629919
21
0.5729423622047244
0
LINE
8
BLACK
6
CONTINUOUS
10
2.0327014960629919
20
0.5729423622047244
11
2.0340314173228347
21
0.5732144881889764
0
LINE
8
BLACK
6
CONTINUOUS
10
2.0340314173228347
20
0.5732144881889764
11
2.0353425196850394
21
0.5735658267716536
0
LINE
8
BLACK
6
CONTINUOUS
10
2.0353425196850394
20
0.5735658267716536
11
2.0465911023622048
21
0.5735658267716536
0
LINE
8
BLACK
6
CONTINUOUS
10
2.0465911023622048
20
0.5735658267716536
11
2.0479021653543308
21
0.5732144881889764
0
LINE
8
BLACK
6
CONTINUOUS
10
2.0479021653543308
20
0.5732144881889764
11
2.0492321259842519
21
0.5729423622047244
0
LINE
8
BLACK
6
CONTINUOUS
10
2.0492321259842519
20
0.5729423622047244
11
2.0548564173228345
21
0.5701301968503937
0
LINE
8
BLACK
6
CONTINUOUS
10
2.0548564173228345
20
0.5701301968503937
11
2.0555677559055119
21
0.5694993700787402
0
LINE
8
BLACK
6
CONTINUOUS
10
2.0555677559055119
20
0.5694993700787402
11
2.0563911811023621
21
0.5690240157480315
0
LINE
8
BLACK
6
CONTINUOUS
10
2.0563911811023621
20
0.5690240157480315
11
2.0592033464566928
21
0.5662118897637796
0
LINE
8
BLACK
6
CONTINUOUS
10
2.0592033464566928
20
0.5662118897637796
11
2.0596788188976376
21
0.5653883464566929
0
LINE
8
BLACK
6
CONTINUOUS
10
2.0596788188976376
20
0.5653883464566929
11
2.0603096062992123
21
0.5646770078740158
0
LINE
8
BLACK
6
CONTINUOUS
10
2.0603096062992123
20
0.5646770078740158
11
2.063121771653543
21
0.5590526771653543
0
LINE
8
BLACK
6
CONTINUOUS
10
2.063121771653543
20
0.5590526771653543
11
2.063393937007874
21
0.5577225590551181
0
LINE
8
BLACK
6
CONTINUOUS
10
2.063393937007874
20
0.5577225590551181
11
2.0637451968503937
21
0.5564116929133858
0
LINE
8
BLACK
6
CONTINUOUS
10
2.0637451968503937
20
0.5564116929133858
11
2.0637451968503937
21
0.5451631102362204
0
LINE
8
BLACK
6
CONTINUOUS
10
2.0637451968503937
20
0.5451631102362204
11
2.0633938188976377
21
0.5438518503937008
0
LINE
8
BLACK
6
CONTINUOUS
10
2.0633938188976377
20
0.5438518503937008
11
2.0631217322834647
21
0.542522125984252
0
LINE
8
BLACK
6
CONTINUOUS
10
2.0631217322834647
20
0.542522125984252
11
2.0603096062992123
21
0.5368977952755906
0
LINE
8
BLACK
6
CONTINUOUS
10
2.0603096062992123
20
0.5368977952755906
11
2.0596787401574801
21
0.5361863779527559
0
LINE
8
BLACK
6
CONTINUOUS
10
2.0596787401574801
20
0.5361863779527559
11
2.0592033858267715
21
0.5353629921259843
0
LINE
8
BLACK
6
CONTINUOUS
10
2.0592033858267715
20
0.5353629921259843
11
2.0563912204724408
21
0.5325508267716536
0
LINE
8
BLACK
6
CONTINUOUS
10
2.0563912204724408
20
0.5325508267716536
11
2.0555677952755906
21
0.5320754330708661
0
LINE
8
BLACK
6
CONTINUOUS
10
2.0555677952755906
20
0.5320754330708661
11
2.0548564173228345
21
0.5314446062992126
0
LINE
8
BLACK
6
CONTINUOUS
10
2.0548564173228345
20
0.5314446062992126
11
2.0492321259842519
21
0.5286324803149606
0
LINE
8
BLACK
6
CONTINUOUS
10
2.0492321259842519
20
0.5286324803149606
11
2.0479022440944883
21
0.52836031496063
0
LINE
8
BLACK
6
CONTINUOUS
10
2.0479022440944883
20
0.52836031496063
11
2.0465911023622048
21
0.5280090157480315
0
LINE
8
BLACK
6
CONTINUOUS
10
2.0465911023622048
20
0.5280090157480315
11
2.0353425196850394
21
0.5280090157480315
0
LINE
8
BLACK
6
CONTINUOUS
10
2.0353425196850394
20
0.5280090157480315
11
2.0340316141732284
21
0.5283602362204725
0
LINE
8
BLACK
6
CONTINUOUS
10
2.0340316141732284
20
0.5283602362204725
11
2.0327015354330706
21
0.5286324409448819
0
LINE
8
BLACK
6
CONTINUOUS
10
2.0327015354330706
20
0.5286324409448819
11
2.0270772047244092
21
0.5314446062992126
0
LINE
8
BLACK
6
CONTINUOUS
10
2.0270772047244092
20
0.5314446062992126
11
2.0263658267716536
21
0.5320753543307086
0
LINE
8
BLACK
6
CONTINUOUS
10
2.0263658267716536
20
0.5320753543307086
11
2.0255423228346454
21
0.5325508661417323
0
LINE
8
BLACK
6
CONTINUOUS
10
2.0255423228346454
20
0.5325508661417323
11
2.0240938976377953
21
0.5339992913385827
0
LINE
8
BLACK
6
CONTINUOUS
10
2.0240938976377953
20
0.5339992913385827
11
2.0226454330708661
21
0.5325508267716536
0
LINE
8
BLACK
6
CONTINUOUS
10
2.0226454330708661
20
0.5325508267716536
11
2.0218220078740159
21
0.5320754330708661
0
LINE
8
BLACK
6
CONTINUOUS
10
2.0218220078740159
20
0.5320754330708661
11
2.0211106299212598
21
0.5314446062992126
0
LINE
8
BLACK
6
CONTINUOUS
10
2.0211106299212598
20
0.5314446062992126
11
2.0154863385826771
21
0.5286324803149606
0
LINE
8
BLACK
6
CONTINUOUS
10
2.0154863385826771
20
0.5286324803149606
11
2.0141564566929135
21
0.52836031496063
0
LINE
8
BLACK
6
CONTINUOUS
10
2.0141564566929135
20
0.52836031496063
11
2.01284531496063
21
0.5280090157480315
0
LINE
8
BLACK
6
CONTINUOUS
10
2.01284531496063
20
0.5280090157480315
11
2.0100331496062993
21
0.5280090157480315
0
LINE
8
BLACK
6
CONTINUOUS
10
2.0100331496062993
20
0.5280090157480315
11
2.0087218897637795
21
0.5283603543307086
0
LINE
8
BLACK
6
CONTINUOUS
10
2.0087218897637795
20
0.5283603543307086
11
2.0073921653543305
21
0.5286324803149606
0
LINE
8
BLACK
6
CONTINUOUS
10
2.0073921653543305
20
0.5286324803149606
11
2.0017678346456691
21
0.5314446062992126
0
LINE
8
BLACK
6
CONTINUOUS
10
2.0017678346456691
20
0.5314446062992126
11
2.0010564173228347
21
0.5320754330708661
0
LINE
8
BLACK
6
CONTINUOUS
10
2.0010564173228347
20
0.5320754330708661
11
2.000232992125984
21
0.5325508661417323
0
LINE
8
BLACK
6
CONTINUOUS
10
2.000232992125984
20
0.5325508661417323
11
1.9974208661417323
21
0.535363031496063
0
LINE
8
BLACK
6
CONTINUOUS
10
1.9974208661417323
20
0.535363031496063
11
1.9969454724409448
21
0.5361864173228347
0
LINE
8
BLACK
6
CONTINUOUS
10
1.9969454724409448
20
0.5361864173228347
11
1.99631468503937
21
0.5368977952755906
0
LINE
8
BLACK
6
CONTINUOUS
10
1.99631468503937
20
0.5368977952755906
11
1.9935025196850393
21
0.5425220866141732
0
LINE
8
BLACK
6
CONTINUOUS
10
1.9935025196850393
20
0.5425220866141732
11
1.9932303543307086
21
0.5438520078740158
0
LINE
8
BLACK
6
CONTINUOUS
10
1.9932303543307086
20
0.5438520078740158
11
1.9928790551181101
21
0.5451631102362204
0
LINE
8
BLACK
6
CONTINUOUS
10
1.9928790551181101
20
0.5451631102362204
11
1.9928790551181101
21
0.5564116929133858
0
LINE
8
BLACK
6
CONTINUOUS
10
1.9928790551181101
20
0.5564116929133858
11
1.9932303543307086
21
0.5577227559055118
0
LINE
8
BLACK
6
CONTINUOUS
10
1.9932303543307086
20
0.5577227559055118
11
1.9935025196850393
21
0.5590527165354331
0
LINE
8
BLACK
6
CONTINUOUS
10
1.9935025196850393
20
0.5590527165354331
11
1.99631468503937
21
0.5646770472440945
0
LINE
8
BLACK
6
CONTINUOUS
10
1.99631468503937
20
0.5646770472440945
11
1.9969455118110235
21
0.5653884251968504
0
LINE
8
BLACK
6
CONTINUOUS
10
1.9969455118110235
20
0.5653884251968504
11
1.9974209055118111
21
0.5662118503937008
0
LINE
8
BLACK
6
CONTINUOUS
10
1.9974209055118111
20
0.5662118503937008
11
2.0002330314960628
21
0.5690239763779528
0
LINE
8
BLACK
6
CONTINUOUS
10
2.0002330314960628
20
0.5690239763779528
11
2.0010564566929134
21
0.5694993700787402
0
LINE
8
BLACK
6
CONTINUOUS
10
2.0010564566929134
20
0.5694993700787402
11
2.0017678346456691
21
0.5701301968503937
0
LINE
8
BLACK
6
CONTINUOUS
10
2.0017678346456691
20
0.5701301968503937
11
2.007392086614173
21
0.5729423622047244
0
LINE
8
BLACK
6
CONTINUOUS
10
2.007392086614173
20
0.5729423622047244
11
2.0087220866141733
21
0.5732145275590551
0
LINE
8
BLACK
6
CONTINUOUS
10
2.0087220866141733
20
0.5732145275590551
11
2.0100331496062993
21
0.5735658267716536
0
LINE
8
BLACK
6
CONTINUOUS
10
2.0100331496062993
20
0.5735658267716536
11
2.01284531496063
21
0.5735658267716536
0
LINE
8
BLACK
6
CONTINUOUS
10
2.01284531496063
20
0.5735658267716536
11
2.014156377952756
21
0.5732144881889764
0
LINE
8
BLACK
6
CONTINUOUS
10
2.0079070472440943
20
0.5599946850393701
11
2.0064501968503938
21
0.5585378346456693
0
LINE
8
BLACK
6
CONTINUOUS
10
2.0064501968503938
20
0.5585378346456693
11
2.0046900787401576
21
0.5550175984251968
0
LINE
8
BLACK
6
CONTINUOUS
10
2.0046900787401576
20
0.5550175984251968
11
2.0046900787401576
21
0.5465572047244094
0
LINE
8
BLACK
6
CONTINUOUS
10
2.0046900787401576
20
0.5465572047244094
11
2.0064501968503938
21
0.5430369291338583
0
LINE
8
BLACK
6
CONTINUOUS
10
2.0064501968503938
20
0.5430369291338583
11
2.0079070472440943
21
0.5415800787401575
0
LINE
8
BLACK
6
CONTINUOUS
10
2.0079070472440943
20
0.5415800787401575
11
2.011427244094488
21
0.5398200393700787
0
LINE
8
BLACK
6
CONTINUOUS
10
2.011427244094488
20
0.5398200393700787
11
2.0114512204724408
21
0.5398200393700787
0
LINE
8
BLACK
6
CONTINUOUS
10
2.0114512204724408
20
0.5398200393700787
11
2.0149713779527558
21
0.5415800787401575
0
LINE
8
BLACK
6
CONTINUOUS
10
2.0149713779527558
20
0.5415800787401575
11
2.0164282677165355
21
0.543036968503937
0
LINE
8
BLACK
6
CONTINUOUS
10
2.0164282677165355
20
0.543036968503937
11
2.0181883858267717
21
0.5465571653543307
0
LINE
8
BLACK
6
CONTINUOUS
10
2.0181883858267717
20
0.5465571653543307
11
2.0181883858267717
21
0.5550175984251968
0
LINE
8
BLACK
6
CONTINUOUS
10
2.0181883858267717
20
0.5550175984251968
11
2.0164283070866142
21
0.5585377559055118
0
LINE
8
BLACK
6
CONTINUOUS
10
2.0164283070866142
20
0.5585377559055118
11
2.0149714566929133
21
0.5599946456692914
0
LINE
8
BLACK
6
CONTINUOUS
10
2.0149714566929133
20
0.5599946456692914
11
2.0114512204724408
21
0.5617548031496062
0
LINE
8
BLACK
6
CONTINUOUS
10
2.0114512204724408
20
0.5617548031496062
11
2.011427244094488
21
0.5617548031496062
0
LINE
8
BLACK
6
CONTINUOUS
10
2.011427244094488
20
0.5617548031496062
11
2.0079070472440943
21
0.5599946850393701
0
LINE
8
BLACK
6
CONTINUOUS
10
2.0332163779527557
20
0.5599946850393701
11
2.0317595275590552
21
0.5585378346456693
0
LINE
8
BLACK
6
CONTINUOUS
10
2.0317595275590552
20
0.5585378346456693
11
2.029999409448819
21
0.5550175984251968
0
LINE
8
BLACK
6
CONTINUOUS
10
2.029999409448819
20
0.5550175984251968
11
2.029999409448819
21
0.5465572047244094
0
LINE
8
BLACK
6
CONTINUOUS
10
2.029999409448819
20
0.5465572047244094
11
2.0317595275590552
21
0.5430369291338583
0
LINE
8
BLACK
6
CONTINUOUS
10
2.0317595275590552
20
0.5430369291338583
11
2.0332164173228344
21
0.5415800787401575
0
LINE
8
BLACK
6
CONTINUOUS
10
2.0332164173228344
20
0.5415800787401575
11
2.0367365748031494
21
0.5398200393700787
0
LINE
8
BLACK
6
CONTINUOUS
10
2.0367365748031494
20
0.5398200393700787
11
2.0451970078740156
21
0.5398200393700787
0
LINE
8
BLACK
6
CONTINUOUS
10
2.0451970078740156
20
0.5398200393700787
11
2.0487171653543306
21
0.5415800787401575
0
LINE
8
BLACK
6
CONTINUOUS
10
2.0487171653543306
20
0.5415800787401575
11
2.0501740551181102
21
0.543036968503937
0
LINE
8
BLACK
6
CONTINUOUS
10
2.0501740551181102
20
0.543036968503937
11
2.0519341732283465
21
0.5465571653543307
0
LINE
8
BLACK
6
CONTINUOUS
10
2.0519341732283465
20
0.5465571653543307
11
2.0519341732283465
21
0.5550175984251968
0
LINE
8
BLACK
6
CONTINUOUS
10
2.0519341732283465
20
0.5550175984251968
11
2.050174094488189
21
0.5585377559055118
0
LINE
8
BLACK
6
CONTINUOUS
10
2.050174094488189
20
0.5585377559055118
11
2.0487172440944881
21
0.5599946456692914
0
LINE
8
BLACK
6
CONTINUOUS
10
2.0487172440944881
20
0.5599946456692914
11
2.0451970078740156
21
0.5617548031496062
0
LINE
8
BLACK
6
CONTINUOUS
10
2.0451970078740156
20
0.5617548031496062
11
2.0367366141732282
21
0.5617548031496062
0
LINE
8
BLACK
6
CONTINUOUS
10
2.0367366141732282
20
0.5617548031496062
11
2.0332163779527557
21
0.5599946850393701
0
LINE
8
BLACK
6
CONTINUOUS
10
2.0360462992125985
20
0.629620157480315
11
2.036774842519685
21
0.6296324409448819
0
LINE
8
BLACK
6
CONTINUOUS
10
2.036774842519685
20
0.6296324409448819
11
2.0480233858267716
21
0.6268202755905512
0
LINE
8
BLACK
6
CONTINUOUS
10
2.0480233858267716
20
0.6268202755905512
11
2.048593346456693
21
0.6265038582677165
0
LINE
8
BLACK
6
CONTINUOUS
10
2.048593346456693
20
0.6265038582677165
11
2.0492321259842519
21
0.6263731496062992
0
LINE
8
BLACK
6
CONTINUOUS
10
2.0492321259842519
20
0.6263731496062992
11
2.0548564173228345
21
0.6235610236220472
0
LINE
8
BLACK
6
CONTINUOUS
10
2.0548564173228345
20
0.6235610236220472
11
2.0555677952755906
21
0.622930157480315
0
LINE
8
BLACK
6
CONTINUOUS
10
2.0555677952755906
20
0.622930157480315
11
2.0563912204724408
21
0.6224548031496063
0
LINE
8
BLACK
6
CONTINUOUS
10
2.0563912204724408
20
0.6224548031496063
11
2.0592033858267715
21
0.6196426377952756
0
LINE
8
BLACK
6
CONTINUOUS
10
2.0592033858267715
20
0.6196426377952756
11
2.0596787401574801
21
0.6188192125984252
0
LINE
8
BLACK
6
CONTINUOUS
10
2.0596787401574801
20
0.6188192125984252
11
2.0603096062992123
21
0.6181078346456693
0
LINE
8
BLACK
6
CONTINUOUS
10
2.0603096062992123
20
0.6181078346456693
11
2.0631217322834647
21
0.6124835039370079
0
LINE
8
BLACK
6
CONTINUOUS
10
2.0631217322834647
20
0.6124835039370079
11
2.0633938188976377
21
0.6111537401574803
0
LINE
8
BLACK
6
CONTINUOUS
10
2.0633938188976377
20
0.6111537401574803
11
2.0637451968503937
21
0.6098425196850393
0
LINE
8
BLACK
6
CONTINUOUS
10
2.0637451968503937
20
0.6098425196850393
11
2.0637451968503937
21
0.6042182283464567
0
LINE
8
BLACK
6
CONTINUOUS
10
2.0637451968503937
20
0.6042182283464567
11
2.0633938188976377
21
0.602906968503937
0
LINE
8
BLACK
6
CONTINUOUS
10
2.0633938188976377
20
0.602906968503937
11
2.0631217322834647
21
0.6015772440944882
0
LINE
8
BLACK
6
CONTINUOUS
10
2.0631217322834647
20
0.6015772440944882
11
2.0603096062992123
21
0.5959529133858268
0
LINE
8
BLACK
6
CONTINUOUS
10
2.0603096062992123
20
0.5959529133858268
11
2.0596787401574801
21
0.5952414960629921
0
LINE
8
BLACK
6
CONTINUOUS
10
2.0596787401574801
20
0.5952414960629921
11
2.0592033858267715
21
0.5944181102362205
0
LINE
8
BLACK
6
CONTINUOUS
10
2.0592033858267715
20
0.5944181102362205
11
2.0563912204724408
21
0.5916059448818898
0
LINE
8
BLACK
6
CONTINUOUS
10
2.0563912204724408
20
0.5916059448818898
11
2.0555677559055119
21
0.5911305118110236
0
LINE
8
BLACK
6
CONTINUOUS
10
2.0555677559055119
20
0.5911305118110236
11
2.0548564173228345
21
0.5904997244094488
0
LINE
8
BLACK
6
CONTINUOUS
10
2.0548564173228345
20
0.5904997244094488
11
2.0492321259842519
21
0.587687559055118
0
LINE
8
BLACK
6
CONTINUOUS
10
2.0492321259842519
20
0.587687559055118
11
2.048593346456693
21
0.587556811023622
0
LINE
8
BLACK
6
CONTINUOUS
10
2.048593346456693
20
0.587556811023622
11
2.0480233858267716
21
0.5872404330708662
0
LINE
8
BLACK
6
CONTINUOUS
10
2.0480233858267716
20
0.5872404330708662
11
2.0367748031496062
21
0.5844283070866142
0
LINE
8
BLACK
6
CONTINUOUS
10
2.0367748031496062
20
0.5844283070866142
11
2.0360463385826773
21
0.5844405511811024
0
LINE
8
BLACK
6
CONTINUOUS
10
2.0360463385826773
20
0.5844405511811024
11
2.0353425196850394
21
0.584251968503937
0
LINE
8
BLACK
6
CONTINUOUS
10
2.0353425196850394
20
0.584251968503937
11
2.0212817716535434
21
0.584251968503937
0
LINE
8
BLACK
6
CONTINUOUS
10
2.0212817716535434
20
0.584251968503937
11
2.0205779133858268
21
0.5844405511811024
0
LINE
8
BLACK
6
CONTINUOUS
10
2.0205779133858268
20
0.5844405511811024
11
2.0198494881889761
21
0.5844283070866142
0
LINE
8
BLACK
6
CONTINUOUS
10
2.0198494881889761
20
0.5844283070866142
11
2.0086008661417321
21
0.5872404330708662
0
LINE
8
BLACK
6
CONTINUOUS
10
2.0086008661417321
20
0.5872404330708662
11
2.0080309055118111
21
0.587556811023622
0
LINE
8
BLACK
6
CONTINUOUS
10
2.0080309055118111
20
0.587556811023622
11
2.007392086614173
21
0.587687559055118
0
LINE
8
BLACK
6
CONTINUOUS
10
2.007392086614173
20
0.587687559055118
11
2.0017678346456691
21
0.5904997244094488
0
LINE
8
BLACK
6
CONTINUOUS
10
2.0017678346456691
20
0.5904997244094488
11
2.0010564566929134
21
0.5911305118110236
0
LINE
8
BLACK
6
CONTINUOUS
10
2.0010564566929134
20
0.5911305118110236
11
2.000232992125984
21
0.5916059842519685
0
LINE
8
BLACK
6
CONTINUOUS
10
2.000232992125984
20
0.5916059842519685
11
1.9974208661417323
21
0.5944181496062992
0
LINE
8
BLACK
6
CONTINUOUS
10
1.9974208661417323
20
0.5944181496062992
11
1.9969454724409448
21
0.5952415354330709
0
LINE
8
BLACK
6
CONTINUOUS
10
1.9969454724409448
20
0.5952415354330709
11
1.99631468503937
21
0.5959529133858268
0
LINE
8
BLACK
6
CONTINUOUS
10
1.99631468503937
20
0.5959529133858268
11
1.9935025196850393
21
0.6015772047244095
0
LINE
8
BLACK
6
CONTINUOUS
10
1.9935025196850393
20
0.6015772047244095
11
1.9932303543307086
21
0.602907125984252
0
LINE
8
BLACK
6
CONTINUOUS
10
1.9932303543307086
20
0.602907125984252
11
1.9928790551181101
21
0.6042182283464567
0
LINE
8
BLACK
6
CONTINUOUS
10
1.9928790551181101
20
0.6042182283464567
11
1.9928790551181101
21
0.6098425196850393
0
LINE
8
BLACK
6
CONTINUOUS
10
1.9928790551181101
20
0.6098425196850393
11
1.9932303543307086
21
0.6111535826771654
0
LINE
8
BLACK
6
CONTINUOUS
10
1.9932303543307086
20
0.6111535826771654
11
1.9935025196850393
21
0.6124835433070867
0
LINE
8
BLACK
6
CONTINUOUS
10
1.9935025196850393
20
0.6124835433070867
11
1.99631468503937
21
0.6181078346456693
0
LINE
8
BLACK
6
CONTINUOUS
10
1.99631468503937
20
0.6181078346456693
11
1.9969454724409448
21
0.6188191732283465
0
LINE
8
BLACK
6
CONTINUOUS
10
1.9969454724409448
20
0.6188191732283465
11
1.9974208661417323
21
0.6196425984251969
0
LINE
8
BLACK
6
CONTINUOUS
10
1.9974208661417323
20
0.6196425984251969
11
2.000232992125984
21
0.6224547637795276
0
LINE
8
BLACK
6
CONTINUOUS
10
2.000232992125984
20
0.6224547637795276
11
2.0010564173228347
21
0.622930157480315
0
LINE
8
BLACK
6
CONTINUOUS
10
2.0010564173228347
20
0.622930157480315
11
2.0017678346456691
21
0.6235610236220472
0
LINE
8
BLACK
6
CONTINUOUS
10
2.0017678346456691
20
0.6235610236220472
11
2.0073921653543305
21
0.6263731496062992
0
LINE
8
BLACK
6
CONTINUOUS
10
2.0073921653543305
20
0.6263731496062992
11
2.0080308661417323
21
0.6265038188976377
0
LINE
8
BLACK
6
CONTINUOUS
10
2.0080308661417323
20
0.6265038188976377
11
2.0086008661417321
21
0.6268202755905512
0
LINE
8
BLACK
6
CONTINUOUS
10
2.0086008661417321
20
0.6268202755905512
11
2.0198494488188974
21
0.6296324409448819
0
LINE
8
BLACK
6
CONTINUOUS
10
2.0198494488188974
20
0.6296324409448819
11
2.0205779527559056
21
0.629620157480315
0
LINE
8
BLACK
6
CONTINUOUS
10
2.0205779527559056
20
0.629620157480315
11
2.0212817716535434
21
0.6298087795275591
0
LINE
8
BLACK
6
CONTINUOUS
10
2.0212817716535434
20
0.6298087795275591
11
2.0353425196850394
21
0.6298087795275591
0
LINE
8
BLACK
6
CONTINUOUS
10
2.0353425196850394
20
0.6298087795275591
11
2.0360462992125985
21
0.629620157480315
0
LINE
8
BLACK
6
CONTINUOUS
10
2.0120943700787399
20
0.6155191338582677
11
2.0079070472440943
21
0.6134255118110236
0
LINE
8
BLACK
6
CONTINUOUS
10
2.0079070472440943
20
0.6134255118110236
11
2.0064501968503938
21
0.6119686614173229
0
LINE
8
BLACK
6
CONTINUOUS
10
2.0064501968503938
20
0.6119686614173229
11
2.0046900787401576
21
0.6084483858267716
0
LINE
8
BLACK
6
CONTINUOUS
10
2.0046900787401576
20
0.6084483858267716
11
2.0046900787401576
21
0.6056123228346456
0
LINE
8
BLACK
6
CONTINUOUS
10
2.0046900787401576
20
0.6056123228346456
11
2.0064501968503938
21
0.6020920472440945
0
LINE
8
BLACK
6
CONTINUOUS
10
2.0064501968503938
20
0.6020920472440945
11
2.0079070472440943
21
0.6006351968503937
0
LINE
8
BLACK
6
CONTINUOUS
10
2.0079070472440943
20
0.6006351968503937
11
2.0120944094488187
21
0.5985415354330709
0
LINE
8
BLACK
6
CONTINUOUS
10
2.0120944094488187
20
0.5985415354330709
11
2.0220087007874015
21
0.5960629921259842
0
LINE
8
BLACK
6
CONTINUOUS
10
2.0220087007874015
20
0.5960629921259842
11
2.0346155905511809
21
0.5960629921259842
0
LINE
8
BLACK
6
CONTINUOUS
10
2.0346155905511809
20
0.5960629921259842
11
2.0445298031496062
21
0.5985414960629921
0
LINE
8
BLACK
6
CONTINUOUS
10
2.0445298031496062
20
0.5985414960629921
11
2.0487172047244093
21
0.6006352362204724
0
LINE
8
BLACK
6
CONTINUOUS
10
2.0487172047244093
20
0.6006352362204724
11
2.0501740551181102
21
0.6020920866141732
0
LINE
8
BLACK
6
CONTINUOUS
10
2.0501740551181102
20
0.6020920866141732
11
2.0519341732283465
21
0.605612283464567
0
LINE
8
BLACK
6
CONTINUOUS
10
2.0519341732283465
20
0.605612283464567
11
2.0519341732283465
21
0.6084484251968504
0
LINE
8
BLACK
6
CONTINUOUS
10
2.0519341732283465
20
0.6084484251968504
11
2.0501740551181102
21
0.6119686220472441
0
LINE
8
BLACK
6
CONTINUOUS
10
2.0501740551181102
20
0.6119686220472441
11
2.0487171653543306
21
0.6134255118110236
0
LINE
8
BLACK
6
CONTINUOUS
10
2.0487171653543306
20
0.6134255118110236
11
2.0445298818897637
21
0.6155191338582677
0
LINE
8
BLACK
6
CONTINUOUS
10
2.0445298818897637
20
0.6155191338582677
11
2.0346155511811022
21
0.6179977559055118
0
LINE
8
BLACK
6
CONTINUOUS
10
2.0346155511811022
20
0.6179977559055118
11
2.0220087007874015
21
0.6179977559055118
0
LINE
8
BLACK
6
CONTINUOUS
10
2.0220087007874015
20
0.6179977559055118
11
2.0120943700787399
21
0.6155191338582677
0
LINE
8
BLACK
6
CONTINUOUS
10
2.0360462992125985
20
0.6858631102362205
11
2.036774842519685
21
0.6858753937007874
0
LINE
8
BLACK
6
CONTINUOUS
10
2.036774842519685
20
0.6858753937007874
11
2.0480233858267716
21
0.6830632283464567
0
LINE
8
BLACK
6
CONTINUOUS
10
2.0480233858267716
20
0.6830632283464567
11
2.048593346456693
21
0.682746811023622
0
LINE
8
BLACK
6
CONTINUOUS
10
2.048593346456693
20
0.682746811023622
11
2.0492321259842519
21
0.6826161023622047
0
LINE
8
BLACK
6
CONTINUOUS
10
2.0492321259842519
20
0.6826161023622047
11
2.0548564173228345
21
0.6798039763779528
0
LINE
8
BLACK
6
CONTINUOUS
10
2.0548564173228345
20
0.6798039763779528
11
2.0555677952755906
21
0.6791731102362205
0
LINE
8
BLACK
6
CONTINUOUS
10
2.0555677952755906
20
0.6791731102362205
11
2.0563912204724408
21
0.6786977559055118
0
LINE
8
BLACK
6
CONTINUOUS
10
2.0563912204724408
20
0.6786977559055118
11
2.0592033858267715
21
0.6758855905511811
0
LINE
8
BLACK
6
CONTINUOUS
10
2.0592033858267715
20
0.6758855905511811
11
2.0596787401574801
21
0.6750621653543307
0
LINE
8
BLACK
6
CONTINUOUS
10
2.0596787401574801
20
0.6750621653543307
11
2.0603096062992123
21
0.6743507874015748
0
LINE
8
BLACK
6
CONTINUOUS
10
2.0603096062992123
20
0.6743507874015748
11
2.0631217322834647
21
0.6687264566929134
0
LINE
8
BLACK
6
CONTINUOUS
10
2.0631217322834647
20
0.6687264566929134
11
2.0633938188976377
21
0.6673966929133858
0
LINE
8
BLACK
6
CONTINUOUS
10
2.0633938188976377
20
0.6673966929133858
11
2.0637451968503937
21
0.6660854724409448
0
LINE
8
BLACK
6
CONTINUOUS
10
2.0637451968503937
20
0.6660854724409448
11
2.0637451968503937
21
0.6604611811023622
0
LINE
8
BLACK
6
CONTINUOUS
10
2.0637451968503937
20
0.6604611811023622
11
2.0633938188976377
21
0.6591499212598425
0
LINE
8
BLACK
6
CONTINUOUS
10
2.0633938188976377
20
0.6591499212598425
11
2.0631217322834647
21
0.6578201968503937
0
LINE
8
BLACK
6
CONTINUOUS
10
2.0631217322834647
20
0.6578201968503937
11
2.0603096062992123
21
0.6521958661417323
0
LINE
8
BLACK
6
CONTINUOUS
10
2.0603096062992123
20
0.6521958661417323
11
2.0596787401574801
21
0.6514844488188977
0
LINE
8
BLACK
6
CONTINUOUS
10
2.0596787401574801
20
0.6514844488188977
11
2.0592033858267715
21
0.650661062992126
0
LINE
8
BLACK
6
CONTINUOUS
10
2.0592033858267715
20
0.650661062992126
11
2.0563912204724408
21
0.6478488976377953
0
LINE
8
BLACK
6
CONTINUOUS
10
2.0563912204724408
20
0.6478488976377953
11
2.0555677559055119
21
0.6473734645669291
0
LINE
8
BLACK
6
CONTINUOUS
10
2.0555677559055119
20
0.6473734645669291
11
2.0548564173228345
21
0.6467426771653543
0
LINE
8
BLACK
6
CONTINUOUS
10
2.0548564173228345
20
0.6467426771653543
11
2.0492321259842519
21
0.6439305118110236
0
LINE
8
BLACK
6
CONTINUOUS
10
2.0492321259842519
20
0.6439305118110236
11
2.048593346456693
21
0.6437997637795275
0
LINE
8
BLACK
6
CONTINUOUS
10
2.048593346456693
20
0.6437997637795275
11
2.0480233858267716
21
0.6434833858267717
0
LINE
8
BLACK
6
CONTINUOUS
10
2.0480233858267716
20
0.6434833858267717
11
2.0367748031496062
21
0.6406712598425197
0
LINE
8
BLACK
6
CONTINUOUS
10
2.0367748031496062
20
0.6406712598425197
11
2.0360463385826773
21
0.6406835039370079
0
LINE
8
BLACK
6
CONTINUOUS
10
2.0360463385826773
20
0.6406835039370079
11
2.0353425196850394
21
0.6404949212598425
0
LINE
8
BLACK
6
CONTINUOUS
10
2.0353425196850394
20
0.6404949212598425
11
2.0212817716535434
21
0.6404949212598425
0
LINE
8
BLACK
6
CONTINUOUS
10
2.0212817716535434
20
0.6404949212598425
11
2.0205779133858268
21
0.6406835039370079
0
LINE
8
BLACK
6
CONTINUOUS
10
2.0205779133858268
20
0.6406835039370079
11
2.0198494881889761
21
0.6406712598425197
0
LINE
8
BLACK
6
CONTINUOUS
10
2.0198494881889761
20
0.6406712598425197
11
2.0086008661417321
21
0.6434833858267717
0
LINE
8
BLACK
6
CONTINUOUS
10
2.0086008661417321
20
0.6434833858267717
11
2.0080309055118111
21
0.6437997637795275
0
LINE
8
BLACK
6
CONTINUOUS
10
2.0080309055118111
20
0.6437997637795275
11
2.007392086614173
21
0.6439305118110236
0
LINE
8
BLACK
6
CONTINUOUS
10
2.007392086614173
20
0.6439305118110236
11
2.0017678346456691
21
0.6467426771653543
0
LINE
8
BLACK
6
CONTINUOUS
10
2.0017678346456691
20
0.6467426771653543
11
2.0010564566929134
21
0.6473734645669291
0
LINE
8
BLACK
6
CONTINUOUS
10
2.0010564566929134
20
0.6473734645669291
11
2.000232992125984
21
0.647848937007874
0
LINE
8
BLACK
6
CONTINUOUS
10
2.000232992125984
20
0.647848937007874
11
1.9974208661417323
21
0.6506611023622048
0
LINE
8
BLACK
6
CONTINUOUS
10
1.9974208661417323
20
0.6506611023622048
11
1.9969454724409448
21
0.6514844881889764
0
LINE
8
BLACK
6
CONTINUOUS
10
1.9969454724409448
20
0.6514844881889764
11
1.99631468503937
21
0.6521958661417323
0
LINE
8
BLACK
6
CONTINUOUS
10
1.99631468503937
20
0.6521958661417323
11
1.9935025196850393
21
0.657820157480315
0
LINE
8
BLACK
6
CONTINUOUS
10
1.9935025196850393
20
0.657820157480315
11
1.9932303543307086
21
0.6591500787401575
0
LINE
8
BLACK
6
CONTINUOUS
10
1.9932303543307086
20
0.6591500787401575
11
1.9928790551181101
21
0.6604611811023622
0
LINE
8
BLACK
6
CONTINUOUS
10
1.9928790551181101
20
0.6604611811023622
11
1.9928790551181101
21
0.6660854724409448
0
LINE
8
BLACK
6
CONTINUOUS
10
1.9928790551181101
20
0.6660854724409448
11
1.9932303543307086
21
0.6673965354330709
0
LINE
8
BLACK
6
CONTINUOUS
10
1.9932303543307086
20
0.6673965354330709
11
1.9935025196850393
21
0.6687264960629921
0
LINE
8
BLACK
6
CONTINUOUS
10
1.9935025196850393
20
0.6687264960629921
11
1.99631468503937
21
0.6743507874015748
0
LINE
8
BLACK
6
CONTINUOUS
10
1.99631468503937
20
0.6743507874015748
11
1.9969454724409448
21
0.675062125984252
0
LINE
8
BLACK
6
CONTINUOUS
10
1.9969454724409448
20
0.675062125984252
11
1.9974208661417323
21
0.6758855511811024
0
LINE
8
BLACK
6
CONTINUOUS
10
1.9974208661417323
20
0.6758855511811024
11
2.000232992125984
21
0.6786977165354331
0
LINE
8
BLACK
6
CONTINUOUS
10
2.000232992125984
20
0.6786977165354331
11
2.0010564173228347
21
0.6791731102362205
0
LINE
8
BLACK
6
CONTINUOUS
10
2.0010564173228347
20
0.6791731102362205
11
2.0017678346456691
21
0.6798039763779528
0
LINE
8
BLACK
6
CONTINUOUS
10
2.0017678346456691
20
0.6798039763779528
11
2.0073921653543305
21
0.6826161023622047
0
LINE
8
BLACK
6
CONTINUOUS
10
2.0073921653543305
20
0.6826161023622047
11
2.0080308661417323
21
0.6827467716535432
0
LINE
8
BLACK
6
CONTINUOUS
10
2.0080308661417323
20
0.6827467716535432
11
2.0086008661417321
21
0.6830632283464567
0
LINE
8
BLACK
6
CONTINUOUS
10
2.0086008661417321
20
0.6830632283464567
11
2.0198494488188974
21
0.6858753937007874
0
LINE
8
BLACK
6
CONTINUOUS
10
2.0198494488188974
20
0.6858753937007874
11
2.0205779527559056
21
0.6858631102362205
0
LINE
8
BLACK
6
CONTINUOUS
10
2.0205779527559056
20
0.6858631102362205
11
2.0212817716535434
21
0.6860517322834645
0
LINE
8
BLACK
6
CONTINUOUS
10
2.0212817716535434
20
0.6860517322834645
11
2.0353425196850394
21
0.6860517322834645
0
LINE
8
BLACK
6
CONTINUOUS
10
2.0353425196850394
20
0.6860517322834645
11
2.0360462992125985
21
0.6858631102362205
0
LINE
8
BLACK
6
CONTINUOUS
10
2.0120943700787399
20
0.6717620866141732
11
2.0079070472440943
21
0.6696684645669291
0
LINE
8
BLACK
6
CONTINUOUS
10
2.0079070472440943
20
0.6696684645669291
11
2.0064501968503938
21
0.6682116141732284
0
LINE
8
BLACK
6
CONTINUOUS
10
2.0064501968503938
20
0.6682116141732284
11
2.0046900787401576
21
0.6646913385826771
0
LINE
8
BLACK
6
CONTINUOUS
10
2.0046900787401576
20
0.6646913385826771
11
2.0046900787401576
21
0.6618552755905511
0
LINE
8
BLACK
6
CONTINUOUS
10
2.0046900787401576
20
0.6618552755905511
11
2.0064501968503938
21
0.658335
0
LINE
8
BLACK
6
CONTINUOUS
10
2.0064501968503938
20
0.658335
11
2.0079070472440943
21
0.6568781496062992
0
LINE
8
BLACK
6
CONTINUOUS
10
2.0079070472440943
20
0.6568781496062992
11
2.0120944094488187
21
0.6547844881889764
0
LINE
8
BLACK
6
CONTINUOUS
10
2.0120944094488187
20
0.6547844881889764
11
2.0220087007874015
21
0.6523059448818898
0
LINE
8
BLACK
6
CONTINUOUS
10
2.0220087007874015
20
0.6523059448818898
11
2.0346155905511809
21
0.6523059448818898
0
LINE
8
BLACK
6
CONTINUOUS
10
2.0346155905511809
20
0.6523059448818898
11
2.0445298031496062
21
0.6547844488188976
0
LINE
8
BLACK
6
CONTINUOUS
10
2.0445298031496062
20
0.6547844488188976
11
2.0487172047244093
21
0.656878188976378
0
LINE
8
BLACK
6
CONTINUOUS
10
2.0487172047244093
20
0.656878188976378
11
2.0501740551181102
21
0.6583350393700788
0
LINE
8
BLACK
6
CONTINUOUS
10
2.0501740551181102
20
0.6583350393700788
11
2.0519341732283465
21
0.6618552362204724
0
LINE
8
BLACK
6
CONTINUOUS
10
2.0519341732283465
20
0.6618552362204724
11
2.0519341732283465
21
0.6646913779527559
0
LINE
8
BLACK
6
CONTINUOUS
10
2.0519341732283465
20
0.6646913779527559
11
2.0501740551181102
21
0.6682115748031496
0
LINE
8
BLACK
6
CONTINUOUS
10
2.0501740551181102
20
0.6682115748031496
11
2.0487171653543306
21
0.6696684645669291
0
LINE
8
BLACK
6
CONTINUOUS
10
2.0487171653543306
20
0.6696684645669291
11
2.0445298818897637
21
0.6717620866141732
0
LINE
8
BLACK
6
CONTINUOUS
10
2.0445298818897637
20
0.6717620866141732
11
2.0346155511811022
21
0.6742407086614173
0
LINE
8
BLACK
6
CONTINUOUS
10
2.0346155511811022
20
0.6742407086614173
11
2.0220087007874015
21
0.6742407086614173
0
LINE
8
BLACK
6
CONTINUOUS
10
2.0220087007874015
20
0.6742407086614173
11
2.0120943700787399
21
0.6717620866141732
0
LINE
8
BLACK
6
CONTINUOUS
10
2.0046537007874017
20
0.7580838188976378
11
2.0057725590551181
21
0.757437874015748
0
LINE
8
BLACK
6
CONTINUOUS
10
2.0057725590551181
20
0.757437874015748
11
2.0057725590551181
21
0.7574378346456693
0
LINE
8
BLACK
6
CONTINUOUS
10
2.0057725590551181
20
0.7574378346456693
11
2.0057725984251968
21
0.7574378346456693
0
LINE
8
BLACK
6
CONTINUOUS
10
2.0057725984251968
20
0.7574378346456693
11
2.00858468503937
21
0.7546257086614173
0
LINE
8
BLACK
6
CONTINUOUS
10
2.00858468503937
20
0.7546257086614173
11
2.0089733858267715
21
0.7539524015748031
0
LINE
8
BLACK
6
CONTINUOUS
10
2.0089733858267715
20
0.7539524015748031
11
2.0095231889763778
21
0.7534026377952756
0
LINE
8
BLACK
6
CONTINUOUS
10
2.0095231889763778
20
0.7534026377952756
11
2.0097244094488187
21
0.7526516535433071
0
LINE
8
BLACK
6
CONTINUOUS
10
2.0097244094488187
20
0.7526516535433071
11
2.0101131496062994
21
0.7519783464566929
0
LINE
8
BLACK
6
CONTINUOUS
10
2.0101131496062994
20
0.7519783464566929
11
2.0101131496062994
21
0.7519783070866142
0
LINE
8
BLACK
6
CONTINUOUS
10
2.0101131496062994
20
0.7519783070866142
11
2.0101131496062994
21
0.7512008267716536
0
LINE
8
BLACK
6
CONTINUOUS
10
2.0101131496062994
20
0.7512008267716536
11
2.0103143700787403
21
0.7504498818897638
0
LINE
8
BLACK
6
CONTINUOUS
10
2.0103143700787403
20
0.7504498818897638
11
2.0101131496062994
21
0.7496988976377953
0
LINE
8
BLACK
6
CONTINUOUS
10
2.0101131496062994
20
0.7496988976377953
11
2.0101131496062994
21
0.7489213779527559
0
LINE
8
BLACK
6
CONTINUOUS
10
2.0101131496062994
20
0.7489213779527559
11
2.0097243700787399
21
0.748248031496063
0
LINE
8
BLACK
6
CONTINUOUS
10
2.0097243700787399
20
0.748248031496063
11
2.0095231889763778
21
0.747497125984252
0
LINE
8
BLACK
6
CONTINUOUS
10
2.0095231889763778
20
0.747497125984252
11
2.0089733858267715
21
0.7469473228346456
0
LINE
8
BLACK
6
CONTINUOUS
10
2.0089733858267715
20
0.7469473228346456
11
2.00858468503937
21
0.7462740551181102
0
LINE
8
BLACK
6
CONTINUOUS
10
2.00858468503937
20
0.7462740551181102
11
2.0057725590551181
21
0.7434619291338582
0
LINE
8
BLACK
6
CONTINUOUS
10
2.0057725590551181
20
0.7434619291338582
11
2.0057724803149606
21
0.7434618897637795
0
LINE
8
BLACK
6
CONTINUOUS
10
2.0057724803149606
20
0.7434618897637795
11
2.0031252362204723
21
0.7419334645669291
0
LINE
8
BLACK
6
CONTINUOUS
10
2.0031252362204723
20
0.7419334645669291
11
2.0000683070866141
21
0.7419334645669291
0
LINE
8
BLACK
6
CONTINUOUS
10
2.0000683070866141
20
0.7419334645669291
11
2.0000682677165353
21
0.7419334645669291
0
LINE
8
BLACK
6
CONTINUOUS
10
2.0000682677165353
20
0.7419334645669291
11
1.998539842519685
21
0.742815905511811
0
LINE
8
BLACK
6
CONTINUOUS
10
1.998539842519685
20
0.742815905511811
11
1.9974209448818898
21
0.7434618897637795
0
LINE
8
BLACK
6
CONTINUOUS
10
1.9974209448818898
20
0.7434618897637795
11
1.9946087795275591
21
0.7462740157480314
0
LINE
8
BLACK
6
CONTINUOUS
10
1.9946087795275591
20
0.7462740157480314
11
1.9946087007874016
21
0.7462740944881889
0
LINE
8
BLACK
6
CONTINUOUS
10
1.9946087007874016
20
0.7462740944881889
11
1.9942199999999999
21
0.7469473228346456
0
LINE
8
BLACK
6
CONTINUOUS
10
1.9942199999999999
20
0.7469473228346456
11
1.9936702362204723
21
0.747497125984252
0
LINE
8
BLACK
6
CONTINUOUS
10
1.9936702362204723
20
0.747497125984252
11
1.9934690157480315
21
0.748248031496063
0
LINE
8
BLACK
6
CONTINUOUS
10
1.9934690157480315
20
0.748248031496063
11
1.9930802755905512
21
0.7489213779527559
0
LINE
8
BLACK
6
CONTINUOUS
10
1.9930802755905512
20
0.7489213779527559
11
1.9930802755905512
21
0.7496988976377953
0
LINE
8
BLACK
6
CONTINUOUS
10
1.9930802755905512
20
0.7496988976377953
11
1.9928790551181101
21
0.7504498818897638
0
LINE
8
BLACK
6
CONTINUOUS
10
1.9928790551181101
20
0.7504498818897638
11
1.9930802755905512
21
0.7512008267716536
0
LINE
8
BLACK
6
CONTINUOUS
10
1.9930802755905512
20
0.7512008267716536
11
1.9930802755905512
21
0.7519783070866142
0
LINE
8
BLACK
6
CONTINUOUS
10
1.9930802755905512
20
0.7519783070866142
11
1.9930802755905512
21
0.7519783464566929
0
LINE
8
BLACK
6
CONTINUOUS
10
1.9930802755905512
20
0.7519783464566929
11
1.9934689763779527
21
0.7526516535433071
0
LINE
8
BLACK
6
CONTINUOUS
10
1.9934689763779527
20
0.7526516535433071
11
1.9936702362204723
21
0.7534026377952756
0
LINE
8
BLACK
6
CONTINUOUS
10
1.9936702362204723
20
0.7534026377952756
11
1.9942199999999999
21
0.7539524015748031
0
LINE
8
BLACK
6
CONTINUOUS
10
1.9942199999999999
20
0.7539524015748031
11
1.9946087401574804
21
0.7546257086614173
0
LINE
8
BLACK
6
CONTINUOUS
10
1.9946087401574804
20
0.7546257086614173
11
1.9974209055118111
21
0.757437874015748
0
LINE
8
BLACK
6
CONTINUOUS
10
1.9974209055118111
20
0.757437874015748
11
1.9974209448818898
21
0.7574379133858268
0
LINE
8
BLACK
6
CONTINUOUS
10
1.9974209448818898
20
0.7574379133858268
11
1.998539842519685
21
0.7580838582677165
0
LINE
8
BLACK
6
CONTINUOUS
10
1.998539842519685
20
0.7580838582677165
11
2.0000682677165353
21
0.7589663385826771
0
LINE
8
BLACK
6
CONTINUOUS
10
2.0000682677165353
20
0.7589663385826771
11
2.0031251968503936
21
0.7589663385826771
0
LINE
8
BLACK
6
CONTINUOUS
10
2.0031251968503936
20
0.7589663385826771
11
2.0031252362204723
21
0.7589663385826771
0
LINE
8
BLACK
6
CONTINUOUS
10
2.0031252362204723
20
0.7589663385826771
11
2.0046537007874017
21
0.7580838188976378
0
LINE
8
BLACK
6
CONTINUOUS
10
2.0607924409448817
20
0.7555642125984252
11
2.0629540157480313
21
0.7534026377952756
0
LINE
8
BLACK
6
CONTINUOUS
10
2.0629540157480313
20
0.7534026377952756
11
2.0637451968503937
21
0.7504498818897638
0
LINE
8
BLACK
6
CONTINUOUS
10
2.0637451968503937
20
0.7504498818897638
11
2.0629540157480313
21
0.747497125984252
0
LINE
8
BLACK
6
CONTINUOUS
10
2.0629540157480313
20
0.747497125984252
11
2.0607924409448817
21
0.7453355511811024
0
LINE
8
BLACK
6
CONTINUOUS
10
2.0607924409448817
20
0.7453355511811024
11
2.0578396850393701
21
0.7445443700787402
0
LINE
8
BLACK
6
CONTINUOUS
10
2.0578396850393701
20
0.7445443700787402
11
2.0184696062992127
21
0.7445443700787402
0
LINE
8
BLACK
6
CONTINUOUS
10
2.0184696062992127
20
0.7445443700787402
11
2.0155168503937007
21
0.7453355511811024
0
LINE
8
BLACK
6
CONTINUOUS
10
2.0155168503937007
20
0.7453355511811024
11
2.0133552755905511
21
0.747497125984252
0
LINE
8
BLACK
6
CONTINUOUS
10
2.0133552755905511
20
0.747497125984252
11
2.0125640944881891
21
0.7504498818897638
0
LINE
8
BLACK
6
CONTINUOUS
10
2.0125640944881891
20
0.7504498818897638
11
2.0133552755905511
21
0.7534026377952756
0
LINE
8
BLACK
6
CONTINUOUS
10
2.0133552755905511
20
0.7534026377952756
11
2.0155168503937007
21
0.7555642125984252
0
LINE
8
BLACK
6
CONTINUOUS
10
2.0155168503937007
20
0.7555642125984252
11
2.0184696062992127
21
0.7563553937007874
0
LINE
8
BLACK
6
CONTINUOUS
10
2.0184696062992127
20
0.7563553937007874
11
2.0578396850393701
21
0.7563553937007874
0
LINE
8
BLACK
6
CONTINUOUS
10
2.0578396850393701
20
0.7563553937007874
11
2.0607924409448817
21
0.7555642125984252
0
LINE
8
BLACK
6
CONTINUOUS
10
2.0607924409448817
20
0.8089950787401574
11
2.0629540157480313
21
0.8068335039370078
0
LINE
8
BLACK
6
CONTINUOUS
10
2.0629540157480313
20
0.8068335039370078
11
2.0637451968503937
21
0.803880748031496
0
LINE
8
BLACK
6
CONTINUOUS
10
2.0637451968503937
20
0.803880748031496
11
2.0629540157480313
21
0.8009279921259842
0
LINE
8
BLACK
6
CONTINUOUS
10
2.0629540157480313
20
0.8009279921259842
11
2.0607924409448817
21
0.7987664173228346
0
LINE
8
BLACK
6
CONTINUOUS
10
2.0607924409448817
20
0.7987664173228346
11
2.0578396850393701
21
0.7979752362204724
0
LINE
8
BLACK
6
CONTINUOUS
10
2.0578396850393701
20
0.7979752362204724
11
2.0283001574803148
21
0.7979752362204724
0
LINE
8
BLACK
6
CONTINUOUS
10
2.0283001574803148
20
0.7979752362204724
11
2.0256834645669293
21
0.7966668897637795
0
LINE
8
BLACK
6
CONTINUOUS
10
2.0256834645669293
20
0.7966668897637795
11
2.0243751181102363
21
0.7940501574803149
0
LINE
8
BLACK
6
CONTINUOUS
10
2.0243751181102363
20
0.7940501574803149
11
2.0243751181102363
21
0.7884019291338582
0
LINE
8
BLACK
6
CONTINUOUS
10
2.0243751181102363
20
0.7884019291338582
11
2.0261352362204725
21
0.7848816535433071
0
LINE
8
BLACK
6
CONTINUOUS
10
2.0261352362204725
20
0.7848816535433071
11
2.0265400787401573
21
0.7844768897637795
0
LINE
8
BLACK
6
CONTINUOUS
10
2.0265400787401573
20
0.7844768897637795
11
2.0578396850393701
21
0.7844768897637795
0
LINE
8
BLACK
6
CONTINUOUS
10
2.0578396850393701
20
0.7844768897637795
11
2.0607924409448817
21
0.7836857086614173
0
LINE
8
BLACK
6
CONTINUOUS
10
2.0607924409448817
20
0.7836857086614173
11
2.0629540157480313
21
0.7815241338582677
0
LINE
8
BLACK
6
CONTINUOUS
10
2.0629540157480313
20
0.7815241338582677
11
2.0637451968503937
21
0.7785713779527559
0
LINE
8
BLACK
6
CONTINUOUS
10
2.0637451968503937
20
0.7785713779527559
11
2.0629540157480313
21
0.7756186220472441
0
LINE
8
BLACK
6
CONTINUOUS
10
2.0629540157480313
20
0.7756186220472441
11
2.0607924409448817
21
0.7734570472440945
0
LINE
8
BLACK
6
CONTINUOUS
10
2.0607924409448817
20
0.7734570472440945
11
2.0578396850393701
21
0.7726658661417323
0
LINE
8
BLACK
6
CONTINUOUS
10
2.0578396850393701
20
0.7726658661417323
11
2.0184696062992127
21
0.7726658661417323
0
LINE
8
BLACK
6
CONTINUOUS
10
2.0184696062992127
20
0.7726658661417323
11
2.0155168503937007
21
0.7734570472440945
0
LINE
8
BLACK
6
CONTINUOUS
10
2.0155168503937007
20
0.7734570472440945
11
2.0133552755905511
21
0.7756186220472441
0
LINE
8
BLACK
6
CONTINUOUS
10
2.0133552755905511
20
0.7756186220472441
11
2.0125640944881891
21
0.7785713779527559
0
LINE
8
BLACK
6
CONTINUOUS
10
2.0125640944881891
20
0.7785713779527559
11
2.0133552755905511
21
0.7815241338582677
0
LINE
8
BLACK
6
CONTINUOUS
10
2.0133552755905511
20
0.7815241338582677
11
2.0141910236220473
21
0.7823598818897638
0
LINE
8
BLACK
6
CONTINUOUS
10
2.0141910236220473
20
0.7823598818897638
11
2.013187559055118
21
0.784366811023622
0
LINE
8
BLACK
6
CONTINUOUS
10
2.013187559055118
20
0.784366811023622
11
2.0129153937007875
21
0.7856967322834646
0
LINE
8
BLACK
6
CONTINUOUS
10
2.0129153937007875
20
0.7856967322834646
11
2.0125640944881891
21
0.7870078346456693
0
LINE
8
BLACK
6
CONTINUOUS
10
2.0125640944881891
20
0.7870078346456693
11
2.0125640944881891
21
0.7954442913385826
0
LINE
8
BLACK
6
CONTINUOUS
10
2.0125640944881891
20
0.7954442913385826
11
2.0129153937007875
21
0.7967553543307087
0
LINE
8
BLACK
6
CONTINUOUS
10
2.0129153937007875
20
0.7967553543307087
11
2.013187559055118
21
0.79808531496063
0
LINE
8
BLACK
6
CONTINUOUS
10
2.013187559055118
20
0.79808531496063
11
2.0159997244094487
21
0.8037096062992126
0
LINE
8
BLACK
6
CONTINUOUS
10
2.0159997244094487
20
0.8037096062992126
11
2.0162393307086615
21
0.8039798031496063
0
LINE
8
BLACK
6
CONTINUOUS
10
2.0162393307086615
20
0.8039798031496063
11
2.0163535433070865
21
0.8043224409448819
0
LINE
8
BLACK
6
CONTINUOUS
10
2.0163535433070865
20
0.8043224409448819
11
2.0172409448818898
21
0.8051093700787402
0
LINE
8
BLACK
6
CONTINUOUS
10
2.0172409448818898
20
0.8051093700787402
11
2.0180279133858265
21
0.8059968110236221
0
LINE
8
BLACK
6
CONTINUOUS
10
2.0180279133858265
20
0.8059968110236221
11
2.0183705118110238
21
0.8061109842519685
0
LINE
8
BLACK
6
CONTINUOUS
10
2.0183705118110238
20
0.8061109842519685
11
2.0186407480314958
21
0.8063506299212598
0
LINE
8
BLACK
6
CONTINUOUS
10
2.0186407480314958
20
0.8063506299212598
11
2.0242649999999998
21
0.8091627952755905
0
LINE
8
BLACK
6
CONTINUOUS
10
2.0242649999999998
20
0.8091627952755905
11
2.025595
21
0.8094349606299213
0
LINE
8
BLACK
6
CONTINUOUS
10
2.025595
20
0.8094349606299213
11
2.0269060629921261
21
0.8097862598425196
0
LINE
8
BLACK
6
CONTINUOUS
10
2.0269060629921261
20
0.8097862598425196
11
2.0578396850393701
21
0.8097862598425196
0
LINE
8
BLACK
6
CONTINUOUS
10
2.0578396850393701
20
0.8097862598425196
11
2.0607924409448817
21
0.8089950787401574
0
LINE
8
BLACK
6
CONTINUOUS
10
0.8103685039370079
20
1.3930703543307086
11
0.8105600787401575
21
1.3931087007874015
0
LINE
8
BLACK
6
CONTINUOUS
10
0.8105600787401575
20
1.3931087007874015
11
0.8118342125984251
21
1.3926776377952756
0
LINE
8
BLACK
6
CONTINUOUS
10
0.8118342125984251
20
1.3926776377952756
11
0.8131327559055118
21
1.3923297244094488
0
LINE
8
BLACK
6
CONTINUOUS
10
0.8131327559055118
20
1.3923297244094488
11
0.8132707874015748
21
1.392191653543307
0
LINE
8
BLACK
6
CONTINUOUS
10
0.8132707874015748
20
1.392191653543307
11
0.8134557874015748
21
1.392129094488189
0
LINE
8
BLACK
6
CONTINUOUS
10
0.8134557874015748
20
1.392129094488189
11
0.8143436614173228
21
1.391118779527559
0
LINE
8
BLACK
6
CONTINUOUS
10
0.8143436614173228
20
1.391118779527559
11
0.8152943307086614
21
1.3901681496062992
0
LINE
8
BLACK
6
CONTINUOUS
10
0.8152943307086614
20
1.3901681496062992
11
0.815344842519685
21
1.3899796062992125
0
LINE
8
BLACK
6
CONTINUOUS
10
0.815344842519685
20
1.3899796062992125
11
0.8154737795275591
21
1.3898329133858267
0
LINE
8
BLACK
6
CONTINUOUS
10
0.8154737795275591
20
1.3898329133858267
11
0.8157375196850394
21
1.3885140157480316
0
LINE
8
BLACK
6
CONTINUOUS
10
0.8157375196850394
20
1.3885140157480316
11
0.8160855118110236
21
1.3872153937007874
0
LINE
8
BLACK
6
CONTINUOUS
10
0.8160855118110236
20
1.3872153937007874
11
0.8160855118110236
21
1.3340657874015747
0
LINE
8
BLACK
6
CONTINUOUS
10
0.8160855118110236
20
1.3340657874015747
11
0.8270529133858268
21
1.3340657874015747
0
LINE
8
BLACK
6
CONTINUOUS
10
0.8270529133858268
20
1.3340657874015747
11
0.8300056692913386
21
1.3332746062992125
0
LINE
8
BLACK
6
CONTINUOUS
10
0.8300056692913386
20
1.3332746062992125
11
0.8321672440944882
21
1.3311130314960629
0
LINE
8
BLACK
6
CONTINUOUS
10
0.8321672440944882
20
1.3311130314960629
11
0.8329584251968504
21
1.3281602755905511
0
LINE
8
BLACK
6
CONTINUOUS
10
0.8329584251968504
20
1.3281602755905511
11
0.8321672440944882
21
1.3252075196850392
0
LINE
8
BLACK
6
CONTINUOUS
10
0.8321672440944882
20
1.3252075196850392
11
0.8300056692913386
21
1.3230459448818896
0
LINE
8
BLACK
6
CONTINUOUS
10
0.8300056692913386
20
1.3230459448818896
11
0.8270529133858268
21
1.3222547637795274
0
LINE
8
BLACK
6
CONTINUOUS
10
0.8270529133858268
20
1.3222547637795274
11
0.81018
21
1.3222547637795274
0
LINE
8
BLACK
6
CONTINUOUS
10
0.81018
20
1.3222547637795274
11
0.7933071259842519
21
1.3222547637795274
0
LINE
8
BLACK
6
CONTINUOUS
10
0.7933071259842519
20
1.3222547637795274
11
0.7903543700787401
21
1.3230459448818896
0
LINE
8
BLACK
6
CONTINUOUS
10
0.7903543700787401
20
1.3230459448818896
11
0.7881927952755905
21
1.3252075196850392
0
LINE
8
BLACK
6
CONTINUOUS
10
0.7881927952755905
20
1.3252075196850392
11
0.7874016141732283
21
1.3281602755905511
0
LINE
8
BLACK
6
CONTINUOUS
10
0.7874016141732283
20
1.3281602755905511
11
0.7881927952755905
21
1.3311130314960629
0
LINE
8
BLACK
6
CONTINUOUS
10
0.7881927952755905
20
1.3311130314960629
11
0.7903543700787401
21
1.3332746062992125
0
LINE
8
BLACK
6
CONTINUOUS
10
0.7903543700787401
20
1.3332746062992125
11
0.7933071259842519
21
1.3340657874015747
0
LINE
8
BLACK
6
CONTINUOUS
10
0.7933071259842519
20
1.3340657874015747
11
0.8042744881889764
21
1.3340657874015747
0
LINE
8
BLACK
6
CONTINUOUS
10
0.8042744881889764
20
1.3340657874015747
11
0.8042744881889764
21
1.370146062992126
0
LINE
8
BLACK
6
CONTINUOUS
10
0.8042744881889764
20
1.370146062992126
11
0.8031072440944882
21
1.3689788188976377
0
LINE
8
BLACK
6
CONTINUOUS
10
0.8031072440944882
20
1.3689788188976377
11
0.8022838188976378
21
1.3685034251968504
0
LINE
8
BLACK
6
CONTINUOUS
10
0.8022838188976378
20
1.3685034251968504
11
0.8015724409448819
21
1.3678725984251969
0
LINE
8
BLACK
6
CONTINUOUS
10
0.8015724409448819
20
1.3678725984251969
11
0.7959481496062992
21
1.3650604724409447
0
LINE
8
BLACK
6
CONTINUOUS
10
0.7959481496062992
20
1.3650604724409447
11
0.7929532677165354
21
1.3644475984251969
0
LINE
8
BLACK
6
CONTINUOUS
10
0.7929532677165354
20
1.3644475984251969
11
0.7900532283464566
21
1.3654142913385827
0
LINE
8
BLACK
6
CONTINUOUS
10
0.7900532283464566
20
1.3654142913385827
11
0.7880250787401575
21
1.3677014960629921
0
LINE
8
BLACK
6
CONTINUOUS
10
0.7880250787401575
20
1.3677014960629921
11
0.7874122047244094
21
1.3706963779527559
0
LINE
8
BLACK
6
CONTINUOUS
10
0.7874122047244094
20
1.3706963779527559
11
0.7883788976377952
21
1.3735964173228346
0
LINE
8
BLACK
6
CONTINUOUS
10
0.7883788976377952
20
1.3735964173228346
11
0.7906661023622047
21
1.3756245669291338
0
LINE
8
BLACK
6
CONTINUOUS
10
0.7906661023622047
20
1.3756245669291338
11
0.7954331889763779
21
1.3780080708661417
0
LINE
8
BLACK
6
CONTINUOUS
10
0.7954331889763779
20
1.3780080708661417
11
0.7999663385826772
21
1.382541220472441
0
LINE
8
BLACK
6
CONTINUOUS
10
0.7999663385826772
20
1.382541220472441
11
0.8052663385826772
21
1.3904911811023621
0
LINE
8
BLACK
6
CONTINUOUS
10
0.8052663385826772
20
1.3904911811023621
11
0.8062762992125984
21
1.391378779527559
0
LINE
8
BLACK
6
CONTINUOUS
10
0.8062762992125984
20
1.391378779527559
11
0.8072272440944882
21
1.3923297244094488
0
LINE
8
BLACK
6
CONTINUOUS
10
0.8072272440944882
20
1.3923297244094488
11
0.8074158267716536
21
1.3923802362204725
0
LINE
8
BLACK
6
CONTINUOUS
10
0.8074158267716536
20
1.3923802362204725
11
0.8075625196850393
21
1.3925091732283463
0
LINE
8
BLACK
6
CONTINUOUS
10
0.8075625196850393
20
1.3925091732283463
11
0.8088814566929133
21
1.3927729527559054
0
LINE
8
BLACK
6
CONTINUOUS
10
0.8088814566929133
20
1.3927729527559054
11
0.81018
21
1.393120905511811
0
LINE
8
BLACK
6
CONTINUOUS
10
0.81018
20
1.393120905511811
11
0.8103685039370079
21
1.3930703543307086
0
LINE
8
BLACK
6
CONTINUOUS
10
0.8531131889763779
20
1.3394888582677165
11
0.8538906299212599
21
1.3394888582677165
0
LINE
8
BLACK
6
CONTINUOUS
10
0.8538906299212599
20
1.3394888582677165
11
0.8538906692913386
21
1.3394888582677165
0
LINE
8
BLACK
6
CONTINUOUS
10
0.8538906692913386
20
1.3394888582677165
11
0.8545639763779528
21
1.3391001181102362
0
LINE
8
BLACK
6
CONTINUOUS
10
0.8545639763779528
20
1.3391001181102362
11
0.8553149606299213
21
1.3388988976377953
0
LINE
8
BLACK
6
CONTINUOUS
10
0.8553149606299213
20
1.3388988976377953
11
0.8558646850393701
21
1.3383491338582676
0
LINE
8
BLACK
6
CONTINUOUS
10
0.8558646850393701
20
1.3383491338582676
11
0.8565379921259842
21
1.3379604330708661
0
LINE
8
BLACK
6
CONTINUOUS
10
0.8565379921259842
20
1.3379604330708661
11
0.859350157480315
21
1.3351483070866141
0
LINE
8
BLACK
6
CONTINUOUS
10
0.859350157480315
20
1.3351483070866141
11
0.859350157480315
21
1.3351482677165354
0
LINE
8
BLACK
6
CONTINUOUS
10
0.859350157480315
20
1.3351482677165354
11
0.8593501968503937
21
1.3351482677165354
0
LINE
8
BLACK
6
CONTINUOUS
10
0.8593501968503937
20
1.3351482677165354
11
0.8598431102362204
21
1.334294527559055
0
LINE
8
BLACK
6
CONTINUOUS
10
0.8598431102362204
20
1.334294527559055
11
0.8608786614173228
21
1.3325009448818896
0
LINE
8
BLACK
6
CONTINUOUS
10
0.8608786614173228
20
1.3325009448818896
11
0.8608786614173228
21
1.3325009055118109
0
LINE
8
BLACK
6
CONTINUOUS
10
0.8608786614173228
20
1.3325009055118109
11
0.8608786614173228
21
1.3294439763779526
0
LINE
8
BLACK
6
CONTINUOUS
10
0.8608786614173228
20
1.3294439763779526
11
0.8605477559055118
21
1.3288708661417323
0
LINE
8
BLACK
6
CONTINUOUS
10
0.8605477559055118
20
1.3288708661417323
11
0.8598825196850394
21
1.3277185826771654
0
LINE
8
BLACK
6
CONTINUOUS
10
0.8598825196850394
20
1.3277185826771654
11
0.8593501968503937
21
1.3267966141732284
0
LINE
8
BLACK
6
CONTINUOUS
10
0.8593501968503937
20
1.3267966141732284
11
0.856538031496063
21
1.3239844488188977
0
LINE
8
BLACK
6
CONTINUOUS
10
0.856538031496063
20
1.3239844488188977
11
0.8565379921259842
21
1.3239844094488189
0
LINE
8
BLACK
6
CONTINUOUS
10
0.8565379921259842
20
1.3239844094488189
11
0.8558646850393701
21
1.3235956692913387
0
LINE
8
BLACK
6
CONTINUOUS
10
0.8558646850393701
20
1.3235956692913387
11
0.8553149606299213
21
1.3230459448818896
0
LINE
8
BLACK
6
CONTINUOUS
10
0.8553149606299213
20
1.3230459448818896
11
0.8545639763779528
21
1.32284468503937
0
LINE
8
BLACK
6
CONTINUOUS
10
0.8545639763779528
20
1.32284468503937
11
0.8538906692913386
21
1.3224559842519685
0
LINE
8
BLACK
6
CONTINUOUS
10
0.8538906692913386
20
1.3224559842519685
11
0.8531131889763779
21
1.3224559842519685
0
LINE
8
BLACK
6
CONTINUOUS
10
0.8531131889763779
20
1.3224559842519685
11
0.8523622047244094
21
1.3222547637795274
0
LINE
8
BLACK
6
CONTINUOUS
10
0.8523622047244094
20
1.3222547637795274
11
0.851611220472441
21
1.3224559842519685
0
LINE
8
BLACK
6
CONTINUOUS
10
0.851611220472441
20
1.3224559842519685
11
0.8508337401574803
21
1.3224559842519685
0
LINE
8
BLACK
6
CONTINUOUS
10
0.8508337401574803
20
1.3224559842519685
11
0.8508337007874015
21
1.3224559842519685
0
LINE
8
BLACK
6
CONTINUOUS
10
0.8508337007874015
20
1.3224559842519685
11
0.8501603543307087
21
1.3228447244094488
0
LINE
8
BLACK
6
CONTINUOUS
10
0.8501603543307087
20
1.3228447244094488
11
0.8494094488188976
21
1.3230459448818896
0
LINE
8
BLACK
6
CONTINUOUS
10
0.8494094488188976
20
1.3230459448818896
11
0.8488596456692913
21
1.3235957086614174
0
LINE
8
BLACK
6
CONTINUOUS
10
0.8488596456692913
20
1.3235957086614174
11
0.8481864566929134
21
1.3239844094488189
0
LINE
8
BLACK
6
CONTINUOUS
10
0.8481864566929134
20
1.3239844094488189
11
0.8481863779527559
21
1.3239844488188977
0
LINE
8
BLACK
6
CONTINUOUS
10
0.8481863779527559
20
1.3239844488188977
11
0.8481863385826771
21
1.3239844881889764
0
LINE
8
BLACK
6
CONTINUOUS
10
0.8481863385826771
20
1.3239844881889764
11
0.8453742125984252
21
1.3267966535433071
0
LINE
8
BLACK
6
CONTINUOUS
10
0.8453742125984252
20
1.3267966535433071
11
0.8441766929133858
21
1.3288708661417323
0
LINE
8
BLACK
6
CONTINUOUS
10
0.8441766929133858
20
1.3288708661417323
11
0.8438457874015748
21
1.3294439763779526
0
LINE
8
BLACK
6
CONTINUOUS
10
0.8438457874015748
20
1.3294439763779526
11
0.8438457874015748
21
1.3325009055118109
0
LINE
8
BLACK
6
CONTINUOUS
10
0.8438457874015748
20
1.3325009055118109
11
0.8438457874015748
21
1.3325009448818896
0
LINE
8
BLACK
6
CONTINUOUS
10
0.8438457874015748
20
1.3325009448818896
11
0.8448813385826771
21
1.334294527559055
0
LINE
8
BLACK
6
CONTINUOUS
10
0.8448813385826771
20
1.334294527559055
11
0.8453742519685039
21
1.3351482677165354
0
LINE
8
BLACK
6
CONTINUOUS
10
0.8453742519685039
20
1.3351482677165354
11
0.8481863779527559
21
1.3379603937007873
0
LINE
8
BLACK
6
CONTINUOUS
10
0.8481863779527559
20
1.3379603937007873
11
0.8488596456692913
21
1.3383490944881888
0
LINE
8
BLACK
6
CONTINUOUS
10
0.8488596456692913
20
1.3383490944881888
11
0.8494094488188976
21
1.3388988976377953
0
LINE
8
BLACK
6
CONTINUOUS
10
0.8494094488188976
20
1.3388988976377953
11
0.8501603937007873
21
1.3391001181102362
0
LINE
8
BLACK
6
CONTINUOUS
10
0.8501603937007873
20
1.3391001181102362
11
0.850695157480315
21
1.3394088582677166
0
LINE
8
BLACK
6
CONTINUOUS
10
0.850695157480315
20
1.3394088582677166
11
0.8508337007874015
21
1.3394888582677165
0
LINE
8
BLACK
6
CONTINUOUS
10
0.8508337007874015
20
1.3394888582677165
11
0.851611220472441
21
1.3394888582677165
0
LINE
8
BLACK
6
CONTINUOUS
10
0.851611220472441
20
1.3394888582677165
11
0.8523622047244094
21
1.3396900787401576
0
LINE
8
BLACK
6
CONTINUOUS
10
0.8523622047244094
20
1.3396900787401576
11
0.8531131889763779
21
1.3394888582677165
0
LINE
8
BLACK
6
CONTINUOUS
10
0.9014798031496063
20
1.3927695669291338
11
0.9028097637795275
21
1.3924974409448818
0
LINE
8
BLACK
6
CONTINUOUS
10
0.9028097637795275
20
1.3924974409448818
11
0.9084340944881889
21
1.3896852755905511
0
LINE
8
BLACK
6
CONTINUOUS
10
0.9084340944881889
20
1.3896852755905511
11
0.9091454724409449
21
1.3890544094488189
0
LINE
8
BLACK
6
CONTINUOUS
10
0.9091454724409449
20
1.3890544094488189
11
0.9099688976377952
21
1.3885790551181103
0
LINE
8
BLACK
6
CONTINUOUS
10
0.9099688976377952
20
1.3885790551181103
11
0.9127810236220473
21
1.3857669291338581
0
LINE
8
BLACK
6
CONTINUOUS
10
0.9127810236220473
20
1.3857669291338581
11
0.9132564173228346
21
1.3849434645669292
0
LINE
8
BLACK
6
CONTINUOUS
10
0.9132564173228346
20
1.3849434645669292
11
0.9138872440944882
21
1.3842321259842518
0
LINE
8
BLACK
6
CONTINUOUS
10
0.9138872440944882
20
1.3842321259842518
11
0.9166994094488189
21
1.3786078740157479
0
LINE
8
BLACK
6
CONTINUOUS
10
0.9166994094488189
20
1.3786078740157479
11
0.9169715748031496
21
1.3772778346456693
0
LINE
8
BLACK
6
CONTINUOUS
10
0.9169715748031496
20
1.3772778346456693
11
0.917322874015748
21
1.3759668110236221
0
LINE
8
BLACK
6
CONTINUOUS
10
0.917322874015748
20
1.3759668110236221
11
0.917322874015748
21
1.3534696062992126
0
LINE
8
BLACK
6
CONTINUOUS
10
0.917322874015748
20
1.3534696062992126
11
0.917134251968504
21
1.3527657874015748
0
LINE
8
BLACK
6
CONTINUOUS
10
0.917134251968504
20
1.3527657874015748
11
0.9171465354330709
21
1.3520372834645669
0
LINE
8
BLACK
6
CONTINUOUS
10
0.9171465354330709
20
1.3520372834645669
11
0.9143343700787402
21
1.3407887007874015
0
LINE
8
BLACK
6
CONTINUOUS
10
0.9143343700787402
20
1.3407887007874015
11
0.913843188976378
21
1.3399038976377953
0
LINE
8
BLACK
6
CONTINUOUS
10
0.913843188976378
20
1.3399038976377953
11
0.9135188976377953
21
1.3389452362204723
0
LINE
8
BLACK
6
CONTINUOUS
10
0.9135188976377953
20
1.3389452362204723
11
0.9078946062992126
21
1.330508779527559
0
LINE
8
BLACK
6
CONTINUOUS
10
0.9078946062992126
20
1.330508779527559
11
0.9074515748031496
21
1.3301194094488189
0
LINE
8
BLACK
6
CONTINUOUS
10
0.9074515748031496
20
1.3301194094488189
11
0.9071566929133859
21
1.3296087007874016
0
LINE
8
BLACK
6
CONTINUOUS
10
0.9071566929133859
20
1.3296087007874016
11
0.9043445275590551
21
1.3267965748031496
0
LINE
8
BLACK
6
CONTINUOUS
10
0.9043445275590551
20
1.3267965748031496
11
0.9035211023622047
21
1.3263211811023621
0
LINE
8
BLACK
6
CONTINUOUS
10
0.9035211023622047
20
1.3263211811023621
11
0.9028097637795275
21
1.3256903937007873
0
LINE
8
BLACK
6
CONTINUOUS
10
0.9028097637795275
20
1.3256903937007873
11
0.8971854724409448
21
1.3228782283464566
0
LINE
8
BLACK
6
CONTINUOUS
10
0.8971854724409448
20
1.3228782283464566
11
0.8958555118110236
21
1.3226060629921259
0
LINE
8
BLACK
6
CONTINUOUS
10
0.8958555118110236
20
1.3226060629921259
11
0.8945444488188976
21
1.3222547637795274
0
LINE
8
BLACK
6
CONTINUOUS
10
0.8945444488188976
20
1.3222547637795274
11
0.8832958661417323
21
1.3222547637795274
0
LINE
8
BLACK
6
CONTINUOUS
10
0.8832958661417323
20
1.3222547637795274
11
0.8803431102362205
21
1.3230459448818896
0
LINE
8
BLACK
6
CONTINUOUS
10
0.8803431102362205
20
1.3230459448818896
11
0.8781815354330709
21
1.3252075196850392
0
LINE
8
BLACK
6
CONTINUOUS
10
0.8781815354330709
20
1.3252075196850392
11
0.8773903543307087
21
1.3281602755905511
0
LINE
8
BLACK
6
CONTINUOUS
10
0.8773903543307087
20
1.3281602755905511
11
0.8781815354330709
21
1.3311130314960629
0
LINE
8
BLACK
6
CONTINUOUS
10
0.8781815354330709
20
1.3311130314960629
11
0.8803431102362205
21
1.3332746062992125
0
LINE
8
BLACK
6
CONTINUOUS
10
0.8803431102362205
20
1.3332746062992125
11
0.8832958661417323
21
1.3340657874015747
0
LINE
8
BLACK
6
CONTINUOUS
10
0.8832958661417323
20
1.3340657874015747
11
0.8931503543307087
21
1.3340657874015747
0
LINE
8
BLACK
6
CONTINUOUS
10
0.8931503543307087
20
1.3340657874015747
11
0.896670590551181
21
1.3358259055118109
0
LINE
8
BLACK
6
CONTINUOUS
10
0.896670590551181
20
1.3358259055118109
11
0.8983915354330708
21
1.3375468503937007
0
LINE
8
BLACK
6
CONTINUOUS
10
0.8983915354330708
20
1.3375468503937007
11
0.903124094488189
21
1.3446456692913384
0
LINE
8
BLACK
6
CONTINUOUS
10
0.903124094488189
20
1.3446456692913384
11
0.9033775196850393
21
1.3456592913385828
0
LINE
8
BLACK
6
CONTINUOUS
10
0.9033775196850393
20
1.3456592913385828
11
0.9028097244094488
21
1.345375433070866
0
LINE
8
BLACK
6
CONTINUOUS
10
0.9028097244094488
20
1.345375433070866
11
0.9014799606299212
21
1.3451033070866141
0
LINE
8
BLACK
6
CONTINUOUS
10
0.9014799606299212
20
1.3451033070866141
11
0.9001687401574803
21
1.3447519685039371
0
LINE
8
BLACK
6
CONTINUOUS
10
0.9001687401574803
20
1.3447519685039371
11
0.8889201574803149
21
1.3447519685039371
0
LINE
8
BLACK
6
CONTINUOUS
10
0.8889201574803149
20
1.3447519685039371
11
0.8876088976377953
21
1.3451033070866141
0
LINE
8
BLACK
6
CONTINUOUS
10
0.8876088976377953
20
1.3451033070866141
11
0.8862791732283465
21
1.345375433070866
0
LINE
8
BLACK
6
CONTINUOUS
10
0.8862791732283465
20
1.345375433070866
11
0.8806548425196851
21
1.348187559055118
0
LINE
8
BLACK
6
CONTINUOUS
10
0.8806548425196851
20
1.348187559055118
11
0.8799434251968504
21
1.3488183858267717
0
LINE
8
BLACK
6
CONTINUOUS
10
0.8799434251968504
20
1.3488183858267717
11
0.8791200393700788
21
1.349293779527559
0
LINE
8
BLACK
6
CONTINUOUS
10
0.8791200393700788
20
1.349293779527559
11
0.8763078740157481
21
1.3521059448818897
0
LINE
8
BLACK
6
CONTINUOUS
10
0.8763078740157481
20
1.3521059448818897
11
0.8758324803149606
21
1.3529293307086614
0
LINE
8
BLACK
6
CONTINUOUS
10
0.8758324803149606
20
1.3529293307086614
11
0.875201653543307
21
1.353640748031496
0
LINE
8
BLACK
6
CONTINUOUS
10
0.875201653543307
20
1.353640748031496
11
0.8723895275590551
21
1.3592650393700787
0
LINE
8
BLACK
6
CONTINUOUS
10
0.8723895275590551
20
1.3592650393700787
11
0.8721173622047244
21
1.3605948818897637
0
LINE
8
BLACK
6
CONTINUOUS
10
0.8721173622047244
20
1.3605948818897637
11
0.871766062992126
21
1.361906062992126
0
LINE
8
BLACK
6
CONTINUOUS
10
0.871766062992126
20
1.361906062992126
11
0.871766062992126
21
1.3759668110236221
0
LINE
8
BLACK
6
CONTINUOUS
10
0.871766062992126
20
1.3759668110236221
11
0.8721173622047244
21
1.3772779527559056
0
LINE
8
BLACK
6
CONTINUOUS
10
0.8721173622047244
20
1.3772779527559056
11
0.8723895275590551
21
1.3786078346456692
0
LINE
8
BLACK
6
CONTINUOUS
10
0.8723895275590551
20
1.3786078346456692
11
0.875201653543307
21
1.3842321259842518
0
LINE
8
BLACK
6
CONTINUOUS
10
0.875201653543307
20
1.3842321259842518
11
0.8758324803149606
21
1.3849435039370079
0
LINE
8
BLACK
6
CONTINUOUS
10
0.8758324803149606
20
1.3849435039370079
11
0.8763079133858267
21
1.3857669685039369
0
LINE
8
BLACK
6
CONTINUOUS
10
0.8763079133858267
20
1.3857669685039369
11
0.8791200787401574
21
1.3885790944881888
0
LINE
8
BLACK
6
CONTINUOUS
10
0.8791200787401574
20
1.3885790944881888
11
0.8799434645669291
21
1.3890544488188976
0
LINE
8
BLACK
6
CONTINUOUS
10
0.8799434645669291
20
1.3890544488188976
11
0.8806548425196851
21
1.3896852755905511
0
LINE
8
BLACK
6
CONTINUOUS
10
0.8806548425196851
20
1.3896852755905511
11
0.886279094488189
21
1.3924974409448818
0
LINE
8
BLACK
6
CONTINUOUS
10
0.886279094488189
20
1.3924974409448818
11
0.8876090944881889
21
1.3927696062992125
0
LINE
8
BLACK
6
CONTINUOUS
10
0.8876090944881889
20
1.3927696062992125
11
0.8889201574803149
21
1.393120905511811
0
LINE
8
BLACK
6
CONTINUOUS
10
0.8889201574803149
20
1.393120905511811
11
0.9001687401574803
21
1.393120905511811
0
LINE
8
BLACK
6
CONTINUOUS
10
0.9001687401574803
20
1.393120905511811
11
0.9014798031496063
21
1.3927695669291338
0
LINE
8
BLACK
6
CONTINUOUS
10
0.8867940157480315
20
1.3795497244094488
11
0.885337125984252
21
1.3780928346456693
0
LINE
8
BLACK
6
CONTINUOUS
10
0.885337125984252
20
1.3780928346456693
11
0.8835770866141732
21
1.3745727165354331
0
LINE
8
BLACK
6
CONTINUOUS
10
0.8835770866141732
20
1.3745727165354331
11
0.8835770866141732
21
1.3633001181102362
0
LINE
8
BLACK
6
CONTINUOUS
10
0.8835770866141732
20
1.3633001181102362
11
0.885337125984252
21
1.3597799606299212
0
LINE
8
BLACK
6
CONTINUOUS
10
0.885337125984252
20
1.3597799606299212
11
0.8867940157480315
21
1.3583230708661418
0
LINE
8
BLACK
6
CONTINUOUS
10
0.8867940157480315
20
1.3583230708661418
11
0.8903142519685039
21
1.3565629921259843
0
LINE
8
BLACK
6
CONTINUOUS
10
0.8903142519685039
20
1.3565629921259843
11
0.8987746850393701
21
1.3565629921259843
0
LINE
8
BLACK
6
CONTINUOUS
10
0.8987746850393701
20
1.3565629921259843
11
0.9022948818897638
21
1.3583230708661418
0
LINE
8
BLACK
6
CONTINUOUS
10
0.9022948818897638
20
1.3583230708661418
11
0.9037516929133858
21
1.3597799212598425
0
LINE
8
BLACK
6
CONTINUOUS
10
0.9037516929133858
20
1.3597799212598425
11
0.9055118503937007
21
1.363300157480315
0
LINE
8
BLACK
6
CONTINUOUS
10
0.9055118503937007
20
1.363300157480315
11
0.9055118503937007
21
1.3745726771653544
0
LINE
8
BLACK
6
CONTINUOUS
10
0.9055118503937007
20
1.3745726771653544
11
0.9037517322834645
21
1.3780928740157481
0
LINE
8
BLACK
6
CONTINUOUS
10
0.9037517322834645
20
1.3780928740157481
11
0.9022948818897638
21
1.3795497637795275
0
LINE
8
BLACK
6
CONTINUOUS
10
0.9022948818897638
20
1.3795497637795275
11
0.8987746456692913
21
1.3813098818897638
0
LINE
8
BLACK
6
CONTINUOUS
10
0.8987746456692913
20
1.3813098818897638
11
0.8903142519685039
21
1.3813098818897638
0
LINE
8
BLACK
6
CONTINUOUS
10
0.8903142519685039
20
1.3813098818897638
11
0.8867940157480315
21
1.3795497244094488
0
LINE
8
BLACK
6
CONTINUOUS
10
0.9577227559055118
20
1.3927695669291338
11
0.959052716535433
21
1.3924974409448818
0
LINE
8
BLACK
6
CONTINUOUS
10
0.959052716535433
20
1.3924974409448818
11
0.9646770472440944
21
1.3896852755905511
0
LINE
8
BLACK
6
CONTINUOUS
10
0.9646770472440944
20
1.3896852755905511
11
0.9653884251968504
21
1.3890544094488189
0
LINE
8
BLACK
6
CONTINUOUS
10
0.9653884251968504
20
1.3890544094488189
11
0.9662118503937007
21
1.3885790551181103
0
LINE
8
BLACK
6
CONTINUOUS
10
0.9662118503937007
20
1.3885790551181103
11
0.9690239763779528
21
1.3857669291338581
0
LINE
8
BLACK
6
CONTINUOUS
10
0.9690239763779528
20
1.3857669291338581
11
0.9694993700787401
21
1.3849434645669292
0
LINE
8
BLACK
6
CONTINUOUS
10
0.9694993700787401
20
1.3849434645669292
11
0.9701301968503937
21
1.3842321259842518
0
LINE
8
BLACK
6
CONTINUOUS
10
0.9701301968503937
20
1.3842321259842518
11
0.9729423622047244
21
1.3786078740157479
0
LINE
8
BLACK
6
CONTINUOUS
10
0.9729423622047244
20
1.3786078740157479
11
0.9732145275590551
21
1.3772778346456693
0
LINE
8
BLACK
6
CONTINUOUS
10
0.9732145275590551
20
1.3772778346456693
11
0.9735658267716535
21
1.3759668110236221
0
LINE
8
BLACK
6
CONTINUOUS
10
0.9735658267716535
20
1.3759668110236221
11
0.9735658267716535
21
1.3731546456692914
0
LINE
8
BLACK
6
CONTINUOUS
10
0.9735658267716535
20
1.3731546456692914
11
0.9732145275590551
21
1.3718435826771653
0
LINE
8
BLACK
6
CONTINUOUS
10
0.9732145275590551
20
1.3718435826771653
11
0.9729423622047244
21
1.3705135826771653
0
LINE
8
BLACK
6
CONTINUOUS
10
0.9729423622047244
20
1.3705135826771653
11
0.9701301968503937
21
1.3648893307086614
0
LINE
8
BLACK
6
CONTINUOUS
10
0.9701301968503937
20
1.3648893307086614
11
0.9694993700787401
21
1.3641779527559055
0
LINE
8
BLACK
6
CONTINUOUS
10
0.9694993700787401
20
1.3641779527559055
11
0.9690240157480314
21
1.3633545669291338
0
LINE
8
BLACK
6
CONTINUOUS
10
0.9690240157480314
20
1.3633545669291338
11
0.9675755118110236
21
1.3619060236220473
0
LINE
8
BLACK
6
CONTINUOUS
10
0.9675755118110236
20
1.3619060236220473
11
0.9690239763779528
21
1.3604575984251968
0
LINE
8
BLACK
6
CONTINUOUS
10
0.9690239763779528
20
1.3604575984251968
11
0.9694993700787401
21
1.3596341338582676
0
LINE
8
BLACK
6
CONTINUOUS
10
0.9694993700787401
20
1.3596341338582676
11
0.9701301968503937
21
1.3589227952755905
0
LINE
8
BLACK
6
CONTINUOUS
10
0.9701301968503937
20
1.3589227952755905
11
0.9729423622047244
21
1.3532985433070865
0
LINE
8
BLACK
6
CONTINUOUS
10
0.9729423622047244
20
1.3532985433070865
11
0.9732145275590551
21
1.3519685039370077
0
LINE
8
BLACK
6
CONTINUOUS
10
0.9732145275590551
20
1.3519685039370077
11
0.9735658267716535
21
1.3506574803149607
0
LINE
8
BLACK
6
CONTINUOUS
10
0.9735658267716535
20
1.3506574803149607
11
0.9735658267716535
21
1.3394088582677166
0
LINE
8
BLACK
6
CONTINUOUS
10
0.9735658267716535
20
1.3394088582677166
11
0.9732145275590551
21
1.3380977952755906
0
LINE
8
BLACK
6
CONTINUOUS
10
0.9732145275590551
20
1.3380977952755906
11
0.9729423622047244
21
1.3367677952755905
0
LINE
8
BLACK
6
CONTINUOUS
10
0.9729423622047244
20
1.3367677952755905
11
0.9701301968503937
21
1.3311435433070866
0
LINE
8
BLACK
6
CONTINUOUS
10
0.9701301968503937
20
1.3311435433070866
11
0.9694993700787401
21
1.3304321653543307
0
LINE
8
BLACK
6
CONTINUOUS
10
0.9694993700787401
20
1.3304321653543307
11
0.9690239763779528
21
1.3296087401574803
0
LINE
8
BLACK
6
CONTINUOUS
10
0.9690239763779528
20
1.3296087401574803
11
0.9662118503937007
21
1.3267966141732284
0
LINE
8
BLACK
6
CONTINUOUS
10
0.9662118503937007
20
1.3267966141732284
11
0.9653884251968504
21
1.3263212204724408
0
LINE
8
BLACK
6
CONTINUOUS
10
0.9653884251968504
20
1.3263212204724408
11
0.9646770472440944
21
1.3256903937007873
0
LINE
8
BLACK
6
CONTINUOUS
10
0.9646770472440944
20
1.3256903937007873
11
0.959052716535433
21
1.3228782283464566
0
LINE
8
BLACK
6
CONTINUOUS
10
0.959052716535433
20
1.3228782283464566
11
0.9577227559055118
21
1.3226060629921259
0
LINE
8
BLACK
6
CONTINUOUS
10
0.9577227559055118
20
1.3226060629921259
11
0.9564116929133858
21
1.3222547637795274
0
LINE
8
BLACK
6
CONTINUOUS
10
0.9564116929133858
20
1.3222547637795274
11
0.9451631102362205
21
1.3222547637795274
0
LINE
8
BLACK
6
CONTINUOUS
10
0.9451631102362205
20
1.3222547637795274
11
0.9438520472440944
21
1.3226060236220472
0
LINE
8
BLACK
6
CONTINUOUS
10
0.9438520472440944
20
1.3226060236220472
11
0.9425220472440945
21
1.3228782283464566
0
LINE
8
BLACK
6
CONTINUOUS
10
0.9425220472440945
20
1.3228782283464566
11
0.9368977952755906
21
1.3256903937007873
0
LINE
8
BLACK
6
CONTINUOUS
10
0.9368977952755906
20
1.3256903937007873
11
0.9361864173228346
21
1.3263211811023621
0
LINE
8
BLACK
6
CONTINUOUS
10
0.9361864173228346
20
1.3263211811023621
11
0.9353630314960629
21
1.3267965748031496
0
LINE
8
BLACK
6
CONTINUOUS
10
0.9353630314960629
20
1.3267965748031496
11
0.9325508661417322
21
1.3296087007874016
0
LINE
8
BLACK
6
CONTINUOUS
10
0.9325508661417322
20
1.3296087007874016
11
0.9320754330708662
21
1.330432125984252
0
LINE
8
BLACK
6
CONTINUOUS
10
0.9320754330708662
20
1.330432125984252
11
0.9314446062992126
21
1.3311435433070866
0
LINE
8
BLACK
6
CONTINUOUS
10
0.9314446062992126
20
1.3311435433070866
11
0.9286324803149606
21
1.3367678346456693
0
LINE
8
BLACK
6
CONTINUOUS
10
0.9286324803149606
20
1.3367678346456693
11
0.9283603149606299
21
1.3380976771653543
0
LINE
8
BLACK
6
CONTINUOUS
10
0.9283603149606299
20
1.3380976771653543
11
0.9280090157480315
21
1.3394088582677166
0
LINE
8
BLACK
6
CONTINUOUS
10
0.9280090157480315
20
1.3394088582677166
11
0.9280090157480315
21
1.3506574803149607
0
LINE
8
BLACK
6
CONTINUOUS
10
0.9280090157480315
20
1.3506574803149607
11
0.9283603149606299
21
1.351968622047244
0
LINE
8
BLACK
6
CONTINUOUS
10
0.9283603149606299
20
1.351968622047244
11
0.9286324803149606
21
1.3532985039370078
0
LINE
8
BLACK
6
CONTINUOUS
10
0.9286324803149606
20
1.3532985039370078
11
0.9314446062992126
21
1.3589227952755905
0
LINE
8
BLACK
6
CONTINUOUS
10
0.9314446062992126
20
1.3589227952755905
11
0.9320754330708662
21
1.3596341732283463
0
LINE
8
BLACK
6
CONTINUOUS
10
0.9320754330708662
20
1.3596341732283463
11
0.9325508661417322
21
1.3604576377952755
0
LINE
8
BLACK
6
CONTINUOUS
10
0.9325508661417322
20
1.3604576377952755
11
0.9339992913385826
21
1.3619060236220473
0
LINE
8
BLACK
6
CONTINUOUS
10
0.9339992913385826
20
1.3619060236220473
11
0.9325508267716536
21
1.3633545275590551
0
LINE
8
BLACK
6
CONTINUOUS
10
0.9325508267716536
20
1.3633545275590551
11
0.9320754330708662
21
1.3641779133858267
0
LINE
8
BLACK
6
CONTINUOUS
10
0.9320754330708662
20
1.3641779133858267
11
0.9314446062992126
21
1.3648893307086614
0
LINE
8
BLACK
6
CONTINUOUS
10
0.9314446062992126
20
1.3648893307086614
11
0.9286324803149606
21
1.370513622047244
0
LINE
8
BLACK
6
CONTINUOUS
10
0.9286324803149606
20
1.370513622047244
11
0.9283603149606299
21
1.3718434645669291
0
LINE
8
BLACK
6
CONTINUOUS
10
0.9283603149606299
20
1.3718434645669291
11
0.9280090157480315
21
1.3731546456692914
0
LINE
8
BLACK
6
CONTINUOUS
10
0.9280090157480315
20
1.3731546456692914
11
0.9280090157480315
21
1.3759668110236221
0
LINE
8
BLACK
6
CONTINUOUS
10
0.9280090157480315
20
1.3759668110236221
11
0.9283603149606299
21
1.3772779527559056
0
LINE
8
BLACK
6
CONTINUOUS
10
0.9283603149606299
20
1.3772779527559056
11
0.9286324803149606
21
1.3786078346456692
0
LINE
8
BLACK
6
CONTINUOUS
10
0.9286324803149606
20
1.3786078346456692
11
0.9314446062992126
21
1.3842321259842518
0
LINE
8
BLACK
6
CONTINUOUS
10
0.9314446062992126
20
1.3842321259842518
11
0.9320754330708662
21
1.3849435039370079
0
LINE
8
BLACK
6
CONTINUOUS
10
0.9320754330708662
20
1.3849435039370079
11
0.9325508661417322
21
1.3857669685039369
0
LINE
8
BLACK
6
CONTINUOUS
10
0.9325508661417322
20
1.3857669685039369
11
0.9353630314960629
21
1.3885790944881888
0
LINE
8
BLACK
6
CONTINUOUS
10
0.9353630314960629
20
1.3885790944881888
11
0.9361864173228346
21
1.3890544488188976
0
LINE
8
BLACK
6
CONTINUOUS
10
0.9361864173228346
20
1.3890544488188976
11
0.9368977952755906
21
1.3896852755905511
0
LINE
8
BLACK
6
CONTINUOUS
10
0.9368977952755906
20
1.3896852755905511
11
0.9425220472440945
21
1.3924974409448818
0
LINE
8
BLACK
6
CONTINUOUS
10
0.9425220472440945
20
1.3924974409448818
11
0.9438520472440944
21
1.3927696062992125
0
LINE
8
BLACK
6
CONTINUOUS
10
0.9438520472440944
20
1.3927696062992125
11
0.9451631102362205
21
1.393120905511811
0
LINE
8
BLACK
6
CONTINUOUS
10
0.9451631102362205
20
1.393120905511811
11
0.9564116929133858
21
1.393120905511811
0
LINE
8
BLACK
6
CONTINUOUS
10
0.9564116929133858
20
1.393120905511811
11
0.9577227559055118
21
1.3927695669291338
0
LINE
8
BLACK
6
CONTINUOUS
10
0.943036968503937
20
1.3542403937007874
11
0.9415800787401575
21
1.3527835039370077
0
LINE
8
BLACK
6
CONTINUOUS
10
0.9415800787401575
20
1.3527835039370077
11
0.9398200393700787
21
1.3492633858267715
0
LINE
8
BLACK
6
CONTINUOUS
10
0.9398200393700787
20
1.3492633858267715
11
0.9398200393700787
21
1.3408029133858268
0
LINE
8
BLACK
6
CONTINUOUS
10
0.9398200393700787
20
1.3408029133858268
11
0.9415800787401575
21
1.3372827952755906
0
LINE
8
BLACK
6
CONTINUOUS
10
0.9415800787401575
20
1.3372827952755906
11
0.943036968503937
21
1.3358259055118109
0
LINE
8
BLACK
6
CONTINUOUS
10
0.943036968503937
20
1.3358259055118109
11
0.9465572047244094
21
1.3340657874015747
0
LINE
8
BLACK
6
CONTINUOUS
10
0.9465572047244094
20
1.3340657874015747
11
0.9550175984251968
21
1.3340657874015747
0
LINE
8
BLACK
6
CONTINUOUS
10
0.9550175984251968
20
1.3340657874015747
11
0.9585378346456692
21
1.3358259055118109
0
LINE
8
BLACK
6
CONTINUOUS
10
0.9585378346456692
20
1.3358259055118109
11
0.95999468503937
21
1.3372827559055118
0
LINE
8
BLACK
6
CONTINUOUS
10
0.95999468503937
20
1.3372827559055118
11
0.9617548031496063
21
1.3408029527559056
0
LINE
8
BLACK
6
CONTINUOUS
10
0.9617548031496063
20
1.3408029527559056
11
0.9617548031496063
21
1.349263346456693
0
LINE
8
BLACK
6
CONTINUOUS
10
0.9617548031496063
20
1.349263346456693
11
0.95999468503937
21
1.3527835433070865
0
LINE
8
BLACK
6
CONTINUOUS
10
0.95999468503937
20
1.3527835433070865
11
0.9585378346456692
21
1.3542404330708662
0
LINE
8
BLACK
6
CONTINUOUS
10
0.9585378346456692
20
1.3542404330708662
11
0.9550175984251968
21
1.3560005511811024
0
LINE
8
BLACK
6
CONTINUOUS
10
0.9550175984251968
20
1.3560005511811024
11
0.9465572047244094
21
1.3560005511811024
0
LINE
8
BLACK
6
CONTINUOUS
10
0.9465572047244094
20
1.3560005511811024
11
0.943036968503937
21
1.3542403937007874
0
LINE
8
BLACK
6
CONTINUOUS
10
0.943036968503937
20
1.3795497244094488
11
0.9415800787401575
21
1.3780928346456693
0
LINE
8
BLACK
6
CONTINUOUS
10
0.9415800787401575
20
1.3780928346456693
11
0.9398200393700787
21
1.3745727165354331
0
LINE
8
BLACK
6
CONTINUOUS
10
0.9398200393700787
20
1.3745727165354331
11
0.9398200393700787
21
1.3745487007874015
0
LINE
8
BLACK
6
CONTINUOUS
10
0.9398200393700787
20
1.3745487007874015
11
0.9415800787401575
21
1.3710285433070866
0
LINE
8
BLACK
6
CONTINUOUS
10
0.9415800787401575
20
1.3710285433070866
11
0.943036968503937
21
1.3695716535433071
0
LINE
8
BLACK
6
CONTINUOUS
10
0.943036968503937
20
1.3695716535433071
11
0.9465572047244094
21
1.3678115748031496
0
LINE
8
BLACK
6
CONTINUOUS
10
0.9465572047244094
20
1.3678115748031496
11
0.9550176377952756
21
1.3678115748031496
0
LINE
8
BLACK
6
CONTINUOUS
10
0.9550176377952756
20
1.3678115748031496
11
0.9585378346456692
21
1.3695716535433071
0
LINE
8
BLACK
6
CONTINUOUS
10
0.9585378346456692
20
1.3695716535433071
11
0.9599946456692913
21
1.3710285039370078
0
LINE
8
BLACK
6
CONTINUOUS
10
0.9599946456692913
20
1.3710285039370078
11
0.9617548031496063
21
1.3745487401574803
0
LINE
8
BLACK
6
CONTINUOUS
10
0.9617548031496063
20
1.3745487401574803
11
0.9617548031496063
21
1.3745726771653544
0
LINE
8
BLACK
6
CONTINUOUS
10
0.9617548031496063
20
1.3745726771653544
11
0.95999468503937
21
1.3780928740157481
0
LINE
8
BLACK
6
CONTINUOUS
10
0.95999468503937
20
1.3780928740157481
11
0.9585378346456692
21
1.3795497637795275
0
LINE
8
BLACK
6
CONTINUOUS
10
0.9585378346456692
20
1.3795497637795275
11
0.9550175984251968
21
1.3813098818897638
0
LINE
8
BLACK
6
CONTINUOUS
10
0.9550175984251968
20
1.3813098818897638
11
0.9465572047244094
21
1.3813098818897638
0
LINE
8
BLACK
6
CONTINUOUS
10
0.9465572047244094
20
1.3813098818897638
11
0.943036968503937
21
1.3795497244094488
0
LINE
8
BLACK
6
CONTINUOUS
10
1.0111535826771654
20
1.3927695669291338
11
1.0124835433070867
21
1.3924974409448818
0
LINE
8
BLACK
6
CONTINUOUS
10
1.0124835433070867
20
1.3924974409448818
11
1.0181078346456693
21
1.3896852755905511
0
LINE
8
BLACK
6
CONTINUOUS
10
1.0181078346456693
20
1.3896852755905511
11
1.0188191732283465
21
1.3890544488188976
0
LINE
8
BLACK
6
CONTINUOUS
10
1.0188191732283465
20
1.3890544488188976
11
1.0196425984251969
21
1.3885790944881888
0
LINE
8
BLACK
6
CONTINUOUS
10
1.0196425984251969
20
1.3885790944881888
11
1.0224547637795276
21
1.3857669685039369
0
LINE
8
BLACK
6
CONTINUOUS
10
1.0224547637795276
20
1.3857669685039369
11
1.0229301574803149
21
1.3849435039370079
0
LINE
8
BLACK
6
CONTINUOUS
10
1.0229301574803149
20
1.3849435039370079
11
1.0235610236220472
21
1.3842321259842518
0
LINE
8
BLACK
6
CONTINUOUS
10
1.0235610236220472
20
1.3842321259842518
11
1.0263731496062991
21
1.3786077952755906
0
LINE
8
BLACK
6
CONTINUOUS
10
1.0263731496062991
20
1.3786077952755906
11
1.0265038188976379
21
1.3779690551181103
0
LINE
8
BLACK
6
CONTINUOUS
10
1.0265038188976379
20
1.3779690551181103
11
1.0268202755905511
21
1.3773990944881889
0
LINE
8
BLACK
6
CONTINUOUS
10
1.0268202755905511
20
1.3773990944881889
11
1.0296324409448818
21
1.3661505118110235
0
LINE
8
BLACK
6
CONTINUOUS
10
1.0296324409448818
20
1.3661505118110235
11
1.029620157480315
21
1.365421968503937
0
LINE
8
BLACK
6
CONTINUOUS
10
1.029620157480315
20
1.365421968503937
11
1.029808779527559
21
1.364718188976378
0
LINE
8
BLACK
6
CONTINUOUS
10
1.029808779527559
20
1.364718188976378
11
1.029808779527559
21
1.3506574803149607
0
LINE
8
BLACK
6
CONTINUOUS
10
1.029808779527559
20
1.3506574803149607
11
1.029620157480315
21
1.3499536614173229
0
LINE
8
BLACK
6
CONTINUOUS
10
1.029620157480315
20
1.3499536614173229
11
1.0296324409448818
21
1.3492251574803149
0
LINE
8
BLACK
6
CONTINUOUS
10
1.0296324409448818
20
1.3492251574803149
11
1.0268202755905511
21
1.3379765748031496
0
LINE
8
BLACK
6
CONTINUOUS
10
1.0268202755905511
20
1.3379765748031496
11
1.0265038188976379
21
1.3374065748031496
0
LINE
8
BLACK
6
CONTINUOUS
10
1.0265038188976379
20
1.3374065748031496
11
1.0263731496062991
21
1.336767874015748
0
LINE
8
BLACK
6
CONTINUOUS
10
1.0263731496062991
20
1.336767874015748
11
1.0235610236220472
21
1.3311435433070866
0
LINE
8
BLACK
6
CONTINUOUS
10
1.0235610236220472
20
1.3311435433070866
11
1.0229301574803149
21
1.330432125984252
0
LINE
8
BLACK
6
CONTINUOUS
10
1.0229301574803149
20
1.330432125984252
11
1.0224547637795276
21
1.3296087007874016
0
LINE
8
BLACK
6
CONTINUOUS
10
1.0224547637795276
20
1.3296087007874016
11
1.0196425984251969
21
1.3267965748031496
0
LINE
8
BLACK
6
CONTINUOUS
10
1.0196425984251969
20
1.3267965748031496
11
1.0188191732283465
21
1.3263211811023621
0
LINE
8
BLACK
6
CONTINUOUS
10
1.0188191732283465
20
1.3263211811023621
11
1.0181078346456693
21
1.3256903937007873
0
LINE
8
BLACK
6
CONTINUOUS
10
1.0181078346456693
20
1.3256903937007873
11
1.0124835433070867
21
1.3228782283464566
0
LINE
8
BLACK
6
CONTINUOUS
10
1.0124835433070867
20
1.3228782283464566
11
1.0111535826771654
21
1.3226060629921259
0
LINE
8
BLACK
6
CONTINUOUS
10
1.0111535826771654
20
1.3226060629921259
11
1.0098425196850394
21
1.3222547637795274
0
LINE
8
BLACK
6
CONTINUOUS
10
1.0098425196850394
20
1.3222547637795274
11
1.0042182283464567
21
1.3222547637795274
0
LINE
8
BLACK
6
CONTINUOUS
10
1.0042182283464567
20
1.3222547637795274
11
1.0029071653543307
21
1.3226060236220472
0
LINE
8
BLACK
6
CONTINUOUS
10
1.0029071653543307
20
1.3226060236220472
11
1.0015771653543306
21
1.3228782283464566
0
LINE
8
BLACK
6
CONTINUOUS
10
1.0015771653543306
20
1.3228782283464566
11
0.9959529133858267
21
1.3256903937007873
0
LINE
8
BLACK
6
CONTINUOUS
10
0.9959529133858267
20
1.3256903937007873
11
0.9952415354330708
21
1.3263211811023621
0
LINE
8
BLACK
6
CONTINUOUS
10
0.9952415354330708
20
1.3263211811023621
11
0.9944181496062992
21
1.3267965748031496
0
LINE
8
BLACK
6
CONTINUOUS
10
0.9944181496062992
20
1.3267965748031496
11
0.9916059842519684
21
1.3296087007874016
0
LINE
8
BLACK
6
CONTINUOUS
10
0.9916059842519684
20
1.3296087007874016
11
0.9911305118110236
21
1.3304321653543307
0
LINE
8
BLACK
6
CONTINUOUS
10
0.9911305118110236
20
1.3304321653543307
11
0.9904997244094488
21
1.3311435433070866
0
LINE
8
BLACK
6
CONTINUOUS
10
0.9904997244094488
20
1.3311435433070866
11
0.9876875590551181
21
1.3367678346456693
0
LINE
8
BLACK
6
CONTINUOUS
10
0.9876875590551181
20
1.3367678346456693
11
0.987556811023622
21
1.3374065748031496
0
LINE
8
BLACK
6
CONTINUOUS
10
0.987556811023622
20
1.3374065748031496
11
0.9872404330708662
21
1.3379765748031496
0
LINE
8
BLACK
6
CONTINUOUS
10
0.9872404330708662
20
1.3379765748031496
11
0.9844283070866141
21
1.3492251968503937
0
LINE
8
BLACK
6
CONTINUOUS
10
0.9844283070866141
20
1.3492251968503937
11
0.9844405511811023
21
1.3499536220472441
0
LINE
8
BLACK
6
CONTINUOUS
10
0.9844405511811023
20
1.3499536220472441
11
0.984251968503937
21
1.3506574803149607
0
LINE
8
BLACK
6
CONTINUOUS
10
0.984251968503937
20
1.3506574803149607
11
0.984251968503937
21
1.364718188976378
0
LINE
8
BLACK
6
CONTINUOUS
10
0.984251968503937
20
1.364718188976378
11
0.9844405511811023
21
1.3654220078740158
0
LINE
8
BLACK
6
CONTINUOUS
10
0.9844405511811023
20
1.3654220078740158
11
0.9844283070866141
21
1.3661504724409448
0
LINE
8
BLACK
6
CONTINUOUS
10
0.9844283070866141
20
1.3661504724409448
11
0.9872404330708662
21
1.3773990944881889
0
LINE
8
BLACK
6
CONTINUOUS
10
0.9872404330708662
20
1.3773990944881889
11
0.987556811023622
21
1.3779690551181103
0
LINE
8
BLACK
6
CONTINUOUS
10
0.987556811023622
20
1.3779690551181103
11
0.9876875590551181
21
1.3786078346456692
0
LINE
8
BLACK
6
CONTINUOUS
10
0.9876875590551181
20
1.3786078346456692
11
0.9904997244094488
21
1.3842321259842518
0
LINE
8
BLACK
6
CONTINUOUS
10
0.9904997244094488
20
1.3842321259842518
11
0.9911305118110236
21
1.3849434645669292
0
LINE
8
BLACK
6
CONTINUOUS
10
0.9911305118110236
20
1.3849434645669292
11
0.9916059842519684
21
1.3857669685039369
0
LINE
8
BLACK
6
CONTINUOUS
10
0.9916059842519684
20
1.3857669685039369
11
0.9944181496062992
21
1.3885790944881888
0
LINE
8
BLACK
6
CONTINUOUS
10
0.9944181496062992
20
1.3885790944881888
11
0.9952415354330708
21
1.3890544488188976
0
LINE
8
BLACK
6
CONTINUOUS
10
0.9952415354330708
20
1.3890544488188976
11
0.9959529133858267
21
1.3896852755905511
0
LINE
8
BLACK
6
CONTINUOUS
10
0.9959529133858267
20
1.3896852755905511
11
1.0015771653543306
21
1.3924974409448818
0
LINE
8
BLACK
6
CONTINUOUS
10
1.0015771653543306
20
1.3924974409448818
11
1.0029071653543307
21
1.3927696062992125
0
LINE
8
BLACK
6
CONTINUOUS
10
1.0029071653543307
20
1.3927696062992125
11
1.0042182283464567
21
1.393120905511811
0
LINE
8
BLACK
6
CONTINUOUS
10
1.0042182283464567
20
1.393120905511811
11
1.0098425196850394
21
1.393120905511811
0
LINE
8
BLACK
6
CONTINUOUS
10
1.0098425196850394
20
1.393120905511811
11
1.0111535826771654
21
1.3927695669291338
0
LINE
8
BLACK
6
CONTINUOUS
10
1.0020920866141731
20
1.3795497244094488
11
1.0006352362204725
21
1.3780929133858268
0
LINE
8
BLACK
6
CONTINUOUS
10
1.0006352362204725
20
1.3780929133858268
11
0.9985414960629921
21
1.3739055118110235
0
LINE
8
BLACK
6
CONTINUOUS
10
0.9985414960629921
20
1.3739055118110235
11
0.9960629921259843
21
1.3639912598425197
0
LINE
8
BLACK
6
CONTINUOUS
10
0.9960629921259843
20
1.3639912598425197
11
0.9960629921259843
21
1.35138437007874
0
LINE
8
BLACK
6
CONTINUOUS
10
0.9960629921259843
20
1.35138437007874
11
0.9985414960629921
21
1.3414701181102362
0
LINE
8
BLACK
6
CONTINUOUS
10
0.9985414960629921
20
1.3414701181102362
11
1.0006352362204725
21
1.3372827165354331
0
LINE
8
BLACK
6
CONTINUOUS
10
1.0006352362204725
20
1.3372827165354331
11
1.0020920866141731
21
1.3358259055118109
0
LINE
8
BLACK
6
CONTINUOUS
10
1.0020920866141731
20
1.3358259055118109
11
1.0056123228346456
21
1.3340657874015747
0
LINE
8
BLACK
6
CONTINUOUS
10
1.0056123228346456
20
1.3340657874015747
11
1.0084484251968504
21
1.3340657874015747
0
LINE
8
BLACK
6
CONTINUOUS
10
1.0084484251968504
20
1.3340657874015747
11
1.0119686614173229
21
1.3358259055118109
0
LINE
8
BLACK
6
CONTINUOUS
10
1.0119686614173229
20
1.3358259055118109
11
1.0134255118110236
21
1.3372827559055118
0
LINE
8
BLACK
6
CONTINUOUS
10
1.0134255118110236
20
1.3372827559055118
11
1.0155191338582676
21
1.3414700787401574
0
LINE
8
BLACK
6
CONTINUOUS
10
1.0155191338582676
20
1.3414700787401574
11
1.0179977559055118
21
1.3513844094488188
0
LINE
8
BLACK
6
CONTINUOUS
10
1.0179977559055118
20
1.3513844094488188
11
1.0179977559055118
21
1.3639912204724409
0
LINE
8
BLACK
6
CONTINUOUS
10
1.0179977559055118
20
1.3639912204724409
11
1.0155191338582676
21
1.3739055511811022
0
LINE
8
BLACK
6
CONTINUOUS
10
1.0155191338582676
20
1.3739055511811022
11
1.0134255118110236
21
1.3780928740157481
0
LINE
8
BLACK
6
CONTINUOUS
10
1.0134255118110236
20
1.3780928740157481
11
1.0119686614173229
21
1.3795497244094488
0
LINE
8
BLACK
6
CONTINUOUS
10
1.0119686614173229
20
1.3795497244094488
11
1.0084484251968504
21
1.3813098818897638
0
LINE
8
BLACK
6
CONTINUOUS
10
1.0084484251968504
20
1.3813098818897638
11
1.0056123228346456
21
1.3813098818897638
0
LINE
8
BLACK
6
CONTINUOUS
10
1.0056123228346456
20
1.3813098818897638
11
1.0020920866141731
21
1.3795497244094488
0
LINE
8
BLACK
6
CONTINUOUS
10
1.0673965354330708
20
1.3927695669291338
11
1.0687264960629921
21
1.3924974409448818
0
LINE
8
BLACK
6
CONTINUOUS
10
1.0687264960629921
20
1.3924974409448818
11
1.0743507874015747
21
1.3896852755905511
0
LINE
8
BLACK
6
CONTINUOUS
10
1.0743507874015747
20
1.3896852755905511
11
1.0750621259842519
21
1.3890544488188976
0
LINE
8
BLACK
6
CONTINUOUS
10
1.0750621259842519
20
1.3890544488188976
11
1.0758855511811023
21
1.3885790944881888
0
LINE
8
BLACK
6
CONTINUOUS
10
1.0758855511811023
20
1.3885790944881888
11
1.078697716535433
21
1.3857669685039369
0
LINE
8
BLACK
6
CONTINUOUS
10
1.078697716535433
20
1.3857669685039369
11
1.0791731102362205
21
1.3849435039370079
0
LINE
8
BLACK
6
CONTINUOUS
10
1.0791731102362205
20
1.3849435039370079
11
1.0798039763779528
21
1.3842321259842518
0
LINE
8
BLACK
6
CONTINUOUS
10
1.0798039763779528
20
1.3842321259842518
11
1.0826161023622047
21
1.3786077952755906
0
LINE
8
BLACK
6
CONTINUOUS
10
1.0826161023622047
20
1.3786077952755906
11
1.0827467716535433
21
1.3779690551181103
0
LINE
8
BLACK
6
CONTINUOUS
10
1.0827467716535433
20
1.3779690551181103
11
1.0830632283464567
21
1.3773990944881889
0
LINE
8
BLACK
6
CONTINUOUS
10
1.0830632283464567
20
1.3773990944881889
11
1.0858753937007875
21
1.3661505118110235
0
LINE
8
BLACK
6
CONTINUOUS
10
1.0858753937007875
20
1.3661505118110235
11
1.0858631102362204
21
1.365421968503937
0
LINE
8
BLACK
6
CONTINUOUS
10
1.0858631102362204
20
1.365421968503937
11
1.0860517322834646
21
1.364718188976378
0
LINE
8
BLACK
6
CONTINUOUS
10
1.0860517322834646
20
1.364718188976378
11
1.0860517322834646
21
1.3506574803149607
0
LINE
8
BLACK
6
CONTINUOUS
10
1.0860517322834646
20
1.3506574803149607
11
1.0858631102362204
21
1.3499536614173229
0
LINE
8
BLACK
6
CONTINUOUS
10
1.0858631102362204
20
1.3499536614173229
11
1.0858753937007875
21
1.3492251574803149
0
LINE
8
BLACK
6
CONTINUOUS
10
1.0858753937007875
20
1.3492251574803149
11
1.0830632283464567
21
1.3379765748031496
0
LINE
8
BLACK
6
CONTINUOUS
10
1.0830632283464567
20
1.3379765748031496
11
1.0827467716535433
21
1.3374065748031496
0
LINE
8
BLACK
6
CONTINUOUS
10
1.0827467716535433
20
1.3374065748031496
11
1.0826161023622047
21
1.336767874015748
0
LINE
8
BLACK
6
CONTINUOUS
10
1.0826161023622047
20
1.336767874015748
11
1.0798039763779528
21
1.3311435433070866
0
LINE
8
BLACK
6
CONTINUOUS
10
1.0798039763779528
20
1.3311435433070866
11
1.0791731102362205
21
1.330432125984252
0
LINE
8
BLACK
6
CONTINUOUS
10
1.0791731102362205
20
1.330432125984252
11
1.078697716535433
21
1.3296087007874016
0
LINE
8
BLACK
6
CONTINUOUS
10
1.078697716535433
20
1.3296087007874016
11
1.0758855511811023
21
1.3267965748031496
0
LINE
8
BLACK
6
CONTINUOUS
10
1.0758855511811023
20
1.3267965748031496
11
1.0750621259842519
21
1.3263211811023621
0
LINE
8
BLACK
6
CONTINUOUS
10
1.0750621259842519
20
1.3263211811023621
11
1.0743507874015747
21
1.3256903937007873
0
LINE
8
BLACK
6
CONTINUOUS
10
1.0743507874015747
20
1.3256903937007873
11
1.0687264960629921
21
1.3228782283464566
0
LINE
8
BLACK
6
CONTINUOUS
10
1.0687264960629921
20
1.3228782283464566
11
1.0673965354330708
21
1.3226060629921259
0
LINE
8
BLACK
6
CONTINUOUS
10
1.0673965354330708
20
1.3226060629921259
11
1.0660854724409448
21
1.3222547637795274
0
LINE
8
BLACK
6
CONTINUOUS
10
1.0660854724409448
20
1.3222547637795274
11
1.0604611811023621
21
1.3222547637795274
0
LINE
8
BLACK
6
CONTINUOUS
10
1.0604611811023621
20
1.3222547637795274
11
1.0591501181102363
21
1.3226060236220472
0
LINE
8
BLACK
6
CONTINUOUS
10
1.0591501181102363
20
1.3226060236220472
11
1.0578201181102362
21
1.3228782283464566
0
LINE
8
BLACK
6
CONTINUOUS
10
1.0578201181102362
20
1.3228782283464566
11
1.0521958661417323
21
1.3256903937007873
0
LINE
8
BLACK
6
CONTINUOUS
10
1.0521958661417323
20
1.3256903937007873
11
1.0514844881889764
21
1.3263211811023621
0
LINE
8
BLACK
6
CONTINUOUS
10
1.0514844881889764
20
1.3263211811023621
11
1.0506611023622048
21
1.3267965748031496
0
LINE
8
BLACK
6
CONTINUOUS
10
1.0506611023622048
20
1.3267965748031496
11
1.0478489370078741
21
1.3296087007874016
0
LINE
8
BLACK
6
CONTINUOUS
10
1.0478489370078741
20
1.3296087007874016
11
1.047373464566929
21
1.3304321653543307
0
LINE
8
BLACK
6
CONTINUOUS
10
1.047373464566929
20
1.3304321653543307
11
1.0467426771653543
21
1.3311435433070866
0
LINE
8
BLACK
6
CONTINUOUS
10
1.0467426771653543
20
1.3311435433070866
11
1.0439305118110236
21
1.3367678346456693
0
LINE
8
BLACK
6
CONTINUOUS
10
1.0439305118110236
20
1.3367678346456693
11
1.0437997637795275
21
1.3374065748031496
0
LINE
8
BLACK
6
CONTINUOUS
10
1.0437997637795275
20
1.3374065748031496
11
1.0434833858267716
21
1.3379765748031496
0
LINE
8
BLACK
6
CONTINUOUS
10
1.0434833858267716
20
1.3379765748031496
11
1.0406712598425196
21
1.3492251968503937
0
LINE
8
BLACK
6
CONTINUOUS
10
1.0406712598425196
20
1.3492251968503937
11
1.0406835039370079
21
1.3499536220472441
0
LINE
8
BLACK
6
CONTINUOUS
10
1.0406835039370079
20
1.3499536220472441
11
1.0404949212598424
21
1.3506574803149607
0
LINE
8
BLACK
6
CONTINUOUS
10
1.0404949212598424
20
1.3506574803149607
11
1.0404949212598424
21
1.364718188976378
0
LINE
8
BLACK
6
CONTINUOUS
10
1.0404949212598424
20
1.364718188976378
11
1.0406835039370079
21
1.3654220078740158
0
LINE
8
BLACK
6
CONTINUOUS
10
1.0406835039370079
20
1.3654220078740158
11
1.0406712598425196
21
1.3661504724409448
0
LINE
8
BLACK
6
CONTINUOUS
10
1.0406712598425196
20
1.3661504724409448
11
1.0434833858267716
21
1.3773990944881889
0
LINE
8
BLACK
6
CONTINUOUS
10
1.0434833858267716
20
1.3773990944881889
11
1.0437997637795275
21
1.3779690551181103
0
LINE
8
BLACK
6
CONTINUOUS
10
1.0437997637795275
20
1.3779690551181103
11
1.0439305118110236
21
1.3786078346456692
0
LINE
8
BLACK
6
CONTINUOUS
10
1.0439305118110236
20
1.3786078346456692
11
1.0467426771653543
21
1.3842321259842518
0
LINE
8
BLACK
6
CONTINUOUS
10
1.0467426771653543
20
1.3842321259842518
11
1.047373464566929
21
1.3849434645669292
0
LINE
8
BLACK
6
CONTINUOUS
10
1.047373464566929
20
1.3849434645669292
11
1.0478489370078741
21
1.3857669685039369
0
LINE
8
BLACK
6
CONTINUOUS
10
1.0478489370078741
20
1.3857669685039369
11
1.0506611023622048
21
1.3885790944881888
0
LINE
8
BLACK
6
CONTINUOUS
10
1.0506611023622048
20
1.3885790944881888
11
1.0514844881889764
21
1.3890544488188976
0
LINE
8
BLACK
6
CONTINUOUS
10
1.0514844881889764
20
1.3890544488188976
11
1.0521958661417323
21
1.3896852755905511
0
LINE
8
BLACK
6
CONTINUOUS
10
1.0521958661417323
20
1.3896852755905511
11
1.0578201181102362
21
1.3924974409448818
0
LINE
8
BLACK
6
CONTINUOUS
10
1.0578201181102362
20
1.3924974409448818
11
1.0591501181102363
21
1.3927696062992125
0
LINE
8
BLACK
6
CONTINUOUS
10
1.0591501181102363
20
1.3927696062992125
11
1.0604611811023621
21
1.393120905511811
0
LINE
8
BLACK
6
CONTINUOUS
10
1.0604611811023621
20
1.393120905511811
11
1.0660854724409448
21
1.393120905511811
0
LINE
8
BLACK
6
CONTINUOUS
10
1.0660854724409448
20
1.393120905511811
11
1.0673965354330708
21
1.3927695669291338
0
LINE
8
BLACK
6
CONTINUOUS
10
1.0583350393700788
20
1.3795497244094488
11
1.0568781889763779
21
1.3780929133858268
0
LINE
8
BLACK
6
CONTINUOUS
10
1.0568781889763779
20
1.3780929133858268
11
1.0547844488188975
21
1.3739055118110235
0
LINE
8
BLACK
6
CONTINUOUS
10
1.0547844488188975
20
1.3739055118110235
11
1.0523059448818897
21
1.3639912598425197
0
LINE
8
BLACK
6
CONTINUOUS
10
1.0523059448818897
20
1.3639912598425197
11
1.0523059448818897
21
1.35138437007874
0
LINE
8
BLACK
6
CONTINUOUS
10
1.0523059448818897
20
1.35138437007874
11
1.0547844488188975
21
1.3414701181102362
0
LINE
8
BLACK
6
CONTINUOUS
10
1.0547844488188975
20
1.3414701181102362
11
1.0568781889763779
21
1.3372827165354331
0
LINE
8
BLACK
6
CONTINUOUS
10
1.0568781889763779
20
1.3372827165354331
11
1.0583350393700788
21
1.3358259055118109
0
LINE
8
BLACK
6
CONTINUOUS
10
1.0583350393700788
20
1.3358259055118109
11
1.0618552755905513
21
1.3340657874015747
0
LINE
8
BLACK
6
CONTINUOUS
10
1.0618552755905513
20
1.3340657874015747
11
1.0646913779527558
21
1.3340657874015747
0
LINE
8
BLACK
6
CONTINUOUS
10
1.0646913779527558
20
1.3340657874015747
11
1.0682116141732283
21
1.3358259055118109
0
LINE
8
BLACK
6
CONTINUOUS
10
1.0682116141732283
20
1.3358259055118109
11
1.0696684645669292
21
1.3372827559055118
0
LINE
8
BLACK
6
CONTINUOUS
10
1.0696684645669292
20
1.3372827559055118
11
1.0717620866141733
21
1.3414700787401574
0
LINE
8
BLACK
6
CONTINUOUS
10
1.0717620866141733
20
1.3414700787401574
11
1.0742407086614172
21
1.3513844094488188
0
LINE
8
BLACK
6
CONTINUOUS
10
1.0742407086614172
20
1.3513844094488188
11
1.0742407086614172
21
1.3639912204724409
0
LINE
8
BLACK
6
CONTINUOUS
10
1.0742407086614172
20
1.3639912204724409
11
1.0717620866141733
21
1.3739055511811022
0
LINE
8
BLACK
6
CONTINUOUS
10
1.0717620866141733
20
1.3739055511811022
11
1.0696684645669292
21
1.3780928740157481
0
LINE
8
BLACK
6
CONTINUOUS
10
1.0696684645669292
20
1.3780928740157481
11
1.0682116141732283
21
1.3795497244094488
0
LINE
8
BLACK
6
CONTINUOUS
10
1.0682116141732283
20
1.3795497244094488
11
1.0646913779527558
21
1.3813098818897638
0
LINE
8
BLACK
6
CONTINUOUS
10
1.0646913779527558
20
1.3813098818897638
11
1.0618552755905513
21
1.3813098818897638
0
LINE
8
BLACK
6
CONTINUOUS
10
1.0618552755905513
20
1.3813098818897638
11
1.0583350393700788
21
1.3795497244094488
0
LINE
8
BLACK
6
CONTINUOUS
10
1.1534026377952755
20
1.3726446850393701
11
1.1555642125984251
21
1.3704831102362205
0
LINE
8
BLACK
6
CONTINUOUS
10
1.1555642125984251
20
1.3704831102362205
11
1.1563553937007873
21
1.3675303543307087
0
LINE
8
BLACK
6
CONTINUOUS
10
1.1563553937007873
20
1.3675303543307087
11
1.1563553937007873
21
1.3281602755905511
0
LINE
8
BLACK
6
CONTINUOUS
10
1.1563553937007873
20
1.3281602755905511
11
1.1555642125984251
21
1.3252075196850392
0
LINE
8
BLACK
6
CONTINUOUS
10
1.1555642125984251
20
1.3252075196850392
11
1.1534026377952755
21
1.3230459448818896
0
LINE
8
BLACK
6
CONTINUOUS
10
1.1534026377952755
20
1.3230459448818896
11
1.1504498818897637
21
1.3222547637795274
0
LINE
8
BLACK
6
CONTINUOUS
10
1.1504498818897637
20
1.3222547637795274
11
1.1474971259842519
21
1.3230459448818896
0
LINE
8
BLACK
6
CONTINUOUS
10
1.1474971259842519
20
1.3230459448818896
11
1.1453355511811023
21
1.3252075196850392
0
LINE
8
BLACK
6
CONTINUOUS
10
1.1453355511811023
20
1.3252075196850392
11
1.1445443700787401
21
1.3281602755905511
0
LINE
8
BLACK
6
CONTINUOUS
10
1.1445443700787401
20
1.3281602755905511
11
1.1445443700787401
21
1.3675303543307087
0
LINE
8
BLACK
6
CONTINUOUS
10
1.1445443700787401
20
1.3675303543307087
11
1.1453355511811023
21
1.3704831102362205
0
LINE
8
BLACK
6
CONTINUOUS
10
1.1453355511811023
20
1.3704831102362205
11
1.1474971259842519
21
1.3726446850393701
0
LINE
8
BLACK
6
CONTINUOUS
10
1.1474971259842519
20
1.3726446850393701
11
1.1504498818897637
21
1.3734358661417323
0
LINE
8
BLACK
6
CONTINUOUS
10
1.1504498818897637
20
1.3734358661417323
11
1.1534026377952755
21
1.3726446850393701
0
LINE
8
BLACK
6
CONTINUOUS
10
1.1967553543307086
20
1.3730845275590551
11
1.1980853149606299
21
1.3728124015748031
0
LINE
8
BLACK
6
CONTINUOUS
10
1.1980853149606299
20
1.3728124015748031
11
1.2037096062992125
21
1.3700002362204724
0
LINE
8
BLACK
6
CONTINUOUS
10
1.2037096062992125
20
1.3700002362204724
11
1.2039798031496063
21
1.3697605905511812
0
LINE
8
BLACK
6
CONTINUOUS
10
1.2039798031496063
20
1.3697605905511812
11
1.2043224409448818
21
1.3696464173228347
0
LINE
8
BLACK
6
CONTINUOUS
10
1.2043224409448818
20
1.3696464173228347
11
1.2051093700787401
21
1.3687589763779526
0
LINE
8
BLACK
6
CONTINUOUS
10
1.2051093700787401
20
1.3687589763779526
11
1.2059968110236221
21
1.3679720472440944
0
LINE
8
BLACK
6
CONTINUOUS
10
1.2059968110236221
20
1.3679720472440944
11
1.2061109842519684
21
1.3676294094488188
0
LINE
8
BLACK
6
CONTINUOUS
10
1.2061109842519684
20
1.3676294094488188
11
1.2063506299212599
21
1.3673592125984251
0
LINE
8
BLACK
6
CONTINUOUS
10
1.2063506299212599
20
1.3673592125984251
11
1.2091627952755906
21
1.3617349606299212
0
LINE
8
BLACK
6
CONTINUOUS
10
1.2091627952755906
20
1.3617349606299212
11
1.2094349606299213
21
1.3604049212598426
0
LINE
8
BLACK
6
CONTINUOUS
10
1.2094349606299213
20
1.3604049212598426
11
1.2097862598425198
21
1.3590938976377953
0
LINE
8
BLACK
6
CONTINUOUS
10
1.2097862598425198
20
1.3590938976377953
11
1.2097862598425198
21
1.3281602755905511
0
LINE
8
BLACK
6
CONTINUOUS
10
1.2097862598425198
20
1.3281602755905511
11
1.2089950787401575
21
1.3252075196850392
0
LINE
8
BLACK
6
CONTINUOUS
10
1.2089950787401575
20
1.3252075196850392
11
1.2068335039370079
21
1.3230459448818896
0
LINE
8
BLACK
6
CONTINUOUS
10
1.2068335039370079
20
1.3230459448818896
11
1.2038807480314961
21
1.3222547637795274
0
LINE
8
BLACK
6
CONTINUOUS
10
1.2038807480314961
20
1.3222547637795274
11
1.2009279921259843
21
1.3230459448818896
0
LINE
8
BLACK
6
CONTINUOUS
10
1.2009279921259843
20
1.3230459448818896
11
1.1987664173228345
21
1.3252075196850392
0
LINE
8
BLACK
6
CONTINUOUS
10
1.1987664173228345
20
1.3252075196850392
11
1.1979752362204723
21
1.3281602755905511
0
LINE
8
BLACK
6
CONTINUOUS
10
1.1979752362204723
20
1.3281602755905511
11
1.1979752362204723
21
1.3576997637795276
0
LINE
8
BLACK
6
CONTINUOUS
10
1.1979752362204723
20
1.3576997637795276
11
1.1966668897637796
21
1.3603164566929133
0
LINE
8
BLACK
6
CONTINUOUS
10
1.1966668897637796
20
1.3603164566929133
11
1.1940501968503936
21
1.3616248425196851
0
LINE
8
BLACK
6
CONTINUOUS
10
1.1940501968503936
20
1.3616248425196851
11
1.1884019291338583
21
1.3616248425196851
0
LINE
8
BLACK
6
CONTINUOUS
10
1.1884019291338583
20
1.3616248425196851
11
1.1848816929133859
21
1.3598646850393701
0
LINE
8
BLACK
6
CONTINUOUS
10
1.1848816929133859
20
1.3598646850393701
11
1.1844768897637794
21
1.3594598818897639
0
LINE
8
BLACK
6
CONTINUOUS
10
1.1844768897637794
20
1.3594598818897639
11
1.1844768897637794
21
1.3281602755905511
0
LINE
8
BLACK
6
CONTINUOUS
10
1.1844768897637794
20
1.3281602755905511
11
1.1836857086614172
21
1.3252075196850392
0
LINE
8
BLACK
6
CONTINUOUS
10
1.1836857086614172
20
1.3252075196850392
11
1.1815241338582676
21
1.3230459448818896
0
LINE
8
BLACK
6
CONTINUOUS
10
1.1815241338582676
20
1.3230459448818896
11
1.1785713779527558
21
1.3222547637795274
0
LINE
8
BLACK
6
CONTINUOUS
10
1.1785713779527558
20
1.3222547637795274
11
1.175618622047244
21
1.3230459448818896
0
LINE
8
BLACK
6
CONTINUOUS
10
1.175618622047244
20
1.3230459448818896
11
1.1734570472440944
21
1.3252075196850392
0
LINE
8
BLACK
6
CONTINUOUS
10
1.1734570472440944
20
1.3252075196850392
11
1.1726658661417322
21
1.3281602755905511
0
LINE
8
BLACK
6
CONTINUOUS
10
1.1726658661417322
20
1.3281602755905511
11
1.1726658661417322
21
1.3675303543307087
0
LINE
8
BLACK
6
CONTINUOUS
10
1.1726658661417322
20
1.3675303543307087
11
1.1734570472440944
21
1.3704831102362205
0
LINE
8
BLACK
6
CONTINUOUS
10
1.1734570472440944
20
1.3704831102362205
11
1.175618622047244
21
1.3726446850393701
0
LINE
8
BLACK
6
CONTINUOUS
10
1.175618622047244
20
1.3726446850393701
11
1.1785713779527558
21
1.3734358661417323
0
LINE
8
BLACK
6
CONTINUOUS
10
1.1785713779527558
20
1.3734358661417323
11
1.1815241338582676
21
1.3726446850393701
0
LINE
8
BLACK
6
CONTINUOUS
10
1.1815241338582676
20
1.3726446850393701
11
1.1823598425196851
21
1.3718089370078739
0
LINE
8
BLACK
6
CONTINUOUS
10
1.1823598425196851
20
1.3718089370078739
11
1.1843667716535433
21
1.3728124015748031
0
LINE
8
BLACK
6
CONTINUOUS
10
1.1843667716535433
20
1.3728124015748031
11
1.1856967716535434
21
1.3730845669291338
0
LINE
8
BLACK
6
CONTINUOUS
10
1.1856967716535434
20
1.3730845669291338
11
1.1870078346456692
21
1.3734358661417323
0
LINE
8
BLACK
6
CONTINUOUS
10
1.1870078346456692
20
1.3734358661417323
11
1.1954442913385825
21
1.3734358661417323
0
LINE
8
BLACK
6
CONTINUOUS
10
1.1954442913385825
20
1.3734358661417323
11
1.1967553543307086
21
1.3730845275590551
0
LINE
8
BLACK
6
CONTINUOUS
10
1.1512008661417323
20
1.3929196850393701
11
1.1519783070866141
21
1.3929196850393701
0
LINE
8
BLACK
6
CONTINUOUS
10
1.1519783070866141
20
1.3929196850393701
11
1.1519783464566928
21
1.3929196850393701
0
LINE
8
BLACK
6
CONTINUOUS
10
1.1519783464566928
20
1.3929196850393701
11
1.1526516535433071
21
1.3925309448818897
0
LINE
8
BLACK
6
CONTINUOUS
10
1.1526516535433071
20
1.3925309448818897
11
1.1534026377952755
21
1.3923297244094488
0
LINE
8
BLACK
6
CONTINUOUS
10
1.1534026377952755
20
1.3923297244094488
11
1.1539523622047243
21
1.3917799606299213
0
LINE
8
BLACK
6
CONTINUOUS
10
1.1539523622047243
20
1.3917799606299213
11
1.1546256692913386
21
1.3913912598425195
0
LINE
8
BLACK
6
CONTINUOUS
10
1.1546256692913386
20
1.3913912598425195
11
1.1546256692913386
21
1.391391220472441
0
LINE
8
BLACK
6
CONTINUOUS
10
1.1546256692913386
20
1.391391220472441
11
1.1546257086614173
21
1.391391220472441
0
LINE
8
BLACK
6
CONTINUOUS
10
1.1546257086614173
20
1.391391220472441
11
1.157437874015748
21
1.3885790551181103
0
LINE
8
BLACK
6
CONTINUOUS
10
1.157437874015748
20
1.3885790551181103
11
1.157437874015748
21
1.3885790157480316
0
LINE
8
BLACK
6
CONTINUOUS
10
1.157437874015748
20
1.3885790157480316
11
1.1574379133858268
21
1.3885790157480316
0
LINE
8
BLACK
6
CONTINUOUS
10
1.1574379133858268
20
1.3885790157480316
11
1.1580689370078741
21
1.3874860236220472
0
LINE
8
BLACK
6
CONTINUOUS
10
1.1580689370078741
20
1.3874860236220472
11
1.1589663385826772
21
1.3859316929133858
0
LINE
8
BLACK
6
CONTINUOUS
10
1.1589663385826772
20
1.3859316929133858
11
1.1589663385826772
21
1.3859316535433071
0
LINE
8
BLACK
6
CONTINUOUS
10
1.1589663385826772
20
1.3859316535433071
11
1.1589663385826772
21
1.3828747244094488
0
LINE
8
BLACK
6
CONTINUOUS
10
1.1589663385826772
20
1.3828747244094488
11
1.1582251968503936
21
1.3815911023622047
0
LINE
8
BLACK
6
CONTINUOUS
10
1.1582251968503936
20
1.3815911023622047
11
1.1574379133858268
21
1.3802274409448818
0
LINE
8
BLACK
6
CONTINUOUS
10
1.1574379133858268
20
1.3802274409448818
11
1.1574378346456693
21
1.3802273622047243
0
LINE
8
BLACK
6
CONTINUOUS
10
1.1574378346456693
20
1.3802273622047243
11
1.1546256692913386
21
1.3774152362204723
0
LINE
8
BLACK
6
CONTINUOUS
10
1.1546256692913386
20
1.3774152362204723
11
1.1543402755905512
21
1.3772504724409449
0
LINE
8
BLACK
6
CONTINUOUS
10
1.1543402755905512
20
1.3772504724409449
11
1.1539524015748031
21
1.3770265354330709
0
LINE
8
BLACK
6
CONTINUOUS
10
1.1539524015748031
20
1.3770265354330709
11
1.1534026377952755
21
1.3764767716535433
0
LINE
8
BLACK
6
CONTINUOUS
10
1.1534026377952755
20
1.3764767716535433
11
1.1526516535433071
21
1.3762755118110237
0
LINE
8
BLACK
6
CONTINUOUS
10
1.1526516535433071
20
1.3762755118110237
11
1.1519783464566928
21
1.375886811023622
0
LINE
8
BLACK
6
CONTINUOUS
10
1.1519783464566928
20
1.375886811023622
11
1.1512008661417323
21
1.375886811023622
0
LINE
8
BLACK
6
CONTINUOUS
10
1.1512008661417323
20
1.375886811023622
11
1.1504498818897637
21
1.3756855905511811
0
LINE
8
BLACK
6
CONTINUOUS
10
1.1504498818897637
20
1.3756855905511811
11
1.1496988976377953
21
1.375886811023622
0
LINE
8
BLACK
6
CONTINUOUS
10
1.1496988976377953
20
1.375886811023622
11
1.1489214173228346
21
1.375886811023622
0
LINE
8
BLACK
6
CONTINUOUS
10
1.1489214173228346
20
1.375886811023622
11
1.1489213779527558
21
1.375886811023622
0
LINE
8
BLACK
6
CONTINUOUS
10
1.1489213779527558
20
1.375886811023622
11
1.148248031496063
21
1.3762755511811022
0
LINE
8
BLACK
6
CONTINUOUS
10
1.148248031496063
20
1.3762755511811022
11
1.1474971259842519
21
1.3764767716535433
0
LINE
8
BLACK
6
CONTINUOUS
10
1.1474971259842519
20
1.3764767716535433
11
1.1469473228346456
21
1.3770265354330709
0
LINE
8
BLACK
6
CONTINUOUS
10
1.1469473228346456
20
1.3770265354330709
11
1.1462740551181103
21
1.3774152755905511
0
LINE
8
BLACK
6
CONTINUOUS
10
1.1462740551181103
20
1.3774152755905511
11
1.1434619291338581
21
1.3802274015748031
0
LINE
8
BLACK
6
CONTINUOUS
10
1.1434619291338581
20
1.3802274015748031
11
1.1426746062992126
21
1.3815911023622047
0
LINE
8
BLACK
6
CONTINUOUS
10
1.1426746062992126
20
1.3815911023622047
11
1.141933464566929
21
1.3828747244094488
0
LINE
8
BLACK
6
CONTINUOUS
10
1.141933464566929
20
1.3828747244094488
11
1.141933464566929
21
1.3859316535433071
0
LINE
8
BLACK
6
CONTINUOUS
10
1.141933464566929
20
1.3859316535433071
11
1.141933464566929
21
1.3859316929133858
0
LINE
8
BLACK
6
CONTINUOUS
10
1.141933464566929
20
1.3859316929133858
11
1.1428308661417323
21
1.3874860236220472
0
LINE
8
BLACK
6
CONTINUOUS
10
1.1428308661417323
20
1.3874860236220472
11
1.1434618897637796
21
1.3885790157480316
0
LINE
8
BLACK
6
CONTINUOUS
10
1.1434618897637796
20
1.3885790157480316
11
1.1462740157480316
21
1.3913911811023623
0
LINE
8
BLACK
6
CONTINUOUS
10
1.1462740157480316
20
1.3913911811023623
11
1.1462740551181103
21
1.391391220472441
0
LINE
8
BLACK
6
CONTINUOUS
10
1.1462740551181103
20
1.391391220472441
11
1.1469473228346456
21
1.3917799212598425
0
LINE
8
BLACK
6
CONTINUOUS
10
1.1469473228346456
20
1.3917799212598425
11
1.1474971259842519
21
1.3923297244094488
0
LINE
8
BLACK
6
CONTINUOUS
10
1.1474971259842519
20
1.3923297244094488
11
1.148248031496063
21
1.3925309055118109
0
LINE
8
BLACK
6
CONTINUOUS
10
1.148248031496063
20
1.3925309055118109
11
1.1489213779527558
21
1.3929196850393701
0
LINE
8
BLACK
6
CONTINUOUS
10
1.1489213779527558
20
1.3929196850393701
11
1.1496988976377953
21
1.3929196850393701
0
LINE
8
BLACK
6
CONTINUOUS
10
1.1496988976377953
20
1.3929196850393701
11
1.1504498818897637
21
1.393120905511811
0
LINE
8
BLACK
6
CONTINUOUS
10
1.1504498818897637
20
1.393120905511811
11
1.1512008661417323
21
1.3929196850393701
  0
ENDSEC
  0
EOF
