%TF.GenerationSoftware,KiCad,Pcbnew,7.0.11+1*%
%TF.CreationDate,2024-07-06T18:43:39+00:00*%
%TF.ProjectId,RJ12V01,524a3132-5630-4312-9e6b-696361645f70,REV*%
%TF.SameCoordinates,Original*%
%TF.FileFunction,Soldermask,Top*%
%TF.FilePolarity,Negative*%
%FSLAX46Y46*%
G04 Gerber Fmt 4.6, Leading zero omitted, Abs format (unit mm)*
G04 Created by KiCad (PCBNEW 7.0.11+1) date 2024-07-06 18:43:39*
%MOMM*%
%LPD*%
G01*
G04 APERTURE LIST*
G04 APERTURE END LIST*
G36*
X5166184Y8275160D02*
G01*
X5253234Y8275160D01*
X5346177Y8265051D01*
X5438286Y8259879D01*
X5517513Y8246417D01*
X5597680Y8237699D01*
X5695312Y8216208D01*
X5792067Y8199769D01*
X5863535Y8179179D01*
X5936053Y8163217D01*
X6036973Y8129213D01*
X6136893Y8100427D01*
X6200048Y8074267D01*
X6264384Y8052590D01*
X6367038Y8005097D01*
X6468428Y7963100D01*
X6522969Y7932955D01*
X6578837Y7907109D01*
X6681484Y7845348D01*
X6782503Y7789517D01*
X6828398Y7756952D01*
X6875720Y7728480D01*
X6976503Y7651866D01*
X7075167Y7581861D01*
X7112602Y7548407D01*
X7151539Y7518808D01*
X7248498Y7426962D01*
X7342742Y7342742D01*
X7372153Y7309830D01*
X7403075Y7280540D01*
X7494181Y7173281D01*
X7581861Y7075167D01*
X7603884Y7044127D01*
X7627383Y7016463D01*
X7710624Y6893691D01*
X7789517Y6782503D01*
X7804968Y6754544D01*
X7821819Y6729693D01*
X7895172Y6591334D01*
X7963100Y6468428D01*
X7972984Y6444563D01*
X7984104Y6423591D01*
X8045517Y6269456D01*
X8100427Y6136893D01*
X8105887Y6117939D01*
X8112353Y6101712D01*
X8159945Y5930299D01*
X8199769Y5792067D01*
X8202046Y5778664D01*
X8205041Y5767878D01*
X8236964Y5573153D01*
X8259879Y5438286D01*
X8260298Y5430818D01*
X8261095Y5425959D01*
X8275741Y5155822D01*
X8280000Y5080000D01*
X8275742Y5004184D01*
X8261095Y4734040D01*
X8260298Y4729180D01*
X8259879Y4721714D01*
X8236968Y4586874D01*
X8205041Y4392121D01*
X8202045Y4381333D01*
X8199769Y4367933D01*
X8159952Y4229726D01*
X8112353Y4058287D01*
X8105886Y4042057D01*
X8100427Y4023107D01*
X8045527Y3890569D01*
X7984104Y3736408D01*
X7972983Y3715431D01*
X7963100Y3691572D01*
X7895185Y3568689D01*
X7821819Y3430306D01*
X7804965Y3405449D01*
X7789517Y3377497D01*
X7710639Y3266329D01*
X7627383Y3143536D01*
X7603880Y3115866D01*
X7581861Y3084833D01*
X7494198Y2986738D01*
X7403075Y2879459D01*
X7372147Y2850162D01*
X7342742Y2817258D01*
X7248517Y2733053D01*
X7151539Y2641191D01*
X7112594Y2611586D01*
X7075167Y2578139D01*
X6976523Y2508147D01*
X6875720Y2431519D01*
X6828388Y2403040D01*
X6782503Y2370483D01*
X6681504Y2314663D01*
X6578837Y2252890D01*
X6522958Y2227037D01*
X6468428Y2196900D01*
X6367059Y2154911D01*
X6264384Y2107409D01*
X6200035Y2085727D01*
X6136893Y2059573D01*
X6036993Y2030792D01*
X5936053Y1996782D01*
X5863520Y1980816D01*
X5792067Y1960231D01*
X5695332Y1943795D01*
X5597680Y1922300D01*
X5517500Y1913580D01*
X5438286Y1900121D01*
X5346182Y1894948D01*
X5253234Y1884840D01*
X5166184Y1884840D01*
X5080000Y1880000D01*
X4993816Y1884840D01*
X4906766Y1884840D01*
X4813816Y1894948D01*
X4721714Y1900121D01*
X4642500Y1913579D01*
X4562319Y1922300D01*
X4464662Y1943795D01*
X4367933Y1960231D01*
X4296482Y1980815D01*
X4223946Y1996782D01*
X4122999Y2030794D01*
X4023107Y2059573D01*
X3959969Y2085725D01*
X3895615Y2107409D01*
X3792931Y2154915D01*
X3691572Y2196900D01*
X3637046Y2227035D01*
X3581162Y2252890D01*
X3478483Y2314670D01*
X3377497Y2370483D01*
X3331616Y2403036D01*
X3284279Y2431519D01*
X3183461Y2508158D01*
X3084833Y2578139D01*
X3047411Y2611581D01*
X3008460Y2641191D01*
X2911465Y2733069D01*
X2817258Y2817258D01*
X2787857Y2850156D01*
X2756924Y2879459D01*
X2665781Y2986760D01*
X2578139Y3084833D01*
X2556124Y3115859D01*
X2532616Y3143536D01*
X2449337Y3266361D01*
X2370483Y3377497D01*
X2355038Y3405441D01*
X2338180Y3430306D01*
X2264790Y3568733D01*
X2196900Y3691572D01*
X2187020Y3715423D01*
X2175895Y3736408D01*
X2114445Y3890632D01*
X2059573Y4023107D01*
X2054116Y4042048D01*
X2047646Y4058287D01*
X2000019Y4229822D01*
X1960231Y4367933D01*
X1957955Y4381323D01*
X1954958Y4392121D01*
X1923002Y4587041D01*
X1900121Y4721714D01*
X1899702Y4729170D01*
X1898904Y4734040D01*
X1884228Y5004699D01*
X1880000Y5080000D01*
X1884229Y5155306D01*
X1898904Y5425959D01*
X1899702Y5430827D01*
X1900121Y5438286D01*
X1923007Y5572985D01*
X1954958Y5767878D01*
X1957955Y5778673D01*
X1960231Y5792067D01*
X2000027Y5930204D01*
X2047646Y6101712D01*
X2054115Y6117948D01*
X2059573Y6136893D01*
X2114456Y6269392D01*
X2175895Y6423591D01*
X2187018Y6444572D01*
X2196900Y6468428D01*
X2264803Y6591289D01*
X2338180Y6729693D01*
X2355035Y6754552D01*
X2370483Y6782503D01*
X2449352Y6893659D01*
X2532616Y7016463D01*
X2556120Y7044134D01*
X2578139Y7075167D01*
X2665798Y7173258D01*
X2756924Y7280540D01*
X2787852Y7309836D01*
X2817258Y7342742D01*
X2911483Y7426947D01*
X3008460Y7518808D01*
X3047403Y7548412D01*
X3084833Y7581861D01*
X3183481Y7651855D01*
X3284279Y7728480D01*
X3331607Y7756956D01*
X3377497Y7789517D01*
X3478503Y7845341D01*
X3581162Y7907109D01*
X3637035Y7932958D01*
X3691572Y7963100D01*
X3792952Y8005093D01*
X3895615Y8052590D01*
X3959956Y8074269D01*
X4023107Y8100427D01*
X4123019Y8129211D01*
X4223946Y8163217D01*
X4296467Y8179180D01*
X4367933Y8199769D01*
X4464682Y8216207D01*
X4562319Y8237699D01*
X4642488Y8246417D01*
X4721714Y8259879D01*
X4813822Y8265051D01*
X4906766Y8275160D01*
X4993816Y8275160D01*
X5080000Y8280000D01*
X5166184Y8275160D01*
G37*
G36*
X45806184Y8275160D02*
G01*
X45893234Y8275160D01*
X45986177Y8265051D01*
X46078286Y8259879D01*
X46157513Y8246417D01*
X46237680Y8237699D01*
X46335312Y8216208D01*
X46432067Y8199769D01*
X46503535Y8179179D01*
X46576053Y8163217D01*
X46676973Y8129213D01*
X46776893Y8100427D01*
X46840048Y8074267D01*
X46904384Y8052590D01*
X47007038Y8005097D01*
X47108428Y7963100D01*
X47162969Y7932955D01*
X47218837Y7907109D01*
X47321484Y7845348D01*
X47422503Y7789517D01*
X47468398Y7756952D01*
X47515720Y7728480D01*
X47616503Y7651866D01*
X47715167Y7581861D01*
X47752602Y7548407D01*
X47791539Y7518808D01*
X47888498Y7426962D01*
X47982742Y7342742D01*
X48012153Y7309830D01*
X48043075Y7280540D01*
X48134181Y7173281D01*
X48221861Y7075167D01*
X48243884Y7044127D01*
X48267383Y7016463D01*
X48350624Y6893691D01*
X48429517Y6782503D01*
X48444968Y6754544D01*
X48461819Y6729693D01*
X48535172Y6591334D01*
X48603100Y6468428D01*
X48612984Y6444563D01*
X48624104Y6423591D01*
X48685517Y6269456D01*
X48740427Y6136893D01*
X48745887Y6117939D01*
X48752353Y6101712D01*
X48799945Y5930299D01*
X48839769Y5792067D01*
X48842046Y5778664D01*
X48845041Y5767878D01*
X48876964Y5573153D01*
X48899879Y5438286D01*
X48900298Y5430818D01*
X48901095Y5425959D01*
X48915741Y5155822D01*
X48920000Y5080000D01*
X48915742Y5004184D01*
X48901095Y4734040D01*
X48900298Y4729180D01*
X48899879Y4721714D01*
X48876968Y4586874D01*
X48845041Y4392121D01*
X48842045Y4381333D01*
X48839769Y4367933D01*
X48799952Y4229726D01*
X48752353Y4058287D01*
X48745886Y4042057D01*
X48740427Y4023107D01*
X48685527Y3890569D01*
X48624104Y3736408D01*
X48612983Y3715431D01*
X48603100Y3691572D01*
X48535185Y3568689D01*
X48461819Y3430306D01*
X48444965Y3405449D01*
X48429517Y3377497D01*
X48350639Y3266329D01*
X48267383Y3143536D01*
X48243880Y3115866D01*
X48221861Y3084833D01*
X48134198Y2986738D01*
X48043075Y2879459D01*
X48012147Y2850162D01*
X47982742Y2817258D01*
X47888517Y2733053D01*
X47791539Y2641191D01*
X47752594Y2611586D01*
X47715167Y2578139D01*
X47616523Y2508147D01*
X47515720Y2431519D01*
X47468388Y2403040D01*
X47422503Y2370483D01*
X47321504Y2314663D01*
X47218837Y2252890D01*
X47162958Y2227037D01*
X47108428Y2196900D01*
X47007059Y2154911D01*
X46904384Y2107409D01*
X46840035Y2085727D01*
X46776893Y2059573D01*
X46676993Y2030792D01*
X46576053Y1996782D01*
X46503520Y1980816D01*
X46432067Y1960231D01*
X46335332Y1943795D01*
X46237680Y1922300D01*
X46157500Y1913580D01*
X46078286Y1900121D01*
X45986182Y1894948D01*
X45893234Y1884840D01*
X45806184Y1884840D01*
X45720000Y1880000D01*
X45633816Y1884840D01*
X45546766Y1884840D01*
X45453816Y1894948D01*
X45361714Y1900121D01*
X45282500Y1913579D01*
X45202319Y1922300D01*
X45104662Y1943795D01*
X45007933Y1960231D01*
X44936482Y1980815D01*
X44863946Y1996782D01*
X44762999Y2030794D01*
X44663107Y2059573D01*
X44599969Y2085725D01*
X44535615Y2107409D01*
X44432931Y2154915D01*
X44331572Y2196900D01*
X44277046Y2227035D01*
X44221162Y2252890D01*
X44118483Y2314670D01*
X44017497Y2370483D01*
X43971616Y2403036D01*
X43924279Y2431519D01*
X43823461Y2508158D01*
X43724833Y2578139D01*
X43687411Y2611581D01*
X43648460Y2641191D01*
X43551465Y2733069D01*
X43457258Y2817258D01*
X43427857Y2850156D01*
X43396924Y2879459D01*
X43305781Y2986760D01*
X43218139Y3084833D01*
X43196124Y3115859D01*
X43172616Y3143536D01*
X43089337Y3266361D01*
X43010483Y3377497D01*
X42995038Y3405441D01*
X42978180Y3430306D01*
X42904790Y3568733D01*
X42836900Y3691572D01*
X42827020Y3715423D01*
X42815895Y3736408D01*
X42754445Y3890632D01*
X42699573Y4023107D01*
X42694116Y4042048D01*
X42687646Y4058287D01*
X42640019Y4229822D01*
X42600231Y4367933D01*
X42597955Y4381323D01*
X42594958Y4392121D01*
X42563002Y4587041D01*
X42540121Y4721714D01*
X42539702Y4729170D01*
X42538904Y4734040D01*
X42524228Y5004699D01*
X42520000Y5080000D01*
X42524229Y5155306D01*
X42538904Y5425959D01*
X42539702Y5430827D01*
X42540121Y5438286D01*
X42563007Y5572985D01*
X42594958Y5767878D01*
X42597955Y5778673D01*
X42600231Y5792067D01*
X42640027Y5930204D01*
X42687646Y6101712D01*
X42694115Y6117948D01*
X42699573Y6136893D01*
X42754456Y6269392D01*
X42815895Y6423591D01*
X42827018Y6444572D01*
X42836900Y6468428D01*
X42904803Y6591289D01*
X42978180Y6729693D01*
X42995035Y6754552D01*
X43010483Y6782503D01*
X43089352Y6893659D01*
X43172616Y7016463D01*
X43196120Y7044134D01*
X43218139Y7075167D01*
X43305798Y7173258D01*
X43396924Y7280540D01*
X43427852Y7309836D01*
X43457258Y7342742D01*
X43551483Y7426947D01*
X43648460Y7518808D01*
X43687403Y7548412D01*
X43724833Y7581861D01*
X43823481Y7651855D01*
X43924279Y7728480D01*
X43971607Y7756956D01*
X44017497Y7789517D01*
X44118503Y7845341D01*
X44221162Y7907109D01*
X44277035Y7932958D01*
X44331572Y7963100D01*
X44432952Y8005093D01*
X44535615Y8052590D01*
X44599956Y8074269D01*
X44663107Y8100427D01*
X44763019Y8129211D01*
X44863946Y8163217D01*
X44936467Y8179180D01*
X45007933Y8199769D01*
X45104682Y8216207D01*
X45202319Y8237699D01*
X45282488Y8246417D01*
X45361714Y8259879D01*
X45453822Y8265051D01*
X45546766Y8275160D01*
X45633816Y8275160D01*
X45720000Y8280000D01*
X45806184Y8275160D01*
G37*
G36*
X12936358Y8467679D02*
G01*
X13218602Y8411537D01*
X13491104Y8319035D01*
X13749200Y8191756D01*
X13988475Y8031877D01*
X14204835Y7842135D01*
X14394577Y7625775D01*
X14554456Y7386500D01*
X14681735Y7128404D01*
X14774237Y6855902D01*
X14830379Y6573658D01*
X14849200Y6286500D01*
X14830379Y5999342D01*
X14774237Y5717098D01*
X14681735Y5444596D01*
X14554456Y5186500D01*
X14394577Y4947225D01*
X14204835Y4730865D01*
X13988475Y4541123D01*
X13749200Y4381244D01*
X13491104Y4253965D01*
X13218602Y4161463D01*
X12936358Y4105321D01*
X12649200Y4086500D01*
X12362042Y4105321D01*
X12079798Y4161463D01*
X11807296Y4253965D01*
X11549200Y4381244D01*
X11309925Y4541123D01*
X11093565Y4730865D01*
X10903823Y4947225D01*
X10743944Y5186500D01*
X10616665Y5444596D01*
X10524163Y5717098D01*
X10468021Y5999342D01*
X10449200Y6286500D01*
X10468021Y6573658D01*
X10524163Y6855902D01*
X10616665Y7128404D01*
X10743944Y7386500D01*
X10903823Y7625775D01*
X11093565Y7842135D01*
X11309925Y8031877D01*
X11549200Y8191756D01*
X11807296Y8319035D01*
X12079798Y8411537D01*
X12362042Y8467679D01*
X12649200Y8486500D01*
X12936358Y8467679D01*
G37*
G36*
X23096358Y8467679D02*
G01*
X23378602Y8411537D01*
X23651104Y8319035D01*
X23909200Y8191756D01*
X24148475Y8031877D01*
X24364835Y7842135D01*
X24554577Y7625775D01*
X24714456Y7386500D01*
X24841735Y7128404D01*
X24934237Y6855902D01*
X24990379Y6573658D01*
X25009200Y6286500D01*
X24990379Y5999342D01*
X24934237Y5717098D01*
X24841735Y5444596D01*
X24714456Y5186500D01*
X24554577Y4947225D01*
X24364835Y4730865D01*
X24148475Y4541123D01*
X23909200Y4381244D01*
X23651104Y4253965D01*
X23378602Y4161463D01*
X23096358Y4105321D01*
X22809200Y4086500D01*
X22522042Y4105321D01*
X22239798Y4161463D01*
X21967296Y4253965D01*
X21709200Y4381244D01*
X21469925Y4541123D01*
X21253565Y4730865D01*
X21063823Y4947225D01*
X20903944Y5186500D01*
X20776665Y5444596D01*
X20684163Y5717098D01*
X20628021Y5999342D01*
X20609200Y6286500D01*
X20628021Y6573658D01*
X20684163Y6855902D01*
X20776665Y7128404D01*
X20903944Y7386500D01*
X21063823Y7625775D01*
X21253565Y7842135D01*
X21469925Y8031877D01*
X21709200Y8191756D01*
X21967296Y8319035D01*
X22239798Y8411537D01*
X22522042Y8467679D01*
X22809200Y8486500D01*
X23096358Y8467679D01*
G37*
G36*
X28176358Y8467679D02*
G01*
X28458602Y8411537D01*
X28731104Y8319035D01*
X28989200Y8191756D01*
X29228475Y8031877D01*
X29444835Y7842135D01*
X29634577Y7625775D01*
X29794456Y7386500D01*
X29921735Y7128404D01*
X30014237Y6855902D01*
X30070379Y6573658D01*
X30089200Y6286500D01*
X30070379Y5999342D01*
X30014237Y5717098D01*
X29921735Y5444596D01*
X29794456Y5186500D01*
X29634577Y4947225D01*
X29444835Y4730865D01*
X29228475Y4541123D01*
X28989200Y4381244D01*
X28731104Y4253965D01*
X28458602Y4161463D01*
X28176358Y4105321D01*
X27889200Y4086500D01*
X27602042Y4105321D01*
X27319798Y4161463D01*
X27047296Y4253965D01*
X26789200Y4381244D01*
X26549925Y4541123D01*
X26333565Y4730865D01*
X26143823Y4947225D01*
X25983944Y5186500D01*
X25856665Y5444596D01*
X25764163Y5717098D01*
X25708021Y5999342D01*
X25689200Y6286500D01*
X25708021Y6573658D01*
X25764163Y6855902D01*
X25856665Y7128404D01*
X25983944Y7386500D01*
X26143823Y7625775D01*
X26333565Y7842135D01*
X26549925Y8031877D01*
X26789200Y8191756D01*
X27047296Y8319035D01*
X27319798Y8411537D01*
X27602042Y8467679D01*
X27889200Y8486500D01*
X28176358Y8467679D01*
G37*
G36*
X38336358Y8467679D02*
G01*
X38618602Y8411537D01*
X38891104Y8319035D01*
X39149200Y8191756D01*
X39388475Y8031877D01*
X39604835Y7842135D01*
X39794577Y7625775D01*
X39954456Y7386500D01*
X40081735Y7128404D01*
X40174237Y6855902D01*
X40230379Y6573658D01*
X40249200Y6286500D01*
X40230379Y5999342D01*
X40174237Y5717098D01*
X40081735Y5444596D01*
X39954456Y5186500D01*
X39794577Y4947225D01*
X39604835Y4730865D01*
X39388475Y4541123D01*
X39149200Y4381244D01*
X38891104Y4253965D01*
X38618602Y4161463D01*
X38336358Y4105321D01*
X38049200Y4086500D01*
X37762042Y4105321D01*
X37479798Y4161463D01*
X37207296Y4253965D01*
X36949200Y4381244D01*
X36709925Y4541123D01*
X36493565Y4730865D01*
X36303823Y4947225D01*
X36143944Y5186500D01*
X36016665Y5444596D01*
X35924163Y5717098D01*
X35868021Y5999342D01*
X35849200Y6286500D01*
X35868021Y6573658D01*
X35924163Y6855902D01*
X36016665Y7128404D01*
X36143944Y7386500D01*
X36303823Y7625775D01*
X36493565Y7842135D01*
X36709925Y8031877D01*
X36949200Y8191756D01*
X37207296Y8319035D01*
X37479798Y8411537D01*
X37762042Y8467679D01*
X38049200Y8486500D01*
X38336358Y8467679D01*
G37*
G36*
X4580107Y12390387D02*
G01*
X4614134Y12386440D01*
X4625759Y12381306D01*
X4648537Y12376776D01*
X4672921Y12360482D01*
X4684047Y12355570D01*
X4691646Y12347970D01*
X4713421Y12333421D01*
X4727970Y12311646D01*
X4735570Y12304047D01*
X4740482Y12292921D01*
X4756776Y12268537D01*
X4761306Y12245759D01*
X4766440Y12234134D01*
X4770387Y12200105D01*
X4772000Y12192000D01*
X4772000Y10668000D01*
X4770387Y10659894D01*
X4766440Y10625865D01*
X4761306Y10614238D01*
X4756776Y10591463D01*
X4740483Y10567080D01*
X4735570Y10555952D01*
X4727968Y10548350D01*
X4713421Y10526579D01*
X4691649Y10512031D01*
X4684047Y10504429D01*
X4672917Y10499514D01*
X4648537Y10483224D01*
X4625764Y10478694D01*
X4614134Y10473559D01*
X4580093Y10469609D01*
X4572000Y10468000D01*
X4566217Y10468000D01*
X3053784Y10468000D01*
X3048000Y10468000D01*
X3039906Y10469609D01*
X3005865Y10473559D01*
X2994234Y10478694D01*
X2971463Y10483224D01*
X2947084Y10499513D01*
X2935952Y10504429D01*
X2928347Y10512033D01*
X2906579Y10526579D01*
X2892033Y10548347D01*
X2884429Y10555952D01*
X2879513Y10567084D01*
X2863224Y10591463D01*
X2858694Y10614234D01*
X2853559Y10625865D01*
X2849609Y10659908D01*
X2848000Y10668000D01*
X2848000Y12192000D01*
X2849610Y12200095D01*
X2853559Y12234134D01*
X2858694Y12245764D01*
X2863224Y12268537D01*
X2879514Y12292917D01*
X2884429Y12304047D01*
X2892031Y12311649D01*
X2906579Y12333421D01*
X2928350Y12347968D01*
X2935952Y12355570D01*
X2947080Y12360483D01*
X2971463Y12376776D01*
X2994238Y12381306D01*
X3005865Y12386440D01*
X3039896Y12390388D01*
X3048000Y12392000D01*
X4572000Y12392000D01*
X4580107Y12390387D01*
G37*
G36*
X7120107Y12390387D02*
G01*
X7154134Y12386440D01*
X7165759Y12381306D01*
X7188537Y12376776D01*
X7212921Y12360482D01*
X7224047Y12355570D01*
X7231646Y12347970D01*
X7253421Y12333421D01*
X7267970Y12311646D01*
X7275570Y12304047D01*
X7280482Y12292921D01*
X7296776Y12268537D01*
X7301306Y12245759D01*
X7306440Y12234134D01*
X7310387Y12200105D01*
X7312000Y12192000D01*
X7312000Y10668000D01*
X7310387Y10659894D01*
X7306440Y10625865D01*
X7301306Y10614238D01*
X7296776Y10591463D01*
X7280483Y10567080D01*
X7275570Y10555952D01*
X7267968Y10548350D01*
X7253421Y10526579D01*
X7231649Y10512031D01*
X7224047Y10504429D01*
X7212917Y10499514D01*
X7188537Y10483224D01*
X7165764Y10478694D01*
X7154134Y10473559D01*
X7120093Y10469609D01*
X7112000Y10468000D01*
X7106217Y10468000D01*
X5593784Y10468000D01*
X5588000Y10468000D01*
X5579906Y10469609D01*
X5545865Y10473559D01*
X5534234Y10478694D01*
X5511463Y10483224D01*
X5487084Y10499513D01*
X5475952Y10504429D01*
X5468347Y10512033D01*
X5446579Y10526579D01*
X5432033Y10548347D01*
X5424429Y10555952D01*
X5419513Y10567084D01*
X5403224Y10591463D01*
X5398694Y10614234D01*
X5393559Y10625865D01*
X5389609Y10659908D01*
X5388000Y10668000D01*
X5388000Y12192000D01*
X5389610Y12200095D01*
X5393559Y12234134D01*
X5398694Y12245764D01*
X5403224Y12268537D01*
X5419514Y12292917D01*
X5424429Y12304047D01*
X5432031Y12311649D01*
X5446579Y12333421D01*
X5468350Y12347968D01*
X5475952Y12355570D01*
X5487080Y12360483D01*
X5511463Y12376776D01*
X5534238Y12381306D01*
X5545865Y12386440D01*
X5579896Y12390388D01*
X5588000Y12392000D01*
X7112000Y12392000D01*
X7120107Y12390387D01*
G37*
G36*
X45220107Y12390387D02*
G01*
X45254134Y12386440D01*
X45265759Y12381306D01*
X45288537Y12376776D01*
X45312921Y12360482D01*
X45324047Y12355570D01*
X45331646Y12347970D01*
X45353421Y12333421D01*
X45367970Y12311646D01*
X45375570Y12304047D01*
X45380482Y12292921D01*
X45396776Y12268537D01*
X45401306Y12245759D01*
X45406440Y12234134D01*
X45410387Y12200105D01*
X45412000Y12192000D01*
X45412000Y10668000D01*
X45410387Y10659894D01*
X45406440Y10625865D01*
X45401306Y10614238D01*
X45396776Y10591463D01*
X45380483Y10567080D01*
X45375570Y10555952D01*
X45367968Y10548350D01*
X45353421Y10526579D01*
X45331649Y10512031D01*
X45324047Y10504429D01*
X45312917Y10499514D01*
X45288537Y10483224D01*
X45265764Y10478694D01*
X45254134Y10473559D01*
X45220093Y10469609D01*
X45212000Y10468000D01*
X45206217Y10468000D01*
X43693784Y10468000D01*
X43688000Y10468000D01*
X43679906Y10469609D01*
X43645865Y10473559D01*
X43634234Y10478694D01*
X43611463Y10483224D01*
X43587084Y10499513D01*
X43575952Y10504429D01*
X43568347Y10512033D01*
X43546579Y10526579D01*
X43532033Y10548347D01*
X43524429Y10555952D01*
X43519513Y10567084D01*
X43503224Y10591463D01*
X43498694Y10614234D01*
X43493559Y10625865D01*
X43489609Y10659908D01*
X43488000Y10668000D01*
X43488000Y12192000D01*
X43489610Y12200095D01*
X43493559Y12234134D01*
X43498694Y12245764D01*
X43503224Y12268537D01*
X43519514Y12292917D01*
X43524429Y12304047D01*
X43532031Y12311649D01*
X43546579Y12333421D01*
X43568350Y12347968D01*
X43575952Y12355570D01*
X43587080Y12360483D01*
X43611463Y12376776D01*
X43634238Y12381306D01*
X43645865Y12386440D01*
X43679896Y12390388D01*
X43688000Y12392000D01*
X45212000Y12392000D01*
X45220107Y12390387D01*
G37*
G36*
X47760107Y12390387D02*
G01*
X47794134Y12386440D01*
X47805759Y12381306D01*
X47828537Y12376776D01*
X47852921Y12360482D01*
X47864047Y12355570D01*
X47871646Y12347970D01*
X47893421Y12333421D01*
X47907970Y12311646D01*
X47915570Y12304047D01*
X47920482Y12292921D01*
X47936776Y12268537D01*
X47941306Y12245759D01*
X47946440Y12234134D01*
X47950387Y12200105D01*
X47952000Y12192000D01*
X47952000Y10668000D01*
X47950387Y10659894D01*
X47946440Y10625865D01*
X47941306Y10614238D01*
X47936776Y10591463D01*
X47920483Y10567080D01*
X47915570Y10555952D01*
X47907968Y10548350D01*
X47893421Y10526579D01*
X47871649Y10512031D01*
X47864047Y10504429D01*
X47852917Y10499514D01*
X47828537Y10483224D01*
X47805764Y10478694D01*
X47794134Y10473559D01*
X47760093Y10469609D01*
X47752000Y10468000D01*
X47746217Y10468000D01*
X46233784Y10468000D01*
X46228000Y10468000D01*
X46219906Y10469609D01*
X46185865Y10473559D01*
X46174234Y10478694D01*
X46151463Y10483224D01*
X46127084Y10499513D01*
X46115952Y10504429D01*
X46108347Y10512033D01*
X46086579Y10526579D01*
X46072033Y10548347D01*
X46064429Y10555952D01*
X46059513Y10567084D01*
X46043224Y10591463D01*
X46038694Y10614234D01*
X46033559Y10625865D01*
X46029609Y10659908D01*
X46028000Y10668000D01*
X46028000Y12192000D01*
X46029610Y12200095D01*
X46033559Y12234134D01*
X46038694Y12245764D01*
X46043224Y12268537D01*
X46059514Y12292917D01*
X46064429Y12304047D01*
X46072031Y12311649D01*
X46086579Y12333421D01*
X46108350Y12347968D01*
X46115952Y12355570D01*
X46127080Y12360483D01*
X46151463Y12376776D01*
X46174238Y12381306D01*
X46185865Y12386440D01*
X46219896Y12390388D01*
X46228000Y12392000D01*
X47752000Y12392000D01*
X47760107Y12390387D01*
G37*
G36*
X20953342Y13841381D02*
G01*
X21009922Y13841381D01*
X21059704Y13832075D01*
X21107505Y13827893D01*
X21166175Y13812172D01*
X21227596Y13800691D01*
X21269252Y13784553D01*
X21309496Y13773770D01*
X21370424Y13745358D01*
X21434086Y13720696D01*
X21466945Y13700350D01*
X21499011Y13685398D01*
X21559496Y13643045D01*
X21622362Y13604121D01*
X21646459Y13582153D01*
X21670297Y13565462D01*
X21727320Y13508438D01*
X21786011Y13454935D01*
X21802009Y13433749D01*
X21818162Y13417597D01*
X21868543Y13345645D01*
X21919461Y13278219D01*
X21928584Y13259897D01*
X21938098Y13246310D01*
X21978613Y13159424D01*
X22018167Y13079990D01*
X22022099Y13066168D01*
X22026470Y13056796D01*
X22054010Y12954012D01*
X22078768Y12866999D01*
X22079530Y12858770D01*
X22080593Y12854805D01*
X22092354Y12720378D01*
X22099200Y12646500D01*
X22092354Y12572627D01*
X22080593Y12438194D01*
X22079530Y12434228D01*
X22078768Y12426001D01*
X22054015Y12339003D01*
X22026470Y12236203D01*
X22022098Y12226828D01*
X22018167Y12213010D01*
X21978624Y12133598D01*
X21938098Y12046688D01*
X21928580Y12033095D01*
X21919461Y12014781D01*
X21868556Y11947373D01*
X21818162Y11875402D01*
X21802006Y11859246D01*
X21786011Y11838065D01*
X21727331Y11784571D01*
X21670297Y11727537D01*
X21646454Y11710842D01*
X21622362Y11688879D01*
X21559509Y11649962D01*
X21499011Y11607601D01*
X21466939Y11592645D01*
X21434086Y11572304D01*
X21370436Y11547646D01*
X21309496Y11519229D01*
X21269243Y11508443D01*
X21227596Y11492309D01*
X21166187Y11480829D01*
X21107505Y11465106D01*
X21059693Y11460922D01*
X21009922Y11451619D01*
X20953354Y11451619D01*
X20899200Y11446881D01*
X20845046Y11451619D01*
X20788478Y11451619D01*
X20738706Y11460922D01*
X20690894Y11465106D01*
X20632208Y11480830D01*
X20570804Y11492309D01*
X20529158Y11508442D01*
X20488903Y11519229D01*
X20427957Y11547648D01*
X20364314Y11572304D01*
X20331463Y11592643D01*
X20299388Y11607601D01*
X20238882Y11649967D01*
X20176038Y11688879D01*
X20151948Y11710839D01*
X20128102Y11727537D01*
X20071057Y11784581D01*
X20012389Y11838065D01*
X19996396Y11859242D01*
X19980237Y11875402D01*
X19929829Y11947391D01*
X19878939Y12014781D01*
X19869821Y12033091D01*
X19860301Y12046688D01*
X19819759Y12133630D01*
X19780233Y12213010D01*
X19776302Y12226823D01*
X19771929Y12236203D01*
X19744364Y12339074D01*
X19719632Y12426001D01*
X19718870Y12434220D01*
X19705932Y12482507D01*
X19552468Y12482507D01*
X19539529Y12434221D01*
X19538768Y12426001D01*
X19514025Y12339039D01*
X19486470Y12236203D01*
X19482098Y12226828D01*
X19478167Y12213010D01*
X19438624Y12133598D01*
X19398098Y12046688D01*
X19388580Y12033095D01*
X19379461Y12014781D01*
X19328556Y11947373D01*
X19278162Y11875402D01*
X19262006Y11859246D01*
X19246011Y11838065D01*
X19187331Y11784571D01*
X19130297Y11727537D01*
X19106454Y11710842D01*
X19082362Y11688879D01*
X19019509Y11649962D01*
X18959011Y11607601D01*
X18926939Y11592645D01*
X18894086Y11572304D01*
X18830436Y11547646D01*
X18769496Y11519229D01*
X18729243Y11508443D01*
X18687596Y11492309D01*
X18626187Y11480829D01*
X18567505Y11465106D01*
X18519693Y11460922D01*
X18469922Y11451619D01*
X18413354Y11451619D01*
X18359200Y11446881D01*
X18305046Y11451619D01*
X18248478Y11451619D01*
X18198706Y11460922D01*
X18150894Y11465106D01*
X18092208Y11480830D01*
X18030804Y11492309D01*
X17989158Y11508442D01*
X17948903Y11519229D01*
X17887957Y11547648D01*
X17824314Y11572304D01*
X17791463Y11592643D01*
X17759388Y11607601D01*
X17698882Y11649967D01*
X17636038Y11688879D01*
X17611948Y11710839D01*
X17588102Y11727537D01*
X17531057Y11784581D01*
X17472389Y11838065D01*
X17456396Y11859242D01*
X17440237Y11875402D01*
X17389829Y11947391D01*
X17338939Y12014781D01*
X17329821Y12033091D01*
X17320301Y12046688D01*
X17279759Y12133630D01*
X17240233Y12213010D01*
X17236302Y12226823D01*
X17231929Y12236203D01*
X17204364Y12339074D01*
X17179632Y12426001D01*
X17178870Y12434220D01*
X17165932Y12482507D01*
X17012468Y12482507D01*
X16999529Y12434221D01*
X16998768Y12426001D01*
X16974025Y12339039D01*
X16946470Y12236203D01*
X16942098Y12226828D01*
X16938167Y12213010D01*
X16898624Y12133598D01*
X16858098Y12046688D01*
X16848580Y12033095D01*
X16839461Y12014781D01*
X16788556Y11947373D01*
X16738162Y11875402D01*
X16722006Y11859246D01*
X16706011Y11838065D01*
X16647331Y11784571D01*
X16590297Y11727537D01*
X16566454Y11710842D01*
X16542362Y11688879D01*
X16479509Y11649962D01*
X16419011Y11607601D01*
X16386939Y11592645D01*
X16354086Y11572304D01*
X16290436Y11547646D01*
X16229496Y11519229D01*
X16189243Y11508443D01*
X16147596Y11492309D01*
X16086187Y11480829D01*
X16027505Y11465106D01*
X15979693Y11460922D01*
X15929922Y11451619D01*
X15873354Y11451619D01*
X15819200Y11446881D01*
X15765046Y11451619D01*
X15708478Y11451619D01*
X15658706Y11460922D01*
X15610894Y11465106D01*
X15552208Y11480830D01*
X15490804Y11492309D01*
X15449158Y11508442D01*
X15408903Y11519229D01*
X15347957Y11547648D01*
X15284314Y11572304D01*
X15251463Y11592643D01*
X15219388Y11607601D01*
X15158882Y11649967D01*
X15096038Y11688879D01*
X15071948Y11710839D01*
X15048102Y11727537D01*
X14991057Y11784581D01*
X14932389Y11838065D01*
X14916396Y11859242D01*
X14900237Y11875402D01*
X14849829Y11947391D01*
X14798939Y12014781D01*
X14789821Y12033091D01*
X14780301Y12046688D01*
X14739759Y12133630D01*
X14700233Y12213010D01*
X14696302Y12226823D01*
X14691929Y12236203D01*
X14664367Y12339063D01*
X14639632Y12426001D01*
X14638870Y12434222D01*
X14637806Y12438194D01*
X14626027Y12572820D01*
X14619200Y12646500D01*
X14626027Y12720185D01*
X14637806Y12854805D01*
X14638870Y12858776D01*
X14639632Y12866999D01*
X14664372Y12953952D01*
X14691929Y13056796D01*
X14696301Y13066173D01*
X14700233Y13079990D01*
X14739770Y13159392D01*
X14780301Y13246310D01*
X14789818Y13259902D01*
X14798939Y13278219D01*
X14849843Y13345626D01*
X14900237Y13417597D01*
X14916393Y13433753D01*
X14932389Y13454935D01*
X14991068Y13508428D01*
X15048102Y13565462D01*
X15071943Y13582155D01*
X15096038Y13604121D01*
X15158900Y13643043D01*
X15219389Y13685398D01*
X15251454Y13700350D01*
X15284314Y13720696D01*
X15347971Y13745357D01*
X15408903Y13773770D01*
X15449150Y13784554D01*
X15490804Y13800691D01*
X15552221Y13812171D01*
X15610894Y13827893D01*
X15658696Y13832075D01*
X15708478Y13841381D01*
X15765058Y13841381D01*
X15819200Y13846118D01*
X15873342Y13841381D01*
X15929922Y13841381D01*
X15979704Y13832075D01*
X16027505Y13827893D01*
X16086175Y13812172D01*
X16147596Y13800691D01*
X16189252Y13784553D01*
X16229496Y13773770D01*
X16290424Y13745358D01*
X16354086Y13720696D01*
X16386945Y13700350D01*
X16419011Y13685398D01*
X16479496Y13643045D01*
X16542362Y13604121D01*
X16566459Y13582153D01*
X16590297Y13565462D01*
X16647320Y13508438D01*
X16706011Y13454935D01*
X16722009Y13433749D01*
X16738162Y13417597D01*
X16788543Y13345645D01*
X16839461Y13278219D01*
X16848584Y13259897D01*
X16858098Y13246310D01*
X16898613Y13159424D01*
X16938167Y13079990D01*
X16942099Y13066168D01*
X16946470Y13056796D01*
X16974020Y12953976D01*
X16998768Y12866999D01*
X16999529Y12858776D01*
X17012468Y12810492D01*
X17165932Y12810492D01*
X17178870Y12858778D01*
X17179632Y12866999D01*
X17204369Y12953941D01*
X17231929Y13056796D01*
X17236301Y13066173D01*
X17240233Y13079990D01*
X17279770Y13159392D01*
X17320301Y13246310D01*
X17329818Y13259902D01*
X17338939Y13278219D01*
X17389843Y13345626D01*
X17440237Y13417597D01*
X17456393Y13433753D01*
X17472389Y13454935D01*
X17531068Y13508428D01*
X17588102Y13565462D01*
X17611943Y13582155D01*
X17636038Y13604121D01*
X17698900Y13643043D01*
X17759389Y13685398D01*
X17791454Y13700350D01*
X17824314Y13720696D01*
X17887971Y13745357D01*
X17948903Y13773770D01*
X17989150Y13784554D01*
X18030804Y13800691D01*
X18092221Y13812171D01*
X18150894Y13827893D01*
X18198696Y13832075D01*
X18248478Y13841381D01*
X18305058Y13841381D01*
X18359200Y13846118D01*
X18413342Y13841381D01*
X18469922Y13841381D01*
X18519704Y13832075D01*
X18567505Y13827893D01*
X18626175Y13812172D01*
X18687596Y13800691D01*
X18729252Y13784553D01*
X18769496Y13773770D01*
X18830424Y13745358D01*
X18894086Y13720696D01*
X18926945Y13700350D01*
X18959011Y13685398D01*
X19019496Y13643045D01*
X19082362Y13604121D01*
X19106459Y13582153D01*
X19130297Y13565462D01*
X19187320Y13508438D01*
X19246011Y13454935D01*
X19262009Y13433749D01*
X19278162Y13417597D01*
X19328543Y13345645D01*
X19379461Y13278219D01*
X19388584Y13259897D01*
X19398098Y13246310D01*
X19438613Y13159424D01*
X19478167Y13079990D01*
X19482099Y13066168D01*
X19486470Y13056796D01*
X19514020Y12953976D01*
X19538768Y12866999D01*
X19539529Y12858776D01*
X19552468Y12810492D01*
X19705932Y12810492D01*
X19718870Y12858778D01*
X19719632Y12866999D01*
X19744369Y12953941D01*
X19771929Y13056796D01*
X19776301Y13066173D01*
X19780233Y13079990D01*
X19819770Y13159392D01*
X19860301Y13246310D01*
X19869818Y13259902D01*
X19878939Y13278219D01*
X19929843Y13345626D01*
X19980237Y13417597D01*
X19996393Y13433753D01*
X20012389Y13454935D01*
X20071068Y13508428D01*
X20128102Y13565462D01*
X20151943Y13582155D01*
X20176038Y13604121D01*
X20238900Y13643043D01*
X20299389Y13685398D01*
X20331454Y13700350D01*
X20364314Y13720696D01*
X20427971Y13745357D01*
X20488903Y13773770D01*
X20529150Y13784554D01*
X20570804Y13800691D01*
X20632221Y13812171D01*
X20690894Y13827893D01*
X20738696Y13832075D01*
X20788478Y13841381D01*
X20845058Y13841381D01*
X20899200Y13846118D01*
X20953342Y13841381D01*
G37*
G36*
X36193342Y13841381D02*
G01*
X36249922Y13841381D01*
X36299704Y13832075D01*
X36347505Y13827893D01*
X36406175Y13812172D01*
X36467596Y13800691D01*
X36509252Y13784553D01*
X36549496Y13773770D01*
X36610424Y13745358D01*
X36674086Y13720696D01*
X36706945Y13700350D01*
X36739011Y13685398D01*
X36799496Y13643045D01*
X36862362Y13604121D01*
X36886459Y13582153D01*
X36910297Y13565462D01*
X36967320Y13508438D01*
X37026011Y13454935D01*
X37042009Y13433749D01*
X37058162Y13417597D01*
X37108543Y13345645D01*
X37159461Y13278219D01*
X37168584Y13259897D01*
X37178098Y13246310D01*
X37218613Y13159424D01*
X37258167Y13079990D01*
X37262099Y13066168D01*
X37266470Y13056796D01*
X37294010Y12954012D01*
X37318768Y12866999D01*
X37319530Y12858770D01*
X37320593Y12854805D01*
X37332354Y12720378D01*
X37339200Y12646500D01*
X37332354Y12572627D01*
X37320593Y12438194D01*
X37319530Y12434228D01*
X37318768Y12426001D01*
X37294015Y12339003D01*
X37266470Y12236203D01*
X37262098Y12226828D01*
X37258167Y12213010D01*
X37218624Y12133598D01*
X37178098Y12046688D01*
X37168580Y12033095D01*
X37159461Y12014781D01*
X37108556Y11947373D01*
X37058162Y11875402D01*
X37042006Y11859246D01*
X37026011Y11838065D01*
X36967331Y11784571D01*
X36910297Y11727537D01*
X36886454Y11710842D01*
X36862362Y11688879D01*
X36799509Y11649962D01*
X36739011Y11607601D01*
X36706939Y11592645D01*
X36674086Y11572304D01*
X36610436Y11547646D01*
X36549496Y11519229D01*
X36509243Y11508443D01*
X36467596Y11492309D01*
X36406187Y11480829D01*
X36347505Y11465106D01*
X36299693Y11460922D01*
X36249922Y11451619D01*
X36193354Y11451619D01*
X36139200Y11446881D01*
X36085046Y11451619D01*
X36028478Y11451619D01*
X35978706Y11460922D01*
X35930894Y11465106D01*
X35872208Y11480830D01*
X35810804Y11492309D01*
X35769158Y11508442D01*
X35728903Y11519229D01*
X35667957Y11547648D01*
X35604314Y11572304D01*
X35571463Y11592643D01*
X35539388Y11607601D01*
X35478882Y11649967D01*
X35416038Y11688879D01*
X35391948Y11710839D01*
X35368102Y11727537D01*
X35311057Y11784581D01*
X35252389Y11838065D01*
X35236396Y11859242D01*
X35220237Y11875402D01*
X35169829Y11947391D01*
X35118939Y12014781D01*
X35109821Y12033091D01*
X35100301Y12046688D01*
X35059759Y12133630D01*
X35020233Y12213010D01*
X35016302Y12226823D01*
X35011929Y12236203D01*
X34984364Y12339074D01*
X34959632Y12426001D01*
X34958870Y12434220D01*
X34945932Y12482507D01*
X34792468Y12482507D01*
X34779529Y12434221D01*
X34778768Y12426001D01*
X34754025Y12339039D01*
X34726470Y12236203D01*
X34722098Y12226828D01*
X34718167Y12213010D01*
X34678624Y12133598D01*
X34638098Y12046688D01*
X34628580Y12033095D01*
X34619461Y12014781D01*
X34568556Y11947373D01*
X34518162Y11875402D01*
X34502006Y11859246D01*
X34486011Y11838065D01*
X34427331Y11784571D01*
X34370297Y11727537D01*
X34346454Y11710842D01*
X34322362Y11688879D01*
X34259509Y11649962D01*
X34199011Y11607601D01*
X34166939Y11592645D01*
X34134086Y11572304D01*
X34070436Y11547646D01*
X34009496Y11519229D01*
X33969243Y11508443D01*
X33927596Y11492309D01*
X33866187Y11480829D01*
X33807505Y11465106D01*
X33759693Y11460922D01*
X33709922Y11451619D01*
X33653354Y11451619D01*
X33599200Y11446881D01*
X33545046Y11451619D01*
X33488478Y11451619D01*
X33438706Y11460922D01*
X33390894Y11465106D01*
X33332208Y11480830D01*
X33270804Y11492309D01*
X33229158Y11508442D01*
X33188903Y11519229D01*
X33127957Y11547648D01*
X33064314Y11572304D01*
X33031463Y11592643D01*
X32999388Y11607601D01*
X32938882Y11649967D01*
X32876038Y11688879D01*
X32851948Y11710839D01*
X32828102Y11727537D01*
X32771057Y11784581D01*
X32712389Y11838065D01*
X32696396Y11859242D01*
X32680237Y11875402D01*
X32629829Y11947391D01*
X32578939Y12014781D01*
X32569821Y12033091D01*
X32560301Y12046688D01*
X32519759Y12133630D01*
X32480233Y12213010D01*
X32476302Y12226823D01*
X32471929Y12236203D01*
X32444364Y12339074D01*
X32419632Y12426001D01*
X32418870Y12434220D01*
X32405932Y12482507D01*
X32252468Y12482507D01*
X32239529Y12434221D01*
X32238768Y12426001D01*
X32214025Y12339039D01*
X32186470Y12236203D01*
X32182098Y12226828D01*
X32178167Y12213010D01*
X32138624Y12133598D01*
X32098098Y12046688D01*
X32088580Y12033095D01*
X32079461Y12014781D01*
X32028556Y11947373D01*
X31978162Y11875402D01*
X31962006Y11859246D01*
X31946011Y11838065D01*
X31887331Y11784571D01*
X31830297Y11727537D01*
X31806454Y11710842D01*
X31782362Y11688879D01*
X31719509Y11649962D01*
X31659011Y11607601D01*
X31626939Y11592645D01*
X31594086Y11572304D01*
X31530436Y11547646D01*
X31469496Y11519229D01*
X31429243Y11508443D01*
X31387596Y11492309D01*
X31326187Y11480829D01*
X31267505Y11465106D01*
X31219693Y11460922D01*
X31169922Y11451619D01*
X31113354Y11451619D01*
X31059200Y11446881D01*
X31005046Y11451619D01*
X30948478Y11451619D01*
X30898706Y11460922D01*
X30850894Y11465106D01*
X30792208Y11480830D01*
X30730804Y11492309D01*
X30689158Y11508442D01*
X30648903Y11519229D01*
X30587957Y11547648D01*
X30524314Y11572304D01*
X30491463Y11592643D01*
X30459388Y11607601D01*
X30398882Y11649967D01*
X30336038Y11688879D01*
X30311948Y11710839D01*
X30288102Y11727537D01*
X30231057Y11784581D01*
X30172389Y11838065D01*
X30156396Y11859242D01*
X30140237Y11875402D01*
X30089829Y11947391D01*
X30038939Y12014781D01*
X30029821Y12033091D01*
X30020301Y12046688D01*
X29979759Y12133630D01*
X29940233Y12213010D01*
X29936302Y12226823D01*
X29931929Y12236203D01*
X29904367Y12339063D01*
X29879632Y12426001D01*
X29878870Y12434222D01*
X29877806Y12438194D01*
X29866027Y12572820D01*
X29859200Y12646500D01*
X29866027Y12720185D01*
X29877806Y12854805D01*
X29878870Y12858776D01*
X29879632Y12866999D01*
X29904372Y12953952D01*
X29931929Y13056796D01*
X29936301Y13066173D01*
X29940233Y13079990D01*
X29979770Y13159392D01*
X30020301Y13246310D01*
X30029818Y13259902D01*
X30038939Y13278219D01*
X30089843Y13345626D01*
X30140237Y13417597D01*
X30156393Y13433753D01*
X30172389Y13454935D01*
X30231068Y13508428D01*
X30288102Y13565462D01*
X30311943Y13582155D01*
X30336038Y13604121D01*
X30398900Y13643043D01*
X30459389Y13685398D01*
X30491454Y13700350D01*
X30524314Y13720696D01*
X30587971Y13745357D01*
X30648903Y13773770D01*
X30689150Y13784554D01*
X30730804Y13800691D01*
X30792221Y13812171D01*
X30850894Y13827893D01*
X30898696Y13832075D01*
X30948478Y13841381D01*
X31005058Y13841381D01*
X31059200Y13846118D01*
X31113342Y13841381D01*
X31169922Y13841381D01*
X31219704Y13832075D01*
X31267505Y13827893D01*
X31326175Y13812172D01*
X31387596Y13800691D01*
X31429252Y13784553D01*
X31469496Y13773770D01*
X31530424Y13745358D01*
X31594086Y13720696D01*
X31626945Y13700350D01*
X31659011Y13685398D01*
X31719496Y13643045D01*
X31782362Y13604121D01*
X31806459Y13582153D01*
X31830297Y13565462D01*
X31887320Y13508438D01*
X31946011Y13454935D01*
X31962009Y13433749D01*
X31978162Y13417597D01*
X32028543Y13345645D01*
X32079461Y13278219D01*
X32088584Y13259897D01*
X32098098Y13246310D01*
X32138613Y13159424D01*
X32178167Y13079990D01*
X32182099Y13066168D01*
X32186470Y13056796D01*
X32214020Y12953976D01*
X32238768Y12866999D01*
X32239529Y12858776D01*
X32252468Y12810492D01*
X32405932Y12810492D01*
X32418870Y12858778D01*
X32419632Y12866999D01*
X32444369Y12953941D01*
X32471929Y13056796D01*
X32476301Y13066173D01*
X32480233Y13079990D01*
X32519770Y13159392D01*
X32560301Y13246310D01*
X32569818Y13259902D01*
X32578939Y13278219D01*
X32629843Y13345626D01*
X32680237Y13417597D01*
X32696393Y13433753D01*
X32712389Y13454935D01*
X32771068Y13508428D01*
X32828102Y13565462D01*
X32851943Y13582155D01*
X32876038Y13604121D01*
X32938900Y13643043D01*
X32999389Y13685398D01*
X33031454Y13700350D01*
X33064314Y13720696D01*
X33127971Y13745357D01*
X33188903Y13773770D01*
X33229150Y13784554D01*
X33270804Y13800691D01*
X33332221Y13812171D01*
X33390894Y13827893D01*
X33438696Y13832075D01*
X33488478Y13841381D01*
X33545058Y13841381D01*
X33599200Y13846118D01*
X33653342Y13841381D01*
X33709922Y13841381D01*
X33759704Y13832075D01*
X33807505Y13827893D01*
X33866175Y13812172D01*
X33927596Y13800691D01*
X33969252Y13784553D01*
X34009496Y13773770D01*
X34070424Y13745358D01*
X34134086Y13720696D01*
X34166945Y13700350D01*
X34199011Y13685398D01*
X34259496Y13643045D01*
X34322362Y13604121D01*
X34346459Y13582153D01*
X34370297Y13565462D01*
X34427320Y13508438D01*
X34486011Y13454935D01*
X34502009Y13433749D01*
X34518162Y13417597D01*
X34568543Y13345645D01*
X34619461Y13278219D01*
X34628584Y13259897D01*
X34638098Y13246310D01*
X34678613Y13159424D01*
X34718167Y13079990D01*
X34722099Y13066168D01*
X34726470Y13056796D01*
X34754020Y12953976D01*
X34778768Y12866999D01*
X34779529Y12858776D01*
X34792468Y12810492D01*
X34945932Y12810492D01*
X34958870Y12858778D01*
X34959632Y12866999D01*
X34984369Y12953941D01*
X35011929Y13056796D01*
X35016301Y13066173D01*
X35020233Y13079990D01*
X35059770Y13159392D01*
X35100301Y13246310D01*
X35109818Y13259902D01*
X35118939Y13278219D01*
X35169843Y13345626D01*
X35220237Y13417597D01*
X35236393Y13433753D01*
X35252389Y13454935D01*
X35311068Y13508428D01*
X35368102Y13565462D01*
X35391943Y13582155D01*
X35416038Y13604121D01*
X35478900Y13643043D01*
X35539389Y13685398D01*
X35571454Y13700350D01*
X35604314Y13720696D01*
X35667971Y13745357D01*
X35728903Y13773770D01*
X35769150Y13784554D01*
X35810804Y13800691D01*
X35872221Y13812171D01*
X35930894Y13827893D01*
X35978696Y13832075D01*
X36028478Y13841381D01*
X36085058Y13841381D01*
X36139200Y13846118D01*
X36193342Y13841381D01*
G37*
G36*
X4580107Y14930387D02*
G01*
X4614134Y14926440D01*
X4625759Y14921306D01*
X4648537Y14916776D01*
X4672921Y14900482D01*
X4684047Y14895570D01*
X4691646Y14887970D01*
X4713421Y14873421D01*
X4727970Y14851646D01*
X4735570Y14844047D01*
X4740482Y14832921D01*
X4756776Y14808537D01*
X4761306Y14785759D01*
X4766440Y14774134D01*
X4770387Y14740105D01*
X4772000Y14732000D01*
X4772000Y13208000D01*
X4770387Y13199894D01*
X4766440Y13165865D01*
X4761306Y13154238D01*
X4756776Y13131463D01*
X4740483Y13107080D01*
X4735570Y13095952D01*
X4727968Y13088350D01*
X4713421Y13066579D01*
X4691649Y13052031D01*
X4684047Y13044429D01*
X4672917Y13039514D01*
X4648537Y13023224D01*
X4625764Y13018694D01*
X4614134Y13013559D01*
X4580093Y13009609D01*
X4572000Y13008000D01*
X4566217Y13008000D01*
X3053784Y13008000D01*
X3048000Y13008000D01*
X3039906Y13009609D01*
X3005865Y13013559D01*
X2994234Y13018694D01*
X2971463Y13023224D01*
X2947084Y13039513D01*
X2935952Y13044429D01*
X2928347Y13052033D01*
X2906579Y13066579D01*
X2892033Y13088347D01*
X2884429Y13095952D01*
X2879513Y13107084D01*
X2863224Y13131463D01*
X2858694Y13154234D01*
X2853559Y13165865D01*
X2849609Y13199908D01*
X2848000Y13208000D01*
X2848000Y14732000D01*
X2849610Y14740095D01*
X2853559Y14774134D01*
X2858694Y14785764D01*
X2863224Y14808537D01*
X2879514Y14832917D01*
X2884429Y14844047D01*
X2892031Y14851649D01*
X2906579Y14873421D01*
X2928350Y14887968D01*
X2935952Y14895570D01*
X2947080Y14900483D01*
X2971463Y14916776D01*
X2994238Y14921306D01*
X3005865Y14926440D01*
X3039896Y14930388D01*
X3048000Y14932000D01*
X4572000Y14932000D01*
X4580107Y14930387D01*
G37*
G36*
X7120107Y14930387D02*
G01*
X7154134Y14926440D01*
X7165759Y14921306D01*
X7188537Y14916776D01*
X7212921Y14900482D01*
X7224047Y14895570D01*
X7231646Y14887970D01*
X7253421Y14873421D01*
X7267970Y14851646D01*
X7275570Y14844047D01*
X7280482Y14832921D01*
X7296776Y14808537D01*
X7301306Y14785759D01*
X7306440Y14774134D01*
X7310387Y14740105D01*
X7312000Y14732000D01*
X7312000Y13208000D01*
X7310387Y13199894D01*
X7306440Y13165865D01*
X7301306Y13154238D01*
X7296776Y13131463D01*
X7280483Y13107080D01*
X7275570Y13095952D01*
X7267968Y13088350D01*
X7253421Y13066579D01*
X7231649Y13052031D01*
X7224047Y13044429D01*
X7212917Y13039514D01*
X7188537Y13023224D01*
X7165764Y13018694D01*
X7154134Y13013559D01*
X7120093Y13009609D01*
X7112000Y13008000D01*
X7106217Y13008000D01*
X5593784Y13008000D01*
X5588000Y13008000D01*
X5579906Y13009609D01*
X5545865Y13013559D01*
X5534234Y13018694D01*
X5511463Y13023224D01*
X5487084Y13039513D01*
X5475952Y13044429D01*
X5468347Y13052033D01*
X5446579Y13066579D01*
X5432033Y13088347D01*
X5424429Y13095952D01*
X5419513Y13107084D01*
X5403224Y13131463D01*
X5398694Y13154234D01*
X5393559Y13165865D01*
X5389609Y13199908D01*
X5388000Y13208000D01*
X5388000Y14732000D01*
X5389610Y14740095D01*
X5393559Y14774134D01*
X5398694Y14785764D01*
X5403224Y14808537D01*
X5419514Y14832917D01*
X5424429Y14844047D01*
X5432031Y14851649D01*
X5446579Y14873421D01*
X5468350Y14887968D01*
X5475952Y14895570D01*
X5487080Y14900483D01*
X5511463Y14916776D01*
X5534238Y14921306D01*
X5545865Y14926440D01*
X5579896Y14930388D01*
X5588000Y14932000D01*
X7112000Y14932000D01*
X7120107Y14930387D01*
G37*
G36*
X45220107Y14930387D02*
G01*
X45254134Y14926440D01*
X45265759Y14921306D01*
X45288537Y14916776D01*
X45312921Y14900482D01*
X45324047Y14895570D01*
X45331646Y14887970D01*
X45353421Y14873421D01*
X45367970Y14851646D01*
X45375570Y14844047D01*
X45380482Y14832921D01*
X45396776Y14808537D01*
X45401306Y14785759D01*
X45406440Y14774134D01*
X45410387Y14740105D01*
X45412000Y14732000D01*
X45412000Y13208000D01*
X45410387Y13199894D01*
X45406440Y13165865D01*
X45401306Y13154238D01*
X45396776Y13131463D01*
X45380483Y13107080D01*
X45375570Y13095952D01*
X45367968Y13088350D01*
X45353421Y13066579D01*
X45331649Y13052031D01*
X45324047Y13044429D01*
X45312917Y13039514D01*
X45288537Y13023224D01*
X45265764Y13018694D01*
X45254134Y13013559D01*
X45220093Y13009609D01*
X45212000Y13008000D01*
X45206217Y13008000D01*
X43693784Y13008000D01*
X43688000Y13008000D01*
X43679906Y13009609D01*
X43645865Y13013559D01*
X43634234Y13018694D01*
X43611463Y13023224D01*
X43587084Y13039513D01*
X43575952Y13044429D01*
X43568347Y13052033D01*
X43546579Y13066579D01*
X43532033Y13088347D01*
X43524429Y13095952D01*
X43519513Y13107084D01*
X43503224Y13131463D01*
X43498694Y13154234D01*
X43493559Y13165865D01*
X43489609Y13199908D01*
X43488000Y13208000D01*
X43488000Y14732000D01*
X43489610Y14740095D01*
X43493559Y14774134D01*
X43498694Y14785764D01*
X43503224Y14808537D01*
X43519514Y14832917D01*
X43524429Y14844047D01*
X43532031Y14851649D01*
X43546579Y14873421D01*
X43568350Y14887968D01*
X43575952Y14895570D01*
X43587080Y14900483D01*
X43611463Y14916776D01*
X43634238Y14921306D01*
X43645865Y14926440D01*
X43679896Y14930388D01*
X43688000Y14932000D01*
X45212000Y14932000D01*
X45220107Y14930387D01*
G37*
G36*
X47760107Y14930387D02*
G01*
X47794134Y14926440D01*
X47805759Y14921306D01*
X47828537Y14916776D01*
X47852921Y14900482D01*
X47864047Y14895570D01*
X47871646Y14887970D01*
X47893421Y14873421D01*
X47907970Y14851646D01*
X47915570Y14844047D01*
X47920482Y14832921D01*
X47936776Y14808537D01*
X47941306Y14785759D01*
X47946440Y14774134D01*
X47950387Y14740105D01*
X47952000Y14732000D01*
X47952000Y13208000D01*
X47950387Y13199894D01*
X47946440Y13165865D01*
X47941306Y13154238D01*
X47936776Y13131463D01*
X47920483Y13107080D01*
X47915570Y13095952D01*
X47907968Y13088350D01*
X47893421Y13066579D01*
X47871649Y13052031D01*
X47864047Y13044429D01*
X47852917Y13039514D01*
X47828537Y13023224D01*
X47805764Y13018694D01*
X47794134Y13013559D01*
X47760093Y13009609D01*
X47752000Y13008000D01*
X47746217Y13008000D01*
X46233784Y13008000D01*
X46228000Y13008000D01*
X46219906Y13009609D01*
X46185865Y13013559D01*
X46174234Y13018694D01*
X46151463Y13023224D01*
X46127084Y13039513D01*
X46115952Y13044429D01*
X46108347Y13052033D01*
X46086579Y13066579D01*
X46072033Y13088347D01*
X46064429Y13095952D01*
X46059513Y13107084D01*
X46043224Y13131463D01*
X46038694Y13154234D01*
X46033559Y13165865D01*
X46029609Y13199908D01*
X46028000Y13208000D01*
X46028000Y14732000D01*
X46029610Y14740095D01*
X46033559Y14774134D01*
X46038694Y14785764D01*
X46043224Y14808537D01*
X46059514Y14832917D01*
X46064429Y14844047D01*
X46072031Y14851649D01*
X46086579Y14873421D01*
X46108350Y14887968D01*
X46115952Y14895570D01*
X46127080Y14900483D01*
X46151463Y14916776D01*
X46174238Y14921306D01*
X46185865Y14926440D01*
X46219896Y14930388D01*
X46228000Y14932000D01*
X47752000Y14932000D01*
X47760107Y14930387D01*
G37*
G36*
X19683342Y16381381D02*
G01*
X19739922Y16381381D01*
X19789704Y16372075D01*
X19837505Y16367893D01*
X19896175Y16352172D01*
X19957596Y16340691D01*
X19999252Y16324553D01*
X20039496Y16313770D01*
X20100424Y16285358D01*
X20164086Y16260696D01*
X20196945Y16240350D01*
X20229011Y16225398D01*
X20289496Y16183045D01*
X20352362Y16144121D01*
X20376459Y16122153D01*
X20400297Y16105462D01*
X20457320Y16048438D01*
X20516011Y15994935D01*
X20532009Y15973749D01*
X20548162Y15957597D01*
X20598543Y15885645D01*
X20649461Y15818219D01*
X20658584Y15799897D01*
X20668098Y15786310D01*
X20708613Y15699424D01*
X20748167Y15619990D01*
X20752099Y15606168D01*
X20756470Y15596796D01*
X20784010Y15494012D01*
X20808768Y15406999D01*
X20809530Y15398770D01*
X20810593Y15394805D01*
X20822354Y15260378D01*
X20829200Y15186500D01*
X20822354Y15112627D01*
X20810593Y14978194D01*
X20809530Y14974228D01*
X20808768Y14966001D01*
X20784015Y14879003D01*
X20756470Y14776203D01*
X20752098Y14766828D01*
X20748167Y14753010D01*
X20708624Y14673598D01*
X20668098Y14586688D01*
X20658580Y14573095D01*
X20649461Y14554781D01*
X20598556Y14487373D01*
X20548162Y14415402D01*
X20532006Y14399246D01*
X20516011Y14378065D01*
X20457331Y14324571D01*
X20400297Y14267537D01*
X20376454Y14250842D01*
X20352362Y14228879D01*
X20289509Y14189962D01*
X20229011Y14147601D01*
X20196939Y14132645D01*
X20164086Y14112304D01*
X20100436Y14087646D01*
X20039496Y14059229D01*
X19999243Y14048443D01*
X19957596Y14032309D01*
X19896187Y14020829D01*
X19837505Y14005106D01*
X19789693Y14000922D01*
X19739922Y13991619D01*
X19683354Y13991619D01*
X19629200Y13986881D01*
X19575046Y13991619D01*
X19518478Y13991619D01*
X19468706Y14000922D01*
X19420894Y14005106D01*
X19362208Y14020830D01*
X19300804Y14032309D01*
X19259158Y14048442D01*
X19218903Y14059229D01*
X19157957Y14087648D01*
X19094314Y14112304D01*
X19061463Y14132643D01*
X19029388Y14147601D01*
X18968882Y14189967D01*
X18906038Y14228879D01*
X18881948Y14250839D01*
X18858102Y14267537D01*
X18801057Y14324581D01*
X18742389Y14378065D01*
X18726396Y14399242D01*
X18710237Y14415402D01*
X18659829Y14487391D01*
X18608939Y14554781D01*
X18599821Y14573091D01*
X18590301Y14586688D01*
X18549759Y14673630D01*
X18510233Y14753010D01*
X18506302Y14766823D01*
X18501929Y14776203D01*
X18474364Y14879074D01*
X18449632Y14966001D01*
X18448870Y14974220D01*
X18435932Y15022507D01*
X18282468Y15022507D01*
X18269529Y14974221D01*
X18268768Y14966001D01*
X18244025Y14879039D01*
X18216470Y14776203D01*
X18212098Y14766828D01*
X18208167Y14753010D01*
X18168624Y14673598D01*
X18128098Y14586688D01*
X18118580Y14573095D01*
X18109461Y14554781D01*
X18058556Y14487373D01*
X18008162Y14415402D01*
X17992006Y14399246D01*
X17976011Y14378065D01*
X17917331Y14324571D01*
X17860297Y14267537D01*
X17836454Y14250842D01*
X17812362Y14228879D01*
X17749509Y14189962D01*
X17689011Y14147601D01*
X17656939Y14132645D01*
X17624086Y14112304D01*
X17560436Y14087646D01*
X17499496Y14059229D01*
X17459243Y14048443D01*
X17417596Y14032309D01*
X17356187Y14020829D01*
X17297505Y14005106D01*
X17249693Y14000922D01*
X17199922Y13991619D01*
X17143354Y13991619D01*
X17089200Y13986881D01*
X17035046Y13991619D01*
X16978478Y13991619D01*
X16928706Y14000922D01*
X16880894Y14005106D01*
X16822208Y14020830D01*
X16760804Y14032309D01*
X16719158Y14048442D01*
X16678903Y14059229D01*
X16617957Y14087648D01*
X16554314Y14112304D01*
X16521463Y14132643D01*
X16489388Y14147601D01*
X16428882Y14189967D01*
X16366038Y14228879D01*
X16341948Y14250839D01*
X16318102Y14267537D01*
X16261057Y14324581D01*
X16202389Y14378065D01*
X16186396Y14399242D01*
X16170237Y14415402D01*
X16119829Y14487391D01*
X16068939Y14554781D01*
X16059821Y14573091D01*
X16050301Y14586688D01*
X16009759Y14673630D01*
X15970233Y14753010D01*
X15966302Y14766823D01*
X15961929Y14776203D01*
X15934364Y14879074D01*
X15909632Y14966001D01*
X15908870Y14974220D01*
X15895932Y15022507D01*
X15742468Y15022507D01*
X15729529Y14974221D01*
X15728768Y14966001D01*
X15704025Y14879039D01*
X15676470Y14776203D01*
X15672098Y14766828D01*
X15668167Y14753010D01*
X15628624Y14673598D01*
X15588098Y14586688D01*
X15578580Y14573095D01*
X15569461Y14554781D01*
X15518556Y14487373D01*
X15468162Y14415402D01*
X15452006Y14399246D01*
X15436011Y14378065D01*
X15377331Y14324571D01*
X15320297Y14267537D01*
X15296454Y14250842D01*
X15272362Y14228879D01*
X15209509Y14189962D01*
X15149011Y14147601D01*
X15116939Y14132645D01*
X15084086Y14112304D01*
X15020436Y14087646D01*
X14959496Y14059229D01*
X14919243Y14048443D01*
X14877596Y14032309D01*
X14816187Y14020829D01*
X14757505Y14005106D01*
X14709693Y14000922D01*
X14659922Y13991619D01*
X14603354Y13991619D01*
X14549200Y13986881D01*
X14495046Y13991619D01*
X14438478Y13991619D01*
X14388706Y14000922D01*
X14340894Y14005106D01*
X14282208Y14020830D01*
X14220804Y14032309D01*
X14179158Y14048442D01*
X14138903Y14059229D01*
X14077957Y14087648D01*
X14014314Y14112304D01*
X13981463Y14132643D01*
X13949388Y14147601D01*
X13888882Y14189967D01*
X13826038Y14228879D01*
X13801948Y14250839D01*
X13778102Y14267537D01*
X13721057Y14324581D01*
X13662389Y14378065D01*
X13646396Y14399242D01*
X13630237Y14415402D01*
X13579829Y14487391D01*
X13528939Y14554781D01*
X13519821Y14573091D01*
X13510301Y14586688D01*
X13469759Y14673630D01*
X13430233Y14753010D01*
X13426302Y14766823D01*
X13421929Y14776203D01*
X13394367Y14879063D01*
X13369632Y14966001D01*
X13368870Y14974222D01*
X13367806Y14978194D01*
X13356027Y15112820D01*
X13349200Y15186500D01*
X13356027Y15260185D01*
X13367806Y15394805D01*
X13368870Y15398776D01*
X13369632Y15406999D01*
X13394372Y15493952D01*
X13421929Y15596796D01*
X13426301Y15606173D01*
X13430233Y15619990D01*
X13469770Y15699392D01*
X13510301Y15786310D01*
X13519818Y15799902D01*
X13528939Y15818219D01*
X13579843Y15885626D01*
X13630237Y15957597D01*
X13646393Y15973753D01*
X13662389Y15994935D01*
X13721068Y16048428D01*
X13778102Y16105462D01*
X13801943Y16122155D01*
X13826038Y16144121D01*
X13888900Y16183043D01*
X13949389Y16225398D01*
X13981454Y16240350D01*
X14014314Y16260696D01*
X14077971Y16285357D01*
X14138903Y16313770D01*
X14179150Y16324554D01*
X14220804Y16340691D01*
X14282221Y16352171D01*
X14340894Y16367893D01*
X14388696Y16372075D01*
X14438478Y16381381D01*
X14495058Y16381381D01*
X14549200Y16386118D01*
X14603342Y16381381D01*
X14659922Y16381381D01*
X14709704Y16372075D01*
X14757505Y16367893D01*
X14816175Y16352172D01*
X14877596Y16340691D01*
X14919252Y16324553D01*
X14959496Y16313770D01*
X15020424Y16285358D01*
X15084086Y16260696D01*
X15116945Y16240350D01*
X15149011Y16225398D01*
X15209496Y16183045D01*
X15272362Y16144121D01*
X15296459Y16122153D01*
X15320297Y16105462D01*
X15377320Y16048438D01*
X15436011Y15994935D01*
X15452009Y15973749D01*
X15468162Y15957597D01*
X15518543Y15885645D01*
X15569461Y15818219D01*
X15578584Y15799897D01*
X15588098Y15786310D01*
X15628613Y15699424D01*
X15668167Y15619990D01*
X15672099Y15606168D01*
X15676470Y15596796D01*
X15704020Y15493976D01*
X15728768Y15406999D01*
X15729529Y15398776D01*
X15742468Y15350492D01*
X15895932Y15350492D01*
X15908870Y15398778D01*
X15909632Y15406999D01*
X15934369Y15493941D01*
X15961929Y15596796D01*
X15966301Y15606173D01*
X15970233Y15619990D01*
X16009770Y15699392D01*
X16050301Y15786310D01*
X16059818Y15799902D01*
X16068939Y15818219D01*
X16119843Y15885626D01*
X16170237Y15957597D01*
X16186393Y15973753D01*
X16202389Y15994935D01*
X16261068Y16048428D01*
X16318102Y16105462D01*
X16341943Y16122155D01*
X16366038Y16144121D01*
X16428900Y16183043D01*
X16489389Y16225398D01*
X16521454Y16240350D01*
X16554314Y16260696D01*
X16617971Y16285357D01*
X16678903Y16313770D01*
X16719150Y16324554D01*
X16760804Y16340691D01*
X16822221Y16352171D01*
X16880894Y16367893D01*
X16928696Y16372075D01*
X16978478Y16381381D01*
X17035058Y16381381D01*
X17089200Y16386118D01*
X17143342Y16381381D01*
X17199922Y16381381D01*
X17249704Y16372075D01*
X17297505Y16367893D01*
X17356175Y16352172D01*
X17417596Y16340691D01*
X17459252Y16324553D01*
X17499496Y16313770D01*
X17560424Y16285358D01*
X17624086Y16260696D01*
X17656945Y16240350D01*
X17689011Y16225398D01*
X17749496Y16183045D01*
X17812362Y16144121D01*
X17836459Y16122153D01*
X17860297Y16105462D01*
X17917320Y16048438D01*
X17976011Y15994935D01*
X17992009Y15973749D01*
X18008162Y15957597D01*
X18058543Y15885645D01*
X18109461Y15818219D01*
X18118584Y15799897D01*
X18128098Y15786310D01*
X18168613Y15699424D01*
X18208167Y15619990D01*
X18212099Y15606168D01*
X18216470Y15596796D01*
X18244020Y15493976D01*
X18268768Y15406999D01*
X18269529Y15398776D01*
X18282468Y15350492D01*
X18435932Y15350492D01*
X18448870Y15398778D01*
X18449632Y15406999D01*
X18474369Y15493941D01*
X18501929Y15596796D01*
X18506301Y15606173D01*
X18510233Y15619990D01*
X18549770Y15699392D01*
X18590301Y15786310D01*
X18599818Y15799902D01*
X18608939Y15818219D01*
X18659843Y15885626D01*
X18710237Y15957597D01*
X18726393Y15973753D01*
X18742389Y15994935D01*
X18801068Y16048428D01*
X18858102Y16105462D01*
X18881943Y16122155D01*
X18906038Y16144121D01*
X18968900Y16183043D01*
X19029389Y16225398D01*
X19061454Y16240350D01*
X19094314Y16260696D01*
X19157971Y16285357D01*
X19218903Y16313770D01*
X19259150Y16324554D01*
X19300804Y16340691D01*
X19362221Y16352171D01*
X19420894Y16367893D01*
X19468696Y16372075D01*
X19518478Y16381381D01*
X19575058Y16381381D01*
X19629200Y16386118D01*
X19683342Y16381381D01*
G37*
G36*
X34923342Y16381381D02*
G01*
X34979922Y16381381D01*
X35029704Y16372075D01*
X35077505Y16367893D01*
X35136175Y16352172D01*
X35197596Y16340691D01*
X35239252Y16324553D01*
X35279496Y16313770D01*
X35340424Y16285358D01*
X35404086Y16260696D01*
X35436945Y16240350D01*
X35469011Y16225398D01*
X35529496Y16183045D01*
X35592362Y16144121D01*
X35616459Y16122153D01*
X35640297Y16105462D01*
X35697320Y16048438D01*
X35756011Y15994935D01*
X35772009Y15973749D01*
X35788162Y15957597D01*
X35838543Y15885645D01*
X35889461Y15818219D01*
X35898584Y15799897D01*
X35908098Y15786310D01*
X35948613Y15699424D01*
X35988167Y15619990D01*
X35992099Y15606168D01*
X35996470Y15596796D01*
X36024010Y15494012D01*
X36048768Y15406999D01*
X36049530Y15398770D01*
X36050593Y15394805D01*
X36062354Y15260378D01*
X36069200Y15186500D01*
X36062354Y15112627D01*
X36050593Y14978194D01*
X36049530Y14974228D01*
X36048768Y14966001D01*
X36024015Y14879003D01*
X35996470Y14776203D01*
X35992098Y14766828D01*
X35988167Y14753010D01*
X35948624Y14673598D01*
X35908098Y14586688D01*
X35898580Y14573095D01*
X35889461Y14554781D01*
X35838556Y14487373D01*
X35788162Y14415402D01*
X35772006Y14399246D01*
X35756011Y14378065D01*
X35697331Y14324571D01*
X35640297Y14267537D01*
X35616454Y14250842D01*
X35592362Y14228879D01*
X35529509Y14189962D01*
X35469011Y14147601D01*
X35436939Y14132645D01*
X35404086Y14112304D01*
X35340436Y14087646D01*
X35279496Y14059229D01*
X35239243Y14048443D01*
X35197596Y14032309D01*
X35136187Y14020829D01*
X35077505Y14005106D01*
X35029693Y14000922D01*
X34979922Y13991619D01*
X34923354Y13991619D01*
X34869200Y13986881D01*
X34815046Y13991619D01*
X34758478Y13991619D01*
X34708706Y14000922D01*
X34660894Y14005106D01*
X34602208Y14020830D01*
X34540804Y14032309D01*
X34499158Y14048442D01*
X34458903Y14059229D01*
X34397957Y14087648D01*
X34334314Y14112304D01*
X34301463Y14132643D01*
X34269388Y14147601D01*
X34208882Y14189967D01*
X34146038Y14228879D01*
X34121948Y14250839D01*
X34098102Y14267537D01*
X34041057Y14324581D01*
X33982389Y14378065D01*
X33966396Y14399242D01*
X33950237Y14415402D01*
X33899829Y14487391D01*
X33848939Y14554781D01*
X33839821Y14573091D01*
X33830301Y14586688D01*
X33789759Y14673630D01*
X33750233Y14753010D01*
X33746302Y14766823D01*
X33741929Y14776203D01*
X33714364Y14879074D01*
X33689632Y14966001D01*
X33688870Y14974220D01*
X33675932Y15022507D01*
X33522468Y15022507D01*
X33509529Y14974221D01*
X33508768Y14966001D01*
X33484025Y14879039D01*
X33456470Y14776203D01*
X33452098Y14766828D01*
X33448167Y14753010D01*
X33408624Y14673598D01*
X33368098Y14586688D01*
X33358580Y14573095D01*
X33349461Y14554781D01*
X33298556Y14487373D01*
X33248162Y14415402D01*
X33232006Y14399246D01*
X33216011Y14378065D01*
X33157331Y14324571D01*
X33100297Y14267537D01*
X33076454Y14250842D01*
X33052362Y14228879D01*
X32989509Y14189962D01*
X32929011Y14147601D01*
X32896939Y14132645D01*
X32864086Y14112304D01*
X32800436Y14087646D01*
X32739496Y14059229D01*
X32699243Y14048443D01*
X32657596Y14032309D01*
X32596187Y14020829D01*
X32537505Y14005106D01*
X32489693Y14000922D01*
X32439922Y13991619D01*
X32383354Y13991619D01*
X32329200Y13986881D01*
X32275046Y13991619D01*
X32218478Y13991619D01*
X32168706Y14000922D01*
X32120894Y14005106D01*
X32062208Y14020830D01*
X32000804Y14032309D01*
X31959158Y14048442D01*
X31918903Y14059229D01*
X31857957Y14087648D01*
X31794314Y14112304D01*
X31761463Y14132643D01*
X31729388Y14147601D01*
X31668882Y14189967D01*
X31606038Y14228879D01*
X31581948Y14250839D01*
X31558102Y14267537D01*
X31501057Y14324581D01*
X31442389Y14378065D01*
X31426396Y14399242D01*
X31410237Y14415402D01*
X31359829Y14487391D01*
X31308939Y14554781D01*
X31299821Y14573091D01*
X31290301Y14586688D01*
X31249759Y14673630D01*
X31210233Y14753010D01*
X31206302Y14766823D01*
X31201929Y14776203D01*
X31174364Y14879074D01*
X31149632Y14966001D01*
X31148870Y14974220D01*
X31135932Y15022507D01*
X30982468Y15022507D01*
X30969529Y14974221D01*
X30968768Y14966001D01*
X30944025Y14879039D01*
X30916470Y14776203D01*
X30912098Y14766828D01*
X30908167Y14753010D01*
X30868624Y14673598D01*
X30828098Y14586688D01*
X30818580Y14573095D01*
X30809461Y14554781D01*
X30758556Y14487373D01*
X30708162Y14415402D01*
X30692006Y14399246D01*
X30676011Y14378065D01*
X30617331Y14324571D01*
X30560297Y14267537D01*
X30536454Y14250842D01*
X30512362Y14228879D01*
X30449509Y14189962D01*
X30389011Y14147601D01*
X30356939Y14132645D01*
X30324086Y14112304D01*
X30260436Y14087646D01*
X30199496Y14059229D01*
X30159243Y14048443D01*
X30117596Y14032309D01*
X30056187Y14020829D01*
X29997505Y14005106D01*
X29949693Y14000922D01*
X29899922Y13991619D01*
X29843354Y13991619D01*
X29789200Y13986881D01*
X29735046Y13991619D01*
X29678478Y13991619D01*
X29628706Y14000922D01*
X29580894Y14005106D01*
X29522208Y14020830D01*
X29460804Y14032309D01*
X29419158Y14048442D01*
X29378903Y14059229D01*
X29317957Y14087648D01*
X29254314Y14112304D01*
X29221463Y14132643D01*
X29189388Y14147601D01*
X29128882Y14189967D01*
X29066038Y14228879D01*
X29041948Y14250839D01*
X29018102Y14267537D01*
X28961057Y14324581D01*
X28902389Y14378065D01*
X28886396Y14399242D01*
X28870237Y14415402D01*
X28819829Y14487391D01*
X28768939Y14554781D01*
X28759821Y14573091D01*
X28750301Y14586688D01*
X28709759Y14673630D01*
X28670233Y14753010D01*
X28666302Y14766823D01*
X28661929Y14776203D01*
X28634367Y14879063D01*
X28609632Y14966001D01*
X28608870Y14974222D01*
X28607806Y14978194D01*
X28596027Y15112820D01*
X28589200Y15186500D01*
X28596027Y15260185D01*
X28607806Y15394805D01*
X28608870Y15398776D01*
X28609632Y15406999D01*
X28634372Y15493952D01*
X28661929Y15596796D01*
X28666301Y15606173D01*
X28670233Y15619990D01*
X28709770Y15699392D01*
X28750301Y15786310D01*
X28759818Y15799902D01*
X28768939Y15818219D01*
X28819843Y15885626D01*
X28870237Y15957597D01*
X28886393Y15973753D01*
X28902389Y15994935D01*
X28961068Y16048428D01*
X29018102Y16105462D01*
X29041943Y16122155D01*
X29066038Y16144121D01*
X29128900Y16183043D01*
X29189389Y16225398D01*
X29221454Y16240350D01*
X29254314Y16260696D01*
X29317971Y16285357D01*
X29378903Y16313770D01*
X29419150Y16324554D01*
X29460804Y16340691D01*
X29522221Y16352171D01*
X29580894Y16367893D01*
X29628696Y16372075D01*
X29678478Y16381381D01*
X29735058Y16381381D01*
X29789200Y16386118D01*
X29843342Y16381381D01*
X29899922Y16381381D01*
X29949704Y16372075D01*
X29997505Y16367893D01*
X30056175Y16352172D01*
X30117596Y16340691D01*
X30159252Y16324553D01*
X30199496Y16313770D01*
X30260424Y16285358D01*
X30324086Y16260696D01*
X30356945Y16240350D01*
X30389011Y16225398D01*
X30449496Y16183045D01*
X30512362Y16144121D01*
X30536459Y16122153D01*
X30560297Y16105462D01*
X30617320Y16048438D01*
X30676011Y15994935D01*
X30692009Y15973749D01*
X30708162Y15957597D01*
X30758543Y15885645D01*
X30809461Y15818219D01*
X30818584Y15799897D01*
X30828098Y15786310D01*
X30868613Y15699424D01*
X30908167Y15619990D01*
X30912099Y15606168D01*
X30916470Y15596796D01*
X30944020Y15493976D01*
X30968768Y15406999D01*
X30969529Y15398776D01*
X30982468Y15350492D01*
X31135932Y15350492D01*
X31148870Y15398778D01*
X31149632Y15406999D01*
X31174369Y15493941D01*
X31201929Y15596796D01*
X31206301Y15606173D01*
X31210233Y15619990D01*
X31249770Y15699392D01*
X31290301Y15786310D01*
X31299818Y15799902D01*
X31308939Y15818219D01*
X31359843Y15885626D01*
X31410237Y15957597D01*
X31426393Y15973753D01*
X31442389Y15994935D01*
X31501068Y16048428D01*
X31558102Y16105462D01*
X31581943Y16122155D01*
X31606038Y16144121D01*
X31668900Y16183043D01*
X31729389Y16225398D01*
X31761454Y16240350D01*
X31794314Y16260696D01*
X31857971Y16285357D01*
X31918903Y16313770D01*
X31959150Y16324554D01*
X32000804Y16340691D01*
X32062221Y16352171D01*
X32120894Y16367893D01*
X32168696Y16372075D01*
X32218478Y16381381D01*
X32275058Y16381381D01*
X32329200Y16386118D01*
X32383342Y16381381D01*
X32439922Y16381381D01*
X32489704Y16372075D01*
X32537505Y16367893D01*
X32596175Y16352172D01*
X32657596Y16340691D01*
X32699252Y16324553D01*
X32739496Y16313770D01*
X32800424Y16285358D01*
X32864086Y16260696D01*
X32896945Y16240350D01*
X32929011Y16225398D01*
X32989496Y16183045D01*
X33052362Y16144121D01*
X33076459Y16122153D01*
X33100297Y16105462D01*
X33157320Y16048438D01*
X33216011Y15994935D01*
X33232009Y15973749D01*
X33248162Y15957597D01*
X33298543Y15885645D01*
X33349461Y15818219D01*
X33358584Y15799897D01*
X33368098Y15786310D01*
X33408613Y15699424D01*
X33448167Y15619990D01*
X33452099Y15606168D01*
X33456470Y15596796D01*
X33484020Y15493976D01*
X33508768Y15406999D01*
X33509529Y15398776D01*
X33522468Y15350492D01*
X33675932Y15350492D01*
X33688870Y15398778D01*
X33689632Y15406999D01*
X33714369Y15493941D01*
X33741929Y15596796D01*
X33746301Y15606173D01*
X33750233Y15619990D01*
X33789770Y15699392D01*
X33830301Y15786310D01*
X33839818Y15799902D01*
X33848939Y15818219D01*
X33899843Y15885626D01*
X33950237Y15957597D01*
X33966393Y15973753D01*
X33982389Y15994935D01*
X34041068Y16048428D01*
X34098102Y16105462D01*
X34121943Y16122155D01*
X34146038Y16144121D01*
X34208900Y16183043D01*
X34269389Y16225398D01*
X34301454Y16240350D01*
X34334314Y16260696D01*
X34397971Y16285357D01*
X34458903Y16313770D01*
X34499150Y16324554D01*
X34540804Y16340691D01*
X34602221Y16352171D01*
X34660894Y16367893D01*
X34708696Y16372075D01*
X34758478Y16381381D01*
X34815058Y16381381D01*
X34869200Y16386118D01*
X34923342Y16381381D01*
G37*
G36*
X4580107Y17470387D02*
G01*
X4614134Y17466440D01*
X4625759Y17461306D01*
X4648537Y17456776D01*
X4672921Y17440482D01*
X4684047Y17435570D01*
X4691646Y17427970D01*
X4713421Y17413421D01*
X4727970Y17391646D01*
X4735570Y17384047D01*
X4740482Y17372921D01*
X4756776Y17348537D01*
X4761306Y17325759D01*
X4766440Y17314134D01*
X4770387Y17280105D01*
X4772000Y17272000D01*
X4772000Y15748000D01*
X4770387Y15739894D01*
X4766440Y15705865D01*
X4761306Y15694238D01*
X4756776Y15671463D01*
X4740483Y15647080D01*
X4735570Y15635952D01*
X4727968Y15628350D01*
X4713421Y15606579D01*
X4691649Y15592031D01*
X4684047Y15584429D01*
X4672917Y15579514D01*
X4648537Y15563224D01*
X4625764Y15558694D01*
X4614134Y15553559D01*
X4580093Y15549609D01*
X4572000Y15548000D01*
X4566217Y15548000D01*
X3053784Y15548000D01*
X3048000Y15548000D01*
X3039906Y15549609D01*
X3005865Y15553559D01*
X2994234Y15558694D01*
X2971463Y15563224D01*
X2947084Y15579513D01*
X2935952Y15584429D01*
X2928347Y15592033D01*
X2906579Y15606579D01*
X2892033Y15628347D01*
X2884429Y15635952D01*
X2879513Y15647084D01*
X2863224Y15671463D01*
X2858694Y15694234D01*
X2853559Y15705865D01*
X2849609Y15739908D01*
X2848000Y15748000D01*
X2848000Y17272000D01*
X2849610Y17280095D01*
X2853559Y17314134D01*
X2858694Y17325764D01*
X2863224Y17348537D01*
X2879514Y17372917D01*
X2884429Y17384047D01*
X2892031Y17391649D01*
X2906579Y17413421D01*
X2928350Y17427968D01*
X2935952Y17435570D01*
X2947080Y17440483D01*
X2971463Y17456776D01*
X2994238Y17461306D01*
X3005865Y17466440D01*
X3039896Y17470388D01*
X3048000Y17472000D01*
X4572000Y17472000D01*
X4580107Y17470387D01*
G37*
G36*
X7120107Y17470387D02*
G01*
X7154134Y17466440D01*
X7165759Y17461306D01*
X7188537Y17456776D01*
X7212921Y17440482D01*
X7224047Y17435570D01*
X7231646Y17427970D01*
X7253421Y17413421D01*
X7267970Y17391646D01*
X7275570Y17384047D01*
X7280482Y17372921D01*
X7296776Y17348537D01*
X7301306Y17325759D01*
X7306440Y17314134D01*
X7310387Y17280105D01*
X7312000Y17272000D01*
X7312000Y15748000D01*
X7310387Y15739894D01*
X7306440Y15705865D01*
X7301306Y15694238D01*
X7296776Y15671463D01*
X7280483Y15647080D01*
X7275570Y15635952D01*
X7267968Y15628350D01*
X7253421Y15606579D01*
X7231649Y15592031D01*
X7224047Y15584429D01*
X7212917Y15579514D01*
X7188537Y15563224D01*
X7165764Y15558694D01*
X7154134Y15553559D01*
X7120093Y15549609D01*
X7112000Y15548000D01*
X7106217Y15548000D01*
X5593784Y15548000D01*
X5588000Y15548000D01*
X5579906Y15549609D01*
X5545865Y15553559D01*
X5534234Y15558694D01*
X5511463Y15563224D01*
X5487084Y15579513D01*
X5475952Y15584429D01*
X5468347Y15592033D01*
X5446579Y15606579D01*
X5432033Y15628347D01*
X5424429Y15635952D01*
X5419513Y15647084D01*
X5403224Y15671463D01*
X5398694Y15694234D01*
X5393559Y15705865D01*
X5389609Y15739908D01*
X5388000Y15748000D01*
X5388000Y17272000D01*
X5389610Y17280095D01*
X5393559Y17314134D01*
X5398694Y17325764D01*
X5403224Y17348537D01*
X5419514Y17372917D01*
X5424429Y17384047D01*
X5432031Y17391649D01*
X5446579Y17413421D01*
X5468350Y17427968D01*
X5475952Y17435570D01*
X5487080Y17440483D01*
X5511463Y17456776D01*
X5534238Y17461306D01*
X5545865Y17466440D01*
X5579896Y17470388D01*
X5588000Y17472000D01*
X7112000Y17472000D01*
X7120107Y17470387D01*
G37*
G36*
X45220107Y17470387D02*
G01*
X45254134Y17466440D01*
X45265759Y17461306D01*
X45288537Y17456776D01*
X45312921Y17440482D01*
X45324047Y17435570D01*
X45331646Y17427970D01*
X45353421Y17413421D01*
X45367970Y17391646D01*
X45375570Y17384047D01*
X45380482Y17372921D01*
X45396776Y17348537D01*
X45401306Y17325759D01*
X45406440Y17314134D01*
X45410387Y17280105D01*
X45412000Y17272000D01*
X45412000Y15748000D01*
X45410387Y15739894D01*
X45406440Y15705865D01*
X45401306Y15694238D01*
X45396776Y15671463D01*
X45380483Y15647080D01*
X45375570Y15635952D01*
X45367968Y15628350D01*
X45353421Y15606579D01*
X45331649Y15592031D01*
X45324047Y15584429D01*
X45312917Y15579514D01*
X45288537Y15563224D01*
X45265764Y15558694D01*
X45254134Y15553559D01*
X45220093Y15549609D01*
X45212000Y15548000D01*
X45206217Y15548000D01*
X43693784Y15548000D01*
X43688000Y15548000D01*
X43679906Y15549609D01*
X43645865Y15553559D01*
X43634234Y15558694D01*
X43611463Y15563224D01*
X43587084Y15579513D01*
X43575952Y15584429D01*
X43568347Y15592033D01*
X43546579Y15606579D01*
X43532033Y15628347D01*
X43524429Y15635952D01*
X43519513Y15647084D01*
X43503224Y15671463D01*
X43498694Y15694234D01*
X43493559Y15705865D01*
X43489609Y15739908D01*
X43488000Y15748000D01*
X43488000Y17272000D01*
X43489610Y17280095D01*
X43493559Y17314134D01*
X43498694Y17325764D01*
X43503224Y17348537D01*
X43519514Y17372917D01*
X43524429Y17384047D01*
X43532031Y17391649D01*
X43546579Y17413421D01*
X43568350Y17427968D01*
X43575952Y17435570D01*
X43587080Y17440483D01*
X43611463Y17456776D01*
X43634238Y17461306D01*
X43645865Y17466440D01*
X43679896Y17470388D01*
X43688000Y17472000D01*
X45212000Y17472000D01*
X45220107Y17470387D01*
G37*
G36*
X47760107Y17470387D02*
G01*
X47794134Y17466440D01*
X47805759Y17461306D01*
X47828537Y17456776D01*
X47852921Y17440482D01*
X47864047Y17435570D01*
X47871646Y17427970D01*
X47893421Y17413421D01*
X47907970Y17391646D01*
X47915570Y17384047D01*
X47920482Y17372921D01*
X47936776Y17348537D01*
X47941306Y17325759D01*
X47946440Y17314134D01*
X47950387Y17280105D01*
X47952000Y17272000D01*
X47952000Y15748000D01*
X47950387Y15739894D01*
X47946440Y15705865D01*
X47941306Y15694238D01*
X47936776Y15671463D01*
X47920483Y15647080D01*
X47915570Y15635952D01*
X47907968Y15628350D01*
X47893421Y15606579D01*
X47871649Y15592031D01*
X47864047Y15584429D01*
X47852917Y15579514D01*
X47828537Y15563224D01*
X47805764Y15558694D01*
X47794134Y15553559D01*
X47760093Y15549609D01*
X47752000Y15548000D01*
X47746217Y15548000D01*
X46233784Y15548000D01*
X46228000Y15548000D01*
X46219906Y15549609D01*
X46185865Y15553559D01*
X46174234Y15558694D01*
X46151463Y15563224D01*
X46127084Y15579513D01*
X46115952Y15584429D01*
X46108347Y15592033D01*
X46086579Y15606579D01*
X46072033Y15628347D01*
X46064429Y15635952D01*
X46059513Y15647084D01*
X46043224Y15671463D01*
X46038694Y15694234D01*
X46033559Y15705865D01*
X46029609Y15739908D01*
X46028000Y15748000D01*
X46028000Y17272000D01*
X46029610Y17280095D01*
X46033559Y17314134D01*
X46038694Y17325764D01*
X46043224Y17348537D01*
X46059514Y17372917D01*
X46064429Y17384047D01*
X46072031Y17391649D01*
X46086579Y17413421D01*
X46108350Y17427968D01*
X46115952Y17435570D01*
X46127080Y17440483D01*
X46151463Y17456776D01*
X46174238Y17461306D01*
X46185865Y17466440D01*
X46219896Y17470388D01*
X46228000Y17472000D01*
X47752000Y17472000D01*
X47760107Y17470387D01*
G37*
G36*
X4580107Y20010387D02*
G01*
X4614134Y20006440D01*
X4625759Y20001306D01*
X4648537Y19996776D01*
X4672921Y19980482D01*
X4684047Y19975570D01*
X4691646Y19967970D01*
X4713421Y19953421D01*
X4727970Y19931646D01*
X4735570Y19924047D01*
X4740482Y19912921D01*
X4756776Y19888537D01*
X4761306Y19865759D01*
X4766440Y19854134D01*
X4770387Y19820105D01*
X4772000Y19812000D01*
X4772000Y18288000D01*
X4770387Y18279894D01*
X4766440Y18245865D01*
X4761306Y18234238D01*
X4756776Y18211463D01*
X4740483Y18187080D01*
X4735570Y18175952D01*
X4727968Y18168350D01*
X4713421Y18146579D01*
X4691649Y18132031D01*
X4684047Y18124429D01*
X4672917Y18119514D01*
X4648537Y18103224D01*
X4625764Y18098694D01*
X4614134Y18093559D01*
X4580093Y18089609D01*
X4572000Y18088000D01*
X4566217Y18088000D01*
X3053784Y18088000D01*
X3048000Y18088000D01*
X3039906Y18089609D01*
X3005865Y18093559D01*
X2994234Y18098694D01*
X2971463Y18103224D01*
X2947084Y18119513D01*
X2935952Y18124429D01*
X2928347Y18132033D01*
X2906579Y18146579D01*
X2892033Y18168347D01*
X2884429Y18175952D01*
X2879513Y18187084D01*
X2863224Y18211463D01*
X2858694Y18234234D01*
X2853559Y18245865D01*
X2849609Y18279908D01*
X2848000Y18288000D01*
X2848000Y19812000D01*
X2849610Y19820095D01*
X2853559Y19854134D01*
X2858694Y19865764D01*
X2863224Y19888537D01*
X2879514Y19912917D01*
X2884429Y19924047D01*
X2892031Y19931649D01*
X2906579Y19953421D01*
X2928350Y19967968D01*
X2935952Y19975570D01*
X2947080Y19980483D01*
X2971463Y19996776D01*
X2994238Y20001306D01*
X3005865Y20006440D01*
X3039896Y20010388D01*
X3048000Y20012000D01*
X4572000Y20012000D01*
X4580107Y20010387D01*
G37*
G36*
X7120107Y20010387D02*
G01*
X7154134Y20006440D01*
X7165759Y20001306D01*
X7188537Y19996776D01*
X7212921Y19980482D01*
X7224047Y19975570D01*
X7231646Y19967970D01*
X7253421Y19953421D01*
X7267970Y19931646D01*
X7275570Y19924047D01*
X7280482Y19912921D01*
X7296776Y19888537D01*
X7301306Y19865759D01*
X7306440Y19854134D01*
X7310387Y19820105D01*
X7312000Y19812000D01*
X7312000Y18288000D01*
X7310387Y18279894D01*
X7306440Y18245865D01*
X7301306Y18234238D01*
X7296776Y18211463D01*
X7280483Y18187080D01*
X7275570Y18175952D01*
X7267968Y18168350D01*
X7253421Y18146579D01*
X7231649Y18132031D01*
X7224047Y18124429D01*
X7212917Y18119514D01*
X7188537Y18103224D01*
X7165764Y18098694D01*
X7154134Y18093559D01*
X7120093Y18089609D01*
X7112000Y18088000D01*
X7106217Y18088000D01*
X5593784Y18088000D01*
X5588000Y18088000D01*
X5579906Y18089609D01*
X5545865Y18093559D01*
X5534234Y18098694D01*
X5511463Y18103224D01*
X5487084Y18119513D01*
X5475952Y18124429D01*
X5468347Y18132033D01*
X5446579Y18146579D01*
X5432033Y18168347D01*
X5424429Y18175952D01*
X5419513Y18187084D01*
X5403224Y18211463D01*
X5398694Y18234234D01*
X5393559Y18245865D01*
X5389609Y18279908D01*
X5388000Y18288000D01*
X5388000Y19812000D01*
X5389610Y19820095D01*
X5393559Y19854134D01*
X5398694Y19865764D01*
X5403224Y19888537D01*
X5419514Y19912917D01*
X5424429Y19924047D01*
X5432031Y19931649D01*
X5446579Y19953421D01*
X5468350Y19967968D01*
X5475952Y19975570D01*
X5487080Y19980483D01*
X5511463Y19996776D01*
X5534238Y20001306D01*
X5545865Y20006440D01*
X5579896Y20010388D01*
X5588000Y20012000D01*
X7112000Y20012000D01*
X7120107Y20010387D01*
G37*
G36*
X45220107Y20010387D02*
G01*
X45254134Y20006440D01*
X45265759Y20001306D01*
X45288537Y19996776D01*
X45312921Y19980482D01*
X45324047Y19975570D01*
X45331646Y19967970D01*
X45353421Y19953421D01*
X45367970Y19931646D01*
X45375570Y19924047D01*
X45380482Y19912921D01*
X45396776Y19888537D01*
X45401306Y19865759D01*
X45406440Y19854134D01*
X45410387Y19820105D01*
X45412000Y19812000D01*
X45412000Y18288000D01*
X45410387Y18279894D01*
X45406440Y18245865D01*
X45401306Y18234238D01*
X45396776Y18211463D01*
X45380483Y18187080D01*
X45375570Y18175952D01*
X45367968Y18168350D01*
X45353421Y18146579D01*
X45331649Y18132031D01*
X45324047Y18124429D01*
X45312917Y18119514D01*
X45288537Y18103224D01*
X45265764Y18098694D01*
X45254134Y18093559D01*
X45220093Y18089609D01*
X45212000Y18088000D01*
X45206217Y18088000D01*
X43693784Y18088000D01*
X43688000Y18088000D01*
X43679906Y18089609D01*
X43645865Y18093559D01*
X43634234Y18098694D01*
X43611463Y18103224D01*
X43587084Y18119513D01*
X43575952Y18124429D01*
X43568347Y18132033D01*
X43546579Y18146579D01*
X43532033Y18168347D01*
X43524429Y18175952D01*
X43519513Y18187084D01*
X43503224Y18211463D01*
X43498694Y18234234D01*
X43493559Y18245865D01*
X43489609Y18279908D01*
X43488000Y18288000D01*
X43488000Y19812000D01*
X43489610Y19820095D01*
X43493559Y19854134D01*
X43498694Y19865764D01*
X43503224Y19888537D01*
X43519514Y19912917D01*
X43524429Y19924047D01*
X43532031Y19931649D01*
X43546579Y19953421D01*
X43568350Y19967968D01*
X43575952Y19975570D01*
X43587080Y19980483D01*
X43611463Y19996776D01*
X43634238Y20001306D01*
X43645865Y20006440D01*
X43679896Y20010388D01*
X43688000Y20012000D01*
X45212000Y20012000D01*
X45220107Y20010387D01*
G37*
G36*
X47760107Y20010387D02*
G01*
X47794134Y20006440D01*
X47805759Y20001306D01*
X47828537Y19996776D01*
X47852921Y19980482D01*
X47864047Y19975570D01*
X47871646Y19967970D01*
X47893421Y19953421D01*
X47907970Y19931646D01*
X47915570Y19924047D01*
X47920482Y19912921D01*
X47936776Y19888537D01*
X47941306Y19865759D01*
X47946440Y19854134D01*
X47950387Y19820105D01*
X47952000Y19812000D01*
X47952000Y18288000D01*
X47950387Y18279894D01*
X47946440Y18245865D01*
X47941306Y18234238D01*
X47936776Y18211463D01*
X47920483Y18187080D01*
X47915570Y18175952D01*
X47907968Y18168350D01*
X47893421Y18146579D01*
X47871649Y18132031D01*
X47864047Y18124429D01*
X47852917Y18119514D01*
X47828537Y18103224D01*
X47805764Y18098694D01*
X47794134Y18093559D01*
X47760093Y18089609D01*
X47752000Y18088000D01*
X47746217Y18088000D01*
X46233784Y18088000D01*
X46228000Y18088000D01*
X46219906Y18089609D01*
X46185865Y18093559D01*
X46174234Y18098694D01*
X46151463Y18103224D01*
X46127084Y18119513D01*
X46115952Y18124429D01*
X46108347Y18132033D01*
X46086579Y18146579D01*
X46072033Y18168347D01*
X46064429Y18175952D01*
X46059513Y18187084D01*
X46043224Y18211463D01*
X46038694Y18234234D01*
X46033559Y18245865D01*
X46029609Y18279908D01*
X46028000Y18288000D01*
X46028000Y19812000D01*
X46029610Y19820095D01*
X46033559Y19854134D01*
X46038694Y19865764D01*
X46043224Y19888537D01*
X46059514Y19912917D01*
X46064429Y19924047D01*
X46072031Y19931649D01*
X46086579Y19953421D01*
X46108350Y19967968D01*
X46115952Y19975570D01*
X46127080Y19980483D01*
X46151463Y19996776D01*
X46174238Y20001306D01*
X46185865Y20006440D01*
X46219896Y20010388D01*
X46228000Y20012000D01*
X47752000Y20012000D01*
X47760107Y20010387D01*
G37*
G36*
X12200107Y22550387D02*
G01*
X12234134Y22546440D01*
X12245759Y22541306D01*
X12268537Y22536776D01*
X12292921Y22520482D01*
X12304047Y22515570D01*
X12311646Y22507970D01*
X12333421Y22493421D01*
X12347970Y22471646D01*
X12355570Y22464047D01*
X12360482Y22452921D01*
X12376776Y22428537D01*
X12381306Y22405759D01*
X12386440Y22394134D01*
X12390387Y22360105D01*
X12392000Y22352000D01*
X12392000Y20828000D01*
X12390387Y20819894D01*
X12386440Y20785865D01*
X12381306Y20774238D01*
X12376776Y20751463D01*
X12360483Y20727080D01*
X12355570Y20715952D01*
X12347968Y20708350D01*
X12333421Y20686579D01*
X12311649Y20672031D01*
X12304047Y20664429D01*
X12292917Y20659514D01*
X12268537Y20643224D01*
X12245764Y20638694D01*
X12234134Y20633559D01*
X12200093Y20629609D01*
X12192000Y20628000D01*
X12186217Y20628000D01*
X10673784Y20628000D01*
X10668000Y20628000D01*
X10659906Y20629609D01*
X10625865Y20633559D01*
X10614234Y20638694D01*
X10591463Y20643224D01*
X10567084Y20659513D01*
X10555952Y20664429D01*
X10548347Y20672033D01*
X10526579Y20686579D01*
X10512033Y20708347D01*
X10504429Y20715952D01*
X10499513Y20727084D01*
X10483224Y20751463D01*
X10478694Y20774234D01*
X10473559Y20785865D01*
X10469609Y20819908D01*
X10468000Y20828000D01*
X10468000Y22352000D01*
X10469610Y22360095D01*
X10473559Y22394134D01*
X10478694Y22405764D01*
X10483224Y22428537D01*
X10499514Y22452917D01*
X10504429Y22464047D01*
X10512031Y22471649D01*
X10526579Y22493421D01*
X10548350Y22507968D01*
X10555952Y22515570D01*
X10567080Y22520483D01*
X10591463Y22536776D01*
X10614238Y22541306D01*
X10625865Y22546440D01*
X10659896Y22550388D01*
X10668000Y22552000D01*
X12192000Y22552000D01*
X12200107Y22550387D01*
G37*
G36*
X14740107Y22550387D02*
G01*
X14774134Y22546440D01*
X14785759Y22541306D01*
X14808537Y22536776D01*
X14832921Y22520482D01*
X14844047Y22515570D01*
X14851646Y22507970D01*
X14873421Y22493421D01*
X14887970Y22471646D01*
X14895570Y22464047D01*
X14900482Y22452921D01*
X14916776Y22428537D01*
X14921306Y22405759D01*
X14926440Y22394134D01*
X14930387Y22360105D01*
X14932000Y22352000D01*
X14932000Y20828000D01*
X14930387Y20819894D01*
X14926440Y20785865D01*
X14921306Y20774238D01*
X14916776Y20751463D01*
X14900483Y20727080D01*
X14895570Y20715952D01*
X14887968Y20708350D01*
X14873421Y20686579D01*
X14851649Y20672031D01*
X14844047Y20664429D01*
X14832917Y20659514D01*
X14808537Y20643224D01*
X14785764Y20638694D01*
X14774134Y20633559D01*
X14740093Y20629609D01*
X14732000Y20628000D01*
X14726217Y20628000D01*
X13213784Y20628000D01*
X13208000Y20628000D01*
X13199906Y20629609D01*
X13165865Y20633559D01*
X13154234Y20638694D01*
X13131463Y20643224D01*
X13107084Y20659513D01*
X13095952Y20664429D01*
X13088347Y20672033D01*
X13066579Y20686579D01*
X13052033Y20708347D01*
X13044429Y20715952D01*
X13039513Y20727084D01*
X13023224Y20751463D01*
X13018694Y20774234D01*
X13013559Y20785865D01*
X13009609Y20819908D01*
X13008000Y20828000D01*
X13008000Y22352000D01*
X13009610Y22360095D01*
X13013559Y22394134D01*
X13018694Y22405764D01*
X13023224Y22428537D01*
X13039514Y22452917D01*
X13044429Y22464047D01*
X13052031Y22471649D01*
X13066579Y22493421D01*
X13088350Y22507968D01*
X13095952Y22515570D01*
X13107080Y22520483D01*
X13131463Y22536776D01*
X13154238Y22541306D01*
X13165865Y22546440D01*
X13199896Y22550388D01*
X13208000Y22552000D01*
X14732000Y22552000D01*
X14740107Y22550387D01*
G37*
G36*
X5166184Y28595160D02*
G01*
X5253234Y28595160D01*
X5346177Y28585051D01*
X5438286Y28579879D01*
X5517513Y28566417D01*
X5597680Y28557699D01*
X5695312Y28536208D01*
X5792067Y28519769D01*
X5863535Y28499179D01*
X5936053Y28483217D01*
X6036973Y28449213D01*
X6136893Y28420427D01*
X6200048Y28394267D01*
X6264384Y28372590D01*
X6367038Y28325097D01*
X6468428Y28283100D01*
X6522969Y28252955D01*
X6578837Y28227109D01*
X6681484Y28165348D01*
X6782503Y28109517D01*
X6828398Y28076952D01*
X6875720Y28048480D01*
X6976503Y27971866D01*
X7075167Y27901861D01*
X7112602Y27868407D01*
X7151539Y27838808D01*
X7248498Y27746962D01*
X7342742Y27662742D01*
X7372153Y27629830D01*
X7403075Y27600540D01*
X7494181Y27493281D01*
X7581861Y27395167D01*
X7603884Y27364127D01*
X7627383Y27336463D01*
X7710624Y27213691D01*
X7789517Y27102503D01*
X7804968Y27074544D01*
X7821819Y27049693D01*
X7895172Y26911334D01*
X7963100Y26788428D01*
X7972984Y26764563D01*
X7984104Y26743591D01*
X8045517Y26589456D01*
X8100427Y26456893D01*
X8105887Y26437939D01*
X8112353Y26421712D01*
X8159945Y26250299D01*
X8199769Y26112067D01*
X8202046Y26098664D01*
X8205041Y26087878D01*
X8236964Y25893153D01*
X8259879Y25758286D01*
X8260298Y25750818D01*
X8261095Y25745959D01*
X8275741Y25475822D01*
X8280000Y25400000D01*
X8275742Y25324184D01*
X8261095Y25054040D01*
X8260298Y25049180D01*
X8259879Y25041714D01*
X8236968Y24906874D01*
X8205041Y24712121D01*
X8202045Y24701333D01*
X8199769Y24687933D01*
X8159952Y24549726D01*
X8112353Y24378287D01*
X8105886Y24362057D01*
X8100427Y24343107D01*
X8045527Y24210569D01*
X7984104Y24056408D01*
X7972983Y24035431D01*
X7963100Y24011572D01*
X7895185Y23888689D01*
X7821819Y23750306D01*
X7804965Y23725449D01*
X7789517Y23697497D01*
X7710639Y23586329D01*
X7627383Y23463536D01*
X7603880Y23435866D01*
X7581861Y23404833D01*
X7494198Y23306738D01*
X7403075Y23199459D01*
X7372147Y23170162D01*
X7342742Y23137258D01*
X7248517Y23053053D01*
X7151539Y22961191D01*
X7112594Y22931586D01*
X7075167Y22898139D01*
X6976523Y22828147D01*
X6875720Y22751519D01*
X6828388Y22723040D01*
X6782503Y22690483D01*
X6681504Y22634663D01*
X6578837Y22572890D01*
X6522958Y22547037D01*
X6468428Y22516900D01*
X6367059Y22474911D01*
X6264384Y22427409D01*
X6200035Y22405727D01*
X6136893Y22379573D01*
X6036993Y22350792D01*
X5936053Y22316782D01*
X5863520Y22300816D01*
X5792067Y22280231D01*
X5695332Y22263795D01*
X5597680Y22242300D01*
X5517500Y22233580D01*
X5438286Y22220121D01*
X5346182Y22214948D01*
X5253234Y22204840D01*
X5166184Y22204840D01*
X5080000Y22200000D01*
X4993816Y22204840D01*
X4906766Y22204840D01*
X4813816Y22214948D01*
X4721714Y22220121D01*
X4642500Y22233579D01*
X4562319Y22242300D01*
X4464662Y22263795D01*
X4367933Y22280231D01*
X4296482Y22300815D01*
X4223946Y22316782D01*
X4122999Y22350794D01*
X4023107Y22379573D01*
X3959969Y22405725D01*
X3895615Y22427409D01*
X3792931Y22474915D01*
X3691572Y22516900D01*
X3637046Y22547035D01*
X3581162Y22572890D01*
X3478483Y22634670D01*
X3377497Y22690483D01*
X3331616Y22723036D01*
X3284279Y22751519D01*
X3183461Y22828158D01*
X3084833Y22898139D01*
X3047411Y22931581D01*
X3008460Y22961191D01*
X2911465Y23053069D01*
X2817258Y23137258D01*
X2787857Y23170156D01*
X2756924Y23199459D01*
X2665781Y23306760D01*
X2578139Y23404833D01*
X2556124Y23435859D01*
X2532616Y23463536D01*
X2449337Y23586361D01*
X2370483Y23697497D01*
X2355038Y23725441D01*
X2338180Y23750306D01*
X2264790Y23888733D01*
X2196900Y24011572D01*
X2187020Y24035423D01*
X2175895Y24056408D01*
X2114445Y24210632D01*
X2059573Y24343107D01*
X2054116Y24362048D01*
X2047646Y24378287D01*
X2000019Y24549822D01*
X1960231Y24687933D01*
X1957955Y24701323D01*
X1954958Y24712121D01*
X1923002Y24907041D01*
X1900121Y25041714D01*
X1899702Y25049170D01*
X1898904Y25054040D01*
X1884228Y25324699D01*
X1880000Y25400000D01*
X1884229Y25475306D01*
X1898904Y25745959D01*
X1899702Y25750827D01*
X1900121Y25758286D01*
X1923007Y25892985D01*
X1954958Y26087878D01*
X1957955Y26098673D01*
X1960231Y26112067D01*
X2000027Y26250204D01*
X2047646Y26421712D01*
X2054115Y26437948D01*
X2059573Y26456893D01*
X2114456Y26589392D01*
X2175895Y26743591D01*
X2187018Y26764572D01*
X2196900Y26788428D01*
X2264803Y26911289D01*
X2338180Y27049693D01*
X2355035Y27074552D01*
X2370483Y27102503D01*
X2449352Y27213659D01*
X2532616Y27336463D01*
X2556120Y27364134D01*
X2578139Y27395167D01*
X2665798Y27493258D01*
X2756924Y27600540D01*
X2787852Y27629836D01*
X2817258Y27662742D01*
X2911483Y27746947D01*
X3008460Y27838808D01*
X3047403Y27868412D01*
X3084833Y27901861D01*
X3183481Y27971855D01*
X3284279Y28048480D01*
X3331607Y28076956D01*
X3377497Y28109517D01*
X3478503Y28165341D01*
X3581162Y28227109D01*
X3637035Y28252958D01*
X3691572Y28283100D01*
X3792952Y28325093D01*
X3895615Y28372590D01*
X3959956Y28394269D01*
X4023107Y28420427D01*
X4123019Y28449211D01*
X4223946Y28483217D01*
X4296467Y28499180D01*
X4367933Y28519769D01*
X4464682Y28536207D01*
X4562319Y28557699D01*
X4642488Y28566417D01*
X4721714Y28579879D01*
X4813822Y28585051D01*
X4906766Y28595160D01*
X4993816Y28595160D01*
X5080000Y28600000D01*
X5166184Y28595160D01*
G37*
G36*
X45806184Y28595160D02*
G01*
X45893234Y28595160D01*
X45986177Y28585051D01*
X46078286Y28579879D01*
X46157513Y28566417D01*
X46237680Y28557699D01*
X46335312Y28536208D01*
X46432067Y28519769D01*
X46503535Y28499179D01*
X46576053Y28483217D01*
X46676973Y28449213D01*
X46776893Y28420427D01*
X46840048Y28394267D01*
X46904384Y28372590D01*
X47007038Y28325097D01*
X47108428Y28283100D01*
X47162969Y28252955D01*
X47218837Y28227109D01*
X47321484Y28165348D01*
X47422503Y28109517D01*
X47468398Y28076952D01*
X47515720Y28048480D01*
X47616503Y27971866D01*
X47715167Y27901861D01*
X47752602Y27868407D01*
X47791539Y27838808D01*
X47888498Y27746962D01*
X47982742Y27662742D01*
X48012153Y27629830D01*
X48043075Y27600540D01*
X48134181Y27493281D01*
X48221861Y27395167D01*
X48243884Y27364127D01*
X48267383Y27336463D01*
X48350624Y27213691D01*
X48429517Y27102503D01*
X48444968Y27074544D01*
X48461819Y27049693D01*
X48535172Y26911334D01*
X48603100Y26788428D01*
X48612984Y26764563D01*
X48624104Y26743591D01*
X48685517Y26589456D01*
X48740427Y26456893D01*
X48745887Y26437939D01*
X48752353Y26421712D01*
X48799945Y26250299D01*
X48839769Y26112067D01*
X48842046Y26098664D01*
X48845041Y26087878D01*
X48876964Y25893153D01*
X48899879Y25758286D01*
X48900298Y25750818D01*
X48901095Y25745959D01*
X48915741Y25475822D01*
X48920000Y25400000D01*
X48915742Y25324184D01*
X48901095Y25054040D01*
X48900298Y25049180D01*
X48899879Y25041714D01*
X48876968Y24906874D01*
X48845041Y24712121D01*
X48842045Y24701333D01*
X48839769Y24687933D01*
X48799952Y24549726D01*
X48752353Y24378287D01*
X48745886Y24362057D01*
X48740427Y24343107D01*
X48685527Y24210569D01*
X48624104Y24056408D01*
X48612983Y24035431D01*
X48603100Y24011572D01*
X48535185Y23888689D01*
X48461819Y23750306D01*
X48444965Y23725449D01*
X48429517Y23697497D01*
X48350639Y23586329D01*
X48267383Y23463536D01*
X48243880Y23435866D01*
X48221861Y23404833D01*
X48134198Y23306738D01*
X48043075Y23199459D01*
X48012147Y23170162D01*
X47982742Y23137258D01*
X47888517Y23053053D01*
X47791539Y22961191D01*
X47752594Y22931586D01*
X47715167Y22898139D01*
X47616523Y22828147D01*
X47515720Y22751519D01*
X47468388Y22723040D01*
X47422503Y22690483D01*
X47321504Y22634663D01*
X47218837Y22572890D01*
X47162958Y22547037D01*
X47108428Y22516900D01*
X47007059Y22474911D01*
X46904384Y22427409D01*
X46840035Y22405727D01*
X46776893Y22379573D01*
X46676993Y22350792D01*
X46576053Y22316782D01*
X46503520Y22300816D01*
X46432067Y22280231D01*
X46335332Y22263795D01*
X46237680Y22242300D01*
X46157500Y22233580D01*
X46078286Y22220121D01*
X45986182Y22214948D01*
X45893234Y22204840D01*
X45806184Y22204840D01*
X45720000Y22200000D01*
X45633816Y22204840D01*
X45546766Y22204840D01*
X45453816Y22214948D01*
X45361714Y22220121D01*
X45282500Y22233579D01*
X45202319Y22242300D01*
X45104662Y22263795D01*
X45007933Y22280231D01*
X44936482Y22300815D01*
X44863946Y22316782D01*
X44762999Y22350794D01*
X44663107Y22379573D01*
X44599969Y22405725D01*
X44535615Y22427409D01*
X44432931Y22474915D01*
X44331572Y22516900D01*
X44277046Y22547035D01*
X44221162Y22572890D01*
X44118483Y22634670D01*
X44017497Y22690483D01*
X43971616Y22723036D01*
X43924279Y22751519D01*
X43823461Y22828158D01*
X43724833Y22898139D01*
X43687411Y22931581D01*
X43648460Y22961191D01*
X43551465Y23053069D01*
X43457258Y23137258D01*
X43427857Y23170156D01*
X43396924Y23199459D01*
X43305781Y23306760D01*
X43218139Y23404833D01*
X43196124Y23435859D01*
X43172616Y23463536D01*
X43089337Y23586361D01*
X43010483Y23697497D01*
X42995038Y23725441D01*
X42978180Y23750306D01*
X42904790Y23888733D01*
X42836900Y24011572D01*
X42827020Y24035423D01*
X42815895Y24056408D01*
X42754445Y24210632D01*
X42699573Y24343107D01*
X42694116Y24362048D01*
X42687646Y24378287D01*
X42640019Y24549822D01*
X42600231Y24687933D01*
X42597955Y24701323D01*
X42594958Y24712121D01*
X42563002Y24907041D01*
X42540121Y25041714D01*
X42539702Y25049170D01*
X42538904Y25054040D01*
X42524228Y25324699D01*
X42520000Y25400000D01*
X42524229Y25475306D01*
X42538904Y25745959D01*
X42539702Y25750827D01*
X42540121Y25758286D01*
X42563007Y25892985D01*
X42594958Y26087878D01*
X42597955Y26098673D01*
X42600231Y26112067D01*
X42640027Y26250204D01*
X42687646Y26421712D01*
X42694115Y26437948D01*
X42699573Y26456893D01*
X42754456Y26589392D01*
X42815895Y26743591D01*
X42827018Y26764572D01*
X42836900Y26788428D01*
X42904803Y26911289D01*
X42978180Y27049693D01*
X42995035Y27074552D01*
X43010483Y27102503D01*
X43089352Y27213659D01*
X43172616Y27336463D01*
X43196120Y27364134D01*
X43218139Y27395167D01*
X43305798Y27493258D01*
X43396924Y27600540D01*
X43427852Y27629836D01*
X43457258Y27662742D01*
X43551483Y27746947D01*
X43648460Y27838808D01*
X43687403Y27868412D01*
X43724833Y27901861D01*
X43823481Y27971855D01*
X43924279Y28048480D01*
X43971607Y28076956D01*
X44017497Y28109517D01*
X44118503Y28165341D01*
X44221162Y28227109D01*
X44277035Y28252958D01*
X44331572Y28283100D01*
X44432952Y28325093D01*
X44535615Y28372590D01*
X44599956Y28394269D01*
X44663107Y28420427D01*
X44763019Y28449211D01*
X44863946Y28483217D01*
X44936467Y28499180D01*
X45007933Y28519769D01*
X45104682Y28536207D01*
X45202319Y28557699D01*
X45282488Y28566417D01*
X45361714Y28579879D01*
X45453822Y28585051D01*
X45546766Y28595160D01*
X45633816Y28595160D01*
X45720000Y28600000D01*
X45806184Y28595160D01*
G37*
G36*
X14740107Y25090387D02*
G01*
X14774134Y25086440D01*
X14785759Y25081306D01*
X14808537Y25076776D01*
X14832921Y25060482D01*
X14844047Y25055570D01*
X14851646Y25047970D01*
X14873421Y25033421D01*
X14887970Y25011646D01*
X14895570Y25004047D01*
X14900482Y24992921D01*
X14916776Y24968537D01*
X14921306Y24945759D01*
X14926440Y24934134D01*
X14930387Y24900105D01*
X14932000Y24892000D01*
X14932000Y23368000D01*
X14930387Y23359894D01*
X14926440Y23325865D01*
X14921306Y23314238D01*
X14916776Y23291463D01*
X14900483Y23267080D01*
X14895570Y23255952D01*
X14887968Y23248350D01*
X14873421Y23226579D01*
X14851649Y23212031D01*
X14844047Y23204429D01*
X14832917Y23199514D01*
X14808537Y23183224D01*
X14785764Y23178694D01*
X14774134Y23173559D01*
X14740093Y23169609D01*
X14732000Y23168000D01*
X14726217Y23168000D01*
X13213784Y23168000D01*
X13208000Y23168000D01*
X13199906Y23169609D01*
X13165865Y23173559D01*
X13154234Y23178694D01*
X13131463Y23183224D01*
X13107084Y23199513D01*
X13095952Y23204429D01*
X13088347Y23212033D01*
X13066579Y23226579D01*
X13052033Y23248347D01*
X13044429Y23255952D01*
X13039513Y23267084D01*
X13023224Y23291463D01*
X13018694Y23314234D01*
X13013559Y23325865D01*
X13009609Y23359908D01*
X13008000Y23368000D01*
X13008000Y24892000D01*
X13009610Y24900095D01*
X13013559Y24934134D01*
X13018694Y24945764D01*
X13023224Y24968537D01*
X13039514Y24992917D01*
X13044429Y25004047D01*
X13052031Y25011649D01*
X13066579Y25033421D01*
X13088350Y25047968D01*
X13095952Y25055570D01*
X13107080Y25060483D01*
X13131463Y25076776D01*
X13154238Y25081306D01*
X13165865Y25086440D01*
X13199896Y25090388D01*
X13208000Y25092000D01*
X14732000Y25092000D01*
X14740107Y25090387D01*
G37*
G36*
X17280107Y25090387D02*
G01*
X17314134Y25086440D01*
X17325759Y25081306D01*
X17348537Y25076776D01*
X17372921Y25060482D01*
X17384047Y25055570D01*
X17391646Y25047970D01*
X17413421Y25033421D01*
X17427970Y25011646D01*
X17435570Y25004047D01*
X17440482Y24992921D01*
X17456776Y24968537D01*
X17461306Y24945759D01*
X17466440Y24934134D01*
X17470387Y24900105D01*
X17472000Y24892000D01*
X17472000Y23368000D01*
X17470387Y23359894D01*
X17466440Y23325865D01*
X17461306Y23314238D01*
X17456776Y23291463D01*
X17440483Y23267080D01*
X17435570Y23255952D01*
X17427968Y23248350D01*
X17413421Y23226579D01*
X17391649Y23212031D01*
X17384047Y23204429D01*
X17372917Y23199514D01*
X17348537Y23183224D01*
X17325764Y23178694D01*
X17314134Y23173559D01*
X17280093Y23169609D01*
X17272000Y23168000D01*
X17266217Y23168000D01*
X15753784Y23168000D01*
X15748000Y23168000D01*
X15739906Y23169609D01*
X15705865Y23173559D01*
X15694234Y23178694D01*
X15671463Y23183224D01*
X15647084Y23199513D01*
X15635952Y23204429D01*
X15628347Y23212033D01*
X15606579Y23226579D01*
X15592033Y23248347D01*
X15584429Y23255952D01*
X15579513Y23267084D01*
X15563224Y23291463D01*
X15558694Y23314234D01*
X15553559Y23325865D01*
X15549609Y23359908D01*
X15548000Y23368000D01*
X15548000Y24892000D01*
X15549610Y24900095D01*
X15553559Y24934134D01*
X15558694Y24945764D01*
X15563224Y24968537D01*
X15579514Y24992917D01*
X15584429Y25004047D01*
X15592031Y25011649D01*
X15606579Y25033421D01*
X15628350Y25047968D01*
X15635952Y25055570D01*
X15647080Y25060483D01*
X15671463Y25076776D01*
X15694238Y25081306D01*
X15705865Y25086440D01*
X15739896Y25090388D01*
X15748000Y25092000D01*
X17272000Y25092000D01*
X17280107Y25090387D01*
G37*
G36*
X19820107Y25090387D02*
G01*
X19854134Y25086440D01*
X19865759Y25081306D01*
X19888537Y25076776D01*
X19912921Y25060482D01*
X19924047Y25055570D01*
X19931646Y25047970D01*
X19953421Y25033421D01*
X19967970Y25011646D01*
X19975570Y25004047D01*
X19980482Y24992921D01*
X19996776Y24968537D01*
X20001306Y24945759D01*
X20006440Y24934134D01*
X20010387Y24900105D01*
X20012000Y24892000D01*
X20012000Y23368000D01*
X20010387Y23359894D01*
X20006440Y23325865D01*
X20001306Y23314238D01*
X19996776Y23291463D01*
X19980483Y23267080D01*
X19975570Y23255952D01*
X19967968Y23248350D01*
X19953421Y23226579D01*
X19931649Y23212031D01*
X19924047Y23204429D01*
X19912917Y23199514D01*
X19888537Y23183224D01*
X19865764Y23178694D01*
X19854134Y23173559D01*
X19820093Y23169609D01*
X19812000Y23168000D01*
X19806217Y23168000D01*
X18293784Y23168000D01*
X18288000Y23168000D01*
X18279906Y23169609D01*
X18245865Y23173559D01*
X18234234Y23178694D01*
X18211463Y23183224D01*
X18187084Y23199513D01*
X18175952Y23204429D01*
X18168347Y23212033D01*
X18146579Y23226579D01*
X18132033Y23248347D01*
X18124429Y23255952D01*
X18119513Y23267084D01*
X18103224Y23291463D01*
X18098694Y23314234D01*
X18093559Y23325865D01*
X18089609Y23359908D01*
X18088000Y23368000D01*
X18088000Y24892000D01*
X18089610Y24900095D01*
X18093559Y24934134D01*
X18098694Y24945764D01*
X18103224Y24968537D01*
X18119514Y24992917D01*
X18124429Y25004047D01*
X18132031Y25011649D01*
X18146579Y25033421D01*
X18168350Y25047968D01*
X18175952Y25055570D01*
X18187080Y25060483D01*
X18211463Y25076776D01*
X18234238Y25081306D01*
X18245865Y25086440D01*
X18279896Y25090388D01*
X18288000Y25092000D01*
X19812000Y25092000D01*
X19820107Y25090387D01*
G37*
G36*
X22360107Y25090387D02*
G01*
X22394134Y25086440D01*
X22405759Y25081306D01*
X22428537Y25076776D01*
X22452921Y25060482D01*
X22464047Y25055570D01*
X22471646Y25047970D01*
X22493421Y25033421D01*
X22507970Y25011646D01*
X22515570Y25004047D01*
X22520482Y24992921D01*
X22536776Y24968537D01*
X22541306Y24945759D01*
X22546440Y24934134D01*
X22550387Y24900105D01*
X22552000Y24892000D01*
X22552000Y23368000D01*
X22550387Y23359894D01*
X22546440Y23325865D01*
X22541306Y23314238D01*
X22536776Y23291463D01*
X22520483Y23267080D01*
X22515570Y23255952D01*
X22507968Y23248350D01*
X22493421Y23226579D01*
X22471649Y23212031D01*
X22464047Y23204429D01*
X22452917Y23199514D01*
X22428537Y23183224D01*
X22405764Y23178694D01*
X22394134Y23173559D01*
X22360093Y23169609D01*
X22352000Y23168000D01*
X22346217Y23168000D01*
X20833784Y23168000D01*
X20828000Y23168000D01*
X20819906Y23169609D01*
X20785865Y23173559D01*
X20774234Y23178694D01*
X20751463Y23183224D01*
X20727084Y23199513D01*
X20715952Y23204429D01*
X20708347Y23212033D01*
X20686579Y23226579D01*
X20672033Y23248347D01*
X20664429Y23255952D01*
X20659513Y23267084D01*
X20643224Y23291463D01*
X20638694Y23314234D01*
X20633559Y23325865D01*
X20629609Y23359908D01*
X20628000Y23368000D01*
X20628000Y24892000D01*
X20629610Y24900095D01*
X20633559Y24934134D01*
X20638694Y24945764D01*
X20643224Y24968537D01*
X20659514Y24992917D01*
X20664429Y25004047D01*
X20672031Y25011649D01*
X20686579Y25033421D01*
X20708350Y25047968D01*
X20715952Y25055570D01*
X20727080Y25060483D01*
X20751463Y25076776D01*
X20774238Y25081306D01*
X20785865Y25086440D01*
X20819896Y25090388D01*
X20828000Y25092000D01*
X22352000Y25092000D01*
X22360107Y25090387D01*
G37*
G36*
X24900107Y25090387D02*
G01*
X24934134Y25086440D01*
X24945759Y25081306D01*
X24968537Y25076776D01*
X24992921Y25060482D01*
X25004047Y25055570D01*
X25011646Y25047970D01*
X25033421Y25033421D01*
X25047970Y25011646D01*
X25055570Y25004047D01*
X25060482Y24992921D01*
X25076776Y24968537D01*
X25081306Y24945759D01*
X25086440Y24934134D01*
X25090387Y24900105D01*
X25092000Y24892000D01*
X25092000Y23368000D01*
X25090387Y23359894D01*
X25086440Y23325865D01*
X25081306Y23314238D01*
X25076776Y23291463D01*
X25060483Y23267080D01*
X25055570Y23255952D01*
X25047968Y23248350D01*
X25033421Y23226579D01*
X25011649Y23212031D01*
X25004047Y23204429D01*
X24992917Y23199514D01*
X24968537Y23183224D01*
X24945764Y23178694D01*
X24934134Y23173559D01*
X24900093Y23169609D01*
X24892000Y23168000D01*
X24886217Y23168000D01*
X23373784Y23168000D01*
X23368000Y23168000D01*
X23359906Y23169609D01*
X23325865Y23173559D01*
X23314234Y23178694D01*
X23291463Y23183224D01*
X23267084Y23199513D01*
X23255952Y23204429D01*
X23248347Y23212033D01*
X23226579Y23226579D01*
X23212033Y23248347D01*
X23204429Y23255952D01*
X23199513Y23267084D01*
X23183224Y23291463D01*
X23178694Y23314234D01*
X23173559Y23325865D01*
X23169609Y23359908D01*
X23168000Y23368000D01*
X23168000Y24892000D01*
X23169610Y24900095D01*
X23173559Y24934134D01*
X23178694Y24945764D01*
X23183224Y24968537D01*
X23199514Y24992917D01*
X23204429Y25004047D01*
X23212031Y25011649D01*
X23226579Y25033421D01*
X23248350Y25047968D01*
X23255952Y25055570D01*
X23267080Y25060483D01*
X23291463Y25076776D01*
X23314238Y25081306D01*
X23325865Y25086440D01*
X23359896Y25090388D01*
X23368000Y25092000D01*
X24892000Y25092000D01*
X24900107Y25090387D01*
G37*
G36*
X35060107Y25090387D02*
G01*
X35094134Y25086440D01*
X35105759Y25081306D01*
X35128537Y25076776D01*
X35152921Y25060482D01*
X35164047Y25055570D01*
X35171646Y25047970D01*
X35193421Y25033421D01*
X35207970Y25011646D01*
X35215570Y25004047D01*
X35220482Y24992921D01*
X35236776Y24968537D01*
X35241306Y24945759D01*
X35246440Y24934134D01*
X35250387Y24900105D01*
X35252000Y24892000D01*
X35252000Y23368000D01*
X35250387Y23359894D01*
X35246440Y23325865D01*
X35241306Y23314238D01*
X35236776Y23291463D01*
X35220483Y23267080D01*
X35215570Y23255952D01*
X35207968Y23248350D01*
X35193421Y23226579D01*
X35171649Y23212031D01*
X35164047Y23204429D01*
X35152917Y23199514D01*
X35128537Y23183224D01*
X35105764Y23178694D01*
X35094134Y23173559D01*
X35060093Y23169609D01*
X35052000Y23168000D01*
X35046217Y23168000D01*
X33533784Y23168000D01*
X33528000Y23168000D01*
X33519906Y23169609D01*
X33485865Y23173559D01*
X33474234Y23178694D01*
X33451463Y23183224D01*
X33427084Y23199513D01*
X33415952Y23204429D01*
X33408347Y23212033D01*
X33386579Y23226579D01*
X33372033Y23248347D01*
X33364429Y23255952D01*
X33359513Y23267084D01*
X33343224Y23291463D01*
X33338694Y23314234D01*
X33333559Y23325865D01*
X33329609Y23359908D01*
X33328000Y23368000D01*
X33328000Y24892000D01*
X33329610Y24900095D01*
X33333559Y24934134D01*
X33338694Y24945764D01*
X33343224Y24968537D01*
X33359514Y24992917D01*
X33364429Y25004047D01*
X33372031Y25011649D01*
X33386579Y25033421D01*
X33408350Y25047968D01*
X33415952Y25055570D01*
X33427080Y25060483D01*
X33451463Y25076776D01*
X33474238Y25081306D01*
X33485865Y25086440D01*
X33519896Y25090388D01*
X33528000Y25092000D01*
X35052000Y25092000D01*
X35060107Y25090387D01*
G37*
G36*
X37600107Y25090387D02*
G01*
X37634134Y25086440D01*
X37645759Y25081306D01*
X37668537Y25076776D01*
X37692921Y25060482D01*
X37704047Y25055570D01*
X37711646Y25047970D01*
X37733421Y25033421D01*
X37747970Y25011646D01*
X37755570Y25004047D01*
X37760482Y24992921D01*
X37776776Y24968537D01*
X37781306Y24945759D01*
X37786440Y24934134D01*
X37790387Y24900105D01*
X37792000Y24892000D01*
X37792000Y23368000D01*
X37790387Y23359894D01*
X37786440Y23325865D01*
X37781306Y23314238D01*
X37776776Y23291463D01*
X37760483Y23267080D01*
X37755570Y23255952D01*
X37747968Y23248350D01*
X37733421Y23226579D01*
X37711649Y23212031D01*
X37704047Y23204429D01*
X37692917Y23199514D01*
X37668537Y23183224D01*
X37645764Y23178694D01*
X37634134Y23173559D01*
X37600093Y23169609D01*
X37592000Y23168000D01*
X37586217Y23168000D01*
X36073784Y23168000D01*
X36068000Y23168000D01*
X36059906Y23169609D01*
X36025865Y23173559D01*
X36014234Y23178694D01*
X35991463Y23183224D01*
X35967084Y23199513D01*
X35955952Y23204429D01*
X35948347Y23212033D01*
X35926579Y23226579D01*
X35912033Y23248347D01*
X35904429Y23255952D01*
X35899513Y23267084D01*
X35883224Y23291463D01*
X35878694Y23314234D01*
X35873559Y23325865D01*
X35869609Y23359908D01*
X35868000Y23368000D01*
X35868000Y24892000D01*
X35869610Y24900095D01*
X35873559Y24934134D01*
X35878694Y24945764D01*
X35883224Y24968537D01*
X35899514Y24992917D01*
X35904429Y25004047D01*
X35912031Y25011649D01*
X35926579Y25033421D01*
X35948350Y25047968D01*
X35955952Y25055570D01*
X35967080Y25060483D01*
X35991463Y25076776D01*
X36014238Y25081306D01*
X36025865Y25086440D01*
X36059896Y25090388D01*
X36068000Y25092000D01*
X37592000Y25092000D01*
X37600107Y25090387D01*
G37*
G36*
X14740107Y27630387D02*
G01*
X14774134Y27626440D01*
X14785759Y27621306D01*
X14808537Y27616776D01*
X14832921Y27600482D01*
X14844047Y27595570D01*
X14851646Y27587970D01*
X14873421Y27573421D01*
X14887970Y27551646D01*
X14895570Y27544047D01*
X14900482Y27532921D01*
X14916776Y27508537D01*
X14921306Y27485759D01*
X14926440Y27474134D01*
X14930387Y27440105D01*
X14932000Y27432000D01*
X14932000Y25908000D01*
X14930387Y25899894D01*
X14926440Y25865865D01*
X14921306Y25854238D01*
X14916776Y25831463D01*
X14900483Y25807080D01*
X14895570Y25795952D01*
X14887968Y25788350D01*
X14873421Y25766579D01*
X14851649Y25752031D01*
X14844047Y25744429D01*
X14832917Y25739514D01*
X14808537Y25723224D01*
X14785764Y25718694D01*
X14774134Y25713559D01*
X14740093Y25709609D01*
X14732000Y25708000D01*
X14726217Y25708000D01*
X13213784Y25708000D01*
X13208000Y25708000D01*
X13199906Y25709609D01*
X13165865Y25713559D01*
X13154234Y25718694D01*
X13131463Y25723224D01*
X13107084Y25739513D01*
X13095952Y25744429D01*
X13088347Y25752033D01*
X13066579Y25766579D01*
X13052033Y25788347D01*
X13044429Y25795952D01*
X13039513Y25807084D01*
X13023224Y25831463D01*
X13018694Y25854234D01*
X13013559Y25865865D01*
X13009609Y25899908D01*
X13008000Y25908000D01*
X13008000Y27432000D01*
X13009610Y27440095D01*
X13013559Y27474134D01*
X13018694Y27485764D01*
X13023224Y27508537D01*
X13039514Y27532917D01*
X13044429Y27544047D01*
X13052031Y27551649D01*
X13066579Y27573421D01*
X13088350Y27587968D01*
X13095952Y27595570D01*
X13107080Y27600483D01*
X13131463Y27616776D01*
X13154238Y27621306D01*
X13165865Y27626440D01*
X13199896Y27630388D01*
X13208000Y27632000D01*
X14732000Y27632000D01*
X14740107Y27630387D01*
G37*
G36*
X17280107Y27630387D02*
G01*
X17314134Y27626440D01*
X17325759Y27621306D01*
X17348537Y27616776D01*
X17372921Y27600482D01*
X17384047Y27595570D01*
X17391646Y27587970D01*
X17413421Y27573421D01*
X17427970Y27551646D01*
X17435570Y27544047D01*
X17440482Y27532921D01*
X17456776Y27508537D01*
X17461306Y27485759D01*
X17466440Y27474134D01*
X17470387Y27440105D01*
X17472000Y27432000D01*
X17472000Y25908000D01*
X17470387Y25899894D01*
X17466440Y25865865D01*
X17461306Y25854238D01*
X17456776Y25831463D01*
X17440483Y25807080D01*
X17435570Y25795952D01*
X17427968Y25788350D01*
X17413421Y25766579D01*
X17391649Y25752031D01*
X17384047Y25744429D01*
X17372917Y25739514D01*
X17348537Y25723224D01*
X17325764Y25718694D01*
X17314134Y25713559D01*
X17280093Y25709609D01*
X17272000Y25708000D01*
X17266217Y25708000D01*
X15753784Y25708000D01*
X15748000Y25708000D01*
X15739906Y25709609D01*
X15705865Y25713559D01*
X15694234Y25718694D01*
X15671463Y25723224D01*
X15647084Y25739513D01*
X15635952Y25744429D01*
X15628347Y25752033D01*
X15606579Y25766579D01*
X15592033Y25788347D01*
X15584429Y25795952D01*
X15579513Y25807084D01*
X15563224Y25831463D01*
X15558694Y25854234D01*
X15553559Y25865865D01*
X15549609Y25899908D01*
X15548000Y25908000D01*
X15548000Y27432000D01*
X15549610Y27440095D01*
X15553559Y27474134D01*
X15558694Y27485764D01*
X15563224Y27508537D01*
X15579514Y27532917D01*
X15584429Y27544047D01*
X15592031Y27551649D01*
X15606579Y27573421D01*
X15628350Y27587968D01*
X15635952Y27595570D01*
X15647080Y27600483D01*
X15671463Y27616776D01*
X15694238Y27621306D01*
X15705865Y27626440D01*
X15739896Y27630388D01*
X15748000Y27632000D01*
X17272000Y27632000D01*
X17280107Y27630387D01*
G37*
G36*
X19820107Y27630387D02*
G01*
X19854134Y27626440D01*
X19865759Y27621306D01*
X19888537Y27616776D01*
X19912921Y27600482D01*
X19924047Y27595570D01*
X19931646Y27587970D01*
X19953421Y27573421D01*
X19967970Y27551646D01*
X19975570Y27544047D01*
X19980482Y27532921D01*
X19996776Y27508537D01*
X20001306Y27485759D01*
X20006440Y27474134D01*
X20010387Y27440105D01*
X20012000Y27432000D01*
X20012000Y25908000D01*
X20010387Y25899894D01*
X20006440Y25865865D01*
X20001306Y25854238D01*
X19996776Y25831463D01*
X19980483Y25807080D01*
X19975570Y25795952D01*
X19967968Y25788350D01*
X19953421Y25766579D01*
X19931649Y25752031D01*
X19924047Y25744429D01*
X19912917Y25739514D01*
X19888537Y25723224D01*
X19865764Y25718694D01*
X19854134Y25713559D01*
X19820093Y25709609D01*
X19812000Y25708000D01*
X19806217Y25708000D01*
X18293784Y25708000D01*
X18288000Y25708000D01*
X18279906Y25709609D01*
X18245865Y25713559D01*
X18234234Y25718694D01*
X18211463Y25723224D01*
X18187084Y25739513D01*
X18175952Y25744429D01*
X18168347Y25752033D01*
X18146579Y25766579D01*
X18132033Y25788347D01*
X18124429Y25795952D01*
X18119513Y25807084D01*
X18103224Y25831463D01*
X18098694Y25854234D01*
X18093559Y25865865D01*
X18089609Y25899908D01*
X18088000Y25908000D01*
X18088000Y27432000D01*
X18089610Y27440095D01*
X18093559Y27474134D01*
X18098694Y27485764D01*
X18103224Y27508537D01*
X18119514Y27532917D01*
X18124429Y27544047D01*
X18132031Y27551649D01*
X18146579Y27573421D01*
X18168350Y27587968D01*
X18175952Y27595570D01*
X18187080Y27600483D01*
X18211463Y27616776D01*
X18234238Y27621306D01*
X18245865Y27626440D01*
X18279896Y27630388D01*
X18288000Y27632000D01*
X19812000Y27632000D01*
X19820107Y27630387D01*
G37*
G36*
X22360107Y27630387D02*
G01*
X22394134Y27626440D01*
X22405759Y27621306D01*
X22428537Y27616776D01*
X22452921Y27600482D01*
X22464047Y27595570D01*
X22471646Y27587970D01*
X22493421Y27573421D01*
X22507970Y27551646D01*
X22515570Y27544047D01*
X22520482Y27532921D01*
X22536776Y27508537D01*
X22541306Y27485759D01*
X22546440Y27474134D01*
X22550387Y27440105D01*
X22552000Y27432000D01*
X22552000Y25908000D01*
X22550387Y25899894D01*
X22546440Y25865865D01*
X22541306Y25854238D01*
X22536776Y25831463D01*
X22520483Y25807080D01*
X22515570Y25795952D01*
X22507968Y25788350D01*
X22493421Y25766579D01*
X22471649Y25752031D01*
X22464047Y25744429D01*
X22452917Y25739514D01*
X22428537Y25723224D01*
X22405764Y25718694D01*
X22394134Y25713559D01*
X22360093Y25709609D01*
X22352000Y25708000D01*
X22346217Y25708000D01*
X20833784Y25708000D01*
X20828000Y25708000D01*
X20819906Y25709609D01*
X20785865Y25713559D01*
X20774234Y25718694D01*
X20751463Y25723224D01*
X20727084Y25739513D01*
X20715952Y25744429D01*
X20708347Y25752033D01*
X20686579Y25766579D01*
X20672033Y25788347D01*
X20664429Y25795952D01*
X20659513Y25807084D01*
X20643224Y25831463D01*
X20638694Y25854234D01*
X20633559Y25865865D01*
X20629609Y25899908D01*
X20628000Y25908000D01*
X20628000Y27432000D01*
X20629610Y27440095D01*
X20633559Y27474134D01*
X20638694Y27485764D01*
X20643224Y27508537D01*
X20659514Y27532917D01*
X20664429Y27544047D01*
X20672031Y27551649D01*
X20686579Y27573421D01*
X20708350Y27587968D01*
X20715952Y27595570D01*
X20727080Y27600483D01*
X20751463Y27616776D01*
X20774238Y27621306D01*
X20785865Y27626440D01*
X20819896Y27630388D01*
X20828000Y27632000D01*
X22352000Y27632000D01*
X22360107Y27630387D01*
G37*
G36*
X24900107Y27630387D02*
G01*
X24934134Y27626440D01*
X24945759Y27621306D01*
X24968537Y27616776D01*
X24992921Y27600482D01*
X25004047Y27595570D01*
X25011646Y27587970D01*
X25033421Y27573421D01*
X25047970Y27551646D01*
X25055570Y27544047D01*
X25060482Y27532921D01*
X25076776Y27508537D01*
X25081306Y27485759D01*
X25086440Y27474134D01*
X25090387Y27440105D01*
X25092000Y27432000D01*
X25092000Y25908000D01*
X25090387Y25899894D01*
X25086440Y25865865D01*
X25081306Y25854238D01*
X25076776Y25831463D01*
X25060483Y25807080D01*
X25055570Y25795952D01*
X25047968Y25788350D01*
X25033421Y25766579D01*
X25011649Y25752031D01*
X25004047Y25744429D01*
X24992917Y25739514D01*
X24968537Y25723224D01*
X24945764Y25718694D01*
X24934134Y25713559D01*
X24900093Y25709609D01*
X24892000Y25708000D01*
X24886217Y25708000D01*
X23373784Y25708000D01*
X23368000Y25708000D01*
X23359906Y25709609D01*
X23325865Y25713559D01*
X23314234Y25718694D01*
X23291463Y25723224D01*
X23267084Y25739513D01*
X23255952Y25744429D01*
X23248347Y25752033D01*
X23226579Y25766579D01*
X23212033Y25788347D01*
X23204429Y25795952D01*
X23199513Y25807084D01*
X23183224Y25831463D01*
X23178694Y25854234D01*
X23173559Y25865865D01*
X23169609Y25899908D01*
X23168000Y25908000D01*
X23168000Y27432000D01*
X23169610Y27440095D01*
X23173559Y27474134D01*
X23178694Y27485764D01*
X23183224Y27508537D01*
X23199514Y27532917D01*
X23204429Y27544047D01*
X23212031Y27551649D01*
X23226579Y27573421D01*
X23248350Y27587968D01*
X23255952Y27595570D01*
X23267080Y27600483D01*
X23291463Y27616776D01*
X23314238Y27621306D01*
X23325865Y27626440D01*
X23359896Y27630388D01*
X23368000Y27632000D01*
X24892000Y27632000D01*
X24900107Y27630387D01*
G37*
G36*
X35060107Y27630387D02*
G01*
X35094134Y27626440D01*
X35105759Y27621306D01*
X35128537Y27616776D01*
X35152921Y27600482D01*
X35164047Y27595570D01*
X35171646Y27587970D01*
X35193421Y27573421D01*
X35207970Y27551646D01*
X35215570Y27544047D01*
X35220482Y27532921D01*
X35236776Y27508537D01*
X35241306Y27485759D01*
X35246440Y27474134D01*
X35250387Y27440105D01*
X35252000Y27432000D01*
X35252000Y25908000D01*
X35250387Y25899894D01*
X35246440Y25865865D01*
X35241306Y25854238D01*
X35236776Y25831463D01*
X35220483Y25807080D01*
X35215570Y25795952D01*
X35207968Y25788350D01*
X35193421Y25766579D01*
X35171649Y25752031D01*
X35164047Y25744429D01*
X35152917Y25739514D01*
X35128537Y25723224D01*
X35105764Y25718694D01*
X35094134Y25713559D01*
X35060093Y25709609D01*
X35052000Y25708000D01*
X35046217Y25708000D01*
X33533784Y25708000D01*
X33528000Y25708000D01*
X33519906Y25709609D01*
X33485865Y25713559D01*
X33474234Y25718694D01*
X33451463Y25723224D01*
X33427084Y25739513D01*
X33415952Y25744429D01*
X33408347Y25752033D01*
X33386579Y25766579D01*
X33372033Y25788347D01*
X33364429Y25795952D01*
X33359513Y25807084D01*
X33343224Y25831463D01*
X33338694Y25854234D01*
X33333559Y25865865D01*
X33329609Y25899908D01*
X33328000Y25908000D01*
X33328000Y27432000D01*
X33329610Y27440095D01*
X33333559Y27474134D01*
X33338694Y27485764D01*
X33343224Y27508537D01*
X33359514Y27532917D01*
X33364429Y27544047D01*
X33372031Y27551649D01*
X33386579Y27573421D01*
X33408350Y27587968D01*
X33415952Y27595570D01*
X33427080Y27600483D01*
X33451463Y27616776D01*
X33474238Y27621306D01*
X33485865Y27626440D01*
X33519896Y27630388D01*
X33528000Y27632000D01*
X35052000Y27632000D01*
X35060107Y27630387D01*
G37*
G36*
X37600107Y27630387D02*
G01*
X37634134Y27626440D01*
X37645759Y27621306D01*
X37668537Y27616776D01*
X37692921Y27600482D01*
X37704047Y27595570D01*
X37711646Y27587970D01*
X37733421Y27573421D01*
X37747970Y27551646D01*
X37755570Y27544047D01*
X37760482Y27532921D01*
X37776776Y27508537D01*
X37781306Y27485759D01*
X37786440Y27474134D01*
X37790387Y27440105D01*
X37792000Y27432000D01*
X37792000Y25908000D01*
X37790387Y25899894D01*
X37786440Y25865865D01*
X37781306Y25854238D01*
X37776776Y25831463D01*
X37760483Y25807080D01*
X37755570Y25795952D01*
X37747968Y25788350D01*
X37733421Y25766579D01*
X37711649Y25752031D01*
X37704047Y25744429D01*
X37692917Y25739514D01*
X37668537Y25723224D01*
X37645764Y25718694D01*
X37634134Y25713559D01*
X37600093Y25709609D01*
X37592000Y25708000D01*
X37586217Y25708000D01*
X36073784Y25708000D01*
X36068000Y25708000D01*
X36059906Y25709609D01*
X36025865Y25713559D01*
X36014234Y25718694D01*
X35991463Y25723224D01*
X35967084Y25739513D01*
X35955952Y25744429D01*
X35948347Y25752033D01*
X35926579Y25766579D01*
X35912033Y25788347D01*
X35904429Y25795952D01*
X35899513Y25807084D01*
X35883224Y25831463D01*
X35878694Y25854234D01*
X35873559Y25865865D01*
X35869609Y25899908D01*
X35868000Y25908000D01*
X35868000Y27432000D01*
X35869610Y27440095D01*
X35873559Y27474134D01*
X35878694Y27485764D01*
X35883224Y27508537D01*
X35899514Y27532917D01*
X35904429Y27544047D01*
X35912031Y27551649D01*
X35926579Y27573421D01*
X35948350Y27587968D01*
X35955952Y27595570D01*
X35967080Y27600483D01*
X35991463Y27616776D01*
X36014238Y27621306D01*
X36025865Y27626440D01*
X36059896Y27630388D01*
X36068000Y27632000D01*
X37592000Y27632000D01*
X37600107Y27630387D01*
G37*
M02*
