%TF.GenerationSoftware,KiCad,Pcbnew,7.0.11+1*%
%TF.CreationDate,2024-07-06T18:43:39+00:00*%
%TF.ProjectId,RJ12V01,524a3132-5630-4312-9e6b-696361645f70,REV*%
%TF.SameCoordinates,Original*%
%TF.FileFunction,Legend,Top*%
%TF.FilePolarity,Positive*%
%FSLAX46Y46*%
G04 Gerber Fmt 4.6, Leading zero omitted, Abs format (unit mm)*
G04 Created by KiCad (PCBNEW 7.0.11+1) date 2024-07-06 18:43:39*
%MOMM*%
%LPD*%
G01*
G04 APERTURE LIST*
%ADD10C,0.200000*%
%ADD11C,0.300000*%
%ADD12C,0.050000*%
%ADD13C,0.150000*%
%ADD14R,1.524000X1.524000*%
G04 APERTURE END LIST*
D10*
X254000Y30226000D02*
X50546000Y30226000D01*
D11*
X28680828Y18792571D02*
X27180828Y18792571D01*
X27180828Y18792571D02*
X28252257Y19292571D01*
X28252257Y19292571D02*
X27180828Y19792571D01*
X27180828Y19792571D02*
X28680828Y19792571D01*
X28680828Y21221143D02*
X28680828Y20506857D01*
X28680828Y20506857D02*
X27180828Y20506857D01*
X28252257Y21649715D02*
X28252257Y22364001D01*
X28680828Y21506858D02*
X27180828Y22006858D01*
X27180828Y22006858D02*
X28680828Y22506858D01*
X27895114Y23506857D02*
X27966542Y23721143D01*
X27966542Y23721143D02*
X28037971Y23792572D01*
X28037971Y23792572D02*
X28180828Y23864000D01*
X28180828Y23864000D02*
X28395114Y23864000D01*
X28395114Y23864000D02*
X28537971Y23792572D01*
X28537971Y23792572D02*
X28609400Y23721143D01*
X28609400Y23721143D02*
X28680828Y23578286D01*
X28680828Y23578286D02*
X28680828Y23006857D01*
X28680828Y23006857D02*
X27180828Y23006857D01*
X27180828Y23006857D02*
X27180828Y23506857D01*
X27180828Y23506857D02*
X27252257Y23649715D01*
X27252257Y23649715D02*
X27323685Y23721143D01*
X27323685Y23721143D02*
X27466542Y23792572D01*
X27466542Y23792572D02*
X27609400Y23792572D01*
X27609400Y23792572D02*
X27752257Y23721143D01*
X27752257Y23721143D02*
X27823685Y23649715D01*
X27823685Y23649715D02*
X27895114Y23506857D01*
X27895114Y23506857D02*
X27895114Y23006857D01*
X28537971Y24506857D02*
X28609400Y24578286D01*
X28609400Y24578286D02*
X28680828Y24506857D01*
X28680828Y24506857D02*
X28609400Y24435429D01*
X28609400Y24435429D02*
X28537971Y24506857D01*
X28537971Y24506857D02*
X28680828Y24506857D01*
X28537971Y26078286D02*
X28609400Y26006858D01*
X28609400Y26006858D02*
X28680828Y25792572D01*
X28680828Y25792572D02*
X28680828Y25649715D01*
X28680828Y25649715D02*
X28609400Y25435429D01*
X28609400Y25435429D02*
X28466542Y25292572D01*
X28466542Y25292572D02*
X28323685Y25221143D01*
X28323685Y25221143D02*
X28037971Y25149715D01*
X28037971Y25149715D02*
X27823685Y25149715D01*
X27823685Y25149715D02*
X27537971Y25221143D01*
X27537971Y25221143D02*
X27395114Y25292572D01*
X27395114Y25292572D02*
X27252257Y25435429D01*
X27252257Y25435429D02*
X27180828Y25649715D01*
X27180828Y25649715D02*
X27180828Y25792572D01*
X27180828Y25792572D02*
X27252257Y26006858D01*
X27252257Y26006858D02*
X27323685Y26078286D01*
X27180828Y26578286D02*
X27180828Y27578286D01*
X27180828Y27578286D02*
X28680828Y26578286D01*
X28680828Y26578286D02*
X28680828Y27578286D01*
X31095828Y18864001D02*
X30381542Y18364001D01*
X31095828Y18006858D02*
X29595828Y18006858D01*
X29595828Y18006858D02*
X29595828Y18578287D01*
X29595828Y18578287D02*
X29667257Y18721144D01*
X29667257Y18721144D02*
X29738685Y18792573D01*
X29738685Y18792573D02*
X29881542Y18864001D01*
X29881542Y18864001D02*
X30095828Y18864001D01*
X30095828Y18864001D02*
X30238685Y18792573D01*
X30238685Y18792573D02*
X30310114Y18721144D01*
X30310114Y18721144D02*
X30381542Y18578287D01*
X30381542Y18578287D02*
X30381542Y18006858D01*
X29595828Y19935430D02*
X30667257Y19935430D01*
X30667257Y19935430D02*
X30881542Y19864001D01*
X30881542Y19864001D02*
X31024400Y19721144D01*
X31024400Y19721144D02*
X31095828Y19506858D01*
X31095828Y19506858D02*
X31095828Y19364001D01*
X31095828Y21435430D02*
X31095828Y20578287D01*
X31095828Y21006858D02*
X29595828Y21006858D01*
X29595828Y21006858D02*
X29810114Y20864001D01*
X29810114Y20864001D02*
X29952971Y20721144D01*
X29952971Y20721144D02*
X30024400Y20578287D01*
X29738685Y22006858D02*
X29667257Y22078286D01*
X29667257Y22078286D02*
X29595828Y22221144D01*
X29595828Y22221144D02*
X29595828Y22578286D01*
X29595828Y22578286D02*
X29667257Y22721144D01*
X29667257Y22721144D02*
X29738685Y22792572D01*
X29738685Y22792572D02*
X29881542Y22864001D01*
X29881542Y22864001D02*
X30024400Y22864001D01*
X30024400Y22864001D02*
X30238685Y22792572D01*
X30238685Y22792572D02*
X31095828Y21935429D01*
X31095828Y21935429D02*
X31095828Y22864001D01*
X29595828Y23292572D02*
X31095828Y23792572D01*
X31095828Y23792572D02*
X29595828Y24292572D01*
X29595828Y25078286D02*
X29595828Y25221143D01*
X29595828Y25221143D02*
X29667257Y25364000D01*
X29667257Y25364000D02*
X29738685Y25435429D01*
X29738685Y25435429D02*
X29881542Y25506857D01*
X29881542Y25506857D02*
X30167257Y25578286D01*
X30167257Y25578286D02*
X30524400Y25578286D01*
X30524400Y25578286D02*
X30810114Y25506857D01*
X30810114Y25506857D02*
X30952971Y25435429D01*
X30952971Y25435429D02*
X31024400Y25364000D01*
X31024400Y25364000D02*
X31095828Y25221143D01*
X31095828Y25221143D02*
X31095828Y25078286D01*
X31095828Y25078286D02*
X31024400Y24935429D01*
X31024400Y24935429D02*
X30952971Y24864000D01*
X30952971Y24864000D02*
X30810114Y24792571D01*
X30810114Y24792571D02*
X30524400Y24721143D01*
X30524400Y24721143D02*
X30167257Y24721143D01*
X30167257Y24721143D02*
X29881542Y24792571D01*
X29881542Y24792571D02*
X29738685Y24864000D01*
X29738685Y24864000D02*
X29667257Y24935429D01*
X29667257Y24935429D02*
X29595828Y25078286D01*
X31095828Y27006857D02*
X31095828Y26149714D01*
X31095828Y26578285D02*
X29595828Y26578285D01*
X29595828Y26578285D02*
X29810114Y26435428D01*
X29810114Y26435428D02*
X29952971Y26292571D01*
X29952971Y26292571D02*
X30024400Y26149714D01*
X30667257Y27578285D02*
X30667257Y28292571D01*
X31095828Y27435428D02*
X29595828Y27935428D01*
X29595828Y27935428D02*
X31095828Y28435428D01*
X30636666Y5286195D02*
X30636666Y4357623D01*
X30636666Y4357623D02*
X30574761Y4171909D01*
X30574761Y4171909D02*
X30450952Y4048100D01*
X30450952Y4048100D02*
X30265237Y3986195D01*
X30265237Y3986195D02*
X30141428Y3986195D01*
X31193809Y4357623D02*
X31812856Y4357623D01*
X31069999Y3986195D02*
X31503332Y5286195D01*
X31503332Y5286195D02*
X31936666Y3986195D01*
X33112856Y4110004D02*
X33050952Y4048100D01*
X33050952Y4048100D02*
X32865237Y3986195D01*
X32865237Y3986195D02*
X32741428Y3986195D01*
X32741428Y3986195D02*
X32555714Y4048100D01*
X32555714Y4048100D02*
X32431904Y4171909D01*
X32431904Y4171909D02*
X32369999Y4295719D01*
X32369999Y4295719D02*
X32308095Y4543338D01*
X32308095Y4543338D02*
X32308095Y4729052D01*
X32308095Y4729052D02*
X32369999Y4976671D01*
X32369999Y4976671D02*
X32431904Y5100480D01*
X32431904Y5100480D02*
X32555714Y5224290D01*
X32555714Y5224290D02*
X32741428Y5286195D01*
X32741428Y5286195D02*
X32865237Y5286195D01*
X32865237Y5286195D02*
X33050952Y5224290D01*
X33050952Y5224290D02*
X33112856Y5162385D01*
X33669999Y3986195D02*
X33669999Y5286195D01*
X33669999Y4667147D02*
X34412856Y4667147D01*
X34412856Y3986195D02*
X34412856Y5286195D01*
X35279523Y5286195D02*
X35527142Y5286195D01*
X35527142Y5286195D02*
X35650952Y5224290D01*
X35650952Y5224290D02*
X35774761Y5100480D01*
X35774761Y5100480D02*
X35836666Y4852861D01*
X35836666Y4852861D02*
X35836666Y4419528D01*
X35836666Y4419528D02*
X35774761Y4171909D01*
X35774761Y4171909D02*
X35650952Y4048100D01*
X35650952Y4048100D02*
X35527142Y3986195D01*
X35527142Y3986195D02*
X35279523Y3986195D01*
X35279523Y3986195D02*
X35155714Y4048100D01*
X35155714Y4048100D02*
X35031904Y4171909D01*
X35031904Y4171909D02*
X34970000Y4419528D01*
X34970000Y4419528D02*
X34970000Y4852861D01*
X34970000Y4852861D02*
X35031904Y5100480D01*
X35031904Y5100480D02*
X35155714Y5224290D01*
X35155714Y5224290D02*
X35279523Y5286195D01*
X17033900Y18749870D02*
X17095804Y18935584D01*
X17095804Y18935584D02*
X17095804Y19245108D01*
X17095804Y19245108D02*
X17033900Y19368917D01*
X17033900Y19368917D02*
X16971995Y19430822D01*
X16971995Y19430822D02*
X16848185Y19492727D01*
X16848185Y19492727D02*
X16724376Y19492727D01*
X16724376Y19492727D02*
X16600566Y19430822D01*
X16600566Y19430822D02*
X16538661Y19368917D01*
X16538661Y19368917D02*
X16476757Y19245108D01*
X16476757Y19245108D02*
X16414852Y18997489D01*
X16414852Y18997489D02*
X16352947Y18873679D01*
X16352947Y18873679D02*
X16291042Y18811774D01*
X16291042Y18811774D02*
X16167233Y18749870D01*
X16167233Y18749870D02*
X16043423Y18749870D01*
X16043423Y18749870D02*
X15919614Y18811774D01*
X15919614Y18811774D02*
X15857709Y18873679D01*
X15857709Y18873679D02*
X15795804Y18997489D01*
X15795804Y18997489D02*
X15795804Y19307012D01*
X15795804Y19307012D02*
X15857709Y19492727D01*
X17095804Y20049869D02*
X15795804Y20049869D01*
X15795804Y20049869D02*
X15795804Y20359393D01*
X15795804Y20359393D02*
X15857709Y20545107D01*
X15857709Y20545107D02*
X15981519Y20668917D01*
X15981519Y20668917D02*
X16105328Y20730822D01*
X16105328Y20730822D02*
X16352947Y20792726D01*
X16352947Y20792726D02*
X16538661Y20792726D01*
X16538661Y20792726D02*
X16786280Y20730822D01*
X16786280Y20730822D02*
X16910090Y20668917D01*
X16910090Y20668917D02*
X17033900Y20545107D01*
X17033900Y20545107D02*
X17095804Y20359393D01*
X17095804Y20359393D02*
X17095804Y20049869D01*
X16724376Y21287965D02*
X16724376Y21907012D01*
X17095804Y21164155D02*
X15795804Y21597488D01*
X15795804Y21597488D02*
X17095804Y22030822D01*
X19573900Y18749870D02*
X19635804Y18935584D01*
X19635804Y18935584D02*
X19635804Y19245108D01*
X19635804Y19245108D02*
X19573900Y19368917D01*
X19573900Y19368917D02*
X19511995Y19430822D01*
X19511995Y19430822D02*
X19388185Y19492727D01*
X19388185Y19492727D02*
X19264376Y19492727D01*
X19264376Y19492727D02*
X19140566Y19430822D01*
X19140566Y19430822D02*
X19078661Y19368917D01*
X19078661Y19368917D02*
X19016757Y19245108D01*
X19016757Y19245108D02*
X18954852Y18997489D01*
X18954852Y18997489D02*
X18892947Y18873679D01*
X18892947Y18873679D02*
X18831042Y18811774D01*
X18831042Y18811774D02*
X18707233Y18749870D01*
X18707233Y18749870D02*
X18583423Y18749870D01*
X18583423Y18749870D02*
X18459614Y18811774D01*
X18459614Y18811774D02*
X18397709Y18873679D01*
X18397709Y18873679D02*
X18335804Y18997489D01*
X18335804Y18997489D02*
X18335804Y19307012D01*
X18335804Y19307012D02*
X18397709Y19492727D01*
X19635804Y20049869D02*
X18335804Y20049869D01*
X18335804Y20049869D02*
X18335804Y20359393D01*
X18335804Y20359393D02*
X18397709Y20545107D01*
X18397709Y20545107D02*
X18521519Y20668917D01*
X18521519Y20668917D02*
X18645328Y20730822D01*
X18645328Y20730822D02*
X18892947Y20792726D01*
X18892947Y20792726D02*
X19078661Y20792726D01*
X19078661Y20792726D02*
X19326280Y20730822D01*
X19326280Y20730822D02*
X19450090Y20668917D01*
X19450090Y20668917D02*
X19573900Y20545107D01*
X19573900Y20545107D02*
X19635804Y20359393D01*
X19635804Y20359393D02*
X19635804Y20049869D01*
X19264376Y21287965D02*
X19264376Y21907012D01*
X19635804Y21164155D02*
X18335804Y21597488D01*
X18335804Y21597488D02*
X19635804Y22030822D01*
X22113900Y18811775D02*
X22175804Y18997489D01*
X22175804Y18997489D02*
X22175804Y19307013D01*
X22175804Y19307013D02*
X22113900Y19430822D01*
X22113900Y19430822D02*
X22051995Y19492727D01*
X22051995Y19492727D02*
X21928185Y19554632D01*
X21928185Y19554632D02*
X21804376Y19554632D01*
X21804376Y19554632D02*
X21680566Y19492727D01*
X21680566Y19492727D02*
X21618661Y19430822D01*
X21618661Y19430822D02*
X21556757Y19307013D01*
X21556757Y19307013D02*
X21494852Y19059394D01*
X21494852Y19059394D02*
X21432947Y18935584D01*
X21432947Y18935584D02*
X21371042Y18873679D01*
X21371042Y18873679D02*
X21247233Y18811775D01*
X21247233Y18811775D02*
X21123423Y18811775D01*
X21123423Y18811775D02*
X20999614Y18873679D01*
X20999614Y18873679D02*
X20937709Y18935584D01*
X20937709Y18935584D02*
X20875804Y19059394D01*
X20875804Y19059394D02*
X20875804Y19368917D01*
X20875804Y19368917D02*
X20937709Y19554632D01*
X22051995Y20854631D02*
X22113900Y20792727D01*
X22113900Y20792727D02*
X22175804Y20607012D01*
X22175804Y20607012D02*
X22175804Y20483203D01*
X22175804Y20483203D02*
X22113900Y20297489D01*
X22113900Y20297489D02*
X21990090Y20173679D01*
X21990090Y20173679D02*
X21866280Y20111774D01*
X21866280Y20111774D02*
X21618661Y20049870D01*
X21618661Y20049870D02*
X21432947Y20049870D01*
X21432947Y20049870D02*
X21185328Y20111774D01*
X21185328Y20111774D02*
X21061519Y20173679D01*
X21061519Y20173679D02*
X20937709Y20297489D01*
X20937709Y20297489D02*
X20875804Y20483203D01*
X20875804Y20483203D02*
X20875804Y20607012D01*
X20875804Y20607012D02*
X20937709Y20792727D01*
X20937709Y20792727D02*
X20999614Y20854631D01*
X22175804Y22030822D02*
X22175804Y21411774D01*
X22175804Y21411774D02*
X20875804Y21411774D01*
X23477709Y19183203D02*
X23415804Y19059393D01*
X23415804Y19059393D02*
X23415804Y18873679D01*
X23415804Y18873679D02*
X23477709Y18687965D01*
X23477709Y18687965D02*
X23601519Y18564155D01*
X23601519Y18564155D02*
X23725328Y18502250D01*
X23725328Y18502250D02*
X23972947Y18440346D01*
X23972947Y18440346D02*
X24158661Y18440346D01*
X24158661Y18440346D02*
X24406280Y18502250D01*
X24406280Y18502250D02*
X24530090Y18564155D01*
X24530090Y18564155D02*
X24653900Y18687965D01*
X24653900Y18687965D02*
X24715804Y18873679D01*
X24715804Y18873679D02*
X24715804Y18997488D01*
X24715804Y18997488D02*
X24653900Y19183203D01*
X24653900Y19183203D02*
X24591995Y19245107D01*
X24591995Y19245107D02*
X24158661Y19245107D01*
X24158661Y19245107D02*
X24158661Y18997488D01*
X24715804Y19802250D02*
X23415804Y19802250D01*
X23415804Y19802250D02*
X24715804Y20545107D01*
X24715804Y20545107D02*
X23415804Y20545107D01*
X24715804Y21164155D02*
X23415804Y21164155D01*
X23415804Y21164155D02*
X23415804Y21473679D01*
X23415804Y21473679D02*
X23477709Y21659393D01*
X23477709Y21659393D02*
X23601519Y21783203D01*
X23601519Y21783203D02*
X23725328Y21845108D01*
X23725328Y21845108D02*
X23972947Y21907012D01*
X23972947Y21907012D02*
X24158661Y21907012D01*
X24158661Y21907012D02*
X24406280Y21845108D01*
X24406280Y21845108D02*
X24530090Y21783203D01*
X24530090Y21783203D02*
X24653900Y21659393D01*
X24653900Y21659393D02*
X24715804Y21473679D01*
X24715804Y21473679D02*
X24715804Y21164155D01*
X34875804Y21907013D02*
X34875804Y21164156D01*
X34875804Y21535584D02*
X33575804Y21535584D01*
X33575804Y21535584D02*
X33761519Y21411775D01*
X33761519Y21411775D02*
X33885328Y21287965D01*
X33885328Y21287965D02*
X33947233Y21164156D01*
X36115804Y21783203D02*
X36115804Y21535584D01*
X36115804Y21535584D02*
X36177709Y21411775D01*
X36177709Y21411775D02*
X36239614Y21349870D01*
X36239614Y21349870D02*
X36425328Y21226060D01*
X36425328Y21226060D02*
X36672947Y21164156D01*
X36672947Y21164156D02*
X37168185Y21164156D01*
X37168185Y21164156D02*
X37291995Y21226060D01*
X37291995Y21226060D02*
X37353900Y21287965D01*
X37353900Y21287965D02*
X37415804Y21411775D01*
X37415804Y21411775D02*
X37415804Y21659394D01*
X37415804Y21659394D02*
X37353900Y21783203D01*
X37353900Y21783203D02*
X37291995Y21845108D01*
X37291995Y21845108D02*
X37168185Y21907013D01*
X37168185Y21907013D02*
X36858661Y21907013D01*
X36858661Y21907013D02*
X36734852Y21845108D01*
X36734852Y21845108D02*
X36672947Y21783203D01*
X36672947Y21783203D02*
X36611042Y21659394D01*
X36611042Y21659394D02*
X36611042Y21411775D01*
X36611042Y21411775D02*
X36672947Y21287965D01*
X36672947Y21287965D02*
X36734852Y21226060D01*
X36734852Y21226060D02*
X36858661Y21164156D01*
X42481013Y18464195D02*
X41738156Y18464195D01*
X42109584Y18464195D02*
X42109584Y19764195D01*
X42109584Y19764195D02*
X41985775Y19578480D01*
X41985775Y19578480D02*
X41861965Y19454671D01*
X41861965Y19454671D02*
X41738156Y19392766D01*
X41738156Y17100385D02*
X41800060Y17162290D01*
X41800060Y17162290D02*
X41923870Y17224195D01*
X41923870Y17224195D02*
X42233394Y17224195D01*
X42233394Y17224195D02*
X42357203Y17162290D01*
X42357203Y17162290D02*
X42419108Y17100385D01*
X42419108Y17100385D02*
X42481013Y16976576D01*
X42481013Y16976576D02*
X42481013Y16852766D01*
X42481013Y16852766D02*
X42419108Y16667052D01*
X42419108Y16667052D02*
X41676251Y15924195D01*
X41676251Y15924195D02*
X42481013Y15924195D01*
X41676251Y14684195D02*
X42481013Y14684195D01*
X42481013Y14684195D02*
X42047679Y14188957D01*
X42047679Y14188957D02*
X42233394Y14188957D01*
X42233394Y14188957D02*
X42357203Y14127052D01*
X42357203Y14127052D02*
X42419108Y14065147D01*
X42419108Y14065147D02*
X42481013Y13941338D01*
X42481013Y13941338D02*
X42481013Y13631814D01*
X42481013Y13631814D02*
X42419108Y13508004D01*
X42419108Y13508004D02*
X42357203Y13446100D01*
X42357203Y13446100D02*
X42233394Y13384195D01*
X42233394Y13384195D02*
X41861965Y13384195D01*
X41861965Y13384195D02*
X41738156Y13446100D01*
X41738156Y13446100D02*
X41676251Y13508004D01*
X42357203Y11710861D02*
X42357203Y10844195D01*
X42047679Y12206100D02*
X41738156Y11277528D01*
X41738156Y11277528D02*
X42542917Y11277528D01*
X49639939Y19764195D02*
X49020891Y19764195D01*
X49020891Y19764195D02*
X48958987Y19145147D01*
X48958987Y19145147D02*
X49020891Y19207052D01*
X49020891Y19207052D02*
X49144701Y19268957D01*
X49144701Y19268957D02*
X49454225Y19268957D01*
X49454225Y19268957D02*
X49578034Y19207052D01*
X49578034Y19207052D02*
X49639939Y19145147D01*
X49639939Y19145147D02*
X49701844Y19021338D01*
X49701844Y19021338D02*
X49701844Y18711814D01*
X49701844Y18711814D02*
X49639939Y18588004D01*
X49639939Y18588004D02*
X49578034Y18526100D01*
X49578034Y18526100D02*
X49454225Y18464195D01*
X49454225Y18464195D02*
X49144701Y18464195D01*
X49144701Y18464195D02*
X49020891Y18526100D01*
X49020891Y18526100D02*
X48958987Y18588004D01*
X49578034Y17224195D02*
X49330415Y17224195D01*
X49330415Y17224195D02*
X49206606Y17162290D01*
X49206606Y17162290D02*
X49144701Y17100385D01*
X49144701Y17100385D02*
X49020891Y16914671D01*
X49020891Y16914671D02*
X48958987Y16667052D01*
X48958987Y16667052D02*
X48958987Y16171814D01*
X48958987Y16171814D02*
X49020891Y16048004D01*
X49020891Y16048004D02*
X49082796Y15986100D01*
X49082796Y15986100D02*
X49206606Y15924195D01*
X49206606Y15924195D02*
X49454225Y15924195D01*
X49454225Y15924195D02*
X49578034Y15986100D01*
X49578034Y15986100D02*
X49639939Y16048004D01*
X49639939Y16048004D02*
X49701844Y16171814D01*
X49701844Y16171814D02*
X49701844Y16481338D01*
X49701844Y16481338D02*
X49639939Y16605147D01*
X49639939Y16605147D02*
X49578034Y16667052D01*
X49578034Y16667052D02*
X49454225Y16728957D01*
X49454225Y16728957D02*
X49206606Y16728957D01*
X49206606Y16728957D02*
X49082796Y16667052D01*
X49082796Y16667052D02*
X49020891Y16605147D01*
X49020891Y16605147D02*
X48958987Y16481338D01*
X30791429Y3130385D02*
X30853333Y3192290D01*
X30853333Y3192290D02*
X30977143Y3254195D01*
X30977143Y3254195D02*
X31286667Y3254195D01*
X31286667Y3254195D02*
X31410476Y3192290D01*
X31410476Y3192290D02*
X31472381Y3130385D01*
X31472381Y3130385D02*
X31534286Y3006576D01*
X31534286Y3006576D02*
X31534286Y2882766D01*
X31534286Y2882766D02*
X31472381Y2697052D01*
X31472381Y2697052D02*
X30729524Y1954195D01*
X30729524Y1954195D02*
X31534286Y1954195D01*
X32339047Y3254195D02*
X32462857Y3254195D01*
X32462857Y3254195D02*
X32586666Y3192290D01*
X32586666Y3192290D02*
X32648571Y3130385D01*
X32648571Y3130385D02*
X32710476Y3006576D01*
X32710476Y3006576D02*
X32772381Y2758957D01*
X32772381Y2758957D02*
X32772381Y2449433D01*
X32772381Y2449433D02*
X32710476Y2201814D01*
X32710476Y2201814D02*
X32648571Y2078004D01*
X32648571Y2078004D02*
X32586666Y2016100D01*
X32586666Y2016100D02*
X32462857Y1954195D01*
X32462857Y1954195D02*
X32339047Y1954195D01*
X32339047Y1954195D02*
X32215238Y2016100D01*
X32215238Y2016100D02*
X32153333Y2078004D01*
X32153333Y2078004D02*
X32091428Y2201814D01*
X32091428Y2201814D02*
X32029524Y2449433D01*
X32029524Y2449433D02*
X32029524Y2758957D01*
X32029524Y2758957D02*
X32091428Y3006576D01*
X32091428Y3006576D02*
X32153333Y3130385D01*
X32153333Y3130385D02*
X32215238Y3192290D01*
X32215238Y3192290D02*
X32339047Y3254195D01*
X34010476Y1954195D02*
X33267619Y1954195D01*
X33639047Y1954195D02*
X33639047Y3254195D01*
X33639047Y3254195D02*
X33515238Y3068480D01*
X33515238Y3068480D02*
X33391428Y2944671D01*
X33391428Y2944671D02*
X33267619Y2882766D01*
X34443809Y3254195D02*
X35310475Y3254195D01*
X35310475Y3254195D02*
X34753333Y1954195D01*
D12*
X37058709Y28463857D02*
X37058709Y28178143D01*
X37058709Y28321000D02*
X36558709Y28321000D01*
X36558709Y28321000D02*
X36630138Y28273381D01*
X36630138Y28273381D02*
X36677757Y28225762D01*
X36677757Y28225762D02*
X36701566Y28178143D01*
D13*
X32432666Y6742780D02*
X32432666Y6028495D01*
X32432666Y6028495D02*
X32385047Y5885638D01*
X32385047Y5885638D02*
X32289809Y5790400D01*
X32289809Y5790400D02*
X32146952Y5742780D01*
X32146952Y5742780D02*
X32051714Y5742780D01*
X33051714Y6314209D02*
X32956476Y6361828D01*
X32956476Y6361828D02*
X32908857Y6409447D01*
X32908857Y6409447D02*
X32861238Y6504685D01*
X32861238Y6504685D02*
X32861238Y6552304D01*
X32861238Y6552304D02*
X32908857Y6647542D01*
X32908857Y6647542D02*
X32956476Y6695161D01*
X32956476Y6695161D02*
X33051714Y6742780D01*
X33051714Y6742780D02*
X33242190Y6742780D01*
X33242190Y6742780D02*
X33337428Y6695161D01*
X33337428Y6695161D02*
X33385047Y6647542D01*
X33385047Y6647542D02*
X33432666Y6552304D01*
X33432666Y6552304D02*
X33432666Y6504685D01*
X33432666Y6504685D02*
X33385047Y6409447D01*
X33385047Y6409447D02*
X33337428Y6361828D01*
X33337428Y6361828D02*
X33242190Y6314209D01*
X33242190Y6314209D02*
X33051714Y6314209D01*
X33051714Y6314209D02*
X32956476Y6266590D01*
X32956476Y6266590D02*
X32908857Y6218971D01*
X32908857Y6218971D02*
X32861238Y6123733D01*
X32861238Y6123733D02*
X32861238Y5933257D01*
X32861238Y5933257D02*
X32908857Y5838019D01*
X32908857Y5838019D02*
X32956476Y5790400D01*
X32956476Y5790400D02*
X33051714Y5742780D01*
X33051714Y5742780D02*
X33242190Y5742780D01*
X33242190Y5742780D02*
X33337428Y5790400D01*
X33337428Y5790400D02*
X33385047Y5838019D01*
X33385047Y5838019D02*
X33432666Y5933257D01*
X33432666Y5933257D02*
X33432666Y6123733D01*
X33432666Y6123733D02*
X33385047Y6218971D01*
X33385047Y6218971D02*
X33337428Y6266590D01*
X33337428Y6266590D02*
X33242190Y6314209D01*
X17192666Y6742780D02*
X17192666Y6028495D01*
X17192666Y6028495D02*
X17145047Y5885638D01*
X17145047Y5885638D02*
X17049809Y5790400D01*
X17049809Y5790400D02*
X16906952Y5742780D01*
X16906952Y5742780D02*
X16811714Y5742780D01*
X17716476Y5742780D02*
X17906952Y5742780D01*
X17906952Y5742780D02*
X18002190Y5790400D01*
X18002190Y5790400D02*
X18049809Y5838019D01*
X18049809Y5838019D02*
X18145047Y5980876D01*
X18145047Y5980876D02*
X18192666Y6171352D01*
X18192666Y6171352D02*
X18192666Y6552304D01*
X18192666Y6552304D02*
X18145047Y6647542D01*
X18145047Y6647542D02*
X18097428Y6695161D01*
X18097428Y6695161D02*
X18002190Y6742780D01*
X18002190Y6742780D02*
X17811714Y6742780D01*
X17811714Y6742780D02*
X17716476Y6695161D01*
X17716476Y6695161D02*
X17668857Y6647542D01*
X17668857Y6647542D02*
X17621238Y6552304D01*
X17621238Y6552304D02*
X17621238Y6314209D01*
X17621238Y6314209D02*
X17668857Y6218971D01*
X17668857Y6218971D02*
X17716476Y6171352D01*
X17716476Y6171352D02*
X17811714Y6123733D01*
X17811714Y6123733D02*
X18002190Y6123733D01*
X18002190Y6123733D02*
X18097428Y6171352D01*
X18097428Y6171352D02*
X18145047Y6218971D01*
X18145047Y6218971D02*
X18192666Y6314209D01*
D12*
X2301857Y18821290D02*
X2016143Y18821290D01*
X2159000Y18821290D02*
X2159000Y19321290D01*
X2159000Y19321290D02*
X2111381Y19249861D01*
X2111381Y19249861D02*
X2063762Y19202242D01*
X2063762Y19202242D02*
X2016143Y19178433D01*
D13*
%TO.C,J1*%
X12700000Y22860000D02*
X12700000Y27940000D01*
X15240000Y22860000D02*
X12700000Y22860000D01*
X12700000Y27940000D02*
X15240000Y27940000D01*
X15240000Y27940000D02*
X15240000Y22860000D01*
%TO.C,J2*%
X15240000Y22860000D02*
X15240000Y27940000D01*
X17780000Y22860000D02*
X15240000Y22860000D01*
X15240000Y27940000D02*
X17780000Y27940000D01*
X17780000Y27940000D02*
X17780000Y22860000D01*
%TO.C,J3*%
X17780000Y22860000D02*
X17780000Y27940000D01*
X20320000Y22860000D02*
X17780000Y22860000D01*
X17780000Y27940000D02*
X20320000Y27940000D01*
X20320000Y27940000D02*
X20320000Y22860000D01*
%TO.C,J4*%
X20320000Y22860000D02*
X20320000Y27940000D01*
X22860000Y22860000D02*
X20320000Y22860000D01*
X20320000Y27940000D02*
X22860000Y27940000D01*
X22860000Y27940000D02*
X22860000Y22860000D01*
%TO.C,J5*%
X22860000Y22860000D02*
X22860000Y27940000D01*
X25400000Y22860000D02*
X22860000Y22860000D01*
X22860000Y27940000D02*
X25400000Y27940000D01*
X25400000Y27940000D02*
X25400000Y22860000D01*
%TO.C,J6*%
X38100000Y27940000D02*
X38100000Y22860000D01*
X33020000Y27940000D02*
X38100000Y27940000D01*
X38100000Y22860000D02*
X33020000Y22860000D01*
X33020000Y22860000D02*
X33020000Y27940000D01*
%TO.C,J7*%
X10160000Y22860000D02*
X15240000Y22860000D01*
X10160000Y20320000D02*
X10160000Y22860000D01*
X15240000Y22860000D02*
X15240000Y20320000D01*
X15240000Y20320000D02*
X10160000Y20320000D01*
%TO.C,J10*%
X48260000Y17780000D02*
X43180000Y17780000D01*
X48260000Y20320000D02*
X48260000Y17780000D01*
X43180000Y17780000D02*
X43180000Y20320000D01*
X43180000Y20320000D02*
X48260000Y20320000D01*
%TO.C,J11*%
X48260000Y15240000D02*
X43180000Y15240000D01*
X48260000Y17780000D02*
X48260000Y15240000D01*
X43180000Y15240000D02*
X43180000Y17780000D01*
X43180000Y17780000D02*
X48260000Y17780000D01*
%TO.C,J8*%
X26369200Y-1613500D02*
X39569200Y-1613500D01*
X26369200Y-1613500D02*
X26369200Y16486500D01*
X39569200Y-1613500D02*
X39569200Y16486500D01*
X26369200Y386500D02*
X39569200Y386500D01*
X26369200Y16486500D02*
X39569200Y16486500D01*
%TO.C,J9*%
X11129200Y-1613500D02*
X24329200Y-1613500D01*
X11129200Y-1613500D02*
X11129200Y16486500D01*
X24329200Y-1613500D02*
X24329200Y16486500D01*
X11129200Y386500D02*
X24329200Y386500D01*
X11129200Y16486500D02*
X24329200Y16486500D01*
%TO.C,J12*%
X48260000Y12700000D02*
X43180000Y12700000D01*
X48260000Y15240000D02*
X48260000Y12700000D01*
X43180000Y12700000D02*
X43180000Y15240000D01*
X43180000Y15240000D02*
X48260000Y15240000D01*
%TO.C,J13*%
X48260000Y10160000D02*
X43180000Y10160000D01*
X48260000Y12700000D02*
X48260000Y10160000D01*
X43180000Y10160000D02*
X43180000Y12700000D01*
X43180000Y12700000D02*
X48260000Y12700000D01*
%TO.C,J14*%
X2540000Y20320000D02*
X7620000Y20320000D01*
X2540000Y10160000D02*
X2540000Y20320000D01*
X7620000Y20320000D02*
X7620000Y10160000D01*
X7620000Y10160000D02*
X2540000Y10160000D01*
%TD*%
D14*
%TO.C,J1*%
X13970000Y24130000D03*
X13970000Y26670000D03*
%TD*%
%TO.C,J2*%
X16510000Y24130000D03*
X16510000Y26670000D03*
%TD*%
%TO.C,J3*%
X19050000Y24130000D03*
X19050000Y26670000D03*
%TD*%
%TO.C,J4*%
X21590000Y24130000D03*
X21590000Y26670000D03*
%TD*%
%TO.C,J5*%
X24130000Y24130000D03*
X24130000Y26670000D03*
%TD*%
%TO.C,J6*%
X36830000Y26670000D03*
X36830000Y24130000D03*
X34290000Y26670000D03*
X34290000Y24130000D03*
%TD*%
%TO.C,J7*%
X11430000Y21590000D03*
X13970000Y21590000D03*
%TD*%
%TO.C,J10*%
X46990000Y19050000D03*
X44450000Y19050000D03*
%TD*%
%TO.C,J11*%
X46990000Y16510000D03*
X44450000Y16510000D03*
%TD*%
%TO.C,J12*%
X46990000Y13970000D03*
X44450000Y13970000D03*
%TD*%
%TO.C,J13*%
X46990000Y11430000D03*
X44450000Y11430000D03*
%TD*%
%TO.C,J14*%
X3810000Y19050000D03*
X6350000Y19050000D03*
X3810000Y16510000D03*
X6350000Y16510000D03*
X3810000Y13970000D03*
X6350000Y13970000D03*
X3810000Y11430000D03*
X6350000Y11430000D03*
%TD*%
M02*
