%TF.GenerationSoftware,KiCad,Pcbnew,7.0.11+1*%
%TF.CreationDate,2024-07-06T18:43:39+00:00*%
%TF.ProjectId,RJ12V01,524a3132-5630-4312-9e6b-696361645f70,REV*%
%TF.SameCoordinates,Original*%
%TF.FileFunction,Legend,Bot*%
%TF.FilePolarity,Positive*%
%FSLAX46Y46*%
G04 Gerber Fmt 4.6, Leading zero omitted, Abs format (unit mm)*
G04 Created by KiCad (PCBNEW 7.0.11+1) date 2024-07-06 18:43:39*
%MOMM*%
%LPD*%
G01*
G04 APERTURE LIST*
%ADD10C,0.109220*%
%ADD11C,0.150000*%
G04 APERTURE END LIST*
D10*
X21863896Y20840349D02*
X21887724Y20816522D01*
X21887724Y20816522D02*
X21959206Y20792694D01*
X21959206Y20792694D02*
X22006862Y20792694D01*
X22006862Y20792694D02*
X22078345Y20816522D01*
X22078345Y20816522D02*
X22126000Y20864177D01*
X22126000Y20864177D02*
X22149827Y20911832D01*
X22149827Y20911832D02*
X22173655Y21007142D01*
X22173655Y21007142D02*
X22173655Y21078625D01*
X22173655Y21078625D02*
X22149827Y21173936D01*
X22149827Y21173936D02*
X22126000Y21221591D01*
X22126000Y21221591D02*
X22078345Y21269246D01*
X22078345Y21269246D02*
X22006862Y21293074D01*
X22006862Y21293074D02*
X21959206Y21293074D01*
X21959206Y21293074D02*
X21887724Y21269246D01*
X21887724Y21269246D02*
X21863896Y21245419D01*
X21434999Y21126281D02*
X21434999Y20792694D01*
X21554137Y21316902D02*
X21673275Y20959487D01*
X21673275Y20959487D02*
X21363516Y20959487D01*
X22443621Y21491194D02*
X22729552Y21491194D01*
X22586586Y21491194D02*
X22586586Y21991574D01*
X22586586Y21991574D02*
X22634242Y21920091D01*
X22634242Y21920091D02*
X22681897Y21872436D01*
X22681897Y21872436D02*
X22729552Y21848608D01*
X22133862Y21991574D02*
X22086207Y21991574D01*
X22086207Y21991574D02*
X22038551Y21967746D01*
X22038551Y21967746D02*
X22014724Y21943919D01*
X22014724Y21943919D02*
X21990896Y21896263D01*
X21990896Y21896263D02*
X21967069Y21800953D01*
X21967069Y21800953D02*
X21967069Y21681815D01*
X21967069Y21681815D02*
X21990896Y21586504D01*
X21990896Y21586504D02*
X22014724Y21538849D01*
X22014724Y21538849D02*
X22038551Y21515022D01*
X22038551Y21515022D02*
X22086207Y21491194D01*
X22086207Y21491194D02*
X22133862Y21491194D01*
X22133862Y21491194D02*
X22181517Y21515022D01*
X22181517Y21515022D02*
X22205345Y21538849D01*
X22205345Y21538849D02*
X22229172Y21586504D01*
X22229172Y21586504D02*
X22253000Y21681815D01*
X22253000Y21681815D02*
X22253000Y21800953D01*
X22253000Y21800953D02*
X22229172Y21896263D01*
X22229172Y21896263D02*
X22205345Y21943919D01*
X22205345Y21943919D02*
X22181517Y21967746D01*
X22181517Y21967746D02*
X22133862Y21991574D01*
X21538172Y21824781D02*
X21538172Y21491194D01*
X21752620Y21824781D02*
X21752620Y21562677D01*
X21752620Y21562677D02*
X21728793Y21515022D01*
X21728793Y21515022D02*
X21681138Y21491194D01*
X21681138Y21491194D02*
X21609655Y21491194D01*
X21609655Y21491194D02*
X21561999Y21515022D01*
X21561999Y21515022D02*
X21538172Y21538849D01*
X21133102Y21753298D02*
X21299895Y21753298D01*
X21299895Y21491194D02*
X21299895Y21991574D01*
X21299895Y21991574D02*
X21061619Y21991574D01*
D11*
X26870819Y16486094D02*
X25870819Y16486094D01*
X25870819Y16486094D02*
X25870819Y16247999D01*
X25870819Y16247999D02*
X25918438Y16105142D01*
X25918438Y16105142D02*
X26013676Y16009904D01*
X26013676Y16009904D02*
X26108914Y15962285D01*
X26108914Y15962285D02*
X26299390Y15914666D01*
X26299390Y15914666D02*
X26442247Y15914666D01*
X26442247Y15914666D02*
X26632723Y15962285D01*
X26632723Y15962285D02*
X26727961Y16009904D01*
X26727961Y16009904D02*
X26823200Y16105142D01*
X26823200Y16105142D02*
X26870819Y16247999D01*
X26870819Y16247999D02*
X26870819Y16486094D01*
X25966057Y15533713D02*
X25918438Y15486094D01*
X25918438Y15486094D02*
X25870819Y15390856D01*
X25870819Y15390856D02*
X25870819Y15152761D01*
X25870819Y15152761D02*
X25918438Y15057523D01*
X25918438Y15057523D02*
X25966057Y15009904D01*
X25966057Y15009904D02*
X26061295Y14962285D01*
X26061295Y14962285D02*
X26156533Y14962285D01*
X26156533Y14962285D02*
X26299390Y15009904D01*
X26299390Y15009904D02*
X26870819Y15581332D01*
X26870819Y15581332D02*
X26870819Y14962285D01*
X24584819Y16486094D02*
X23584819Y16486094D01*
X23584819Y16486094D02*
X23584819Y16247999D01*
X23584819Y16247999D02*
X23632438Y16105142D01*
X23632438Y16105142D02*
X23727676Y16009904D01*
X23727676Y16009904D02*
X23822914Y15962285D01*
X23822914Y15962285D02*
X24013390Y15914666D01*
X24013390Y15914666D02*
X24156247Y15914666D01*
X24156247Y15914666D02*
X24346723Y15962285D01*
X24346723Y15962285D02*
X24441961Y16009904D01*
X24441961Y16009904D02*
X24537200Y16105142D01*
X24537200Y16105142D02*
X24584819Y16247999D01*
X24584819Y16247999D02*
X24584819Y16486094D01*
X23584819Y15581332D02*
X23584819Y14962285D01*
X23584819Y14962285D02*
X23965771Y15295618D01*
X23965771Y15295618D02*
X23965771Y15152761D01*
X23965771Y15152761D02*
X24013390Y15057523D01*
X24013390Y15057523D02*
X24061009Y15009904D01*
X24061009Y15009904D02*
X24156247Y14962285D01*
X24156247Y14962285D02*
X24394342Y14962285D01*
X24394342Y14962285D02*
X24489580Y15009904D01*
X24489580Y15009904D02*
X24537200Y15057523D01*
X24537200Y15057523D02*
X24584819Y15152761D01*
X24584819Y15152761D02*
X24584819Y15438475D01*
X24584819Y15438475D02*
X24537200Y15533713D01*
X24537200Y15533713D02*
X24489580Y15581332D01*
D10*
X17609396Y18760694D02*
X17776189Y18998970D01*
X17895327Y18760694D02*
X17895327Y19261074D01*
X17895327Y19261074D02*
X17704706Y19261074D01*
X17704706Y19261074D02*
X17657051Y19237246D01*
X17657051Y19237246D02*
X17633224Y19213419D01*
X17633224Y19213419D02*
X17609396Y19165763D01*
X17609396Y19165763D02*
X17609396Y19094281D01*
X17609396Y19094281D02*
X17633224Y19046625D01*
X17633224Y19046625D02*
X17657051Y19022798D01*
X17657051Y19022798D02*
X17704706Y18998970D01*
X17704706Y18998970D02*
X17895327Y18998970D01*
X17442603Y19261074D02*
X17132844Y19261074D01*
X17132844Y19261074D02*
X17299637Y19070453D01*
X17299637Y19070453D02*
X17228154Y19070453D01*
X17228154Y19070453D02*
X17180499Y19046625D01*
X17180499Y19046625D02*
X17156671Y19022798D01*
X17156671Y19022798D02*
X17132844Y18975142D01*
X17132844Y18975142D02*
X17132844Y18856004D01*
X17132844Y18856004D02*
X17156671Y18808349D01*
X17156671Y18808349D02*
X17180499Y18784522D01*
X17180499Y18784522D02*
X17228154Y18760694D01*
X17228154Y18760694D02*
X17371120Y18760694D01*
X17371120Y18760694D02*
X17418775Y18784522D01*
X17418775Y18784522D02*
X17442603Y18808349D01*
X17950845Y19459194D02*
X18236776Y19459194D01*
X18093810Y19459194D02*
X18093810Y19959574D01*
X18093810Y19959574D02*
X18141466Y19888091D01*
X18141466Y19888091D02*
X18189121Y19840436D01*
X18189121Y19840436D02*
X18236776Y19816608D01*
X17641086Y19959574D02*
X17593431Y19959574D01*
X17593431Y19959574D02*
X17545775Y19935746D01*
X17545775Y19935746D02*
X17521948Y19911919D01*
X17521948Y19911919D02*
X17498120Y19864263D01*
X17498120Y19864263D02*
X17474293Y19768953D01*
X17474293Y19768953D02*
X17474293Y19649815D01*
X17474293Y19649815D02*
X17498120Y19554504D01*
X17498120Y19554504D02*
X17521948Y19506849D01*
X17521948Y19506849D02*
X17545775Y19483022D01*
X17545775Y19483022D02*
X17593431Y19459194D01*
X17593431Y19459194D02*
X17641086Y19459194D01*
X17641086Y19459194D02*
X17688741Y19483022D01*
X17688741Y19483022D02*
X17712569Y19506849D01*
X17712569Y19506849D02*
X17736396Y19554504D01*
X17736396Y19554504D02*
X17760224Y19649815D01*
X17760224Y19649815D02*
X17760224Y19768953D01*
X17760224Y19768953D02*
X17736396Y19864263D01*
X17736396Y19864263D02*
X17712569Y19911919D01*
X17712569Y19911919D02*
X17688741Y19935746D01*
X17688741Y19935746D02*
X17641086Y19959574D01*
X17259844Y19459194D02*
X17259844Y19959574D01*
X17212189Y19649815D02*
X17069223Y19459194D01*
X17069223Y19792781D02*
X17259844Y19602160D01*
X20911396Y19395694D02*
X21078189Y19633970D01*
X21197327Y19395694D02*
X21197327Y19896074D01*
X21197327Y19896074D02*
X21006706Y19896074D01*
X21006706Y19896074D02*
X20959051Y19872246D01*
X20959051Y19872246D02*
X20935224Y19848419D01*
X20935224Y19848419D02*
X20911396Y19800763D01*
X20911396Y19800763D02*
X20911396Y19729281D01*
X20911396Y19729281D02*
X20935224Y19681625D01*
X20935224Y19681625D02*
X20959051Y19657798D01*
X20959051Y19657798D02*
X21006706Y19633970D01*
X21006706Y19633970D02*
X21197327Y19633970D01*
X20458671Y19896074D02*
X20696947Y19896074D01*
X20696947Y19896074D02*
X20720775Y19657798D01*
X20720775Y19657798D02*
X20696947Y19681625D01*
X20696947Y19681625D02*
X20649292Y19705453D01*
X20649292Y19705453D02*
X20530154Y19705453D01*
X20530154Y19705453D02*
X20482499Y19681625D01*
X20482499Y19681625D02*
X20458671Y19657798D01*
X20458671Y19657798D02*
X20434844Y19610142D01*
X20434844Y19610142D02*
X20434844Y19491004D01*
X20434844Y19491004D02*
X20458671Y19443349D01*
X20458671Y19443349D02*
X20482499Y19419522D01*
X20482499Y19419522D02*
X20530154Y19395694D01*
X20530154Y19395694D02*
X20649292Y19395694D01*
X20649292Y19395694D02*
X20696947Y19419522D01*
X20696947Y19419522D02*
X20720775Y19443349D01*
X20998845Y18697194D02*
X21284776Y18697194D01*
X21141810Y18697194D02*
X21141810Y19197574D01*
X21141810Y19197574D02*
X21189466Y19126091D01*
X21189466Y19126091D02*
X21237121Y19078436D01*
X21237121Y19078436D02*
X21284776Y19054608D01*
X20689086Y19197574D02*
X20641431Y19197574D01*
X20641431Y19197574D02*
X20593775Y19173746D01*
X20593775Y19173746D02*
X20569948Y19149919D01*
X20569948Y19149919D02*
X20546120Y19102263D01*
X20546120Y19102263D02*
X20522293Y19006953D01*
X20522293Y19006953D02*
X20522293Y18887815D01*
X20522293Y18887815D02*
X20546120Y18792504D01*
X20546120Y18792504D02*
X20569948Y18744849D01*
X20569948Y18744849D02*
X20593775Y18721022D01*
X20593775Y18721022D02*
X20641431Y18697194D01*
X20641431Y18697194D02*
X20689086Y18697194D01*
X20689086Y18697194D02*
X20736741Y18721022D01*
X20736741Y18721022D02*
X20760569Y18744849D01*
X20760569Y18744849D02*
X20784396Y18792504D01*
X20784396Y18792504D02*
X20808224Y18887815D01*
X20808224Y18887815D02*
X20808224Y19006953D01*
X20808224Y19006953D02*
X20784396Y19102263D01*
X20784396Y19102263D02*
X20760569Y19149919D01*
X20760569Y19149919D02*
X20736741Y19173746D01*
X20736741Y19173746D02*
X20689086Y19197574D01*
X20307844Y18697194D02*
X20307844Y19197574D01*
X20260189Y18887815D02*
X20117223Y18697194D01*
X20117223Y19030781D02*
X20307844Y18840160D01*
D11*
%TO.C,C4*%
X20256500Y22098000D02*
X20256500Y20574000D01*
X20256500Y20574000D02*
X21272500Y20574000D01*
X21272500Y22098000D02*
X20256500Y22098000D01*
X22288500Y20574000D02*
X23304500Y20574000D01*
X23304500Y22098000D02*
X22288500Y22098000D01*
X23304500Y20574000D02*
X23304500Y22098000D01*
X20256500Y22098000D02*
G75*
G03*
X20002500Y22098000I-127000J0D01*
G01*
X20002500Y22098000D02*
G75*
G03*
X20256500Y22098000I127000J0D01*
G01*
%TO.C,D2*%
X25572720Y12473940D02*
X27274520Y12473940D01*
X27274520Y12473940D02*
X27274520Y14571980D01*
X25572720Y14571980D02*
X25572720Y12473940D01*
X27274520Y14571980D02*
X25572720Y14571980D01*
%TO.C,D3*%
X23279100Y12412980D02*
X24980900Y12412980D01*
X24980900Y12412980D02*
X24980900Y14511020D01*
X23279100Y14511020D02*
X23279100Y12412980D01*
X24980900Y14511020D02*
X23279100Y14511020D01*
%TO.C,R3*%
X16002000Y20066000D02*
X16002000Y18542000D01*
X16002000Y18542000D02*
X17018000Y18542000D01*
X17018000Y20066000D02*
X16002000Y20066000D01*
X18034000Y18542000D02*
X19050000Y18542000D01*
X19050000Y20066000D02*
X18034000Y20066000D01*
X19050000Y18542000D02*
X19050000Y20066000D01*
X16002000Y20066000D02*
G75*
G03*
X15748000Y20066000I-127000J0D01*
G01*
X15748000Y20066000D02*
G75*
G03*
X16002000Y20066000I127000J0D01*
G01*
%TO.C,R5*%
X22352000Y18542000D02*
X22352000Y20066000D01*
X22352000Y20066000D02*
X21336000Y20066000D01*
X21336000Y18542000D02*
X22352000Y18542000D01*
X20320000Y20066000D02*
X19304000Y20066000D01*
X19304000Y18542000D02*
X20320000Y18542000D01*
X19304000Y20066000D02*
X19304000Y18542000D01*
X22606000Y18542000D02*
G75*
G03*
X22352000Y18542000I-127000J0D01*
G01*
X22352000Y18542000D02*
G75*
G03*
X22606000Y18542000I127000J0D01*
G01*
%TD*%
M02*
